<svg width="1299" height="790" viewBox="0 0 1299 790" fill="none" xmlns="http://www.w3.org/2000/svg">
<path fill-rule="evenodd" clip-rule="evenodd" d="M846.69 358.971L983.72 360.085L1007.11 366.77L1023.83 376.796L1038.31 387.937L1050.56 404.648L1057.25 419.131L1065.05 443.64V483.746L1060.59 500.457L1049.45 522.739L1033.85 540.564L1019.37 550.59L1004.89 557.275L984.834 561.731L967.009 562.845H922.446V656.427H846.69V358.971ZM965.895 421.359H922.446V501.572L965.895 500.457L979.263 493.773L987.062 483.746L989.29 474.834V446.982L987.062 436.956L979.263 426.929L965.895 421.359Z" fill="#00ADEF"/>
<path d="M729.713 201.888L788.758 19.1813L846.69 201.888H825.522V558.389L822.18 573.986L814.382 591.811L803.241 607.408L790.986 618.548L777.618 626.347L762.021 633.031L748.652 637.487L729.713 639.716H690.72L672.895 637.487L656.184 633.031L641.702 626.347L628.333 617.434L616.078 606.294L608.28 597.381L603.823 589.583L598.253 577.328L594.911 566.187L592.683 556.161V337.804H667.325V533.879L668.439 543.906L670.667 551.704L675.124 560.617L679.58 566.187L684.036 570.644L690.72 573.986L701.861 577.328H717.458L726.371 575.1L735.283 569.529L741.967 561.731L746.424 555.047L749.766 546.134V201.888H729.713Z" fill="#00ADEF"/>
<path d="M540.322 303.268H649.191L738.625 5.81251H660.641L598.253 230.854H590.455L528.067 5.81251H451.196L540.322 303.268Z" fill="#001A72"/>
<path d="M450.082 289.899L437.828 235.31L422.231 239.766L407.748 243.108L389.923 246.451H364.299L349.817 243.108L336.448 236.424L326.421 227.511L319.737 217.485L315.281 205.23L311.938 188.519V120.561L314.166 107.192L318.623 94.9377L325.307 84.9111L334.22 75.9986L343.132 71.5424L353.159 67.0861L366.528 64.858H392.151L405.52 67.0861L427.801 72.6564L441.17 13.611L425.573 8.04064L411.09 4.69845L392.151 1.35625L353.159 0.242188L334.22 2.47032L317.509 6.92658L303.026 12.4969L289.657 19.1813L278.516 26.9798L269.604 34.7782L262.919 42.5767L256.235 51.4892L251.779 60.4017L247.323 70.4283L245.094 78.2267L241.752 89.3674L239.524 101.622L236.182 122.789V184.063L238.41 204.116L240.638 220.827L243.98 234.196L247.323 243.108L249.551 249.793L254.007 257.591L259.577 267.618L267.376 276.53L276.288 284.329L287.429 292.127L298.57 296.584L313.052 301.04L328.649 305.496L345.36 308.838L362.071 309.952H385.467L401.064 307.724L414.432 304.382L426.687 301.04L440.056 295.469L450.082 289.899Z" fill="#001A72"/>
<path d="M533.637 610.75L541.436 557.275H525.839L518.04 555.047L511.356 550.59L505.786 542.792L503.558 533.879V476.468H536.979V423.587H502.443V366.77L438.942 380.138V423.587H416.66V476.468H438.942V551.704L440.056 559.503L442.284 570.644L445.626 578.442L451.196 587.355L456.767 594.039L464.565 599.609L471.25 604.065L479.048 606.294L487.961 608.522L497.987 609.636L512.47 610.75H533.637Z" fill="#001A72"/>
<path d="M329.763 606.294H393.265V423.979H329.763V606.294Z" fill="#001A72"/>
<path d="M326.421 363.427L328.649 356.743L330.877 352.287L334.22 348.945L337.562 346.716L340.904 344.488L344.246 343.374L348.702 342.26L353.159 341.146H373.212L379.896 343.374L384.353 345.602L388.809 348.945L392.151 352.287L394.379 355.629L395.493 358.971L396.607 363.427V375.682L395.493 383.481L392.151 390.165L388.809 394.621L384.353 397.963L378.782 401.306L374.326 402.42H353.159L345.36 401.306L338.676 397.963L334.22 394.621L330.877 390.165L328.649 386.823L326.421 382.367V363.427Z" fill="#001A72"/>
<path d="M7.48652 765.594V699.285L15.5969 699.374C17.112 699.374 18.642 699.329 20.1869 699.24C21.7614 699.121 23.4548 699.017 25.267 698.928C27.0792 698.809 29.1142 698.75 31.3721 698.75C37.5217 698.75 42.4682 699.448 46.2114 700.844C49.9547 702.211 52.6582 704.172 54.3218 706.727C56.0152 709.252 56.8619 712.267 56.8619 715.773C56.8619 718.12 56.4905 720.303 55.7478 722.323C55.0348 724.314 53.9356 726.037 52.4502 727.493C50.9648 728.919 49.108 729.944 46.8799 730.568C49.4348 730.894 51.7223 731.711 53.7425 733.018C55.7924 734.326 57.3966 736.049 58.5553 738.188C59.7436 740.297 60.3378 742.748 60.3378 745.541C60.3378 749.581 59.5208 753.161 57.8868 756.28C56.2529 759.37 53.4454 761.806 49.4645 763.588C45.4836 765.341 39.9578 766.218 32.8872 766.218C29.8272 766.218 26.6781 766.129 23.4399 765.95C20.2314 765.802 17.7062 765.683 15.8643 765.594H7.48652ZM23.9747 726.29C24.3312 726.349 24.7917 726.408 25.3561 726.468C25.9206 726.497 26.5148 726.527 27.1386 726.557C27.7922 726.587 28.4012 726.616 28.9657 726.646C29.5302 726.646 30.0055 726.646 30.3917 726.646C33.927 726.646 36.571 725.963 38.3238 724.596C40.1063 723.2 40.9976 720.764 40.9976 717.288C40.9976 714.525 40.0172 712.609 38.0565 711.539C36.1254 710.44 33.3328 709.89 29.6787 709.89C29.2628 709.89 28.6538 709.905 27.8516 709.935C27.0495 709.965 26.2622 710.024 25.4898 710.113C24.7471 710.173 24.2421 710.277 23.9747 710.425V726.29ZM23.9747 754.364C24.3609 754.602 25.0293 754.795 25.98 754.943C26.9307 755.092 27.9556 755.196 29.0548 755.255C30.1837 755.315 31.1938 755.344 32.0851 755.344C35.8878 755.344 38.7249 754.602 40.5965 753.116C42.4682 751.601 43.404 749.106 43.404 745.63C43.404 742.778 42.4682 740.609 40.5965 739.124C38.7546 737.638 35.7392 736.895 31.5503 736.895C31.0156 736.895 30.3768 736.91 29.6341 736.94C28.8914 736.94 28.1339 736.955 27.3614 736.985C26.589 737.014 25.8909 737.059 25.267 737.118C24.6728 737.148 24.2421 737.193 23.9747 737.252V754.364ZM99.0954 766.307C94.5203 766.307 90.6285 765.609 87.42 764.212C84.2412 762.786 81.6863 760.84 79.7552 758.375C77.8242 755.909 76.4279 753.087 75.5663 749.908C74.7048 746.699 74.2889 743.312 74.3186 739.747C74.4077 734.459 75.5515 730.003 77.7499 726.379C79.9483 722.754 82.9637 720.006 86.7961 718.135C90.6285 716.263 95.0254 715.327 99.9867 715.327C106.107 715.327 110.979 716.545 114.603 718.981C118.257 721.417 120.872 724.641 122.446 728.651C124.021 732.662 124.763 737.044 124.674 741.797C124.615 747.115 123.486 751.601 121.288 755.255C119.119 758.88 116.118 761.628 112.286 763.499C108.454 765.371 104.057 766.307 99.0954 766.307ZM99.4519 755.166C102.631 755.166 104.829 754.007 106.047 751.69C107.295 749.343 107.919 745.808 107.919 741.084C107.919 738.411 107.666 735.974 107.161 733.776C106.656 731.548 105.81 729.78 104.621 728.473C103.433 727.136 101.799 726.468 99.7193 726.468C96.4811 726.468 94.2232 727.641 92.9458 729.988C91.698 732.335 91.0741 735.767 91.0741 740.282C91.0741 743.015 91.3267 745.511 91.8317 747.769C92.3664 750.027 93.2428 751.824 94.4609 753.161C95.6789 754.498 97.3426 755.166 99.4519 755.166ZM161.95 766.307C157.374 766.307 153.483 765.609 150.274 764.212C147.095 762.786 144.54 760.84 142.609 758.375C140.678 755.909 139.282 753.087 138.421 749.908C137.559 746.699 137.143 743.312 137.173 739.747C137.262 734.459 138.406 730.003 140.604 726.379C142.802 722.754 145.818 720.006 149.65 718.135C153.483 716.263 157.88 715.327 162.841 715.327C168.961 715.327 173.833 716.545 177.457 718.981C181.111 721.417 183.726 724.641 185.3 728.651C186.875 732.662 187.618 737.044 187.528 741.797C187.469 747.115 186.34 751.601 184.142 755.255C181.973 758.88 178.972 761.628 175.14 763.499C171.308 765.371 166.911 766.307 161.95 766.307ZM162.306 755.166C165.485 755.166 167.683 754.007 168.901 751.69C170.149 749.343 170.773 745.808 170.773 741.084C170.773 738.411 170.52 735.974 170.015 733.776C169.51 731.548 168.664 729.78 167.475 728.473C166.287 727.136 164.653 726.468 162.573 726.468C159.335 726.468 157.077 727.641 155.8 729.988C154.552 732.335 153.928 735.767 153.928 740.282C153.928 743.015 154.181 745.511 154.686 747.769C155.221 750.027 156.097 751.824 157.315 753.161C158.533 754.498 160.197 755.166 162.306 755.166ZM202.056 762.296L203.66 751.155C204.135 751.571 205.116 752.136 206.601 752.849C208.116 753.532 209.899 754.156 211.949 754.72C213.999 755.255 216.108 755.523 218.277 755.523C220.861 755.552 222.703 755.285 223.802 754.72C224.931 754.126 225.496 753.205 225.496 751.958C225.496 751.096 225.095 750.353 224.293 749.729C223.491 749.076 222.406 748.467 221.04 747.902C219.673 747.338 218.158 746.759 216.494 746.164C212.87 744.857 209.988 743.416 207.849 741.842C205.74 740.267 204.225 738.5 203.304 736.539C202.383 734.548 201.937 732.291 201.967 729.765C201.967 726.557 202.888 723.883 204.73 721.744C206.601 719.605 209.097 718.001 212.216 716.931C215.336 715.862 218.782 715.327 222.555 715.327C226.625 715.327 230.026 715.684 232.76 716.397C235.493 717.08 237.409 717.734 238.508 718.357L237.082 729.676C236.488 729.142 235.552 728.577 234.275 727.983C232.997 727.389 231.556 726.884 229.952 726.468C228.348 726.052 226.744 725.844 225.139 725.844C222.376 725.844 220.416 726.126 219.257 726.691C218.128 727.255 217.564 728.102 217.564 729.231C217.564 730.568 218.173 731.548 219.391 732.172C220.609 732.796 222.525 733.598 225.139 734.578C229.061 736.004 232.21 737.445 234.587 738.901C236.993 740.356 238.731 742.005 239.8 743.847C240.9 745.689 241.449 747.917 241.449 750.532C241.449 755.701 239.533 759.622 235.701 762.296C231.898 764.97 226.833 766.307 220.505 766.307C217.772 766.307 215.172 766.084 212.706 765.638C210.241 765.222 208.072 764.702 206.2 764.079C204.358 763.455 202.977 762.861 202.056 762.296ZM274.483 766.307C270.918 766.307 268.066 765.713 265.927 764.524C263.818 763.336 262.288 761.553 261.337 759.177C260.416 756.77 259.956 753.77 259.956 750.175V726.557H254.252V718.001C256.45 717.377 258.263 716.738 259.689 716.085C261.115 715.401 262.154 714.376 262.808 713.01C263.135 712.327 263.491 711.51 263.877 710.559C264.264 709.608 264.665 708.613 265.081 707.573C265.497 706.533 265.898 705.553 266.284 704.632H276.088V715.951H288.922V726.557H276.088V744.204C276.088 747.293 276.251 749.551 276.578 750.977C276.934 752.403 277.528 753.309 278.36 753.696C279.192 754.082 280.336 754.275 281.792 754.275C282.534 754.275 283.381 754.186 284.332 754.007C285.282 753.8 286.188 753.547 287.05 753.25C287.912 752.953 288.595 752.641 289.1 752.314L290.972 761.227C290.199 761.999 288.966 762.786 287.273 763.588C285.609 764.361 283.663 765.014 281.435 765.549C279.207 766.054 276.89 766.307 274.483 766.307ZM307.724 765.594V715.951H323.855V765.594H307.724ZM315.032 709.98C312.447 709.98 310.308 709.207 308.615 707.662C306.951 706.088 306.119 704.097 306.119 701.691C306.119 700.057 306.565 698.557 307.456 697.19C308.347 695.824 309.521 694.739 310.977 693.937C312.462 693.105 314.081 692.689 315.834 692.689C318.478 692.689 320.602 693.462 322.206 695.007C323.84 696.522 324.657 698.512 324.657 700.978C324.657 703.414 323.722 705.523 321.85 707.306C319.978 709.088 317.706 709.98 315.032 709.98ZM344.898 765.594V715.951H359.604L359.96 721.744C361 720.704 362.366 719.694 364.06 718.714C365.753 717.734 367.64 716.917 369.719 716.263C371.799 715.609 373.953 715.268 376.181 715.238C381.231 715.149 385.019 716.53 387.544 719.382C390.069 722.205 391.332 727.181 391.332 734.311V765.594H375.2V737.252C375.2 733.628 374.74 731.147 373.819 729.81C372.898 728.443 371.249 727.805 368.873 727.894C368.1 727.894 367.239 728.013 366.288 728.25C365.337 728.488 364.387 728.844 363.436 729.32C362.515 729.795 361.683 730.389 360.94 731.102V765.594H344.898ZM433.063 788.053C424.299 787.964 417.986 786.568 414.124 783.864C410.291 781.191 408.375 777.566 408.375 772.991C408.375 771.298 408.761 769.753 409.534 768.357C410.336 766.99 411.509 765.802 413.054 764.792C414.599 763.782 416.515 762.979 418.803 762.385L427.448 762.92C427.032 763.247 426.527 763.722 425.933 764.346C425.339 764.94 424.819 765.713 424.373 766.663C423.928 767.614 423.705 768.773 423.705 770.139C423.705 771.625 423.972 773.065 424.507 774.462C425.071 775.888 426.081 777.046 427.537 777.938C429.023 778.859 431.162 779.319 433.954 779.319C436.123 779.319 438.054 779.067 439.747 778.561C441.47 778.086 442.822 777.314 443.802 776.244C444.783 775.175 445.273 773.764 445.273 772.011C445.273 770.733 445.05 769.575 444.605 768.535C444.159 767.495 443.253 766.663 441.886 766.039C440.549 765.445 438.529 765.148 435.826 765.148H425.042C424.299 765.148 423.675 765.029 423.17 764.792C422.665 764.554 422.071 764.376 421.387 764.257C420.645 764.079 420.199 763.93 420.051 763.811C419.902 763.692 419.427 763.574 418.625 763.455C416.396 763.009 414.733 762.296 413.634 761.316C412.534 760.335 412 758.85 412.029 756.859C412.059 755.701 412.267 754.468 412.653 753.161C413.039 751.854 413.812 750.606 414.97 749.418C416.159 748.199 417.941 747.175 420.318 746.343L428.963 747.59C427.686 748.066 426.78 748.764 426.245 749.685C425.74 750.576 425.487 751.423 425.487 752.225C425.487 753.413 425.948 754.245 426.869 754.72C427.819 755.196 429.468 755.433 431.815 755.433H440.817C444.679 755.433 447.887 755.79 450.442 756.503C453.027 757.216 455.077 758.196 456.592 759.444C458.107 760.662 459.177 762.073 459.8 763.678C460.454 765.282 460.781 766.96 460.781 768.713C460.781 772.011 460.008 774.878 458.464 777.314C456.948 779.75 454.869 781.755 452.225 783.33C449.61 784.934 446.64 786.122 443.312 786.895C440.015 787.697 436.598 788.083 433.063 788.053ZM432.083 748.927C427.656 748.927 423.794 748.303 420.496 747.056C417.199 745.778 414.629 743.907 412.787 741.441C410.975 738.975 410.069 735.945 410.069 732.35C410.069 728.755 410.945 725.695 412.698 723.17C414.48 720.615 417.006 718.669 420.273 717.332C423.571 715.996 427.507 715.327 432.083 715.327C436.747 715.327 440.743 715.996 444.07 717.332C447.427 718.64 449.997 720.541 451.779 723.036C453.562 725.532 454.453 728.547 454.453 732.083C454.453 735.677 453.651 738.737 452.047 741.263C450.442 743.758 447.977 745.659 444.649 746.967C441.352 748.274 437.163 748.927 432.083 748.927ZM432.172 740.55C434.459 740.55 436.301 740.015 437.697 738.945C439.123 737.876 439.836 735.648 439.836 732.261C439.836 729.676 439.213 727.745 437.965 726.468C436.717 725.161 434.845 724.507 432.35 724.507C430.805 724.507 429.528 724.745 428.518 725.22C427.507 725.666 426.75 726.453 426.245 727.582C425.74 728.681 425.487 730.211 425.487 732.172C425.487 734.489 425.963 736.465 426.913 738.099C427.894 739.733 429.646 740.55 432.172 740.55ZM448.303 727.092L446.699 720.318C447.234 719.546 448.348 718.625 450.041 717.555C451.764 716.486 453.888 715.951 456.414 715.951H462.831V727.092H448.303ZM514.881 765.594V739.213L516.307 745.095L493.045 699.374H511.226L521.03 720.764L525.041 731.281H522.813L526.199 720.764L536.181 699.374H553.739L530.299 745.184L531.814 739.213V765.594H514.881ZM581.576 766.307C577.001 766.307 573.109 765.609 569.901 764.212C566.722 762.786 564.167 760.84 562.236 758.375C560.305 755.909 558.909 753.087 558.047 749.908C557.186 746.699 556.77 743.312 556.799 739.747C556.888 734.459 558.032 730.003 560.231 726.379C562.429 722.754 565.444 720.006 569.277 718.135C573.109 716.263 577.506 715.327 582.467 715.327C588.587 715.327 593.459 716.545 597.084 718.981C600.738 721.417 603.352 724.641 604.927 728.651C606.501 732.662 607.244 737.044 607.155 741.797C607.096 747.115 605.967 751.601 603.768 755.255C601.6 758.88 598.599 761.628 594.767 763.499C590.934 765.371 586.537 766.307 581.576 766.307ZM581.933 755.166C585.111 755.166 587.31 754.007 588.528 751.69C589.776 749.343 590.4 745.808 590.4 741.084C590.4 738.411 590.147 735.974 589.642 733.776C589.137 731.548 588.29 729.78 587.102 728.473C585.914 727.136 584.28 726.468 582.2 726.468C578.962 726.468 576.704 727.641 575.426 729.988C574.179 732.335 573.555 735.767 573.555 740.282C573.555 743.015 573.807 745.511 574.312 747.769C574.847 750.027 575.724 751.824 576.942 753.161C578.16 754.498 579.823 755.166 581.933 755.166ZM640.042 766.307C636.418 766.307 633.492 765.787 631.263 764.747C629.065 763.707 627.386 762.237 626.228 760.335C625.099 758.434 624.341 756.206 623.955 753.651C623.569 751.066 623.376 748.244 623.376 745.184V715.951H639.418V745.541C639.418 748.036 639.656 749.952 640.131 751.289C640.607 752.596 641.335 753.502 642.315 754.007C643.295 754.483 644.528 754.72 646.014 754.72C646.994 754.72 647.945 754.602 648.866 754.364C649.816 754.097 650.648 753.785 651.361 753.428C652.104 753.072 652.668 752.73 653.055 752.403V715.951H669.186V766.307H657.511C656.501 766.307 655.743 766.143 655.238 765.817C654.733 765.49 654.481 764.792 654.481 763.722V760.603L654.837 761.405C653.678 762.356 652.252 763.202 650.559 763.945C648.866 764.688 647.083 765.267 645.212 765.683C643.37 766.099 641.647 766.307 640.042 766.307ZM704.875 736.361L704.251 724.685C704.846 722.873 705.841 721.254 707.237 719.828C708.663 718.402 710.357 717.288 712.317 716.486C714.308 715.654 716.462 715.238 718.779 715.238C719.492 715.238 720.205 715.283 720.918 715.372C721.631 715.461 722.136 715.595 722.433 715.773V731.726C722.047 731.459 721.438 731.191 720.606 730.924C719.774 730.627 718.601 730.478 717.085 730.478C714.709 730.478 712.703 730.835 711.07 731.548C709.465 732.231 708.158 733.033 707.148 733.954C706.168 734.875 705.41 735.677 704.875 736.361ZM689.724 765.594V715.951H703.806L704.608 724.774L705.856 726.111V765.594H689.724ZM759.026 780.032L755.461 771.743C757.6 770.882 759.65 769.649 761.61 768.045C763.571 766.44 764.997 764.019 765.888 760.781C766.572 758.464 766.973 755.686 767.092 752.448C767.24 749.21 767.314 744.768 767.314 739.124V699.374H783.981V738.945C783.981 743.253 783.996 747.308 784.025 751.111C784.085 754.914 783.803 758.375 783.179 761.494C782.555 764.702 781.307 767.48 779.436 769.827C777.594 772.204 775.44 774.165 772.974 775.709C770.508 777.254 768.027 778.383 765.532 779.096C763.066 779.809 760.897 780.121 759.026 780.032ZM825.522 766.307C820.947 766.307 817.055 765.609 813.846 764.212C810.667 762.786 808.112 760.84 806.181 758.375C804.25 755.909 802.854 753.087 801.993 749.908C801.131 746.699 800.715 743.312 800.745 739.747C800.834 734.459 801.978 730.003 804.176 726.379C806.375 722.754 809.39 720.006 813.222 718.135C817.055 716.263 821.452 715.327 826.413 715.327C832.533 715.327 837.405 716.545 841.029 718.981C844.684 721.417 847.298 724.641 848.872 728.651C850.447 732.662 851.19 737.044 851.101 741.797C851.041 747.115 849.912 751.601 847.714 755.255C845.545 758.88 842.545 761.628 838.712 763.499C834.88 765.371 830.483 766.307 825.522 766.307ZM825.878 755.166C829.057 755.166 831.255 754.007 832.473 751.69C833.721 749.343 834.345 745.808 834.345 741.084C834.345 738.411 834.092 735.974 833.587 733.776C833.082 731.548 832.236 729.78 831.047 728.473C829.859 727.136 828.225 726.468 826.145 726.468C822.907 726.468 820.649 727.641 819.372 729.988C818.124 732.335 817.5 735.767 817.5 740.282C817.5 743.015 817.753 745.511 818.258 747.769C818.793 750.027 819.669 751.824 820.887 753.161C822.105 754.498 823.769 755.166 825.878 755.166ZM868.034 693.313H883.899V711.227L883.453 722.279L883.899 722.546V758.018L868.034 762.831V693.313ZM890.939 766.485C888.325 766.485 885.726 766.336 883.141 766.039C880.556 765.772 878.18 765.43 876.011 765.014C873.842 764.599 872.045 764.197 870.619 763.811C869.193 763.395 868.331 763.069 868.034 762.831L883.899 754.186C884.344 754.72 885.146 755.107 886.305 755.344C887.493 755.582 888.949 755.701 890.672 755.701C892.514 755.701 894.163 755.092 895.619 753.874C897.104 752.626 898.263 750.829 899.094 748.482C899.956 746.135 900.387 743.283 900.387 739.926C900.387 735.024 899.599 731.696 898.025 729.944C896.48 728.161 894.475 727.27 892.009 727.27C890.316 727.27 888.726 727.552 887.241 728.117C885.785 728.681 884.671 729.26 883.899 729.855L882.205 721.566C882.889 720.823 883.869 719.962 885.146 718.981C886.424 718.001 888.073 717.154 890.093 716.441C892.113 715.698 894.594 715.327 897.535 715.327C901.07 715.327 904.308 716.189 907.249 717.912C910.22 719.605 912.597 722.205 914.379 725.71C916.162 729.186 917.053 733.598 917.053 738.945C917.053 744.56 915.984 749.432 913.845 753.562C911.706 757.662 908.675 760.84 904.754 763.098C900.862 765.356 896.257 766.485 890.939 766.485ZM978.536 766.307C975.387 766.307 972.371 766.069 969.489 765.594C966.637 765.148 964.157 764.613 962.047 763.989C959.938 763.336 958.453 762.742 957.591 762.207L959.641 749.284C960.74 749.908 962.226 750.546 964.097 751.2C965.969 751.854 968.034 752.418 970.292 752.893C972.579 753.339 974.882 753.562 977.199 753.562C980.318 753.562 982.576 753.116 983.972 752.225C985.398 751.334 986.111 749.908 986.111 747.947C986.111 746.521 985.681 745.318 984.819 744.337C983.957 743.327 982.531 742.302 980.541 741.263C978.58 740.223 975.951 738.916 972.653 737.341C969.861 736.004 967.291 734.43 964.944 732.617C962.597 730.775 960.711 728.577 959.285 726.022C957.859 723.438 957.146 720.378 957.146 716.842C957.146 713.812 957.71 711.168 958.839 708.91C959.998 706.623 961.617 704.721 963.696 703.206C965.806 701.691 968.301 700.562 971.183 699.819C974.065 699.047 977.258 698.661 980.764 698.661C985.755 698.661 989.825 699.121 992.974 700.042C996.123 700.963 998.292 701.78 999.48 702.493L996.895 714.882C995.559 713.842 993.494 712.891 990.701 712.029C987.938 711.138 985.101 710.693 982.19 710.693C980.11 710.693 978.402 710.93 977.065 711.406C975.728 711.851 974.733 712.49 974.079 713.322C973.426 714.154 973.099 715.119 973.099 716.218C973.099 717.555 973.485 718.744 974.258 719.783C975.06 720.793 976.293 721.804 977.956 722.814C979.65 723.794 981.833 724.893 984.507 726.111C987.359 727.389 989.899 728.696 992.127 730.033C994.385 731.37 996.301 732.825 997.876 734.4C999.45 735.974 1000.64 737.772 1001.44 739.792C1002.27 741.782 1002.69 744.085 1002.69 746.699C1002.69 750.65 1001.75 754.097 999.881 757.038C998.039 759.979 995.321 762.266 991.726 763.9C988.131 765.505 983.735 766.307 978.536 766.307ZM1042.49 766.307C1034.47 766.307 1028.35 764.034 1024.14 759.489C1019.92 754.914 1017.81 748.601 1017.81 740.55C1017.81 735.737 1018.79 731.429 1020.75 727.626C1022.71 723.824 1025.53 720.823 1029.22 718.625C1032.93 716.426 1037.41 715.327 1042.67 715.327C1045.32 715.327 1047.87 715.639 1050.34 716.263C1052.8 716.857 1055.02 717.912 1056.98 719.427C1058.94 720.912 1060.51 722.962 1061.7 725.577C1062.89 728.191 1063.5 731.488 1063.53 735.469C1063.53 737.252 1063.47 738.945 1063.35 740.55C1063.26 742.154 1063.14 743.491 1062.99 744.56H1026.1L1026.99 736.539H1048.56C1048.7 734.133 1048.59 732.127 1048.2 730.523C1047.84 728.889 1047.17 727.671 1046.19 726.869C1045.24 726.067 1043.95 725.666 1042.32 725.666C1040.44 725.666 1038.86 726.186 1037.55 727.225C1036.27 728.235 1035.31 729.988 1034.65 732.484C1034 734.979 1033.7 738.44 1033.76 742.867C1033.82 745.749 1034.34 748.081 1035.32 749.863C1036.33 751.616 1037.76 752.893 1039.6 753.696C1041.44 754.498 1043.65 754.899 1046.24 754.899C1047.84 754.899 1049.52 754.78 1051.27 754.542C1053.03 754.305 1054.65 753.993 1056.13 753.606C1057.65 753.22 1058.8 752.819 1059.61 752.403L1062.1 760.959C1061 761.85 1059.47 762.712 1057.51 763.544C1055.58 764.346 1053.32 765.014 1050.74 765.549C1048.18 766.054 1045.44 766.307 1042.49 766.307ZM1095.05 766.307C1091.78 766.307 1088.93 765.638 1086.5 764.301C1084.09 762.935 1082.22 761.063 1080.88 758.687C1079.57 756.28 1078.92 753.532 1078.92 750.442C1078.92 747.531 1079.71 745.006 1081.28 742.867C1082.89 740.698 1085.07 739.034 1087.83 737.876C1089.82 737.014 1091.99 736.376 1094.34 735.96C1096.69 735.514 1099.03 735.217 1101.38 735.068C1103.76 734.92 1105.98 734.846 1108.06 734.846L1110.38 737.698L1108.06 742.599C1107.02 742.629 1105.94 742.718 1104.81 742.867C1103.71 742.986 1102.67 743.164 1101.69 743.402C1100.71 743.61 1099.92 743.847 1099.33 744.115C1098.41 744.501 1097.53 745.08 1096.7 745.853C1095.9 746.595 1095.5 747.858 1095.5 749.64C1095.5 751.987 1096.14 753.696 1097.41 754.765C1098.72 755.805 1100.19 756.325 1101.83 756.325C1102.69 756.325 1103.53 756.221 1104.37 756.013C1105.23 755.805 1105.98 755.552 1106.64 755.255C1107.29 754.928 1107.77 754.602 1108.06 754.275L1110.65 757.572L1108.87 761.405C1107.5 762.593 1105.69 763.707 1103.43 764.747C1101.2 765.787 1098.41 766.307 1095.05 766.307ZM1124.11 765.594H1108.87V758.196H1108.06V731.904C1108.06 729.706 1107.46 728.265 1106.24 727.582C1105.05 726.899 1103.34 726.557 1101.11 726.557C1099.21 726.557 1097.22 726.705 1095.14 727.003C1093.09 727.3 1091.1 727.716 1089.17 728.25C1087.24 728.755 1085.55 729.349 1084.09 730.033L1080.79 720.586C1082.01 719.843 1083.76 719.056 1086.05 718.224C1088.37 717.362 1090.97 716.634 1093.85 716.04C1096.73 715.446 1099.66 715.149 1102.63 715.149C1107.83 715.149 1112 715.758 1115.15 716.976C1118.3 718.194 1120.57 720.17 1121.97 722.903C1123.39 725.636 1124.11 729.29 1124.11 733.865V765.594ZM1159.42 736.361L1158.79 724.685C1159.39 722.873 1160.38 721.254 1161.78 719.828C1163.21 718.402 1164.9 717.288 1166.86 716.486C1168.85 715.654 1171 715.238 1173.32 715.238C1174.03 715.238 1174.75 715.283 1175.46 715.372C1176.17 715.461 1176.68 715.595 1176.98 715.773V731.726C1176.59 731.459 1175.98 731.191 1175.15 730.924C1174.32 730.627 1173.14 730.478 1171.63 730.478C1169.25 730.478 1167.25 730.835 1165.61 731.548C1164.01 732.231 1162.7 733.033 1161.69 733.954C1160.71 734.875 1159.95 735.677 1159.42 736.361ZM1144.27 765.594V715.951H1158.35L1159.15 724.774L1160.4 726.111V765.594H1144.27ZM1189.82 741.263C1189.82 736.42 1190.71 732.038 1192.49 728.117C1194.27 724.195 1197.01 721.091 1200.69 718.803C1204.4 716.486 1209.16 715.327 1214.95 715.327C1218.31 715.327 1221.23 715.58 1223.73 716.085C1226.22 716.59 1227.87 717.139 1228.67 717.734L1226.89 729.855C1225.91 729.32 1224.63 728.844 1223.06 728.429C1221.51 728.013 1219.55 727.805 1217.18 727.805C1215.45 727.805 1213.75 728.176 1212.05 728.919C1210.39 729.661 1208.99 730.939 1207.86 732.751C1206.76 734.534 1206.19 736.985 1206.13 740.104C1206.07 743.52 1206.53 746.239 1207.51 748.259C1208.52 750.279 1209.87 751.735 1211.56 752.626C1213.29 753.488 1215.19 753.918 1217.27 753.918C1219.38 753.918 1221.32 753.74 1223.1 753.384C1224.92 753.027 1226.36 752.611 1227.43 752.136L1229.48 762.296C1228.11 763.722 1225.96 764.747 1223.02 765.371C1220.07 765.995 1217 766.307 1213.79 766.307C1208.32 766.307 1203.82 765.222 1200.29 763.054C1196.75 760.855 1194.12 757.87 1192.4 754.097C1190.68 750.324 1189.82 746.046 1189.82 741.263ZM1245.96 765.594V693.224H1262.09V711.851L1261.2 722.992L1260.75 721.655C1261.79 720.704 1263.14 719.739 1264.81 718.758C1266.47 717.778 1268.33 716.961 1270.38 716.308C1272.43 715.624 1274.57 715.268 1276.79 715.238C1282.2 715.089 1286.18 716.605 1288.74 719.783C1291.29 722.932 1292.57 727.834 1292.57 734.489V765.594H1276.35V737.252C1276.35 733.449 1275.83 730.924 1274.79 729.676C1273.75 728.429 1272.16 727.834 1270.02 727.894C1269.01 727.894 1267.73 728.131 1266.19 728.607C1264.67 729.052 1263.31 729.884 1262.09 731.102V765.594H1245.96Z" fill="#001A72"/>
</svg>
