<svg width="3184" height="857" viewBox="0 0 3184 857" fill="none" xmlns="http://www.w3.org/2000/svg">
<path d="M89.4078 629.631C76.3954 629.631 66.3213 626.063 59.1854 618.927C52.0496 611.372 48.4817 601.088 48.4817 588.075V224.777C48.4817 211.345 51.8397 201.271 58.5558 194.555C65.6916 187.419 75.7658 183.851 88.7782 183.851C101.791 183.851 111.655 187.419 118.371 194.555C125.507 201.271 129.075 211.345 129.075 224.777V561.001H311.668C323.002 561.001 331.607 563.94 337.483 569.816C343.779 575.693 346.928 584.088 346.928 595.001C346.928 605.915 343.779 614.52 337.483 620.816C331.607 626.693 323.002 629.631 311.668 629.631H89.4078ZM433.516 634.039C420.923 634.039 411.269 630.261 404.553 622.705C397.837 615.15 394.479 604.656 394.479 591.224V360.148C394.479 346.296 397.837 335.803 404.553 328.667C411.269 321.111 420.923 317.333 433.516 317.333C446.109 317.333 455.763 321.111 462.479 328.667C469.615 335.803 473.183 346.296 473.183 360.148V591.224C473.183 604.656 469.825 615.15 463.109 622.705C456.393 630.261 446.528 634.039 433.516 634.039ZM433.516 258.778C418.825 258.778 407.281 255.21 398.886 248.074C390.911 240.518 386.923 230.234 386.923 217.222C386.923 203.79 390.911 193.506 398.886 186.37C407.281 179.234 418.825 175.666 433.516 175.666C448.627 175.666 460.171 179.234 468.146 186.37C476.121 193.506 480.109 203.79 480.109 217.222C480.109 230.234 476.121 240.518 468.146 248.074C460.171 255.21 448.627 258.778 433.516 258.778ZM667.666 635.928C649.616 635.928 630.518 634.039 610.369 630.261C590.221 626.483 572.172 619.977 556.221 610.742C549.505 606.545 544.678 601.717 541.739 596.261C539.221 590.384 538.171 584.717 538.591 579.261C539.431 573.384 541.53 568.347 544.888 564.149C548.665 559.952 553.283 557.223 558.739 555.964C564.616 554.705 570.912 555.754 577.628 559.112C594.419 567.088 610.16 572.754 624.851 576.112C639.542 579.051 654.024 580.52 668.296 580.52C688.444 580.52 703.345 577.162 713 570.446C723.074 563.31 728.111 554.075 728.111 542.742C728.111 533.087 724.753 525.742 718.037 520.705C711.74 515.248 702.086 511.26 689.073 508.742L626.11 496.779C600.085 491.742 580.147 482.297 566.295 468.445C552.863 454.174 546.147 435.914 546.147 413.667C546.147 393.519 551.604 376.099 562.517 361.408C573.851 346.716 589.382 335.383 609.11 327.407C628.839 319.432 651.505 315.444 677.11 315.444C695.58 315.444 712.79 317.543 728.74 321.741C745.111 325.519 760.852 331.605 775.963 340C782.259 343.358 786.457 347.766 788.555 353.222C791.074 358.679 791.704 364.346 790.444 370.222C789.185 375.679 786.667 380.716 782.889 385.334C779.111 389.531 774.284 392.26 768.407 393.519C762.95 394.358 756.654 393.099 749.518 389.741C736.506 383.025 723.913 378.198 711.74 375.26C699.987 372.321 688.654 370.852 677.74 370.852C657.172 370.852 641.851 374.42 631.777 381.556C622.123 388.692 617.295 398.136 617.295 409.889C617.295 418.704 620.234 426.05 626.11 431.926C631.987 437.803 641.011 441.791 653.184 443.89L716.148 455.853C743.432 460.89 764 470.124 777.852 483.556C792.123 496.989 799.259 515.038 799.259 537.705C799.259 568.347 787.296 592.483 763.37 610.113C739.444 627.323 707.543 635.928 667.666 635.928ZM1000.36 635.928C973.08 635.928 950.203 631.31 931.734 622.076C913.684 612.841 900.252 599.409 891.437 581.779C882.623 563.73 878.215 541.483 878.215 515.038V380.926H845.474C835.4 380.926 827.635 378.408 822.178 373.371C816.721 367.914 813.993 360.568 813.993 351.334C813.993 341.679 816.721 334.333 822.178 329.296C827.635 324.259 835.4 321.741 845.474 321.741H878.215V264.444C878.215 251.432 881.573 241.568 888.289 234.851C895.425 228.135 905.289 224.777 917.882 224.777C930.475 224.777 940.129 228.135 946.845 234.851C953.561 241.568 956.919 251.432 956.919 264.444V321.741H1023.66C1033.73 321.741 1041.5 324.259 1046.96 329.296C1052.41 334.333 1055.14 341.679 1055.14 351.334C1055.14 360.568 1052.41 367.914 1046.96 373.371C1041.5 378.408 1033.73 380.926 1023.66 380.926H956.919V510.631C956.919 530.779 961.327 545.89 970.141 555.964C978.956 566.038 993.228 571.075 1012.96 571.075C1020.09 571.075 1026.39 570.446 1031.85 569.186C1037.3 567.927 1042.13 567.088 1046.33 566.668C1051.36 566.248 1055.56 567.927 1058.92 571.705C1062.28 575.063 1063.96 582.199 1063.96 593.112C1063.96 601.508 1062.49 609.063 1059.55 615.779C1057.03 622.076 1052.2 626.483 1045.07 629.002C1039.61 630.681 1032.48 632.15 1023.66 633.409C1014.85 635.088 1007.08 635.928 1000.36 635.928ZM1249.64 635.928C1214.8 635.928 1184.79 629.421 1159.6 616.409C1134.42 603.396 1114.9 584.927 1101.05 561.001C1087.61 537.075 1080.9 508.742 1080.9 476.001C1080.9 444.099 1087.4 416.186 1100.42 392.26C1113.85 368.334 1132.11 349.655 1155.19 336.222C1178.7 322.37 1205.35 315.444 1235.16 315.444C1256.98 315.444 1276.5 319.012 1293.71 326.148C1311.34 333.284 1326.24 343.568 1338.42 357C1351.01 370.432 1360.45 386.803 1366.75 406.112C1373.47 425.001 1376.82 446.408 1376.82 470.334C1376.82 477.89 1374.1 483.766 1368.64 487.964C1363.6 491.742 1356.26 493.631 1346.6 493.631H1144.49V448.297H1321.42L1311.34 457.741C1311.34 438.433 1308.4 422.272 1302.53 409.26C1297.07 396.247 1288.89 386.383 1277.97 379.667C1267.48 372.531 1254.26 368.963 1238.31 368.963C1220.68 368.963 1205.56 373.161 1192.97 381.556C1180.8 389.531 1171.35 401.074 1164.64 416.186C1158.34 430.877 1155.19 448.507 1155.19 469.075V473.482C1155.19 507.902 1163.17 533.717 1179.12 550.927C1195.49 567.717 1219.42 576.112 1250.9 576.112C1261.81 576.112 1273.98 574.853 1287.42 572.335C1301.27 569.396 1314.28 564.569 1326.45 557.853C1335.27 552.816 1343.03 550.717 1349.75 551.557C1356.47 551.976 1361.71 554.285 1365.49 558.483C1369.69 562.68 1372.21 567.927 1373.05 574.224C1373.89 580.1 1372.63 586.187 1369.27 592.483C1366.33 598.779 1361.08 604.236 1353.53 608.853C1338.84 618.088 1321.84 625.014 1302.53 629.631C1283.64 633.829 1266.01 635.928 1249.64 635.928ZM1478.19 634.668C1465.6 634.668 1455.94 631.31 1449.23 624.594C1442.51 617.458 1439.15 607.384 1439.15 594.372V356.371C1439.15 343.358 1442.51 333.494 1449.23 326.778C1455.94 320.062 1465.39 316.704 1477.56 316.704C1489.73 316.704 1499.18 320.062 1505.89 326.778C1512.61 333.494 1515.97 343.358 1515.97 356.371V399.186L1509.04 383.445C1518.28 361.198 1532.55 344.408 1551.86 333.074C1571.59 321.321 1593.83 315.444 1618.6 315.444C1643.36 315.444 1663.72 320.062 1679.67 329.296C1695.62 338.531 1707.59 352.593 1715.56 371.482C1723.54 389.951 1727.52 413.457 1727.52 442.001V594.372C1727.52 607.384 1724.17 617.458 1717.45 624.594C1710.73 631.31 1701.08 634.668 1688.49 634.668C1675.89 634.668 1666.03 631.31 1658.89 624.594C1652.18 617.458 1648.82 607.384 1648.82 594.372V445.778C1648.82 421.852 1644.2 404.433 1634.97 393.519C1626.15 382.605 1612.3 377.148 1593.41 377.148C1570.33 377.148 1551.86 384.494 1538.01 399.186C1524.57 413.457 1517.86 432.556 1517.86 456.482V594.372C1517.86 621.236 1504.63 634.668 1478.19 634.668Z" fill="#34464F"/>
<path d="M1971.17 634.67C1959.84 634.67 1950.6 631.942 1943.47 626.485C1936.75 621.028 1931.29 612.423 1927.1 600.67L1795.5 228.557C1790.88 215.125 1791.72 203.792 1798.02 194.557C1804.74 185.322 1815.86 180.705 1831.39 180.705C1842.72 180.705 1851.54 183.433 1857.84 188.89C1864.13 193.927 1869.17 202.113 1872.95 213.446L1986.28 549.67H1961.1L2079.47 214.076C2083.66 202.742 2088.91 194.347 2095.21 188.89C2101.5 183.433 2109.69 180.705 2119.76 180.705C2129.84 180.705 2137.81 183.433 2143.69 188.89C2149.57 194.347 2154.6 202.952 2158.8 214.705L2273.39 549.67H2251.36L2366.58 213.446C2370.36 202.532 2375.39 194.347 2381.69 188.89C2387.99 183.433 2396.59 180.705 2407.5 180.705C2420.94 180.705 2430.8 185.322 2437.1 194.557C2443.39 203.792 2444.23 215.125 2439.62 228.557L2306.76 601.3C2302.57 612.633 2297.11 621.028 2290.39 626.485C2283.68 631.942 2274.65 634.67 2263.32 634.67C2251.99 634.67 2242.96 631.942 2236.25 626.485C2229.53 621.028 2224.07 612.423 2219.87 600.67L2110.32 288.372H2124.8L2013.98 601.3C2009.79 612.633 2004.33 621.028 1997.61 626.485C1991.32 631.942 1982.5 634.67 1971.17 634.67ZM2620.81 635.929C2585.97 635.929 2555.96 629.423 2530.77 616.411C2505.59 603.398 2486.07 584.929 2472.22 561.003C2458.79 537.077 2452.07 508.744 2452.07 476.003C2452.07 444.101 2458.58 416.188 2471.59 392.262C2485.02 368.336 2503.28 349.657 2526.37 336.224C2549.87 322.372 2576.53 315.446 2606.33 315.446C2628.16 315.446 2647.67 319.014 2664.88 326.15C2682.51 333.286 2697.42 343.57 2709.59 357.002C2722.18 370.434 2731.63 386.805 2737.92 406.114C2744.64 425.003 2748 446.41 2748 470.336C2748 477.892 2745.27 483.768 2739.81 487.966C2734.77 491.744 2727.43 493.633 2717.77 493.633H2515.66V448.299H2692.59L2682.51 457.743C2682.51 438.435 2679.58 422.274 2673.7 409.262C2668.24 396.249 2660.06 386.385 2649.14 379.669C2638.65 372.533 2625.43 368.965 2609.48 368.965C2591.85 368.965 2576.74 373.163 2564.14 381.558C2551.97 389.533 2542.53 401.076 2535.81 416.188C2529.51 430.879 2526.37 448.509 2526.37 469.077V473.484C2526.37 507.904 2534.34 533.719 2550.29 550.929C2566.66 567.719 2590.59 576.114 2622.07 576.114C2632.98 576.114 2645.16 574.855 2658.59 572.337C2672.44 569.398 2685.45 564.571 2697.63 557.855C2706.44 552.818 2714.21 550.719 2720.92 551.559C2727.64 551.978 2732.89 554.287 2736.66 558.485C2740.86 562.682 2743.38 567.929 2744.22 574.225C2745.06 580.102 2743.8 586.188 2740.44 592.485C2737.5 598.781 2732.26 604.238 2724.7 608.855C2710.01 618.09 2693.01 625.016 2673.7 629.633C2654.81 633.831 2637.18 635.929 2620.81 635.929ZM2915.48 635.929C2880.64 635.929 2854.4 626.065 2836.77 606.337C2819.14 586.188 2810.33 556.806 2810.33 518.188V220.372C2810.33 207.36 2813.69 197.495 2820.4 190.779C2827.12 184.063 2836.77 180.705 2849.37 180.705C2861.96 180.705 2871.61 184.063 2878.33 190.779C2885.47 197.495 2889.03 207.36 2889.03 220.372V514.41C2889.03 533.719 2893.02 547.991 2901 557.225C2909.39 566.46 2921.15 571.077 2936.26 571.077C2939.61 571.077 2942.76 571.077 2945.7 571.077C2948.64 570.658 2951.58 570.238 2954.52 569.818C2960.39 568.979 2964.38 570.658 2966.48 574.855C2968.58 578.633 2969.63 586.608 2969.63 598.781C2969.63 609.275 2967.53 617.46 2963.33 623.337C2959.13 629.213 2952.21 632.781 2942.55 634.041C2938.36 634.46 2933.95 634.88 2929.33 635.3C2924.71 635.72 2920.1 635.929 2915.48 635.929ZM3116.54 635.929C3081.7 635.929 3055.47 626.065 3037.84 606.337C3020.21 586.188 3011.39 556.806 3011.39 518.188V220.372C3011.39 207.36 3014.75 197.495 3021.47 190.779C3028.18 184.063 3037.84 180.705 3050.43 180.705C3063.02 180.705 3072.68 184.063 3079.39 190.779C3086.53 197.495 3090.1 207.36 3090.1 220.372V514.41C3090.1 533.719 3094.08 547.991 3102.06 557.225C3110.45 566.46 3122.21 571.077 3137.32 571.077C3140.68 571.077 3143.83 571.077 3146.76 571.077C3149.7 570.658 3152.64 570.238 3155.58 569.818C3161.46 568.979 3165.44 570.658 3167.54 574.855C3169.64 578.633 3170.69 586.608 3170.69 598.781C3170.69 609.275 3168.59 617.46 3164.39 623.337C3160.2 629.213 3153.27 632.781 3143.62 634.041C3139.42 634.46 3135.01 634.88 3130.39 635.3C3125.78 635.72 3121.16 635.929 3116.54 635.929Z" fill="#FFEA00"/>
<path d="M437.245 279.837C485.542 279.837 524.694 240.685 524.694 192.388C524.694 144.092 485.542 104.939 437.245 104.939C388.948 104.939 349.796 144.092 349.796 192.388C349.796 240.685 388.948 279.837 437.245 279.837Z" fill="#FFEA00"/>
</svg>
