<svg width="962" height="889" viewBox="0 0 962 889" fill="none" xmlns="http://www.w3.org/2000/svg">
<mask id="mask0_181_489" style="mask-type:luminance" maskUnits="userSpaceOnUse" x="0" y="0" width="962" height="889">
<path d="M962 0H0V888.741H962V0Z" fill="white"/>
</mask>
<g mask="url(#mask0_181_489)">
<path d="M372.028 376.46L329.715 415.101V608.03H372.028V376.46Z" fill="#F87C09"/>
<path d="M555.191 217.362L508.82 265.471V608.033H555.191V217.362Z" fill="#F87C09"/>
<path d="M606.199 53.9055L658.946 0V75.9314L606.199 125.2V53.9055Z" fill="#F87C09"/>
<path d="M299.575 400.748L372.028 332.3V265.469L246.249 381.395V677.585H372.028V632.374H299.575V400.748Z" fill="#0A192F"/>
<path d="M424.774 230.115L555.191 96.2207V176.79L479.839 249.243V632.377H555.191V677.589H424.774V230.115Z" fill="#0A192F"/>
<path d="M606.199 191.282L658.946 135.059V217.365L638.554 238.661V677.591H606.199V191.282Z" fill="#0A192F"/>
<path d="M671.116 230.107L720.964 281.695V677.581H671.116V230.107Z" fill="#0A192F"/>
<path d="M47.4357 787.038C35.2639 787.038 25.5191 783.451 18.2015 776.279C10.8839 769.033 7.2251 759.035 7.2251 746.283C7.2251 733.459 10.8114 723.461 17.9841 716.289C25.1569 709.116 35.2276 705.529 48.1964 705.529C53.5577 705.529 58.7381 705.964 63.7372 706.833C65.476 707.124 66.8889 707.993 67.9757 709.442C69.1348 710.818 69.7145 712.413 69.7145 714.224V717.159C69.7145 718.679 69.0987 719.911 67.867 720.853C66.6353 721.795 65.2586 722.085 63.7372 721.723C59.2453 720.708 54.7895 720.201 50.37 720.201C34.1408 720.201 26.0263 728.895 26.0263 746.283C26.0263 754.978 27.9462 761.498 31.7861 765.845C35.6985 770.193 41.2774 772.367 48.5224 772.367C50.7684 772.367 53.0507 772.076 55.3691 771.497C56.0212 771.352 56.3471 770.953 56.3471 770.302V752.586C56.3471 752.007 56.0212 751.717 55.3691 751.717H45.2621C43.5958 751.717 42.1466 751.102 40.915 749.87C39.6833 748.638 39.0675 747.189 39.0675 745.523V743.892C39.0675 742.226 39.6833 740.777 40.915 739.545C42.1466 738.314 43.5958 737.698 45.2621 737.698H67.7583C69.4247 737.698 70.8375 738.314 71.9967 739.545C73.2284 740.777 73.8442 742.226 73.8442 743.892V776.387C73.8442 778.271 73.3009 779.973 72.2141 781.495C71.1272 782.945 69.7145 783.921 67.9757 784.429C61.4551 786.168 54.6083 787.038 47.4357 787.038ZM112.19 785.951C110.524 785.951 109.074 785.335 107.844 784.103C106.684 782.871 106.105 781.422 106.105 779.756V712.811C106.105 711.145 106.684 709.696 107.844 708.464C109.074 707.232 110.524 706.616 112.19 706.616H120.232C121.899 706.616 123.312 707.232 124.47 708.464C125.702 709.696 126.318 711.145 126.318 712.811V779.756C126.318 781.422 125.702 782.871 124.47 784.103C123.312 785.335 121.899 785.951 120.232 785.951H112.19ZM182.305 754.217C173.176 751.319 166.582 747.732 162.526 743.458C158.469 739.111 156.44 733.822 156.44 727.591C156.44 720.78 158.794 715.419 163.504 711.507C168.286 707.522 175.096 705.529 183.935 705.529C190.6 705.529 196.65 706.29 202.084 707.812C203.823 708.319 205.2 709.369 206.213 710.963C207.3 712.485 207.845 714.187 207.845 716.071V719.222C207.845 720.671 207.228 721.795 205.996 722.591C204.765 723.389 203.46 723.534 202.084 723.027C195.925 720.853 190.238 719.767 185.022 719.767C178.356 719.767 175.024 722.375 175.024 727.591C175.024 732.01 177.921 735.163 183.718 737.046C193.716 740.089 200.635 743.639 204.476 747.697C208.387 751.754 210.344 757.079 210.344 763.672C210.344 779.248 200.527 787.038 180.892 787.038C174.661 787.038 169.01 786.06 163.938 784.103C162.199 783.451 160.823 782.329 159.809 780.734C158.867 779.068 158.396 777.256 158.396 775.3V771.823C158.396 770.518 158.975 769.54 160.135 768.888C161.294 768.163 162.453 768.091 163.613 768.671C168.902 771.279 174.299 772.583 179.806 772.583C183.645 772.583 186.544 771.859 188.5 770.41C190.529 768.888 191.542 766.751 191.542 763.998C191.542 761.607 190.854 759.651 189.478 758.129C188.101 756.608 185.71 755.303 182.305 754.217ZM264.912 722.7L256.979 753.89C256.908 754.108 256.943 754.326 257.088 754.543C257.306 754.688 257.524 754.76 257.74 754.76H272.303C272.52 754.76 272.702 754.688 272.847 754.543C273.064 754.326 273.136 754.108 273.064 753.89L265.131 722.7C265.131 722.628 265.094 722.591 265.021 722.591C264.949 722.591 264.912 722.628 264.912 722.7ZM235.897 785.951C234.374 785.951 233.143 785.335 232.201 784.103C231.332 782.871 231.151 781.531 231.658 780.082L253.61 712.485C254.19 710.746 255.205 709.333 256.654 708.247C258.175 707.16 259.841 706.616 261.652 706.616H268.826C270.709 706.616 272.412 707.16 273.933 708.247C275.456 709.333 276.469 710.746 276.976 712.485L298.821 780.082C299.328 781.531 299.11 782.871 298.169 784.103C297.299 785.335 296.104 785.951 294.583 785.951H287.301C285.49 785.951 283.859 785.407 282.41 784.321C280.961 783.161 280.02 781.713 279.584 779.973L276.976 769.649C276.904 769.07 276.542 768.779 275.89 768.779H254.155C253.575 768.779 253.213 769.07 253.067 769.649L250.459 779.973C250.024 781.713 249.082 783.161 247.633 784.321C246.185 785.407 244.555 785.951 242.744 785.951H235.897ZM329.692 785.951C328.025 785.951 326.577 785.335 325.345 784.103C324.112 782.871 323.496 781.422 323.496 779.756V712.811C323.496 711.145 324.112 709.696 325.345 708.464C326.577 707.232 328.025 706.616 329.692 706.616H336.43C338.096 706.616 339.508 707.232 340.668 708.464C341.9 709.696 342.516 711.145 342.516 712.811V769.758C342.516 770.337 342.841 770.627 343.493 770.627H369.902C371.568 770.627 373.017 771.243 374.249 772.476C375.481 773.706 376.097 775.156 376.097 776.821V779.756C376.097 781.422 375.481 782.871 374.249 784.103C373.017 785.335 371.568 785.951 369.902 785.951H329.692ZM457.099 785.951C455.432 785.951 453.983 785.335 452.751 784.103C451.52 782.871 450.904 781.422 450.904 779.756V712.811C450.904 711.145 451.52 709.696 452.751 708.464C453.983 707.232 455.432 706.616 457.099 706.616H463.293C464.96 706.616 466.373 707.232 467.531 708.464C468.763 709.696 469.379 711.145 469.379 712.811V736.72C469.379 737.372 469.705 737.698 470.358 737.698H492.745C493.396 737.698 493.724 737.372 493.724 736.72V712.811C493.724 711.145 494.303 709.696 495.461 708.464C496.693 707.232 498.142 706.616 499.809 706.616H506.003C507.67 706.616 509.12 707.232 510.35 708.464C511.582 709.696 512.198 711.145 512.198 712.811V779.756C512.198 781.422 511.582 782.871 510.35 784.103C509.12 785.335 507.67 785.951 506.003 785.951H499.809C498.142 785.951 496.693 785.335 495.461 784.103C494.303 782.871 493.724 781.422 493.724 779.756V752.586C493.724 752.007 493.396 751.717 492.745 751.717H470.358C469.705 751.717 469.379 752.007 469.379 752.586V779.756C469.379 781.422 468.763 782.871 467.531 784.103C466.373 785.335 464.96 785.951 463.293 785.951H457.099ZM571.625 722.7L563.691 753.89C563.618 754.108 563.655 754.326 563.8 754.543C564.018 754.688 564.234 754.76 564.452 754.76H579.014C579.232 754.76 579.414 754.688 579.558 754.543C579.776 754.326 579.848 754.108 579.776 753.89L571.842 722.7C571.842 722.628 571.806 722.591 571.734 722.591C571.66 722.591 571.625 722.628 571.625 722.7ZM542.608 785.951C541.087 785.951 539.855 785.335 538.913 784.103C538.044 782.871 537.862 781.531 538.369 780.082L560.322 712.485C560.902 710.746 561.916 709.333 563.365 708.247C564.887 707.16 566.553 706.616 568.364 706.616H575.537C577.422 706.616 579.123 707.16 580.646 708.247C582.167 709.333 583.181 710.746 583.687 712.485L605.532 780.082C606.04 781.531 605.822 782.871 604.88 784.103C604.011 785.335 602.814 785.951 601.294 785.951H594.013C592.201 785.951 590.571 785.407 589.122 784.321C587.672 783.161 586.731 781.713 586.296 779.973L583.687 769.649C583.615 769.07 583.253 768.779 582.601 768.779H560.865C560.286 768.779 559.924 769.07 559.779 769.649L557.171 779.973C556.737 781.713 555.794 783.161 554.344 784.321C552.896 785.407 551.266 785.951 549.455 785.951H542.608ZM648.358 721.179V742.045C648.358 742.697 648.647 743.024 649.227 743.024H654.444C659.515 743.024 663.391 741.972 666.072 739.872C668.753 737.698 670.093 734.691 670.093 730.852C670.093 723.316 665.13 719.549 655.205 719.549C652.958 719.549 651.003 719.695 649.336 719.983C648.683 720.128 648.358 720.528 648.358 721.179ZM636.403 785.951C634.737 785.951 633.288 785.335 632.056 784.103C630.824 782.871 630.209 781.422 630.209 779.756V713.354C630.209 711.543 630.788 709.985 631.948 708.681C633.18 707.377 634.664 706.652 636.403 706.508C642.851 705.856 649.48 705.529 656.292 705.529C667.159 705.529 675.238 707.594 680.526 711.725C685.888 715.782 688.569 721.578 688.569 729.113C688.569 733.967 687.156 738.35 684.33 742.263C681.504 746.102 677.81 748.856 673.246 750.522C673.172 750.522 673.137 750.558 673.137 750.63C673.137 750.775 673.209 750.847 673.353 750.847C676.903 752.877 679.911 757.152 682.374 763.672L688.569 780.19C689.076 781.567 688.895 782.871 688.025 784.103C687.156 785.335 685.996 785.951 684.548 785.951H677.919C676.033 785.951 674.332 785.407 672.81 784.321C671.288 783.233 670.238 781.822 669.658 780.082L664.225 764.433C663.211 761.39 661.978 759.325 660.53 758.238C659.08 757.152 656.834 756.608 653.791 756.608H649.227C648.647 756.608 648.358 756.934 648.358 757.586V779.756C648.358 781.422 647.742 782.871 646.511 784.103C645.279 785.335 643.83 785.951 642.163 785.951H636.403ZM721.969 785.951C720.303 785.951 718.854 785.335 717.623 784.103C716.391 782.871 715.775 781.422 715.775 779.756V712.811C715.775 711.145 716.391 709.696 717.623 708.464C718.854 707.232 720.303 706.616 721.969 706.616H728.707C730.375 706.616 731.787 707.232 732.946 708.464C734.178 709.696 734.794 711.145 734.794 712.811V769.758C734.794 770.337 735.12 770.627 735.772 770.627H762.18C763.847 770.627 765.295 771.243 766.527 772.476C767.76 773.706 768.376 775.156 768.376 776.821V779.756C768.376 781.422 767.76 782.871 766.527 784.103C765.295 785.335 763.847 785.951 762.18 785.951H721.969ZM802.97 785.951C801.303 785.951 799.854 785.335 798.622 784.103C797.464 782.871 796.883 781.422 796.883 779.756V712.811C796.883 711.145 797.464 709.696 798.622 708.464C799.854 707.232 801.303 706.616 802.97 706.616H841.442C843.108 706.616 844.52 707.232 845.681 708.464C846.911 709.696 847.527 711.145 847.527 712.811V715.31C847.527 716.977 846.911 718.426 845.681 719.658C844.52 720.89 843.108 721.505 841.442 721.505H816.229C815.649 721.505 815.359 721.795 815.359 722.375V736.72C815.359 737.372 815.649 737.698 816.229 737.698H839.268C840.934 737.698 842.347 738.314 843.507 739.545C844.738 740.777 845.353 742.226 845.353 743.892V745.523C845.353 747.189 844.738 748.638 843.507 749.87C842.347 751.102 840.934 751.717 839.268 751.717H816.229C815.649 751.717 815.359 752.007 815.359 752.586V770.193C815.359 770.772 815.649 771.062 816.229 771.062H841.442C843.108 771.062 844.52 771.678 845.681 772.91C846.911 774.141 847.527 775.591 847.527 777.256V779.756C847.527 781.422 846.911 782.871 845.681 784.103C844.52 785.335 843.108 785.951 841.442 785.951H802.97ZM883.869 785.951C882.203 785.951 880.754 785.335 879.522 784.103C878.29 782.871 877.674 781.422 877.674 779.756V712.811C877.674 711.145 878.29 709.696 879.522 708.464C880.754 707.232 882.203 706.616 883.869 706.616H890.064C891.947 706.616 893.65 707.124 895.171 708.138C896.692 709.152 897.816 710.529 898.54 712.267L915.385 753.239C915.385 753.311 915.422 753.348 915.494 753.348C915.567 753.348 915.602 753.311 915.602 753.239L932.447 712.267C933.172 710.529 934.295 709.152 935.816 708.138C937.339 707.124 939.04 706.616 940.924 706.616H947.553C949.22 706.616 950.67 707.232 951.901 708.464C953.132 709.696 953.748 711.145 953.748 712.811V779.756C953.748 781.422 953.132 782.871 951.901 784.103C950.67 785.335 949.22 785.951 947.553 785.951H942.337C940.671 785.951 939.222 785.335 937.99 784.103C936.832 782.871 936.251 781.422 936.251 779.756V737.481C936.251 737.408 936.215 737.372 936.143 737.372C935.998 737.372 935.925 737.408 935.925 737.481L925.493 762.15C924.768 763.889 923.608 765.266 922.015 766.28C920.493 767.294 918.791 767.802 916.906 767.802H914.082C912.198 767.802 910.458 767.294 908.865 766.28C907.343 765.266 906.22 763.889 905.496 762.15L895.062 737.481C895.062 737.408 894.99 737.372 894.846 737.372C894.773 737.372 894.737 737.408 894.737 737.481V779.756C894.737 781.422 894.121 782.871 892.889 784.103C891.73 785.335 890.316 785.951 888.65 785.951H883.869Z" fill="#0A192F"/>
<path d="M306.88 868.633C305.961 868.633 305.189 868.319 304.56 867.691C303.933 867.064 303.619 866.291 303.619 865.373V820.67C303.619 819.752 303.933 818.979 304.56 818.351C305.189 817.676 305.961 817.338 306.88 817.338C307.797 817.338 308.57 817.676 309.198 818.351C309.874 818.979 310.212 819.752 310.212 820.67V839.943H337.672V820.67C337.672 819.752 337.985 818.979 338.613 818.351C339.241 817.676 340.013 817.338 340.932 817.338C341.849 817.338 342.623 817.676 343.249 818.351C343.927 818.979 344.265 819.752 344.265 820.67V865.373C344.265 866.291 343.927 867.064 343.249 867.691C342.623 868.319 341.849 868.633 340.932 868.633C340.013 868.633 339.241 868.319 338.613 867.691C337.985 867.064 337.672 866.291 337.672 865.373V846.1H310.212V865.373C310.212 866.291 309.874 867.064 309.198 867.691C308.57 868.319 307.797 868.633 306.88 868.633ZM385.046 868.995C379.974 868.995 375.531 867.884 371.715 865.662C367.899 863.44 364.953 860.373 362.876 856.461C360.799 852.549 359.711 848.057 359.615 842.984C359.711 837.913 360.799 833.422 362.876 829.509C364.953 825.597 367.899 822.529 371.715 820.308C375.531 818.085 379.974 816.976 385.046 816.976C390.118 816.976 394.538 818.085 398.304 820.308C402.121 822.529 405.066 825.621 407.144 829.582C409.269 833.494 410.379 837.962 410.476 842.984C410.379 848.008 409.269 852.501 407.144 856.461C405.066 860.373 402.121 863.44 398.304 865.662C394.538 867.884 390.118 868.995 385.046 868.995ZM385.046 862.837C388.91 862.837 392.268 861.967 395.117 860.229C397.966 858.489 400.139 856.123 401.638 853.128C403.134 850.133 403.883 846.753 403.883 842.984C403.883 839.218 403.134 835.837 401.638 832.843C400.139 829.848 397.966 827.481 395.117 825.742C392.268 824.003 388.91 823.133 385.046 823.133C381.134 823.133 377.752 824.003 374.903 825.742C372.101 827.481 369.951 829.848 368.455 832.843C366.957 835.837 366.208 839.218 366.208 842.984C366.208 846.753 366.957 850.133 368.455 853.128C369.951 856.123 372.101 858.489 374.903 860.229C377.752 861.967 381.134 862.837 385.046 862.837ZM430.366 868.27C429.11 868.27 428.023 867.836 427.106 866.966C426.236 866.049 425.802 864.963 425.802 863.706V820.67C425.802 819.752 426.115 818.979 426.743 818.351C427.372 817.676 428.143 817.338 429.062 817.338C429.98 817.338 430.752 817.676 431.38 818.351C432.056 818.979 432.395 819.752 432.395 820.67V861.677H456.086C457.003 861.677 457.777 862.016 458.405 862.692C459.081 863.32 459.419 864.093 459.419 865.01C459.419 865.928 459.081 866.701 458.405 867.329C457.777 867.958 457.003 868.27 456.086 868.27H430.366ZM475.153 868.27C474.236 868.27 473.462 867.958 472.836 867.329C472.207 866.701 471.893 865.928 471.893 865.01V821.032C471.893 820.115 472.207 819.342 472.836 818.714C473.462 818.038 474.236 817.7 475.153 817.7H489.716C495.222 817.7 499.883 818.931 503.699 821.395C507.564 823.81 510.461 826.949 512.394 830.814C514.326 834.677 515.292 838.735 515.292 842.984C515.292 847.236 514.326 851.293 512.394 855.157C510.461 859.021 507.564 862.186 503.699 864.648C499.883 867.064 495.222 868.27 489.716 868.27H475.153ZM488.919 862.112C492.88 862.112 496.358 861.316 499.352 859.721C502.347 858.079 504.665 855.833 506.307 852.983C507.951 850.085 508.771 846.753 508.771 842.984C508.771 839.218 507.951 835.909 506.307 833.059C504.665 830.162 502.347 827.916 499.352 826.321C496.358 824.679 492.88 823.857 488.919 823.857H478.486V862.112H488.919ZM533.91 868.633C532.992 868.633 532.219 868.319 531.591 867.691C530.964 867.064 530.65 866.291 530.65 865.373V820.67C530.65 819.752 530.964 818.979 531.591 818.351C532.219 817.676 532.992 817.338 533.91 817.338C534.827 817.338 535.601 817.676 536.227 818.351C536.905 818.979 537.243 819.752 537.243 820.67V865.373C537.243 866.291 536.905 867.064 536.227 867.691C535.601 868.319 534.827 868.633 533.91 868.633ZM558.917 868.633C557.999 868.633 557.226 868.319 556.599 867.691C555.97 867.064 555.657 866.291 555.657 865.373V822.12C555.657 820.816 556.116 819.704 557.033 818.787C557.951 817.821 559.062 817.338 560.366 817.338H561.308C562.854 817.338 564.182 818.062 565.293 819.511L593.187 859.793V820.67C593.187 819.752 593.5 818.979 594.128 818.351C594.757 817.676 595.528 817.338 596.447 817.338C597.364 817.338 598.138 817.676 598.765 818.351C599.442 818.979 599.78 819.752 599.78 820.67V863.923C599.78 865.227 599.297 866.339 598.331 867.256C597.414 868.174 596.302 868.633 594.998 868.633H594.128C593.355 868.633 592.631 868.464 591.954 868.126C591.279 867.739 590.723 867.256 590.289 866.677L562.25 826.177V865.373C562.25 866.291 561.912 867.064 561.236 867.691C560.608 868.319 559.834 868.633 558.917 868.633ZM640.551 868.995C635.575 868.995 631.156 867.908 627.292 865.735C623.427 863.514 620.433 860.446 618.308 856.534C616.183 852.573 615.119 848.081 615.119 843.058C615.119 837.937 616.231 833.398 618.453 829.437C620.675 825.476 623.694 822.408 627.509 820.236C631.373 818.062 635.649 816.976 640.333 816.976C644.1 816.976 647.385 817.434 650.187 818.351C653.037 819.27 655.765 820.549 658.374 822.192C658.76 822.385 659.098 822.723 659.388 823.206C659.677 823.689 659.823 824.22 659.823 824.801C659.823 825.621 659.533 826.321 658.953 826.901C658.422 827.481 657.697 827.77 656.78 827.77C656.248 827.77 655.742 827.65 655.259 827.408C652.988 826.055 650.717 825.042 648.447 824.365C646.177 823.689 643.715 823.351 641.058 823.351C637.386 823.351 634.078 824.123 631.131 825.669C628.186 827.214 625.867 829.485 624.177 832.48C622.534 835.425 621.713 838.952 621.713 843.058C621.713 846.825 622.486 850.206 624.031 853.2C625.625 856.147 627.895 858.489 630.843 860.229C633.836 861.919 637.362 862.765 641.42 862.765C645.961 862.765 650.187 861.702 654.099 859.577V846.462H642.145C641.323 846.462 640.623 846.174 640.043 845.594C639.464 845.013 639.173 844.313 639.173 843.493C639.173 842.672 639.464 841.971 640.043 841.392C640.623 840.812 641.323 840.522 642.145 840.522H656.417C657.383 840.522 658.204 840.86 658.881 841.536C659.557 842.213 659.895 843.034 659.895 844V860.446C659.895 861.461 659.629 862.378 659.098 863.199C658.615 863.973 657.963 864.552 657.142 864.939C651.733 867.643 646.202 868.995 640.551 868.995Z" fill="#0A192F"/>
<path d="M684.421 846.516H954.782" stroke="#0A192F" stroke-width="6.06033" stroke-linecap="round"/>
<path d="M3.85583 845.924H283.539" stroke="#0A192F" stroke-width="6.16393" stroke-linecap="round"/>
</g>
</svg>
