<svg width="1868" height="790" viewBox="0 0 1868 790" fill="none" xmlns="http://www.w3.org/2000/svg">
<path d="M666.982 90.4438L578.164 181.214L497.479 98.5773L416.47 15.941L399.552 17.5677C386.213 18.8691 380.682 21.1465 374.826 27.9786C365.717 38.3895 362.789 49.7764 365.392 61.1633C366.693 66.0434 400.528 103.457 447.052 151.282L526.435 232.617L465.596 295.733L404.758 358.524L235.581 187.395L66.4043 16.5917L52.0893 16.917C40.7024 16.917 36.1477 18.8691 27.0381 27.9786C17.9286 37.0881 15.9766 41.6429 15.9766 52.3791C15.9766 69.2967 7.19242 59.8619 230.05 285.973L403.782 462.307L491.298 373.815L578.814 285.322L666.005 374.465L753.197 463.283L841.689 372.839L930.507 282.069L1019 372.513L1107.49 463.283L1193.71 373.815L1279.92 284.346L1368.74 372.839L1457.23 461.331L1505.71 412.53C1590.3 326.315 1829.42 78.4063 1833.98 71.8995C1840.16 63.1153 1840.16 45.2216 1834.63 34.8107C1826.82 20.4958 1804.04 12.6876 1788.1 18.8691C1785.5 19.8451 1710.02 96.2999 1620.55 189.022L1457.56 357.548L1395.09 294.757L1332.63 231.967L1365.49 196.83C1383.38 177.635 1407.13 152.909 1418.19 142.173C1429.25 131.437 1450.07 109.964 1464.06 94.3479C1487.49 68.3207 1489.77 64.4167 1489.77 52.3791C1489.77 41.6429 1487.81 37.0881 1478.7 27.9786C1469.59 18.8691 1465.04 16.917 1453.65 16.917L1439.34 16.5917L1359.96 97.9266L1280.9 178.936L1192.73 89.7932L1104.89 0.650058L1017.37 89.1425L930.181 177.96L842.99 88.8171L755.799 -0.000621319L666.982 90.4438ZM829.651 180.238L878.452 231.316L815.987 295.083L753.522 358.849L737.255 343.233C728.471 334.774 700.817 305.819 675.44 279.466L629.567 231.316L692.683 168.2L755.799 104.759L768.488 117.122C775.32 123.628 802.974 152.258 829.651 180.238ZM1168.98 295.083L1107.49 358.849L1045.03 294.757L982.886 230.34L1043.4 167.549L1103.91 104.433L1167.35 167.875L1230.47 230.991L1168.98 295.083Z" fill="#09F85A"/>
<path d="M1553.21 555.355C1535.96 561.536 1525.55 573.899 1525.55 588.214C1525.55 604.481 1538.57 616.518 1562.97 623.351C1599.08 633.111 1608.51 641.57 1599.4 655.885C1592.25 666.295 1575 669.874 1553.21 664.669C1528.48 659.138 1527.5 659.138 1526.2 665.319C1523.28 678.984 1579.23 686.466 1600.71 675.405C1614.05 668.573 1621.53 651.004 1616.65 637.34C1612.09 623.676 1602.33 617.169 1577.28 610.662C1565.89 607.734 1553.21 603.179 1549.3 600.577C1538.89 594.07 1539.87 582.032 1550.93 573.248C1559.71 566.091 1570.45 565.765 1605.26 570.645C1614.7 571.947 1615.67 560.885 1606.24 557.307C1590.62 551.45 1566.55 550.474 1553.21 555.355Z" fill="#09F85A"/>
<path d="M0.0347402 560.885C0.0347402 565.114 8.49357 593.093 18.5791 623.675C36.1475 675.73 37.7742 678.983 45.257 678.983C52.7398 678.983 54.3665 675.73 69.3321 630.182L85.5991 581.381L100.565 628.23C115.205 674.103 120.736 683.538 130.496 679.959C137.003 677.356 173.766 560.559 169.537 556.33C162.054 548.847 156.523 558.282 143.184 602.854C135.376 628.555 128.219 651.655 126.917 653.932C125.616 656.209 119.109 639.942 112.277 616.518C95.3593 560.234 92.4312 553.727 84.6231 553.727C79.0923 553.727 76.1642 560.234 65.1027 595.045C57.9452 618.145 51.1131 640.593 50.1371 645.473C46.8837 658.812 43.9556 656.86 38.0995 637.34C35.1714 628.23 28.014 605.456 22.4832 586.912C14.3497 559.583 11.4216 553.727 6.2162 553.727C1.66144 553.727 -0.2906 556.005 0.0347402 560.885Z" fill="#09F85A"/>
<path d="M361.813 557.632C354.98 566.742 311.385 673.778 313.662 677.032C318.217 684.84 325.7 679.96 332.532 664.343L339.689 648.076H370.922H402.155L408.987 664.343C415.494 680.285 424.278 685.816 427.857 676.381C429.483 672.152 386.213 566.091 379.706 557.632C377.754 555.68 373.85 553.728 370.597 553.728C367.343 553.728 363.439 555.68 361.813 557.632ZM383.285 602.204C388.816 615.217 393.371 627.255 393.371 628.881C393.371 630.508 383.285 631.809 370.597 631.809C358.234 631.809 347.823 631.484 347.823 630.833C347.823 628.881 364.741 588.214 367.994 582.032C371.898 574.55 371.247 573.574 383.285 602.204Z" fill="#09F85A"/>
<path d="M557.017 558.935C554.089 566.743 561.897 569.997 582.719 569.997H601.589L602.239 624.328C603.215 676.383 603.541 678.985 609.722 678.985C615.904 678.985 616.229 676.383 617.205 624.654L617.856 570.322L638.352 569.346C655.92 568.37 658.523 567.719 658.523 561.863C658.523 555.682 655.92 555.356 608.746 554.38C565.476 553.73 558.969 554.38 557.017 558.935Z" fill="#09F85A"/>
<path d="M794.514 558.933C791.586 566.741 799.394 569.995 820.542 569.995H839.086V625.303C839.086 677.357 839.411 680.61 845.267 680.61C848.521 680.61 852.425 678.333 853.401 675.405C854.377 672.477 855.353 647.751 855.353 620.422V570.32L875.849 569.344C893.418 568.368 896.02 567.717 896.02 561.861C896.02 555.68 893.418 555.355 846.243 554.379C802.973 553.728 796.466 554.379 794.514 558.933Z" fill="#09F85A"/>
<path d="M1032.99 556.33C1032.01 557.957 1039.82 585.285 1050.56 617.494C1076.91 697.202 1081.79 699.154 1100.66 637.99C1120.83 573.898 1117.25 574.549 1135.47 630.833C1148.48 671.175 1152.71 680.61 1157.59 680.61C1160.85 680.61 1165.08 678.658 1167.03 676.38C1173.86 667.921 1207.05 559.258 1203.79 556.005C1196.63 548.847 1190.78 557.957 1180.69 590.165C1175.16 608.71 1168 631.809 1164.75 641.569L1158.9 659.463L1148.48 625.302C1127.01 554.703 1127.01 555.354 1118.88 555.354C1111.72 555.354 1109.77 559.258 1095.78 605.131C1087.32 632.785 1079.84 655.558 1079.19 656.534C1078.21 657.185 1072.03 638.966 1065.52 616.192C1058.69 593.419 1051.21 569.994 1048.6 564.138C1044.7 554.378 1036.89 550.474 1032.99 556.33Z" fill="#09F85A"/>
<path d="M1355.08 558.933C1354.1 561.861 1353.12 587.889 1353.12 617.169C1353.12 646.45 1354.1 672.477 1355.08 675.405C1356.05 678.333 1359.96 680.61 1363.21 680.61C1369.06 680.61 1369.39 677.357 1369.39 617.169C1369.39 556.981 1369.06 553.728 1363.21 553.728C1359.96 553.728 1356.05 556.005 1355.08 558.933Z" fill="#09F85A"/>
<path d="M1771.83 555.68C1768.58 558.933 1769.23 671.501 1772.16 676.706C1774.44 679.634 1785.17 680.61 1815.43 679.96C1853.17 678.984 1855.77 678.658 1855.77 672.477C1855.77 666.295 1853.17 665.97 1820.96 664.994L1785.82 664.018V644.823V625.628L1817.71 624.652C1846.66 623.676 1849.27 623.025 1849.27 617.169C1849.27 611.313 1846.66 610.662 1817.71 609.686L1785.82 608.71V589.515V570.32L1820.96 569.344C1853.17 568.368 1855.77 568.043 1855.77 561.861C1855.77 555.68 1853.17 555.355 1814.78 554.379C1792.33 554.053 1773.14 554.704 1771.83 555.68Z" fill="#09F85A"/>
<path d="M12.7236 776.585C12.7236 785.369 14.025 787.972 18.5797 787.972C23.1345 787.972 23.4598 787.321 19.2304 784.718C15.001 781.79 15.001 781.14 19.2304 778.211C22.4838 776.259 22.8092 774.958 20.2064 774.958C14.025 774.958 15.001 769.102 21.8331 767.475C26.0626 766.174 25.4119 765.849 20.2064 765.523C13.6997 765.198 12.7236 766.825 12.7236 776.585Z" fill="#09F85A"/>
<path d="M32.5683 777.237C33.2189 787.973 33.5443 788.298 34.5203 780.165L36.147 770.73L43.6298 780.165L51.438 789.6L51.1126 776.586C51.1126 764.874 50.7873 764.548 48.8352 773.007L46.8832 782.442L42.3284 773.983C35.8217 761.62 32.2429 763.247 32.5683 777.237Z" fill="#09F85A"/>
<path d="M61.5244 776.587C61.5244 786.348 62.5004 787.974 69.0072 787.649C74.2127 787.324 74.8633 786.998 70.6339 785.697C63.8018 784.07 63.1511 779.515 69.0072 777.238C72.2606 775.937 72.2606 775.286 69.0072 775.286C62.8258 774.961 63.8018 769.105 70.6339 767.478C74.8633 766.176 74.2127 765.851 69.0072 765.526C62.5004 765.2 61.5244 766.827 61.5244 776.587Z" fill="#09F85A"/>
<path d="M84.6231 777.236C84.6231 786.346 85.2738 787.972 87.2258 783.092C89.8285 776.911 89.8285 776.911 93.4073 783.092C96.3353 788.623 96.6607 787.972 96.3353 778.212C96.01 770.404 94.0579 766.5 90.1539 765.849C85.2738 764.873 84.2978 767.151 84.6231 777.236ZM94.0579 771.705C94.0579 773.332 92.7566 774.959 90.8045 774.959C89.1778 774.959 87.5511 773.332 87.5511 771.705C87.5511 769.753 89.1778 768.452 90.8045 768.452C92.7566 768.452 94.0579 769.753 94.0579 771.705Z" fill="#09F85A"/>
<path d="M110.325 770.079C102.191 779.839 115.205 792.852 124.965 784.719C132.123 778.863 130.821 774.959 122.688 775.284C115.53 775.284 115.53 775.609 121.712 778.212C127.893 780.49 127.893 780.815 122.363 783.092C114.88 786.02 108.698 780.49 111.626 773.332C112.928 769.753 115.856 768.452 120.085 769.428C123.664 770.404 125.941 769.753 124.64 768.127C122.037 763.572 114.88 764.548 110.325 770.079Z" fill="#09F85A"/>
<path d="M140.581 775.611L144.16 787.648L148.389 777.563C153.595 765.851 153.595 761.296 149.04 769.429C145.787 775.286 145.461 775.286 141.232 769.429C137.328 764.549 137.328 765.2 140.581 775.611Z" fill="#09F85A"/>
<path d="M178.972 773.658C173.767 785.371 174.417 786.347 184.828 786.347C190.684 786.347 193.612 785.045 192.636 782.443C191.66 780.491 189.058 779.515 186.455 780.491C183.527 781.467 181.9 780.165 181.9 776.586C181.9 773.658 183.527 772.357 185.153 773.333C187.105 774.309 188.407 773.984 188.407 772.032C188.407 764.874 182.551 765.85 178.972 773.658Z" fill="#09F85A"/>
<path d="M201.746 771.705C201.421 782.767 205.975 788.948 213.133 787.322C217.687 786.671 219.314 783.092 219.965 774.959C220.29 763.897 220.29 763.897 218.338 773.332C217.037 778.863 213.783 783.092 211.181 783.092C208.578 783.092 205.325 778.863 204.349 773.332C202.397 764.548 202.071 764.548 201.746 771.705Z" fill="#09F85A"/>
<path d="M230.701 776.585C230.701 785.694 232.003 787.972 237.208 787.972C245.341 787.972 250.547 778.211 246.643 770.729C244.691 767.801 240.461 765.198 237.208 765.198C232.003 765.198 230.701 767.475 230.701 776.585ZM243.715 776.585C243.715 781.79 241.763 784.718 238.835 784.718C235.907 784.718 233.955 781.79 233.955 776.585C233.955 771.379 235.907 768.451 238.835 768.451C241.763 768.451 243.715 771.379 243.715 776.585Z" fill="#09F85A"/>
<path d="M257.704 776.586C257.704 783.744 258.354 786.347 259.005 782.117C259.656 778.213 259.656 772.357 259.005 769.104C258.029 766.176 257.378 769.429 257.704 776.586Z" fill="#09F85A"/>
<path d="M272.019 767.802C273.971 769.103 276.249 774.634 277.225 779.839L278.526 789.6L279.177 779.189C279.177 773.658 281.454 768.127 283.732 767.477C285.684 766.5 283.406 765.524 277.876 765.524C272.67 765.524 269.742 766.5 272.019 767.802Z" fill="#09F85A"/>
<path d="M293.492 776.586C293.492 783.744 294.143 786.347 294.793 782.117C295.444 778.213 295.444 772.357 294.793 769.104C293.817 766.176 293.167 769.429 293.492 776.586Z" fill="#09F85A"/>
<path d="M305.853 777.237C306.504 787.973 306.829 788.298 307.805 780.165L309.432 770.73L316.915 780.165L324.723 789.6L324.398 776.586C324.398 764.874 324.072 764.548 322.12 773.007L320.168 782.442L315.614 773.983C309.107 761.62 305.528 763.247 305.853 777.237Z" fill="#09F85A"/>
<path d="M336.111 769.754C335.135 772.357 334.81 777.237 335.461 780.49C336.762 788.298 352.053 788.624 353.68 780.49C354.33 776.911 352.704 774.959 348.8 775.285C345.546 775.285 344.57 776.261 347.173 777.237C353.354 779.839 351.728 784.719 344.57 784.719C339.69 784.719 338.063 782.442 338.063 776.261C338.063 768.778 339.365 767.802 346.197 769.103C350.426 770.079 353.354 769.428 352.378 768.127C349.776 763.572 338.063 764.874 336.111 769.754Z" fill="#09F85A"/>
<path d="M406.384 776.585C406.384 785.369 407.685 787.972 412.24 787.972C416.795 787.972 417.12 787.321 412.891 784.718C408.987 782.116 408.661 781.14 412.565 778.537C416.144 776.259 416.144 775.609 412.565 773.982C408.661 772.681 408.987 771.705 412.891 768.777C417.12 765.849 417.12 765.198 412.24 765.198C407.685 765.198 406.384 767.801 406.384 776.585Z" fill="#09F85A"/>
<path d="M426.555 775.611C425.905 786.673 426.881 787.974 433.388 787.649C438.268 787.323 438.918 786.673 435.014 785.697C431.761 785.046 429.158 780.166 428.182 773.984C426.881 763.899 426.881 763.899 426.555 775.611Z" fill="#09F85A"/>
<path d="M445.425 776.587C445.425 786.348 446.401 787.974 452.908 787.649C458.113 787.324 458.764 786.998 454.534 785.697C451.281 785.046 448.678 783.094 448.678 781.467C448.678 779.841 451.281 777.889 454.534 777.238C459.74 775.937 459.74 775.611 454.534 775.286C451.281 775.286 448.678 773.659 448.678 772.033C448.678 770.406 451.281 768.128 454.534 767.478C458.764 766.176 458.113 765.851 452.908 765.526C446.401 765.2 445.425 766.827 445.425 776.587Z" fill="#09F85A"/>
<path d="M468.525 771.054C464.621 778.537 469.826 787.972 477.96 787.972C481.213 787.972 484.792 786.67 485.768 785.044C487.069 783.417 484.792 782.766 480.888 783.742C473.405 785.694 467.874 779.838 470.477 772.681C471.778 769.753 475.357 768.451 479.912 769.427C484.141 770.078 486.744 769.427 485.768 768.126C482.84 763.246 471.778 764.873 468.525 771.054Z" fill="#09F85A"/>
<path d="M500.407 777.238C502.034 789.275 502.359 789.275 503.335 779.841C503.986 774.635 506.263 769.104 508.215 767.803C510.818 766.176 509.516 765.2 505.612 765.2C499.756 765.2 499.106 766.827 500.407 777.238Z" fill="#09F85A"/>
<path d="M520.578 777.237C520.578 786.672 521.229 787.973 523.181 783.093C525.784 776.912 525.784 776.912 529.688 783.093C532.29 787.322 533.267 787.648 532.29 784.394C531.314 781.466 531.965 777.562 533.917 775.61C538.472 771.055 534.243 765.199 526.434 765.199C521.554 765.199 520.253 767.477 520.578 777.237ZM533.267 771.706C533.267 773.333 530.989 774.96 528.386 774.96C525.784 774.96 523.506 773.333 523.506 771.706C523.506 769.754 525.784 768.453 528.386 768.453C530.989 768.453 533.267 769.754 533.267 771.706Z" fill="#09F85A"/>
<path d="M547.256 776.586C547.256 783.744 547.906 786.347 548.557 782.117C549.208 778.213 549.208 772.357 548.557 769.104C547.581 766.176 546.93 769.429 547.256 776.586Z" fill="#09F85A"/>
<path d="M559.619 771.056C553.763 782.117 570.681 795.456 577.188 784.72C578.489 782.442 576.537 781.792 571.332 783.093C566.126 784.394 562.873 783.744 561.571 780.49C558.643 773.008 564.174 767.477 572.308 770.08C577.188 771.706 578.815 771.381 577.513 768.778C573.934 763.247 563.198 764.549 559.619 771.056Z" fill="#09F85A"/>
<path d="M591.828 773.008C587.273 785.371 587.598 786.347 596.708 786.347C604.19 786.347 604.841 785.371 603.214 778.213C599.961 765.2 595.732 763.248 591.828 773.008ZM597.358 778.864C596.382 781.467 595.406 780.491 595.406 776.912C595.081 773.333 596.057 771.381 597.033 772.682C598.009 773.658 598.334 776.586 597.358 778.864Z" fill="#09F85A"/>
<path d="M614.927 775.609C614.602 785.369 615.903 787.972 620.458 787.972C624.037 787.972 624.687 786.996 622.085 785.369C620.133 784.068 617.855 778.537 616.879 773.331C615.578 764.547 615.578 764.547 614.927 775.609Z" fill="#09F85A"/>
<path d="M647.136 776.259C647.136 785.694 648.437 787.972 653.317 787.972C656.571 787.972 661.125 785.694 663.728 782.766C668.934 776.259 664.053 767.15 653.968 765.849C648.112 764.873 647.136 766.174 647.136 776.259ZM661.776 776.585C661.776 780.164 659.173 783.417 656.245 784.068C651.69 785.044 650.389 783.092 650.389 776.585C650.389 770.078 651.69 768.126 656.245 769.102C659.173 769.753 661.776 773.006 661.776 776.585Z" fill="#09F85A"/>
<path d="M676.416 776.585C676.416 785.369 677.717 787.972 682.272 787.972C686.827 787.972 687.152 787.321 682.923 784.718C679.019 782.116 678.693 781.14 682.597 778.537C686.176 776.259 686.176 775.609 682.597 773.982C678.693 772.681 679.019 771.705 682.923 768.777C687.152 765.849 687.152 765.198 682.272 765.198C677.717 765.198 676.416 767.801 676.416 776.585Z" fill="#09F85A"/>
<path d="M697.563 768.453C694.96 773.007 698.539 778.213 704.395 778.213C706.998 778.213 708.95 779.84 708.95 781.792C708.95 784.069 706.022 784.72 702.117 783.744C696.912 782.442 695.936 782.768 698.539 785.37C702.443 789.274 712.203 786.672 712.203 781.141C712.203 779.189 709.275 776.912 705.696 775.936C702.117 774.96 699.189 772.682 699.189 771.055C699.189 769.103 702.117 768.453 705.696 769.429C709.275 770.405 711.552 769.754 710.251 768.127C707.974 764.223 700.165 764.549 697.563 768.453Z" fill="#09F85A"/>
<path d="M722.94 776.586C722.94 783.744 723.591 786.347 724.241 782.117C724.892 778.213 724.892 772.357 724.241 769.104C723.265 766.176 722.615 769.429 722.94 776.586Z" fill="#09F85A"/>
<path d="M735.628 769.104C727.169 777.563 735.953 790.251 747.991 786.347C755.799 783.744 756.775 774.96 748.967 774.96C744.087 774.96 743.762 775.611 747.991 778.213C751.895 780.816 751.895 781.467 747.015 783.419C739.532 786.347 734.001 781.141 736.929 773.659C738.556 769.429 741.159 768.453 747.015 770.08C752.22 771.381 754.172 770.731 752.871 768.453C750.268 763.898 740.508 764.224 735.628 769.104Z" fill="#09F85A"/>
<path d="M764.258 776.259C764.258 782.766 764.908 787.972 765.559 787.972C768.162 787.972 769.463 768.126 766.861 766.499C765.559 765.523 764.258 770.078 764.258 776.259Z" fill="#09F85A"/>
<path d="M777.597 771.055C777.272 775.61 775.97 777.887 773.693 776.261C771.741 774.959 772.066 777.237 774.344 781.791L778.898 789.6L779.874 782.117C780.525 778.213 780.2 772.357 779.549 769.103C778.573 765.199 777.922 765.524 777.597 771.055Z" fill="#09F85A"/>
<path d="M809.48 766.826C809.155 767.802 808.829 769.428 808.504 770.73C808.179 772.356 806.877 775.284 805.576 777.236C801.347 783.743 805.576 787.647 816.312 787.322C826.398 786.997 826.072 783.093 815.336 775.284C810.456 771.706 810.131 770.404 813.384 768.127C816.637 766.175 816.963 765.199 814.035 765.199C811.757 765.199 809.48 765.85 809.48 766.826ZM814.685 781.466C815.661 783.093 814.36 784.719 811.757 784.719C808.829 784.719 806.552 783.093 806.552 781.466C806.552 779.514 807.853 778.212 809.48 778.212C811.432 778.212 813.709 779.514 814.685 781.466Z" fill="#09F85A"/>
<path d="M846.569 776.586C846.569 783.744 847.22 786.347 847.87 782.117C848.521 778.213 848.521 772.357 847.87 769.104C846.894 766.176 846.244 769.429 846.569 776.586Z" fill="#09F85A"/>
<path d="M858.932 777.237C859.582 787.973 859.908 788.298 860.884 780.165L862.51 770.73L869.993 780.165L877.801 789.6L877.476 776.586C877.476 764.874 877.151 764.548 875.199 773.007L873.246 782.442L868.692 773.983C862.185 761.62 858.606 763.247 858.932 777.237Z" fill="#09F85A"/>
<path d="M889.188 769.103C887.887 771.055 889.188 774.308 892.116 776.586C899.274 781.791 899.274 786.02 892.116 783.092C887.561 781.466 887.236 782.116 890.164 785.044C894.393 789.274 904.154 786.671 904.154 781.14C904.154 779.188 901.226 776.911 897.647 775.935C894.068 774.959 891.14 772.681 891.14 771.055C891.14 769.103 893.417 768.452 896.02 769.753C898.623 770.729 900.9 770.079 900.9 768.452C900.9 763.897 892.116 764.548 889.188 769.103Z" fill="#09F85A"/>
<path d="M912.938 767.802C914.89 769.103 917.168 774.634 918.144 779.839L919.445 789.6L920.096 779.189C920.096 773.658 922.373 768.127 924.651 767.477C926.603 766.5 924.325 765.524 918.794 765.524C913.589 765.524 910.661 766.5 912.938 767.802Z" fill="#09F85A"/>
<path d="M937.664 775.61C934.736 786.021 934.736 786.347 943.846 786.347C948.726 786.347 952.955 786.347 952.955 786.021C952.955 782.117 945.147 765.2 943.52 765.2C942.219 765.2 939.616 770.08 937.664 775.61ZM945.147 780.491C941.894 783.744 938.966 778.864 941.894 774.634C943.846 771.056 944.496 771.056 945.798 774.634C946.448 776.912 946.123 779.515 945.147 780.491Z" fill="#09F85A"/>
<path d="M963.04 775.609C962.715 785.369 964.016 787.972 968.571 787.972C972.15 787.972 972.801 786.996 970.198 785.369C968.246 784.068 965.969 778.537 964.992 773.331C963.691 764.547 963.691 764.547 963.04 775.609Z" fill="#09F85A"/>
<path d="M982.561 775.609C982.236 785.369 983.537 787.972 988.092 787.972C991.67 787.972 992.321 786.996 989.718 785.369C987.766 784.068 985.489 778.537 984.513 773.331C983.212 764.547 983.212 764.547 982.561 775.609Z" fill="#09F85A"/>
<path d="M1007.29 767.477C1005.98 769.429 1004.03 774.309 1002.08 778.539C999.478 785.696 1000.13 786.347 1008.59 786.347C1016.4 786.347 1017.7 785.371 1016.07 779.84C1012.49 768.778 1009.24 764.224 1007.29 767.477ZM1011.52 776.586C1011.52 779.189 1010.21 781.467 1008.26 781.467C1006.64 781.467 1005.98 779.189 1006.96 776.586C1008.26 773.984 1009.56 771.706 1010.21 771.706C1010.87 771.706 1011.52 773.984 1011.52 776.586Z" fill="#09F85A"/>
<path d="M1030.39 776.587C1032.01 791.227 1036.57 791.227 1038.19 776.587C1039.17 767.803 1038.19 765.2 1034.29 765.2C1030.39 765.2 1029.41 767.803 1030.39 776.587Z" fill="#09F85A"/>
<path d="M1051.53 776.586C1051.53 783.744 1052.18 786.347 1052.83 782.117C1053.48 778.213 1053.48 772.357 1052.83 769.104C1051.86 766.176 1051.21 769.429 1051.53 776.586Z" fill="#09F85A"/>
<path d="M1065.85 767.476C1061.62 771.705 1063.57 785.044 1068.78 786.996C1074.96 789.274 1083.74 784.719 1085.69 777.887C1086.34 774.959 1085.37 775.284 1082.11 778.863C1074.96 787.647 1066.82 786.346 1066.82 776.26C1066.82 768.777 1068.13 767.801 1074.96 769.103C1079.19 770.079 1082.11 769.428 1081.14 768.127C1079.19 764.548 1068.78 764.223 1065.85 767.476Z" fill="#09F85A"/>
<path d="M1093.18 777.237C1093.83 787.973 1094.15 788.298 1095.13 780.165L1096.76 770.73L1104.24 780.165L1112.05 789.6L1111.72 776.586C1111.72 764.874 1111.4 764.548 1109.44 773.007L1107.49 782.442L1102.94 773.983C1096.43 761.62 1092.85 763.247 1093.18 777.237Z" fill="#09F85A"/>
<path d="M1164.43 771.705C1164.43 775.284 1166.7 778.212 1169.31 778.212C1171.91 778.212 1174.19 779.839 1174.19 781.791C1174.19 783.743 1171.91 784.719 1169.31 783.418C1166.7 782.442 1164.43 783.092 1164.43 784.719C1164.43 789.274 1173.21 788.623 1176.14 784.068C1177.44 782.116 1176.14 778.863 1173.21 776.586C1166.38 771.705 1166.05 767.151 1172.88 769.753C1175.49 770.729 1176.79 770.404 1175.81 768.452C1172.23 762.596 1164.43 764.873 1164.43 771.705Z" fill="#09F85A"/>
<path d="M1188.5 769.753C1185.25 777.887 1188.5 786.346 1195.01 787.322C1203.79 789.274 1210.62 779.188 1206.39 771.38C1202.49 764.223 1191.1 763.247 1188.5 769.753ZM1204.44 772.356C1206.72 779.188 1203.14 784.719 1196.63 784.719C1192.08 784.719 1190.45 782.442 1190.45 776.586C1190.45 770.729 1192.08 768.452 1196.63 768.452C1200.21 768.452 1203.47 770.404 1204.44 772.356Z" fill="#09F85A"/>
<path d="M1216.81 775.609C1216.48 785.369 1217.78 787.972 1222.34 787.972C1225.92 787.972 1226.57 786.996 1223.96 785.369C1222.01 784.068 1219.73 778.537 1218.76 773.331C1217.46 764.547 1217.46 764.547 1216.81 775.609Z" fill="#09F85A"/>
<path d="M1239.58 775.61C1237.63 781.141 1236 785.696 1236 786.021C1236 786.347 1240.23 786.347 1245.44 786.347C1253.89 786.347 1254.55 785.696 1251.62 777.237C1247.06 764.549 1243.48 763.898 1239.58 775.61ZM1249.01 778.539C1249.01 780.165 1247.71 781.467 1245.76 781.467C1244.13 781.467 1242.51 779.189 1242.51 776.261C1242.51 773.658 1244.13 772.357 1245.76 773.333C1247.71 774.309 1249.01 776.586 1249.01 778.539Z" fill="#09F85A"/>
<path d="M1262.03 777.236C1262.35 787.646 1262.68 788.622 1265.61 783.742C1268.86 778.212 1269.51 778.212 1273.09 783.092C1276.34 787.646 1276.99 786.67 1276.67 777.561C1276.67 769.102 1275.37 766.499 1269.51 765.849C1262.68 764.873 1262.03 766.174 1262.03 777.236ZM1275.04 771.705C1275.04 773.332 1272.76 774.958 1270.16 774.958C1267.56 774.958 1265.28 773.332 1265.28 771.705C1265.28 769.753 1267.56 768.451 1270.16 768.451C1272.76 768.451 1275.04 769.753 1275.04 771.705Z" fill="#09F85A"/>
<path d="M1301.07 776.587C1301.07 786.348 1302.04 787.974 1308.55 787.649C1313.76 787.324 1314.41 786.998 1310.18 785.697C1306.92 785.046 1304.32 783.094 1304.32 781.467C1304.32 779.841 1306.92 777.889 1310.18 777.238C1315.38 775.937 1315.38 775.611 1310.18 775.286C1306.92 775.286 1304.32 773.659 1304.32 772.033C1304.32 770.406 1306.92 768.128 1310.18 767.478C1314.41 766.176 1313.76 765.851 1308.55 765.526C1302.04 765.2 1301.07 766.827 1301.07 776.587Z" fill="#09F85A"/>
<path d="M1324.49 776.586C1324.49 785.37 1325.14 786.997 1326.12 781.791L1327.75 773.658L1333.93 781.791L1340.11 789.6L1339.46 776.586C1339.46 767.802 1338.81 766.175 1337.83 771.381L1336.2 779.514L1330.02 771.381L1323.84 763.572L1324.49 776.586Z" fill="#09F85A"/>
<path d="M1349.87 776.587C1349.87 786.348 1350.85 787.974 1357.35 787.649C1362.56 787.324 1363.21 786.998 1358.98 785.697C1355.73 785.046 1353.12 783.094 1353.12 781.467C1353.12 779.841 1355.73 777.889 1358.98 777.238C1364.18 775.937 1364.18 775.611 1358.98 775.286C1355.73 775.286 1353.12 773.659 1353.12 772.033C1353.12 770.406 1355.73 768.128 1358.98 767.478C1363.21 766.176 1362.56 765.851 1357.35 765.526C1350.85 765.2 1349.87 766.827 1349.87 776.587Z" fill="#09F85A"/>
<path d="M1372.97 777.235C1372.97 786.996 1373.62 788.297 1375.9 783.092C1378.17 777.235 1378.5 776.91 1380.78 782.116C1382.08 785.369 1384.68 787.972 1386.31 787.972C1388.59 787.972 1388.26 786.345 1385.98 783.742C1383.71 780.489 1383.71 778.211 1385.98 775.934C1390.86 771.054 1386.96 765.198 1378.82 765.198C1373.94 765.198 1372.64 767.475 1372.97 777.235ZM1385.66 771.705C1385.66 773.331 1383.38 774.958 1380.78 774.958C1378.17 774.958 1375.9 773.331 1375.9 771.705C1375.9 769.753 1378.17 768.451 1380.78 768.451C1383.38 768.451 1385.66 769.753 1385.66 771.705Z" fill="#09F85A"/>
<path d="M1399 771.38C1394.77 779.188 1401.6 789.274 1410.38 787.322C1418.52 786.02 1420.79 774.959 1412.66 775.284C1409.41 775.284 1408.43 776.26 1411.03 777.236C1417.21 779.514 1415.59 784.719 1408.76 784.719C1401.6 784.719 1398.02 777.887 1401.92 772.031C1403.55 769.428 1407.13 768.452 1411.68 770.079C1416.56 771.705 1418.19 771.38 1416.89 768.777C1413.31 763.247 1402.57 764.548 1399 771.38Z" fill="#09F85A"/>
<path d="M1427.95 765.525C1427.95 766.827 1429.9 772.032 1432.18 777.563L1436.41 787.648L1439.99 775.611C1443.24 765.2 1443.24 764.549 1439.34 769.429C1435.11 775.286 1434.78 775.286 1431.53 769.429C1429.58 766.176 1427.95 764.549 1427.95 765.525Z" fill="#09F85A"/>
<path d="M1494.32 769.755C1489.77 782.118 1501.48 793.83 1509.94 785.371C1511.89 783.419 1509.94 782.768 1504.73 783.744C1497.25 785.371 1496.27 784.395 1496.27 776.587C1496.27 768.779 1497.25 767.803 1504.41 769.104C1508.64 770.08 1511.56 769.429 1510.59 768.128C1507.99 763.573 1496.27 764.875 1494.32 769.755Z" fill="#09F85A"/>
<path d="M1526.2 768.128C1523.6 769.43 1522.3 774.31 1522.95 778.539C1524.25 787.974 1537.59 789.601 1542.8 780.816C1548.98 771.056 1536.61 761.296 1526.2 768.128ZM1539.87 771.382C1542.8 775.936 1538.57 784.72 1533.69 784.72C1527.83 784.72 1524.58 779.19 1526.85 773.334C1528.81 767.803 1537.26 766.827 1539.87 771.382Z" fill="#09F85A"/>
<path d="M1551.91 777.237C1552.23 785.045 1552.88 786.672 1553.86 782.117C1554.51 778.213 1556.13 774.959 1557.11 774.959C1557.76 774.959 1561.34 778.213 1564.92 782.117L1570.77 789.6L1570.45 776.586C1570.45 764.874 1570.12 764.548 1568.17 773.007L1566.22 782.442L1561.67 773.983C1555.16 761.62 1551.58 762.922 1551.91 777.237Z" fill="#09F85A"/>
<path d="M1583.46 776.587C1585.09 791.227 1589.64 791.227 1591.27 776.587C1592.25 767.803 1591.27 765.2 1587.37 765.2C1583.46 765.2 1582.49 767.803 1583.46 776.587Z" fill="#09F85A"/>
<path d="M1603.96 777.235C1603.96 786.996 1604.61 788.297 1606.89 783.092C1609.17 777.235 1609.49 776.91 1611.77 782.116C1613.07 785.369 1615.67 787.972 1617.3 787.972C1619.58 787.972 1619.25 786.345 1616.97 783.742C1614.7 780.489 1614.7 778.211 1616.97 775.934C1621.85 771.054 1617.95 765.198 1609.82 765.198C1604.94 765.198 1603.63 767.475 1603.96 777.235ZM1616.65 771.705C1616.65 773.331 1614.37 774.958 1611.77 774.958C1609.17 774.958 1606.89 773.331 1606.89 771.705C1606.89 769.753 1609.17 768.451 1611.77 768.451C1614.37 768.451 1616.65 769.753 1616.65 771.705Z" fill="#09F85A"/>
<path d="M1629.99 771.055C1625.76 779.188 1632.59 789.274 1641.37 787.322C1650.81 785.695 1650.16 767.151 1640.4 765.85C1636.17 765.199 1631.94 767.151 1629.99 771.055ZM1645.93 776.586C1645.93 782.442 1644.3 784.719 1639.75 784.719C1636.17 784.719 1632.91 782.767 1631.94 780.49C1629.66 773.983 1633.24 768.452 1639.75 768.452C1644.3 768.452 1645.93 770.73 1645.93 776.586Z" fill="#09F85A"/>
<path d="M1659.27 775.609C1658.94 785.369 1660.24 787.972 1664.8 787.972C1668.38 787.972 1669.03 786.996 1666.43 785.369C1664.47 784.068 1662.2 778.537 1661.22 773.331C1659.92 764.547 1659.92 764.547 1659.27 775.609Z" fill="#09F85A"/>
<path d="M1691.8 771.054C1687.9 778.537 1693.1 787.972 1701.24 787.972C1704.49 787.972 1708.07 786.67 1709.05 785.044C1710.02 783.742 1707.09 783.092 1702.86 784.068C1695.71 785.369 1694.73 784.393 1694.73 776.585C1694.73 768.777 1695.71 767.801 1702.86 769.102C1707.09 770.078 1710.02 769.427 1709.05 768.126C1706.12 763.246 1695.06 764.873 1691.8 771.054Z" fill="#09F85A"/>
<path d="M1721.73 776.586C1721.73 783.744 1722.38 786.347 1723.03 782.117C1723.69 778.213 1723.69 772.357 1723.03 769.104C1722.06 766.176 1721.41 769.429 1721.73 776.586Z" fill="#09F85A"/>
<path d="M1734.1 777.237C1734.1 786.672 1734.75 787.973 1736.7 783.093C1739.3 776.912 1739.3 776.912 1743.21 783.093C1745.81 787.322 1746.78 787.648 1745.81 784.394C1744.83 781.466 1745.48 777.562 1747.43 775.61C1751.99 771.055 1747.76 765.199 1739.95 765.199C1735.07 765.199 1733.77 767.477 1734.1 777.237ZM1746.78 771.706C1746.78 773.333 1744.51 774.96 1741.9 774.96C1739.3 774.96 1737.02 773.333 1737.02 771.706C1737.02 769.754 1739.3 768.453 1741.9 768.453C1744.51 768.453 1746.78 769.754 1746.78 771.706Z" fill="#09F85A"/>
<path d="M1759.8 772.357C1756.54 779.189 1756.54 779.514 1761.1 773.983C1764.35 769.754 1767.93 768.453 1773.14 770.079C1777.69 771.706 1779.32 771.381 1778.02 768.778C1774.11 762.596 1763.38 764.874 1759.8 772.357Z" fill="#09F85A"/>
<path d="M1790.05 775.61C1790.38 783.744 1792.33 786.347 1797.21 786.347C1802.09 786.347 1803.72 784.069 1804.04 776.586C1804.37 767.477 1804.37 767.477 1803.07 775.61C1801.12 787.648 1793.31 787.323 1791.03 774.96C1789.08 765.2 1789.08 765.2 1790.05 775.61Z" fill="#09F85A"/>
<path d="M1816.08 776.586C1816.08 783.744 1816.73 786.347 1817.38 782.117C1818.03 778.213 1818.03 772.357 1817.38 769.104C1816.41 766.176 1815.76 769.429 1816.08 776.586Z" fill="#09F85A"/>
<path d="M1830.4 767.802C1832.35 769.103 1834.63 774.634 1835.6 779.839L1836.9 789.6L1837.55 779.189C1837.55 773.658 1839.83 768.127 1842.11 767.477C1844.06 766.5 1841.78 765.524 1836.25 765.524C1831.05 765.524 1828.12 766.5 1830.4 767.802Z" fill="#09F85A"/>
<path d="M1852.52 768.453C1849.92 773.007 1853.5 778.213 1859.35 778.213C1861.95 778.213 1863.91 779.84 1863.91 781.792C1863.91 784.069 1860.98 784.72 1857.07 783.744C1851.87 782.442 1850.89 782.768 1853.5 785.37C1857.4 789.274 1867.16 786.672 1867.16 781.141C1867.16 779.189 1864.23 776.912 1860.65 775.936C1857.07 774.96 1854.15 772.682 1854.15 771.055C1854.15 769.103 1857.07 768.453 1860.65 769.429C1864.23 770.405 1866.51 769.754 1865.21 768.127C1862.93 764.223 1855.12 764.549 1852.52 768.453Z" fill="#09F85A"/>
<path d="M1762.07 785.372C1764.03 788.95 1775.41 788.625 1777.37 785.046C1778.34 783.745 1774.76 782.443 1769.88 782.769C1764.68 783.094 1761.1 784.07 1762.07 785.372Z" fill="#09F85A"/>
</svg>
