<svg width="2257" height="836" viewBox="0 0 2257 836" fill="none" xmlns="http://www.w3.org/2000/svg">
<path d="M160.614 1.06921C159.814 1.6026 159.547 18.9359 159.681 46.5359L160.081 91.0692L163.414 90.5359C165.281 90.2693 175.014 90.0026 185.147 90.0026H203.414V65.7359C203.414 46.4026 203.814 41.0692 205.281 39.8693C206.747 38.6693 233.147 38.4026 312.347 38.8026C412.614 39.2026 417.947 39.3359 430.081 42.0026C455.414 47.6026 480.747 58.5359 495.547 70.4026C513.547 84.6693 526.881 105.469 532.881 128.403C537.014 143.736 537.014 167.203 532.881 181.603C525.014 209.869 509.547 228.536 484.081 240.536C461.547 251.203 439.014 255.736 402.747 256.936L377.414 257.736V264.003C377.547 267.603 377.681 276.669 377.814 284.403L378.081 298.403H391.147C453.147 298.403 504.214 317.203 530.347 349.603C538.747 360.003 545.147 372.669 549.547 387.069C552.747 397.469 553.147 401.469 553.281 417.069C553.414 438.003 551.547 446.803 543.414 463.203C533.681 482.936 515.547 498.936 491.814 508.669C475.814 515.203 447.547 522.136 429.681 523.736C420.214 524.669 376.347 525.069 309.414 524.803L204.081 524.403L203.681 502.403C203.547 490.403 202.881 480.003 202.214 479.336C200.881 478.003 163.147 477.603 161.014 478.936C159.814 479.603 159.414 491.203 159.414 522.536V565.069L162.614 566.403C164.614 567.069 218.747 567.469 295.681 567.203C436.614 566.669 439.681 566.536 472.081 558.803C530.747 544.936 566.214 519.736 585.414 478.003C593.947 459.469 596.081 448.669 596.081 422.403C596.081 396.136 594.214 384.403 586.881 364.803C572.881 327.736 542.214 297.736 502.081 282.403C495.814 280.003 490.347 277.603 489.681 277.069C489.147 276.669 492.747 274.536 497.681 272.536C535.414 257.069 560.614 229.869 572.347 192.136C575.814 180.936 575.947 179.069 575.947 153.736C575.947 129.203 575.681 126.003 572.481 114.136C560.881 71.4692 535.014 42.0026 490.747 20.9359C464.481 8.40259 439.414 2.93591 398.747 0.935913C371.014 -0.3974 162.881 -0.264099 160.614 1.06921Z" fill="#2E2C72"/>
<path d="M1884.08 1.46988C1871.01 2.66988 1851.81 8.00322 1842.88 12.8032C1821.68 24.2699 1808.61 50.4032 1812.61 73.2032C1816.88 98.1366 1833.15 113.603 1869.68 127.337C1887.15 133.87 1891.01 135.737 1896.48 140.403C1904.08 146.803 1903.01 158.403 1894.35 162.937C1881.55 169.603 1855.55 168.003 1831.95 159.07C1827.15 157.203 1822.35 155.737 1821.41 155.737C1820.48 155.737 1819.28 158.27 1818.88 161.737C1818.35 164.937 1816.48 173.737 1814.61 181.07C1810.75 197.203 1810.61 200.537 1813.81 202.27C1818.75 204.937 1843.15 210.27 1856.61 211.737C1881.15 214.403 1912.35 209.07 1928.61 199.337C1942.48 191.07 1953.41 175.603 1956.88 159.603C1959.01 150.003 1957.68 134.003 1954.08 124.67C1950.35 114.803 1939.15 102.67 1927.55 95.7365C1922.75 92.9365 1912.48 88.1365 1904.75 85.0699C1871.28 72.1365 1864.88 66.9366 1869.28 56.5365C1874.08 44.9366 1899.55 42.4032 1925.01 51.0699C1930.35 52.9366 1935.68 54.4032 1936.88 54.4032C1938.48 54.4032 1940.21 49.8699 1943.95 35.3365C1949.28 14.5365 1949.55 12.6699 1947.15 10.6699C1943.95 8.26988 1928.21 4.0032 1916.08 2.53654C1898.21 0.403214 1895.68 0.269882 1884.08 1.46988Z" fill="#2E2C72"/>
<path d="M1097.28 2.93619C1063.68 10.5362 1035.55 35.8695 1025.55 67.7362C1020.75 82.9362 1018.88 97.8695 1019.81 116.27C1021.68 156.803 1039.68 186.536 1072.08 202.403C1088.08 210.403 1097.15 212.27 1117.41 212.27C1161.28 212.136 1191.81 194.803 1208.88 160.403C1217.41 143.07 1219.81 131.87 1219.81 107.736C1219.81 96.1362 1219.15 83.2029 1218.21 78.4029C1211.41 43.4695 1187.81 16.4028 1154.75 5.46951C1145.55 2.53619 1141.28 1.86952 1124.75 1.60286C1111.68 1.33618 1102.75 1.73619 1097.28 2.93619ZM1135.01 48.5362C1152.21 56.6695 1162.88 79.4695 1162.35 107.07C1161.95 135.336 1153.15 155.336 1136.88 164.803C1131.55 167.87 1129.28 168.403 1120.08 168.403C1107.55 168.403 1101.41 165.736 1093.68 157.203C1082.88 145.336 1077.41 129.07 1077.68 109.736C1077.95 85.2029 1083.15 68.4029 1094.21 56.4029C1105.68 44.0029 1119.68 41.3362 1135.01 48.5362Z" fill="#2E2C72"/>
<path d="M1763.55 2.6699C1755.15 3.20323 1748.08 4.00323 1747.68 4.2699C1747.41 4.6699 1746.08 10.4032 1744.75 17.3366C1741.41 34.4032 1737.55 49.3366 1731.28 69.4699C1728.35 78.8032 1726.35 87.0699 1726.75 87.7366C1727.68 89.2032 1750.21 89.6032 1755.01 88.2699C1761.01 86.6699 1780.61 48.2699 1794.08 11.7366L1797.95 1.0699L1788.35 1.20323C1783.15 1.33657 1771.95 2.00323 1763.55 2.6699Z" fill="#2E2C72"/>
<path d="M688.081 4.00275C678.614 4.53607 667.014 5.33607 662.481 5.46941C657.948 5.73607 653.281 6.6694 652.214 7.73607C650.348 9.20274 650.081 20.4028 650.081 107.736C650.081 192.269 650.348 206.269 652.081 207.736C657.414 212.136 724.348 212.669 749.681 208.403C792.881 201.336 817.548 174.136 811.814 140.403C808.481 120.669 797.014 107.603 776.214 99.7361L772.214 98.2694L778.881 95.2028C787.414 91.2028 794.614 84.9361 798.881 77.6028C803.548 69.6028 804.881 64.5361 804.881 53.3361C804.881 40.8027 800.348 30.2694 791.414 21.8694C783.681 14.6694 777.148 11.2027 764.481 7.8694C744.881 2.53607 725.548 1.46941 688.081 4.00275ZM737.414 44.9361C745.414 48.5361 750.081 54.6694 750.081 61.4694C750.081 74.5361 739.014 82.1361 719.548 82.6694C705.014 83.2028 704.748 82.8027 704.748 62.8027C704.748 43.2027 705.414 42.4027 721.148 42.4027C728.881 42.4027 733.681 43.2027 737.414 44.9361ZM741.148 126.403C744.614 128.003 748.748 131.203 750.214 133.336C756.481 142.136 754.214 157.869 745.548 164.403C740.481 168.269 728.081 171.736 718.214 171.869C709.548 172.136 706.748 169.603 705.281 160.403C703.814 150.403 705.148 127.069 707.414 124.403C710.348 120.936 732.214 122.136 741.148 126.403Z" fill="#2E2C72"/>
<path d="M882.748 3.336C858.081 4.93599 845.681 6.40266 844.081 7.73599C842.348 9.20265 842.081 22.536 842.348 108.936L842.748 208.403H869.414H896.081L896.748 172.136C897.281 145.469 897.814 135.469 899.148 134.136C901.814 131.469 915.014 132.669 921.281 136.136C928.748 140.269 931.548 146.669 939.414 177.069C944.881 198.669 946.614 203.603 949.414 206.003C952.748 208.936 953.814 209.069 979.414 209.069H1005.95L1004.08 202.669C1003.01 199.203 998.881 184.136 994.748 169.069C986.214 137.869 982.081 128.936 971.814 119.736L964.614 113.336L973.948 107.203C984.614 100.003 991.681 91.2027 995.681 80.136C999.281 69.6027 998.614 50.6693 994.081 39.2027C987.814 23.6027 973.014 12.0027 953.414 7.20265C938.081 3.336 907.281 1.73599 882.748 3.336ZM928.481 45.736C938.348 49.8693 943.414 57.2027 943.414 67.0693C943.414 74.8027 940.348 81.6027 934.881 85.736C924.748 93.336 901.014 97.336 898.081 91.8693C897.414 90.4027 896.748 80.4027 896.748 68.936C896.748 43.4693 896.614 43.736 912.348 43.736C919.414 43.736 925.281 44.536 928.481 45.736Z" fill="#2E2C72"/>
<path d="M1232.75 5.73659C1232.75 9.60326 1278.48 205.87 1279.68 207.337C1281.55 209.603 1338.75 209.87 1340.21 207.603C1340.61 206.803 1342.48 198.27 1344.08 188.67C1345.81 178.937 1349.28 160.937 1351.95 148.537C1354.48 136.137 1358.48 114.403 1360.75 100.003C1365.01 72.8033 1367.28 64.6699 1367.41 76.0033C1367.41 84.1366 1372.48 117.737 1381.15 168.403L1388.08 208.403L1417.28 208.803C1434.08 208.937 1447.15 208.537 1447.81 207.87C1449.68 206.003 1498.08 11.8699 1498.08 6.26991C1498.08 4.26991 1443.41 4.66992 1442.75 6.66992C1441.81 9.20325 1422.08 137.07 1422.08 141.07C1421.95 143.603 1421.68 144.003 1420.75 142.403C1419.68 140.403 1417.41 126.403 1405.55 48.0033C1402.21 26.5366 1398.88 8.00325 1397.95 6.93658C1396.75 5.46992 1391.15 5.06992 1368.61 5.06992C1340.88 5.06992 1340.61 5.06992 1339.41 8.00325C1337.95 11.3366 1332.21 42.8033 1322.61 101.737C1316.88 136.137 1314.75 146.27 1313.55 144.937C1313.15 144.67 1308.35 113.737 1302.61 76.4033C1297.01 38.9366 1291.68 7.60326 1291.01 6.66992C1290.08 5.46992 1282.48 5.06992 1261.28 5.06992C1245.55 5.06992 1232.75 5.33658 1232.75 5.73659Z" fill="#2E2C72"/>
<path d="M1522.75 6.66922C1522.35 7.60255 1522.21 53.3359 1522.35 108.403L1522.75 208.403L1546.61 208.803C1559.81 208.936 1571.01 208.669 1571.68 208.003C1573.01 206.669 1573.41 121.469 1572.21 90.4025L1571.41 69.7359L1576.35 80.4025C1579.01 86.2692 1594.35 117.336 1610.48 149.336C1633.41 195.336 1640.21 207.869 1642.48 208.403C1644.08 208.803 1657.41 208.936 1672.08 208.803L1698.75 208.403V107.069V5.73589L1674.35 5.33589L1650.08 5.06921L1648.61 8.66922C1647.28 12.1359 1648.75 84.0025 1651.01 121.069C1651.41 129.069 1651.28 133.203 1650.48 132.403C1649.81 131.603 1646.35 123.869 1642.75 115.069C1636.88 100.669 1613.95 54.4025 1595.15 19.0692L1588.08 5.73589L1555.68 5.33589C1530.48 5.06921 1523.15 5.33589 1522.75 6.66922Z" fill="#2E2C72"/>
<path d="M152.614 102.936C112.614 110.003 77.9476 128.67 49.8143 158.27C25.9476 183.337 10.6143 212.403 3.14759 246.803C-0.719072 264.937 -1.11907 301.203 2.48093 318.403C14.6143 376.537 50.6143 423.737 101.281 448.403C130.881 462.803 149.148 466.937 182.748 466.937C209.548 466.937 223.681 464.67 245.681 456.937C302.614 436.803 345.948 389.337 360.881 330.803C377.548 265.07 358.481 197.337 310.481 151.603C285.548 127.87 255.948 112.27 221.281 104.403C208.481 101.47 166.081 100.536 152.614 102.936ZM210.081 119.07C272.081 129.203 323.281 172.803 342.081 231.47C351.681 261.07 352.748 296.937 345.014 326.803C329.681 386.003 285.281 430.537 226.348 445.737C149.414 465.87 69.8143 430.403 34.4809 360.537C6.34759 304.67 9.94759 242.537 44.7476 190.67C69.8143 153.07 109.948 127.07 154.748 119.203C169.148 116.67 194.614 116.67 210.081 119.07Z" fill="#2E8F54"/>
<path d="M155.547 151.07C129.547 156.936 105.147 170.27 86.8808 188.536C70.6141 204.67 56.4808 229.47 51.4141 250.403C43.6808 282.536 47.8141 319.336 62.3475 346.403C77.0141 373.87 97.8141 393.603 126.614 407.203C178.347 431.603 242.347 419.47 282.081 377.47C325.681 331.736 331.414 260.936 296.081 207.736C279.014 182.136 249.414 161.603 217.014 152.803C203.414 149.203 168.347 148.136 155.547 151.07ZM211.147 200.003C212.347 201.203 212.747 209.203 212.747 227.87C212.747 250.536 213.014 254.27 214.881 254.936C216.081 255.336 228.214 255.736 242.081 255.736C261.681 255.736 267.414 256.136 268.614 257.603C269.681 258.803 270.081 267.47 269.814 285.87L269.414 312.403L242.881 312.803C225.947 312.936 215.681 313.603 214.481 314.536C213.147 315.736 212.747 322.003 212.747 341.603C212.747 359.736 212.214 367.736 211.147 368.803C208.881 371.07 157.947 371.07 155.681 368.803C154.614 367.736 154.081 359.736 154.081 341.736C154.081 323.736 153.547 315.736 152.481 314.67C151.414 313.603 143.414 313.07 125.414 313.07C107.414 313.07 99.4141 312.536 98.3475 311.47C96.6141 309.736 95.9475 262.003 97.5475 257.87C98.2141 256.003 101.947 255.736 124.614 255.736C143.281 255.736 151.281 255.336 152.481 254.136C153.547 253.07 154.081 245.07 154.081 227.07C154.081 209.07 154.614 201.07 155.681 200.003C157.947 197.736 208.881 197.736 211.147 200.003Z" fill="#2E2C72"/>
<path d="M1977.41 369.07C1933.01 378.403 1903.28 407.603 1894.61 450.403C1891.68 464.937 1892.61 490.27 1896.61 505.737C1905.15 538.803 1929.55 562.803 1965.01 573.203C1985.41 579.203 2038.88 577.603 2050.75 570.537C2055.15 567.87 2055.15 568.003 2052.35 552.403C2051.28 546.537 2049.95 539.07 2049.55 535.737C2048.21 526.27 2047.81 526.003 2037.95 528.27C1986.08 540.27 1951.15 517.737 1951.28 472.403C1951.28 452.403 1957.01 436.803 1967.81 426.803C1983.68 412.137 2006.75 407.87 2033.81 414.537C2042.35 416.537 2046.61 417.07 2047.55 416.137C2049.41 414.27 2056.75 383.47 2056.75 377.737C2056.75 373.87 2056.21 373.07 2052.48 371.87C2034.48 366.137 1998.21 364.803 1977.41 369.07Z" fill="#2E2C72"/>
<path d="M683.414 368.669C680.881 368.803 673.148 369.469 666.348 369.869C658.214 370.403 653.414 371.336 652.081 372.669C650.348 374.269 650.081 388.003 650.081 472.936C650.081 547.603 650.481 571.603 651.681 572.803C653.414 574.536 698.481 575.203 702.614 573.603C704.481 572.936 704.748 568.803 704.748 541.203C704.748 517.869 705.148 509.069 706.481 507.469C707.681 505.736 711.814 505.203 726.081 504.669C767.548 503.069 794.214 486.669 803.681 456.669C806.881 446.803 807.414 429.069 804.881 418.403C795.948 380.803 769.814 367.336 707.681 368.003C696.881 368.003 685.948 368.403 683.414 368.669ZM738.214 413.336C748.214 418.669 752.081 424.669 751.948 435.069C751.681 447.603 743.948 456.936 730.348 461.069C725.681 462.536 719.148 463.736 715.948 463.736C706.614 463.736 705.548 461.069 705.014 435.069C704.481 408.669 704.214 409.069 719.414 409.069C728.614 409.069 730.881 409.603 738.214 413.336Z" fill="#2E2C72"/>
<path d="M1274.35 369.603C1263.95 370.536 1254.75 371.869 1254.08 372.536C1253.15 373.469 1252.88 408.403 1253.01 473.869L1253.41 573.736L1278.61 574.136C1295.95 574.403 1304.35 574.003 1305.55 572.936C1307.01 571.736 1307.41 564.403 1307.41 535.869C1307.41 510.003 1307.81 499.869 1309.01 498.669C1311.68 496.003 1322.21 496.803 1329.55 500.269C1340.75 505.469 1341.28 506.669 1352.75 548.403C1355.81 559.336 1359.15 569.736 1360.21 571.469C1362.21 574.403 1362.35 574.403 1389.15 574.136C1415.15 573.736 1416.08 573.603 1415.95 571.069C1415.81 569.603 1413.55 560.536 1410.75 551.069C1408.08 541.469 1404.35 528.269 1402.61 521.736C1397.41 503.069 1392.08 492.669 1383.68 484.936C1379.68 481.203 1376.88 477.869 1377.55 477.336C1378.21 476.803 1382.21 474.003 1386.48 471.069C1401.68 460.936 1409.01 446.936 1409.15 427.736C1409.28 409.069 1404.21 396.269 1392.75 385.869C1385.41 379.336 1376.08 375.069 1361.28 371.603C1346.35 368.136 1302.61 367.203 1274.35 369.603ZM1342.08 412.136C1350.35 416.136 1354.08 422.136 1354.08 431.336C1354.08 448.936 1339.95 459.336 1317.95 458.136C1311.01 457.736 1310.75 457.603 1309.15 453.069C1307.01 446.669 1307.01 417.336 1309.15 413.069C1310.21 410.803 1312.35 409.469 1315.41 408.803C1322.88 407.469 1335.55 409.069 1342.08 412.136Z" fill="#2E2C72"/>
<path d="M834.081 371.603C832.214 375.203 832.214 568.27 834.081 571.87C835.414 574.27 837.148 574.403 860.481 574.403C874.214 574.403 886.214 573.87 887.281 573.203C888.881 572.137 889.148 565.87 888.881 534.803C888.614 504.937 888.881 497.203 890.481 495.203C892.081 492.937 894.481 492.803 921.948 492.803C942.881 492.803 952.081 493.203 953.148 494.27C954.214 495.337 955.014 507.603 955.414 534.803L956.081 573.737L981.281 574.137C998.615 574.403 1007.01 574.003 1008.21 572.937C1009.81 571.603 1010.08 555.07 1010.08 472.803C1010.08 407.47 1009.68 373.337 1008.75 371.603C1007.41 369.203 1005.68 369.07 983.014 369.07C969.681 369.07 957.948 369.603 956.881 370.27C955.414 371.203 955.014 377.603 955.281 405.603C955.548 428.27 955.148 440.537 954.081 442.403C952.748 444.937 951.548 445.07 923.014 445.07C906.748 445.07 892.481 444.403 891.414 443.737C889.681 442.67 889.281 436.537 888.748 406.137L888.081 369.737L861.814 369.337C836.881 369.07 835.414 369.203 834.081 371.603Z" fill="#2E2C72"/>
<path d="M1093.55 371.069C1092.48 372.136 1090.61 376.536 1089.41 380.803C1088.21 384.936 1079.15 415.736 1069.41 449.069C1049.81 516.003 1034.08 571.069 1034.08 573.069C1034.08 575.203 1088.08 574.803 1089.95 572.669C1090.75 571.603 1093.68 561.736 1096.48 550.669C1099.28 539.469 1102.21 529.736 1102.88 529.069C1103.55 528.536 1115.01 527.736 1128.48 527.603C1148.35 527.336 1153.15 527.603 1154.61 529.203C1155.55 530.136 1158.88 540.269 1161.95 551.603C1164.88 562.936 1168.08 572.669 1169.01 573.336C1169.95 573.869 1182.88 574.403 1197.81 574.403C1220.88 574.403 1224.88 574.136 1225.68 572.403C1226.08 571.203 1221.81 555.469 1216.35 537.336C1202.35 491.869 1178.75 412.003 1172.88 390.936C1170.21 381.336 1167.28 372.536 1166.21 371.336C1164.61 369.336 1160.35 369.069 1129.95 369.069C1101.15 369.069 1095.28 369.336 1093.55 371.069ZM1145.55 480.003L1146.48 485.069H1129.01C1119.41 485.069 1111.28 484.536 1110.88 483.869C1110.21 482.936 1124.88 418.269 1126.88 413.069C1127.68 411.203 1143.68 468.936 1145.55 480.003Z" fill="#2E2C72"/>
<path d="M1450.35 370.803C1449.55 371.737 1447.95 389.07 1446.88 409.737C1445.68 430.27 1443.81 459.603 1442.75 475.07C1440.21 512.67 1437.55 558.937 1437.41 567.07V573.737L1461.55 574.137C1483.01 574.403 1485.81 574.27 1486.61 572.27C1488.75 566.67 1492.75 479.603 1492.75 439.87C1492.75 417.07 1494.08 420.137 1502.88 462.67C1508.35 489.737 1525.55 561.737 1527.41 566.003C1528.61 568.937 1529.15 569.07 1549.28 569.07C1565.41 569.07 1570.08 568.67 1571.28 567.203C1572.75 565.337 1607.68 443.203 1609.55 433.337C1611.55 423.203 1612.35 429.603 1613.15 458.137C1614.48 512.537 1617.01 568.403 1618.21 571.337C1619.28 574.403 1619.68 574.403 1643.28 574.403C1662.88 574.403 1667.41 574.003 1668.75 572.403C1670.08 570.937 1670.21 566.27 1669.55 554.003C1669.15 545.07 1668.08 523.87 1667.41 507.07C1666.61 490.137 1665.41 468.937 1664.75 459.737C1663.95 450.537 1662.75 427.203 1662.08 408.003C1661.28 384.803 1660.35 372.137 1659.28 370.937C1658.08 369.47 1651.41 369.07 1624.61 369.07C1586.61 369.07 1587.95 368.67 1584.35 381.203C1578.75 400.537 1563.28 459.87 1559.28 477.07C1556.88 487.737 1554.75 496.67 1554.48 496.937C1553.55 498.27 1552.75 495.07 1548.21 472.937C1540.08 432.27 1525.01 372.537 1522.48 370.67C1519.28 368.27 1452.35 368.403 1450.35 370.803Z" fill="#2E2C72"/>
<path d="M1749.81 371.336C1748.21 373.203 1706.61 513.336 1693.01 562.536C1689.68 574.803 1688.75 574.403 1718.48 574.403C1741.41 574.403 1744.61 574.136 1746.35 572.003C1747.41 570.803 1750.35 561.203 1752.75 550.67C1755.28 540.136 1757.95 530.67 1758.75 529.603C1760.75 526.803 1808.21 526.536 1810.75 529.336C1811.68 530.27 1814.88 540.003 1817.95 551.07C1821.01 562.003 1824.21 571.736 1825.01 572.67C1826.75 574.803 1881.41 575.203 1882.75 573.203C1883.41 572.003 1870.75 528.403 1837.55 417.87C1829.81 392.27 1822.75 370.803 1821.81 370.27C1820.88 369.603 1804.75 369.07 1785.95 369.07C1755.15 369.07 1751.68 369.336 1749.81 371.336ZM1793.28 445.736C1798.21 464.803 1802.48 481.47 1802.88 482.67C1803.55 484.936 1802.08 485.07 1785.55 485.07C1769.01 485.07 1767.41 484.803 1767.41 482.67C1767.41 481.336 1771.01 465.07 1775.41 446.403C1779.81 427.736 1783.41 411.87 1783.41 411.203C1783.41 407.736 1785.28 414.003 1793.28 445.736Z" fill="#2E2C72"/>
<path d="M2071.41 370.27C2071.41 371.603 2096.88 420.27 2117.81 459.07C2134.88 490.803 2134.61 489.737 2135.15 533.737C2135.41 557.47 2136.08 571.603 2137.01 572.67C2138.88 575.07 2186.08 575.203 2188.48 572.803C2189.68 571.603 2190.08 560.403 2190.08 530.403V489.737L2199.55 473.07C2219.68 437.47 2255.41 373.337 2256.21 371.203C2257.01 369.337 2254.35 369.07 2227.81 369.07C2206.48 369.07 2197.95 369.47 2196.35 370.67C2194.61 372.003 2182.88 402.803 2165.81 450.403C2165.15 452.137 2165.01 452.137 2164.35 450.403C2151.95 416.67 2134.88 372.003 2133.81 370.803C2132.08 368.67 2071.41 368.27 2071.41 370.27Z" fill="#2E2C72"/>
<path d="M862.747 656.003C857.014 658.003 850.214 664.936 848.747 670.403C848.081 672.936 847.414 682.936 847.414 692.669C847.414 712.403 846.347 715.336 839.147 713.869C833.281 712.669 831.414 714.136 831.414 719.736C831.414 725.336 833.281 726.803 839.147 725.603C841.681 725.069 843.681 725.603 845.147 727.069C847.147 728.936 847.414 733.203 847.414 761.736V794.136L850.881 794.936C852.747 795.469 855.414 795.469 856.747 795.069C859.014 794.269 859.281 792.003 859.681 762.536C860.081 726.536 860.214 726.403 869.547 726.403C878.481 726.403 882.081 724.536 882.081 719.869C882.081 714.803 881.014 714.136 870.481 713.869C865.414 713.736 861.414 712.936 860.881 712.003C860.347 711.069 859.947 703.203 860.214 694.536C860.614 671.869 864.214 666.536 877.014 670.003L882.081 671.336V664.803C882.081 658.669 881.814 658.136 877.414 656.269C872.214 654.136 868.481 654.003 862.747 656.003Z" fill="#2E8F54"/>
<path d="M1770.35 658.669C1769.15 659.869 1768.75 675.336 1768.75 725.869C1768.75 783.736 1769.01 791.736 1770.88 793.603C1773.41 796.136 1778.08 796.403 1781.15 794.003C1783.28 792.536 1783.41 787.203 1783.15 725.069L1782.75 657.736L1777.41 657.336C1774.35 657.069 1771.28 657.736 1770.35 658.669Z" fill="#2E8F54"/>
<path d="M1814.35 658.67C1813.15 659.87 1812.75 676.67 1812.75 725.87C1812.75 785.47 1813.01 791.736 1815.01 793.736C1817.55 796.27 1825.81 795.736 1827.68 792.803C1829.41 789.87 1829.01 660.536 1827.15 658.67C1826.21 657.736 1823.41 657.07 1820.75 657.07C1818.08 657.07 1815.28 657.736 1814.35 658.67Z" fill="#2E8F54"/>
<path d="M233.681 682.669C229.548 694.669 221.814 716.936 216.614 732.136C211.414 747.336 206.881 759.603 206.748 759.469C206.481 759.203 199.414 738.936 190.881 714.403C182.348 689.869 174.481 668.936 173.414 667.869C171.681 666.003 160.081 665.336 158.481 666.803C157.814 667.603 206.614 798.403 207.548 798.403C207.948 798.403 215.414 777.069 224.214 751.069C232.881 725.069 240.748 703.736 241.414 703.736C242.214 703.736 249.548 723.736 257.948 748.136C266.214 772.403 273.548 793.869 274.348 795.736L275.548 799.069L277.548 794.403C285.281 776.669 324.748 668.403 324.214 666.936C323.281 664.669 317.414 664.669 312.214 666.803C307.948 668.669 309.014 666.003 289.414 722.669C282.748 741.603 276.881 757.069 276.081 757.069C275.414 757.069 267.948 737.069 259.548 712.669C251.148 688.403 243.548 666.669 242.748 664.669C241.281 661.069 240.748 662.136 233.681 682.669Z" fill="#2E8F54"/>
<path d="M489.681 727.336C473.814 763.736 461.014 793.736 461.281 794.003C461.414 794.269 464.481 794.536 467.948 794.669C476.081 795.069 477.548 793.336 486.081 773.736C489.814 764.936 493.681 757.336 494.481 756.803C495.414 756.269 506.748 755.736 519.681 755.736C537.814 755.736 543.681 756.136 545.014 757.603C546.081 758.536 549.814 766.803 553.414 775.736C557.414 785.469 561.148 792.803 562.748 793.736C564.481 794.803 567.681 795.069 571.548 794.536L577.814 793.736L549.281 728.403C533.548 692.536 520.214 662.669 519.681 662.136C519.148 661.603 505.681 690.936 489.681 727.336ZM529.281 717.603C534.081 728.536 538.081 738.536 538.081 739.869C538.081 742.269 536.748 742.403 518.748 742.403C508.081 742.403 499.414 742.003 499.414 741.336C499.414 738.669 518.748 695.869 519.548 696.669C520.081 697.336 524.481 706.669 529.281 717.603Z" fill="#2E8F54"/>
<path d="M1570.08 709.736C1560.88 736.536 1553.01 758.403 1552.61 758.403C1552.08 758.403 1551.41 757.336 1551.01 756.003C1550.61 754.803 1543.95 735.07 1536.08 712.403C1520.88 667.736 1519.41 665.07 1510.88 665.07C1504.75 665.07 1503.15 667.47 1505.41 672.403C1507.01 675.736 1527.55 731.07 1544.21 776.803C1546.75 783.603 1549.81 791.336 1551.15 794.003L1553.68 798.803L1561.68 775.603C1566.08 762.803 1573.55 740.803 1578.21 726.803C1582.88 712.67 1587.01 701.603 1587.55 702.136C1588.08 702.67 1595.81 724.803 1604.75 751.47C1613.81 778.003 1621.28 799.603 1621.55 799.336C1621.81 799.203 1632.48 770.803 1645.28 736.403C1658.08 701.87 1669.15 672.003 1669.95 670.003L1671.41 666.27L1663.15 666.67C1657.55 666.936 1654.75 667.736 1653.95 669.07C1653.41 670.136 1646.08 690.67 1637.81 714.67C1629.55 738.67 1622.35 758.403 1621.95 758.403C1621.41 758.403 1614.08 737.87 1605.41 712.67C1596.75 687.603 1589.01 665.736 1588.21 664.136C1586.88 661.603 1584.48 667.736 1570.08 709.736Z" fill="#2E8F54"/>
<path d="M591.014 667.469C588.081 670.669 588.081 680.136 590.748 682.403C593.548 684.669 602.614 684.803 605.281 682.536C608.348 680.003 608.214 670.136 605.014 667.336C601.681 664.269 593.681 664.403 591.014 667.469Z" fill="#2E8F54"/>
<path d="M351.548 712.536C338.748 716.003 331.014 722.403 325.814 733.736C321.548 743.203 321.414 765.336 325.681 774.536C329.414 782.936 336.614 790.536 344.348 794.403C349.814 797.203 352.614 797.736 363.414 797.736C378.081 797.736 384.081 795.47 393.814 786.003C399.814 780.136 400.748 776.403 397.148 773.603C393.014 770.536 389.814 771.603 383.414 778.27C373.814 788.27 363.681 790.003 351.281 783.603C345.281 780.67 341.681 776.136 338.748 768.536C334.481 757.336 333.281 757.87 369.414 757.07L401.414 756.403L401.148 749.07C400.614 731.87 389.948 716.803 375.281 712.536C366.748 710.003 361.014 710.003 351.548 712.536ZM373.681 725.203C380.481 728.536 385.014 734.27 385.281 740.136L385.414 744.403L362.881 744.803C349.814 744.936 339.681 744.536 339.014 743.87C335.414 740.27 343.281 728.803 352.081 724.936C359.148 721.736 366.614 721.736 373.681 725.203Z" fill="#2E8F54"/>
<path d="M669.948 711.603C664.615 712.669 654.215 718.403 651.415 721.736C649.815 723.736 649.415 723.469 648.215 719.603C646.348 714.003 643.281 712.136 638.481 713.869L634.748 715.069L634.348 753.336C634.081 786.669 634.348 791.736 636.215 793.603C638.748 796.136 643.815 796.403 645.814 794.003C646.615 793.069 647.415 781.469 647.681 766.403C648.215 736.536 649.281 732.803 657.948 726.936C670.748 718.536 685.281 723.069 689.948 736.936C690.881 739.736 691.414 751.469 691.414 767.336V793.069L694.748 794.669C697.281 795.736 698.881 795.736 701.414 794.669L704.748 793.069V767.469C704.748 745.336 705.148 740.936 707.281 736.403C715.148 719.203 736.748 717.336 744.748 732.936C747.148 737.869 747.414 740.803 747.414 765.603C747.414 791.869 747.548 793.069 750.214 794.403C753.414 796.136 760.614 794.936 760.881 792.669C761.681 785.069 760.214 729.069 759.148 726.403C755.681 717.069 745.948 711.736 732.748 711.736C721.948 711.736 715.548 714.269 708.481 721.603L703.948 726.269L700.481 721.869C694.214 714.003 680.881 709.603 669.948 711.603Z" fill="#2E8F54"/>
<path d="M1698.75 711.603C1688.35 714.136 1677.28 723.07 1672.21 732.803C1668.88 739.336 1667.15 754.136 1668.61 763.336C1671.95 784.136 1685.68 796.936 1706.21 798.136C1722.48 799.07 1734.75 793.603 1743.28 781.47L1746.75 776.803L1743.55 774.27C1738.75 770.403 1735.95 771.203 1729.15 778.27C1713.28 794.67 1689.95 788.003 1683.41 765.203C1681.15 757.203 1681.68 757.07 1714.88 757.07C1750.08 757.07 1748.61 757.736 1746.08 742.403C1743.28 726.003 1734.08 716.003 1718.48 712.27C1710.08 710.27 1705.01 710.136 1698.75 711.603ZM1719.55 725.47C1726.35 729.07 1731.68 736.27 1731.15 741.07L1730.75 744.403L1707.01 744.803L1683.28 745.07L1684.08 742.136C1689.15 725.203 1704.88 717.87 1719.55 725.47Z" fill="#2E8F54"/>
<path d="M1890.08 712.136C1886.75 713.07 1881.28 715.736 1877.81 718.136L1871.55 722.403L1871.15 718.803C1870.61 714.403 1864.88 712.003 1860.08 714.136L1857.01 715.603L1856.88 753.336C1856.75 774.136 1857.15 791.736 1857.68 792.536C1859.15 794.67 1864.35 796.003 1867.28 795.07C1869.68 794.403 1869.81 792.536 1870.35 767.336C1870.75 740.803 1870.75 740.27 1874.35 734.136C1879.28 726.003 1887.41 721.87 1896.88 722.67C1904.48 723.47 1909.55 726.67 1913.41 733.203C1915.81 737.336 1916.08 740.536 1916.48 765.736C1916.88 785.336 1917.41 794.003 1918.48 794.67C1919.95 795.603 1928.61 794.803 1929.95 793.603C1930.21 793.336 1930.35 778.803 1930.21 761.47C1929.81 726.803 1929.28 724.003 1922.21 718.003C1915.01 712.003 1900.08 709.336 1890.08 712.136Z" fill="#2E8F54"/>
<path d="M1980.75 712.27C1967.81 715.736 1957.68 725.47 1953.28 738.67C1950.21 748.003 1951.15 765.87 1955.28 775.336C1959.28 784.536 1968.88 793.336 1977.95 796.403C1987.41 799.47 2004.48 798.67 2012.08 794.803C2018.75 791.336 2029.01 780.403 2028.48 777.47C2028.21 776.27 2026.48 774.136 2024.35 772.536L2020.75 769.87L2015.01 776.003C2006.21 785.47 1997.15 789.07 1987.68 786.536C1975.68 783.203 1967.15 773.203 1967.68 763.07L1968.08 757.736L1999.41 757.07L2030.75 756.403L2030.35 748.536C2029.68 736.403 2025.68 727.47 2017.81 720.536C2007.55 711.203 1994.88 708.403 1980.75 712.27ZM2003.01 725.736C2010.75 729.603 2014.35 734.136 2014.61 740.27L2014.75 744.403H1991.41H1968.08L1967.68 740.803C1967.15 736.27 1974.08 728.27 1981.41 724.936C1988.75 721.603 1995.01 721.87 2003.01 725.736Z" fill="#2E8F54"/>
<path d="M2143.01 711.87C2131.41 713.737 2123.15 721.07 2121.28 731.203C2119.15 742.67 2125.95 750.403 2145.81 759.07C2159.55 764.937 2166.08 769.737 2166.08 773.87C2166.08 777.603 2162.35 783.203 2158.75 784.803C2150.48 788.537 2137.01 785.07 2132.21 777.87C2129.55 773.603 2128.35 773.603 2123.41 777.337C2118.21 781.203 2118.35 784.003 2124.21 789.603C2136.21 801.203 2160.75 801.47 2172.48 790.137C2179.41 783.337 2181.55 770.937 2177.15 762.803C2173.68 756.403 2167.41 752.537 2153.28 747.603C2138.61 742.537 2135.41 740.003 2135.41 733.737C2135.41 727.603 2141.55 722.403 2148.88 722.403C2155.15 722.403 2158.48 723.87 2164.35 729.337L2168.61 733.47L2173.28 730.403C2175.95 728.803 2178.08 726.803 2178.08 725.737C2178.08 724.803 2175.81 722.003 2172.88 719.337C2165.41 712.537 2155.15 710.003 2143.01 711.87Z" fill="#2E8F54"/>
<path d="M916.348 714.403C907.414 717.869 899.414 724.803 894.748 733.203C891.014 739.869 890.748 741.336 890.748 754.403C890.748 766.403 891.148 769.203 893.814 774.136C907.014 798.803 937.281 806.003 959.681 789.736C982.214 773.336 983.548 741.736 962.748 722.536C958.614 718.803 952.881 715.069 949.281 713.869C940.614 710.936 924.481 711.203 916.348 714.403ZM947.014 727.469C956.481 732.403 962.348 742.536 962.348 754.269C962.348 771.869 950.214 785.069 934.081 785.069C908.481 785.069 894.881 755.736 910.748 735.069C918.881 724.403 934.481 721.203 947.014 727.469Z" fill="#2E8F54"/>
<path d="M1026.75 714.269C1024.48 715.603 1020.21 719.469 1017.15 722.936L1011.55 729.336L1011.15 722.269C1010.75 714.403 1008.48 712.136 1003.01 713.603L999.414 714.403V754.403V794.403L1002.48 795.069C1004.08 795.603 1007.15 795.203 1009.15 794.536L1012.75 793.069V774.136C1012.75 763.603 1013.41 751.203 1014.21 746.403C1016.88 729.869 1020.61 726.136 1036.48 724.403C1043.81 723.603 1045.15 723.069 1046.21 720.136C1049.01 712.803 1048.21 711.736 1039.15 711.736C1033.28 711.736 1029.55 712.536 1026.75 714.269Z" fill="#2E8F54"/>
<path d="M1219.01 713.736C1201.01 720.536 1190.35 737.603 1191.68 757.47C1192.75 774.27 1201.01 787.07 1215.15 794.003C1221.81 797.203 1224.35 797.736 1234.75 797.736C1245.15 797.736 1247.68 797.203 1254.21 794.003C1263.15 789.736 1271.81 780.803 1275.81 772.003C1280.08 762.67 1279.81 746.936 1275.15 737.07C1270.75 727.203 1265.15 721.07 1256.48 716.403C1250.35 712.936 1247.81 712.403 1236.75 712.136C1228.08 711.87 1222.48 712.403 1219.01 713.736ZM1243.01 725.203C1249.81 727.736 1256.88 733.47 1260.35 739.47C1267.15 750.936 1263.95 769.07 1253.55 778.136C1247.15 783.736 1243.55 785.07 1235.01 785.07C1222.75 784.936 1212.88 778.27 1208.08 766.803C1205.28 760.27 1205.55 748.27 1208.61 741.736C1214.75 728.403 1230.88 720.67 1243.01 725.203Z" fill="#2E8F54"/>
<path d="M1427.68 714.003C1425.15 715.203 1421.28 718.536 1419.01 721.336C1414.48 726.936 1412.75 726.269 1412.75 718.936C1412.75 714.403 1409.95 712.669 1404.75 714.003C1402.21 714.669 1402.08 715.869 1402.08 754.403V794.136L1405.55 794.936C1407.41 795.469 1410.08 795.469 1411.41 795.069C1413.68 794.403 1413.81 792.136 1414.35 768.669C1414.75 744.536 1414.88 742.669 1418.08 736.403C1422.61 727.203 1428.35 723.736 1438.35 723.736C1445.55 723.736 1446.21 723.469 1447.41 720.269C1450.35 712.669 1449.55 711.736 1440.48 711.736C1435.41 711.736 1430.35 712.669 1427.68 714.003Z" fill="#2E8F54"/>
<path d="M2059.68 714.537C2049.28 719.737 2043.95 731.87 2047.81 741.337C2050.61 748.137 2057.15 752.803 2074.35 760.403C2086.21 765.737 2089.68 767.87 2090.61 770.67C2094.48 781.47 2081.01 790.003 2067.81 784.937C2065.81 784.27 2061.81 781.47 2059.15 778.803L2054.21 774.003L2049.55 777.203C2046.88 778.937 2044.75 781.337 2044.75 782.537C2044.75 785.87 2054.08 793.737 2061.15 796.403C2070.75 800.003 2086.88 798.803 2093.95 793.87C2099.81 789.737 2106.08 778.937 2106.08 773.203C2105.95 767.737 2101.41 759.07 2096.75 755.737C2094.48 754.137 2086.48 750.403 2079.01 747.603C2060.88 740.67 2057.95 737.07 2063.41 728.137C2068.21 720.137 2080.48 720.403 2088.88 728.537C2094.08 733.603 2094.21 733.603 2097.81 731.47C2104.21 727.603 2104.48 725.603 2099.41 720.27C2093.01 713.603 2087.95 711.737 2075.81 711.737C2067.81 711.737 2064.08 712.403 2059.68 714.537Z" fill="#2E8F54"/>
<path d="M593.814 714.536C591.547 715.736 591.414 719.069 591.414 754.269C591.414 796.936 591.414 796.803 599.681 794.669L604.081 793.603L604.481 754.669L604.747 715.736L601.414 714.403C597.147 712.803 596.747 712.803 593.814 714.536Z" fill="#2E8F54"/>
<path d="M1108.48 714.003C1106.35 714.27 1104.75 714.936 1104.75 715.47C1104.75 715.87 1111.41 731.47 1119.55 750.136C1127.68 768.803 1134.48 785.336 1134.48 787.07C1134.48 788.67 1129.95 799.87 1124.35 811.87C1113.95 834.403 1113.81 835.736 1120.48 835.736C1128.21 835.736 1130.75 832.67 1139.81 812.136C1144.61 801.336 1156.35 775.07 1165.95 753.87C1175.55 732.67 1183.15 714.936 1182.75 714.536C1182.21 714.136 1179.55 713.736 1176.75 713.736C1169.95 713.736 1167.01 716.67 1162.75 727.47C1154.21 748.936 1144.21 770.403 1143.28 769.47C1142.75 768.936 1137.41 756.67 1131.41 742.403C1125.55 728.136 1119.68 715.603 1118.48 714.67C1116.21 713.07 1115.28 712.936 1108.48 714.003Z" fill="#2E8F54"/>
<path d="M1360.75 714.269C1359.28 715.336 1358.75 720.803 1358.48 743.069C1358.21 765.336 1357.68 771.469 1355.95 775.203C1351.55 784.403 1336.88 787.869 1325.01 782.403C1315.55 778.136 1314.21 773.336 1314.08 744.403C1314.08 731.203 1313.68 719.069 1313.28 717.336C1312.61 714.936 1311.55 714.403 1306.75 714.403H1301.01L1300.08 727.336C1299.55 734.536 1299.41 747.869 1299.68 757.069C1300.48 776.803 1302.61 783.069 1311.15 790.669C1318.08 796.936 1325.15 798.803 1339.41 798.136C1360.08 797.069 1369.41 788.936 1372.61 768.936C1374.21 759.069 1374.61 716.269 1373.01 715.203C1370.61 713.736 1362.61 713.069 1360.75 714.269Z" fill="#2E8F54"/>
</svg>
