<svg width="130" height="53" viewBox="0 0 130 53" fill="none" xmlns="http://www.w3.org/2000/svg">
<path d="M43.0137 31.5552C42.3626 31.5552 41.8052 31.3965 41.3413 31.0791C40.8856 30.7536 40.5356 30.3304 40.2915 29.8096C40.0555 29.2806 39.9375 28.715 39.9375 28.1128C39.9375 27.5838 40.0881 26.9938 40.3892 26.3428C40.6984 25.6836 41.1379 25.0529 41.7075 24.4507C42.2772 23.8485 42.9567 23.3521 43.7461 22.9614C44.5436 22.5627 45.4103 22.3633 46.3462 22.3633C47.0216 22.3633 47.5262 22.526 47.8599 22.8516C48.1935 23.1771 48.3604 23.6287 48.3604 24.2065C48.3604 24.5483 48.2708 24.9064 48.0918 25.2808C47.9128 25.6551 47.6035 26.0335 47.1641 26.416C46.7246 26.8066 46.1346 27.2054 45.394 27.6123C44.6616 28.0111 43.742 28.4139 42.6353 28.8208C42.7248 29.3254 43.1317 29.5776 43.856 29.5776C44.4175 29.5776 45.0238 29.4637 45.6748 29.2358C46.3258 28.9998 46.9525 28.7313 47.5547 28.4302C48.1569 28.1372 48.6737 27.8605 49.105 27.6001C49.5363 27.3397 49.7926 27.1932 49.874 27.1606C49.9473 27.1118 50.0124 27.0833 50.0693 27.0752C50.1344 27.0671 50.1914 27.063 50.2402 27.063C50.4355 27.063 50.5698 27.1403 50.6431 27.2949C50.7244 27.4414 50.7651 27.5635 50.7651 27.6611C50.7651 27.7344 50.757 27.8239 50.7407 27.9297C50.7244 28.0273 50.6634 28.1413 50.5576 28.2715C50.4518 28.3773 50.1426 28.6092 49.6299 28.9673C49.1172 29.3254 48.5679 29.6712 47.9819 30.0049C47.2658 30.4036 46.4683 30.7617 45.5894 31.0791C44.7104 31.3965 43.8519 31.5552 43.0137 31.5552ZM42.4521 27.417C42.9811 27.1403 43.5182 26.8188 44.0635 26.4526C44.6169 26.0783 45.036 25.8057 45.3208 25.6348C45.7033 25.3906 45.9556 25.175 46.0776 24.9878C46.216 24.7843 46.2852 24.6134 46.2852 24.4751C46.2852 24.353 46.2445 24.2554 46.1631 24.1821C46.0898 24.1089 46.0044 24.0641 45.9067 24.0479L45.7969 24.0356H45.687C45.2394 24.0356 44.8244 24.1659 44.4419 24.4263C44.0675 24.6785 43.7502 24.9959 43.4897 25.3784C43.2131 25.7772 42.9893 26.1515 42.8184 26.5015C42.6556 26.8514 42.5335 27.1566 42.4521 27.417ZM48.7363 37.4512C48.4434 37.4512 48.2033 37.3901 48.0161 37.2681C47.8208 37.1541 47.7231 36.9303 47.7231 36.5967C47.7231 36.2793 47.8086 35.9416 47.9795 35.5835C48.1504 35.2254 48.2969 34.9121 48.4189 34.6436C48.9886 33.5938 49.5745 32.5195 50.1768 31.4209C50.779 30.3304 51.3405 29.2562 51.8613 28.1982C52.3903 27.1403 52.8135 26.1353 53.1309 25.1831C53.1878 25.0529 53.2692 24.8617 53.375 24.6094C53.4808 24.349 53.611 24.0804 53.7656 23.8037C53.9202 23.527 54.0911 23.291 54.2783 23.0957C54.4655 22.9004 54.6649 22.8027 54.8765 22.8027C55.495 22.8027 55.8042 23.0509 55.8042 23.5474C55.8042 23.6369 55.7757 23.8241 55.7188 24.1089C55.6699 24.3856 55.617 24.5768 55.5601 24.6826C55.9588 24.3164 56.3983 23.9583 56.8784 23.6084C57.3586 23.2503 57.859 22.9574 58.3799 22.7295C58.9089 22.4935 59.4297 22.3755 59.9424 22.3755C60.4795 22.3755 60.98 22.5057 61.4438 22.7661C61.9159 23.0184 62.1519 23.3968 62.1519 23.9014C62.1519 24.3815 61.9443 24.9186 61.5293 25.5127C61.1224 26.0986 60.6545 26.6683 60.1255 27.2217C59.8162 27.5472 59.5029 27.8646 59.1855 28.1738C58.8682 28.4749 58.5996 28.7354 58.3799 28.9551C58.1683 29.1748 58.0584 29.3213 58.0503 29.3945C58.0503 29.6143 58.209 29.7241 58.5264 29.7241C58.8519 29.7241 59.5233 29.3742 60.5405 28.6743C61.5578 27.9663 62.9982 26.9124 64.8618 25.5127C65.1141 25.3662 65.3135 25.293 65.46 25.293C65.639 25.293 65.7733 25.3621 65.8628 25.5005C65.9523 25.6307 65.9971 25.7935 65.9971 25.9888C65.9971 26.2004 65.9401 26.416 65.8262 26.6357C65.7204 26.8555 65.5576 27.0386 65.3379 27.1851C64.4915 27.8117 63.7144 28.4058 63.0063 28.9673C62.3146 29.5125 61.6717 29.9723 61.0776 30.3467C60.4673 30.7373 59.8732 31.0384 59.2954 31.25C58.7176 31.4616 58.0991 31.5674 57.4399 31.5674C56.8215 31.5674 56.3413 31.4535 55.9995 31.2256C55.6659 30.9977 55.499 30.6844 55.499 30.2856V30.188L55.5112 30.0903C55.5601 29.7323 55.8001 29.2969 56.2314 28.7842C56.6709 28.2633 57.151 27.7425 57.6719 27.2217C58.1764 26.7171 58.6362 26.237 59.0513 25.7812C59.4663 25.3255 59.6738 24.9756 59.6738 24.7314C59.6738 24.5199 59.4989 24.4141 59.1489 24.4141C58.6688 24.4141 58.1642 24.5646 57.6353 24.8657C57.1144 25.1668 56.6139 25.5534 56.1338 26.0254C55.6374 26.4974 55.1979 26.9897 54.8154 27.5024C54.4329 28.0151 54.1156 28.4912 53.8633 28.9307L53.0332 30.481C52.846 30.8309 52.6833 31.1361 52.5449 31.3965C52.4147 31.6569 52.3252 31.8319 52.2764 31.9214C52.2194 32.0272 52.1095 32.2591 51.9468 32.6172C51.7922 32.9753 51.6009 33.4066 51.373 33.9111C51.1452 34.4076 50.9499 34.8348 50.7871 35.1929C50.6325 35.5591 50.5389 35.791 50.5063 35.8887C50.3517 36.3037 50.132 36.6659 49.8472 36.9751C49.5623 37.2925 49.1921 37.4512 48.7363 37.4512ZM65.7261 31.5552C65.4412 31.5552 65.2215 31.4697 65.0669 31.2988C64.9123 31.1361 64.835 30.9285 64.835 30.6763C64.835 30.3345 64.9733 29.8828 65.25 29.3213C65.5186 28.7598 65.8237 28.1372 66.1655 27.4536C66.5073 26.7619 66.841 26.0946 67.1665 25.4517C67.5002 24.8088 67.7728 24.2716 67.9844 23.8403L72.0127 15.918C72.1104 15.7064 72.3016 15.5192 72.5864 15.3564C72.8713 15.1855 73.1561 15.1001 73.4409 15.1001C73.799 15.1001 74.0472 15.1693 74.1855 15.3076C74.3239 15.4378 74.3931 15.6006 74.3931 15.7959C74.3931 15.9749 74.3483 16.1662 74.2588 16.3696C74.1693 16.5649 74.0675 16.748 73.9536 16.9189C73.2863 18.0664 72.623 19.2952 71.9639 20.6055C71.3047 21.9157 70.613 23.173 69.8887 24.3774C70.1979 24.0763 70.5316 23.7752 70.8896 23.4741C71.2477 23.1649 71.6506 22.9045 72.0981 22.6929C72.5457 22.4813 73.0584 22.3755 73.6362 22.3755C74.1733 22.3755 74.6331 22.4813 75.0156 22.6929C75.3981 22.9045 75.5894 23.2869 75.5894 23.8403C75.5894 24.3612 75.4754 24.8372 75.2476 25.2686C75.0197 25.6999 74.7511 26.1068 74.4419 26.4893C74.1408 26.8636 73.86 27.2502 73.5996 27.6489C73.3392 28.0477 73.1846 28.4831 73.1357 28.9551V29.0039L73.1235 29.0527C73.1235 29.2155 73.1764 29.3172 73.2822 29.3579C73.3962 29.3986 73.5386 29.4189 73.7095 29.4189C74.0431 29.4189 74.4012 29.3294 74.7837 29.1504C75.1743 28.9632 75.5649 28.7354 75.9556 28.4668C76.3381 28.1982 76.6921 27.9215 77.0176 27.6367C77.3512 27.3519 77.6198 27.1118 77.8232 26.9165C77.9616 26.7863 78.1162 26.7212 78.2871 26.7212C78.4336 26.7212 78.5557 26.7782 78.6533 26.8921C78.7591 26.9979 78.812 27.1444 78.812 27.3315C78.812 27.5024 78.751 27.6978 78.6289 27.9175C78.515 28.1372 78.3156 28.3569 78.0308 28.5767C77.4448 29.0812 76.8385 29.5614 76.2119 30.0171C75.5934 30.4728 74.9668 30.8431 74.332 31.1279C73.7054 31.4128 73.0869 31.5552 72.4766 31.5552C71.8988 31.5552 71.4349 31.425 71.085 31.1646C70.735 30.896 70.5601 30.4769 70.5601 29.9072C70.5601 29.3457 70.6862 28.8086 70.9385 28.2959C71.1989 27.7832 71.4878 27.3071 71.8052 26.8677C72.1307 26.4282 72.3911 26.0417 72.5864 25.708C72.6841 25.5697 72.7573 25.4435 72.8062 25.3296C72.8631 25.2075 72.8916 25.0773 72.8916 24.939C72.8916 24.6623 72.7573 24.5239 72.4888 24.5239C71.854 24.5239 71.2803 24.7233 70.7676 25.1221C70.263 25.5127 69.8032 25.9969 69.3882 26.5747C68.9813 27.1444 68.6069 27.6978 68.2651 28.2349C68.1024 28.4871 67.9315 28.7964 67.7524 29.1626C67.5734 29.5288 67.374 29.9032 67.1543 30.2856C66.9508 30.6437 66.7271 30.9448 66.4829 31.189C66.2388 31.4331 65.9865 31.5552 65.7261 31.5552ZM81.7881 31.5552C81.5114 31.5552 81.1818 31.4779 80.7993 31.3232C80.4168 31.1686 80.0791 30.9123 79.7861 30.5542C79.5013 30.1961 79.3589 29.716 79.3589 29.1138C79.3589 28.6092 79.4728 27.9785 79.7007 27.2217C79.9285 26.4648 80.2866 25.7202 80.7749 24.9878C81.2632 24.2391 81.8857 23.6165 82.6426 23.1201C83.4076 22.6237 84.2905 22.3755 85.2915 22.3755C85.6496 22.3755 85.9629 22.4202 86.2314 22.5098C86.5 22.5993 86.7279 22.6969 86.915 22.8027C87.0208 22.8678 87.1185 22.937 87.208 23.0103C87.3057 23.0754 87.3952 23.1486 87.4766 23.23L87.9038 23.0225C88.0259 22.9655 88.152 22.9167 88.2822 22.876C88.4206 22.8271 88.5386 22.8027 88.6362 22.8027C88.9455 22.8027 89.1978 22.8882 89.3931 23.0591C89.5884 23.23 89.686 23.4172 89.686 23.6206C89.686 23.6857 89.682 23.7305 89.6738 23.7549C89.6169 23.9827 89.5111 24.2961 89.3564 24.6948C89.21 25.0936 89.0513 25.5371 88.8804 26.0254C88.7095 26.4974 88.563 26.9531 88.4409 27.3926C88.327 27.832 88.27 28.1942 88.27 28.479C88.27 28.7231 88.3107 28.9266 88.3921 29.0894C88.4735 29.244 88.6118 29.3213 88.8071 29.3213C89.0431 29.3213 89.3605 29.187 89.7593 28.9185C90.158 28.6418 90.569 28.3162 90.9922 27.9419C91.2201 27.7384 91.4561 27.5228 91.7002 27.2949C91.9443 27.0589 92.1925 26.8107 92.4448 26.5503C92.575 26.4445 92.7012 26.3916 92.8232 26.3916C92.986 26.3916 93.1203 26.473 93.2261 26.6357C93.34 26.7904 93.397 26.9653 93.397 27.1606C93.397 27.3885 93.3197 27.5798 93.165 27.7344C92.8395 28.0355 92.5059 28.3569 92.1641 28.6987C91.8223 29.0405 91.3503 29.4596 90.748 29.9561C90.2109 30.3955 89.6576 30.7739 89.0879 31.0913C88.5182 31.4006 88.0055 31.5552 87.5498 31.5552C86.9801 31.5552 86.5651 31.3354 86.3047 30.896C86.0443 30.4484 85.9141 29.9723 85.9141 29.4678C85.9141 29.1016 85.967 28.776 86.0728 28.4912C85.7391 28.9388 85.3444 29.4027 84.8887 29.8828C84.4329 30.3548 83.9406 30.7536 83.4116 31.0791C82.8826 31.3965 82.3415 31.5552 81.7881 31.5552ZM82.7646 29.4067C83.0251 29.4067 83.3506 29.2399 83.7412 28.9062C84.14 28.5726 84.5225 28.182 84.8887 27.7344C85.2956 27.2461 85.617 26.8026 85.853 26.4038C86.089 26.005 86.207 25.7365 86.207 25.5981C86.207 25.2889 86.028 25.0448 85.6699 24.8657C85.3118 24.6785 84.9904 24.585 84.7056 24.585C84.201 24.585 83.7209 24.7477 83.2651 25.0732C82.8175 25.3988 82.4513 25.8179 82.1665 26.3306C81.8817 26.8351 81.7393 27.36 81.7393 27.9053C81.7393 28.2227 81.7962 28.5522 81.9102 28.894C82.0322 29.2358 82.3171 29.4067 82.7646 29.4067ZM94.2368 31.5552C93.952 31.5552 93.7282 31.4657 93.5654 31.2866C93.4027 31.1076 93.3213 30.8879 93.3213 30.6274C93.3213 30.4159 93.4434 30.0212 93.6875 29.4434C93.9316 28.8574 94.2165 28.2308 94.542 27.5635C94.957 26.6927 95.3232 25.9399 95.6406 25.3052C95.958 24.6623 96.194 24.174 96.3486 23.8403C96.5114 23.4904 96.7148 23.23 96.959 23.0591C97.2031 22.8882 97.4432 22.8027 97.6792 22.8027C97.8745 22.8027 98.0495 22.876 98.2041 23.0225C98.3587 23.1608 98.436 23.3683 98.436 23.645C98.436 23.7508 98.4238 23.8647 98.3994 23.9868C98.375 24.1089 98.3302 24.2391 98.2651 24.3774C98.5174 24.0601 98.8918 23.7508 99.3882 23.4497C99.8846 23.1405 100.422 22.8841 101 22.6807C101.577 22.4772 102.11 22.3755 102.599 22.3755C103.03 22.3755 103.388 22.4813 103.673 22.6929C103.966 22.8963 104.112 23.2463 104.112 23.7427C104.112 24.1659 104.019 24.6257 103.832 25.1221C103.644 25.6104 103.421 26.0824 103.16 26.5381C102.883 27.0182 102.623 27.4414 102.379 27.8076C102.143 28.1657 101.96 28.4627 101.83 28.6987C101.724 28.8289 101.671 28.9795 101.671 29.1504C101.671 29.3132 101.756 29.3945 101.927 29.3945C101.984 29.3945 102.049 29.3905 102.123 29.3823C102.196 29.366 102.285 29.3213 102.391 29.248C103.001 29.0202 103.608 28.7313 104.21 28.3813C104.82 28.0314 105.378 27.6693 105.882 27.2949C106.395 26.9206 106.806 26.591 107.115 26.3062C107.245 26.2004 107.372 26.1475 107.494 26.1475C107.787 26.1475 107.933 26.3346 107.933 26.709C107.933 26.9613 107.852 27.242 107.689 27.5513C107.534 27.8605 107.286 28.1494 106.944 28.418C106.35 28.8411 105.793 29.2358 105.272 29.6021C104.759 29.9601 104.214 30.2856 103.636 30.5786C103.058 30.8716 102.371 31.132 101.573 31.3599C101.158 31.4901 100.804 31.5552 100.511 31.5552C99.6812 31.5552 99.2661 31.0994 99.2661 30.188C99.2661 30.131 99.2661 30.0781 99.2661 30.0293C99.2743 29.9723 99.2824 29.9113 99.2905 29.8462C99.3149 29.48 99.4451 29.0568 99.6812 28.5767C99.9172 28.0884 100.174 27.6082 100.45 27.1362C100.727 26.6805 100.975 26.2533 101.195 25.8545C101.415 25.4557 101.524 25.1587 101.524 24.9634C101.524 24.6704 101.386 24.5239 101.109 24.5239C100.597 24.5239 100.104 24.6745 99.6323 24.9756C99.1685 25.2767 98.729 25.6592 98.314 26.123C97.9071 26.5788 97.5327 27.0589 97.1909 27.5635C96.8491 28.0599 96.548 28.5116 96.2876 28.9185C96.1004 29.2277 95.9173 29.5898 95.7383 30.0049C95.5674 30.4199 95.3639 30.7821 95.1279 31.0913C94.9001 31.4006 94.603 31.5552 94.2368 31.5552ZM109.603 31.5552C108.936 31.5552 108.476 31.3883 108.224 31.0547C107.979 30.721 107.857 30.3141 107.857 29.834C107.857 29.4352 107.914 29.0283 108.028 28.6133C108.15 28.1901 108.293 27.8035 108.456 27.4536C108.74 26.8188 109.029 26.1882 109.322 25.5615C109.615 24.9349 109.884 24.3612 110.128 23.8403L113.827 15.9668C114.014 15.5599 114.295 15.2954 114.669 15.1733C115.043 15.0513 115.385 15.0635 115.694 15.21C116.012 15.3483 116.17 15.6047 116.17 15.979C116.17 16.1255 116.134 16.2801 116.061 16.4429C115.995 16.6056 115.91 16.7806 115.804 16.9678C115.511 17.5212 115.137 18.2495 114.681 19.1528C114.234 20.0562 113.737 21.0734 113.192 22.2046C112.598 23.4497 112.097 24.4954 111.69 25.3418C111.292 26.18 110.917 26.9735 110.567 27.7222C110.478 27.9093 110.388 28.1291 110.299 28.3813C110.217 28.6255 110.177 28.8452 110.177 29.0405C110.177 29.3091 110.295 29.4434 110.531 29.4434C110.791 29.4434 111.137 29.3376 111.568 29.126C112.008 28.9062 112.464 28.6336 112.936 28.3081C113.416 27.9907 113.88 27.6611 114.327 27.3193C114.775 26.9694 115.19 26.6317 115.572 26.3062C115.702 26.2004 115.857 26.1475 116.036 26.1475C116.41 26.1475 116.598 26.355 116.598 26.77C116.598 26.9409 116.541 27.1322 116.427 27.3438C116.313 27.5553 116.113 27.7629 115.829 27.9663C115.308 28.4465 114.783 28.9022 114.254 29.3335C113.733 29.7567 113.208 30.1351 112.679 30.4688C112.158 30.7943 111.638 31.0547 111.117 31.25C110.596 31.4535 110.091 31.5552 109.603 31.5552ZM119.085 38.4888C118.76 38.4888 118.495 38.3789 118.292 38.1592C118.089 37.9476 117.987 37.6587 117.987 37.2925C117.987 36.9507 118.028 36.6089 118.109 36.2671C118.198 35.9334 118.353 35.5632 118.573 35.1562C118.784 34.7493 119.065 34.2936 119.415 33.7891C119.773 33.2926 120.221 32.7067 120.758 32.0312L123.199 27.0874C121.979 28.536 120.872 29.6427 119.879 30.4077C118.886 31.1727 117.958 31.5552 117.096 31.5552C116.819 31.5552 116.583 31.4901 116.388 31.3599C116.192 31.2378 116.095 31.0303 116.095 30.7373C116.095 30.3304 116.192 29.8706 116.388 29.3579C116.55 28.9591 116.721 28.5889 116.9 28.2471C117.088 27.8971 117.279 27.5309 117.474 27.1484C117.678 26.7415 117.914 26.241 118.182 25.647C118.451 25.0529 118.748 24.3408 119.073 23.5107C119.236 23.1934 119.448 22.9655 119.708 22.8271C119.968 22.6807 120.221 22.6074 120.465 22.6074C120.717 22.6074 120.929 22.6685 121.1 22.7905C121.279 22.9045 121.368 23.0591 121.368 23.2544C121.368 23.3602 121.352 23.4456 121.319 23.5107L119.085 28.1616C118.972 28.4058 118.915 28.5929 118.915 28.7231C118.915 28.8452 118.963 28.9062 119.061 28.9062C119.151 28.9062 119.264 28.8615 119.403 28.772C119.541 28.6825 119.671 28.5807 119.793 28.4668L124.835 23.5107C125.242 23.1852 125.555 22.9858 125.775 22.9126C125.995 22.8394 126.21 22.8027 126.422 22.8027C126.593 22.8027 126.715 22.8678 126.788 22.998C126.861 23.1201 126.898 23.2503 126.898 23.3887C126.898 23.4945 126.878 23.6003 126.837 23.7061L124.103 29.4067C124.493 29.1138 124.941 28.8289 125.445 28.5522C125.95 28.2674 126.442 28.0111 126.922 27.7832C127.403 27.5553 127.809 27.3763 128.143 27.2461C128.477 27.1077 128.664 27.0386 128.705 27.0386C128.908 27.0386 129.087 27.1159 129.242 27.2705C129.396 27.4251 129.474 27.6204 129.474 27.8564C129.474 28.068 129.392 28.2918 129.229 28.5278C129.075 28.7638 128.798 28.9917 128.399 29.2114C127.887 29.4963 127.398 29.7607 126.935 30.0049C126.479 30.249 126.096 30.4565 125.787 30.6274L124.92 31.1157C124.53 31.3436 124.168 31.5837 123.834 31.8359C123.508 32.0882 123.179 32.369 122.845 32.6782C122.487 33.6141 122.149 34.4401 121.832 35.1562C121.523 35.8724 121.332 36.2996 121.258 36.438C120.599 37.8052 119.875 38.4888 119.085 38.4888Z" fill="#16A34A"/>
<circle cx="9.375" cy="5.20825" r="3.125" fill="#16A34A"/>
<path d="M8.3335 35.4168V10.8074C8.3335 10.5916 8.50838 10.4167 8.72412 10.4167C11.9602 10.4167 14.5835 7.79342 14.5835 4.55737C14.5835 4.34164 14.7584 4.16675 14.9741 4.16675H33.3335C35.6347 4.16675 37.5002 6.03223 37.5002 8.33341V35.4167C37.5002 37.7179 35.6347 39.5834 33.3335 39.5834H31.2502H12.5002C10.199 39.5834 8.3335 37.7179 8.3335 35.4168Z" fill="#16A34A"/>
<path d="M20.1211 32.7219C18.88 32.7219 17.8221 32.6202 16.9473 32.4167C16.0826 32.2235 15.3705 31.9539 14.811 31.608C14.2515 31.2723 13.8446 30.8858 13.5903 30.4484C13.336 30.0008 13.2089 29.5328 13.2089 29.0446C13.2089 27.9968 13.7073 26.9846 14.7042 26.0081C15.1823 25.5401 15.7469 25.123 16.3979 24.7568C17.0592 24.3906 17.7865 24.1109 18.58 23.9176C18.875 23.9176 19.0886 24.0397 19.2208 24.2838C19.3632 24.5178 19.4344 24.7874 19.4344 25.0925C19.4344 25.3875 19.3632 25.6215 19.2208 25.7944C19.0784 25.9572 18.7529 26.1454 18.2443 26.359C17.6746 26.6031 17.227 26.8982 16.9015 27.244C16.576 27.5797 16.4132 27.9154 16.4132 28.2511C16.4132 28.6783 16.7082 29.0547 17.2982 29.3802C17.8984 29.6956 18.875 29.8533 20.2279 29.8533C21.1638 29.8533 22.0234 29.7058 22.8066 29.4108C23.6001 29.1158 24.2359 28.7139 24.714 28.2053C25.1921 27.6865 25.4312 27.1016 25.4312 26.4506C25.4312 26.0844 25.2786 25.7029 24.9734 25.3062C24.6682 24.9094 24.185 24.4974 23.5238 24.0702C22.9338 23.6836 22.415 23.3378 21.9674 23.0326C21.53 22.7274 21.1638 22.4578 20.8688 22.2239L19.7396 21.3389C18.9767 20.6675 18.407 20.0215 18.0306 19.401C17.6543 18.7805 17.4661 18.1345 17.4661 17.4631C17.4661 16.5476 17.7865 15.6677 18.4274 14.8234C19.0682 13.9689 19.8922 13.2059 20.8993 12.5345C21.9064 11.8733 22.9796 11.3545 24.1189 10.9782C25.2582 10.5916 26.3111 10.3983 27.2775 10.3983C28.2744 10.3983 29.1034 10.6323 29.7646 11.1002C30.436 11.5682 30.7717 12.326 30.7717 13.3738C30.7717 14.9302 29.8867 16.3035 28.1167 17.4937C27.72 17.7683 27.3538 17.9056 27.0181 17.9056C26.6722 17.9056 26.3975 17.7836 26.1941 17.5394C25.9906 17.2851 25.8889 16.9901 25.8889 16.6544C25.8889 16.3696 25.9703 16.0848 26.1331 15.7999C26.306 15.5151 26.5806 15.271 26.957 15.0675C27.252 14.9149 27.5114 14.7115 27.7352 14.4572C27.9692 14.1927 28.0862 13.9384 28.0862 13.6942C28.0862 13.4602 28.0048 13.3077 27.842 13.2365C27.6895 13.1652 27.5013 13.1296 27.2775 13.1296C26.6468 13.1296 25.9398 13.2415 25.1565 13.4653C24.3732 13.6891 23.6255 13.9943 22.9135 14.3809C22.1607 14.7878 21.5605 15.2303 21.1129 15.7084C20.6755 16.1865 20.4568 16.6595 20.4568 17.1274C20.4568 17.5649 20.6348 17.9667 20.9908 18.3329C21.3571 18.6991 21.8708 19.1263 22.532 19.6146L26.1025 22.2544C26.9774 22.9054 27.6793 23.5463 28.2083 24.177C28.7372 24.7975 29.0017 25.474 29.0017 26.2064C29.0017 27.2847 28.6304 28.3223 27.8878 29.3192C27.1554 30.3161 26.1229 31.135 24.7903 31.7759C23.4679 32.4066 21.9115 32.7219 20.1211 32.7219Z" fill="white"/>
<path d="M8.19336 51.2334C8.07292 51.2334 7.96875 51.1976 7.88086 51.126C7.79622 51.0544 7.75391 50.9486 7.75391 50.8086C7.75391 50.7337 7.75879 50.6768 7.76855 50.6377C7.77832 50.5954 7.80436 50.527 7.84668 50.4326C7.89225 50.3382 7.96875 50.1771 8.07617 49.9492L9.36523 47.5029C9.16992 47.2751 8.99414 47.026 8.83789 46.7559C8.68164 46.4857 8.56934 46.1943 8.50098 45.8818C8.44564 45.693 8.40658 45.5173 8.38379 45.3545C8.36426 45.1917 8.35449 45.0404 8.35449 44.9004C8.35449 44.5391 8.43913 44.2493 8.6084 44.0312C8.78092 43.8099 8.986 43.6992 9.22363 43.6992C9.46126 43.6992 9.58008 43.8245 9.58008 44.0752C9.58008 44.1826 9.55241 44.3242 9.49707 44.5C9.44173 44.6725 9.41406 44.8483 9.41406 45.0273C9.41406 45.291 9.45312 45.5498 9.53125 45.8037C9.60938 46.0576 9.71029 46.292 9.83398 46.5068C9.96094 46.7184 10.0928 46.8958 10.2295 47.0391L10.5908 46.8047C10.7829 46.681 10.9733 46.5524 11.1621 46.4189C11.3542 46.2855 11.5267 46.1439 11.6797 45.9941C11.9043 45.724 12.0833 45.4668 12.2168 45.2227C12.3535 44.9753 12.4414 44.7734 12.4805 44.6172C12.5195 44.4349 12.5618 44.2868 12.6074 44.1729C12.653 44.0589 12.7279 43.9759 12.832 43.9238C12.9395 43.8717 13.1055 43.8457 13.3301 43.8457C13.4863 43.8457 13.5645 43.9564 13.5645 44.1777C13.5645 44.2038 13.5563 44.2705 13.54 44.3779C13.5238 44.4854 13.488 44.6123 13.4326 44.7588C13.3708 44.9313 13.2731 45.1348 13.1396 45.3691C13.0062 45.6035 12.8206 45.859 12.583 46.1357C12.2673 46.4385 11.9287 46.7054 11.5674 46.9365C11.2061 47.1676 10.8317 47.3988 10.4443 47.6299L10.2295 47.7568L9.24316 49.6221C9.14876 49.8044 9.08203 49.9427 9.04297 50.0371C9.00065 50.1348 8.97624 50.2015 8.96973 50.2373C8.96973 50.4684 8.92741 50.6572 8.84277 50.8037C8.75814 50.9535 8.6556 51.0625 8.53516 51.1309C8.41471 51.1992 8.30078 51.2334 8.19336 51.2334ZM12.2119 50.8721C12.0817 50.8721 11.9336 50.8363 11.7676 50.7646C11.6048 50.6963 11.4632 50.5856 11.3428 50.4326C11.2223 50.2796 11.1621 50.0778 11.1621 49.8271C11.1621 49.6253 11.2093 49.3779 11.3037 49.085C11.4014 48.792 11.5495 48.5023 11.748 48.2158C11.9499 47.9261 12.2087 47.6852 12.5244 47.4932C12.8402 47.2979 13.2064 47.2002 13.623 47.2002C13.7891 47.2002 13.9648 47.2311 14.1504 47.293C14.3392 47.3548 14.5003 47.459 14.6338 47.6055C14.7673 47.7487 14.834 47.9473 14.834 48.2012C14.834 48.4095 14.7819 48.652 14.6777 48.9287C14.7363 49.0003 14.8193 49.0361 14.9268 49.0361C15.0277 49.0361 15.1449 48.9954 15.2783 48.9141C15.4118 48.8327 15.5436 48.7334 15.6738 48.6162C15.8073 48.499 15.9277 48.3818 16.0352 48.2646C16.1458 48.1475 16.2321 48.0531 16.2939 47.9814C16.3167 47.9587 16.3444 47.9473 16.377 47.9473C16.4486 47.9473 16.5007 47.9928 16.5332 48.084C16.5658 48.1751 16.5592 48.2907 16.5137 48.4307C16.4681 48.5674 16.3623 48.709 16.1963 48.8555C16.0986 48.9596 15.9782 49.0882 15.835 49.2412C15.695 49.391 15.542 49.5244 15.376 49.6416C15.2132 49.7555 15.0472 49.8125 14.8779 49.8125C14.7054 49.8125 14.5426 49.7572 14.3896 49.6465C14.1488 50.0241 13.8428 50.3236 13.4717 50.5449C13.1006 50.763 12.6807 50.8721 12.2119 50.8721ZM12.6367 50.0176C12.8418 50.0176 13.0339 49.9492 13.2129 49.8125C13.3919 49.6758 13.5368 49.5033 13.6475 49.2949C13.7581 49.0866 13.8135 48.8734 13.8135 48.6553C13.8135 48.5706 13.8037 48.4827 13.7842 48.3916C13.7679 48.2972 13.7288 48.2191 13.667 48.1572C13.6051 48.0921 13.5059 48.0596 13.3691 48.0596C13.1673 48.0596 12.9769 48.1247 12.7979 48.2549C12.6188 48.3818 12.4723 48.5479 12.3584 48.7529C12.2477 48.9548 12.1924 49.1663 12.1924 49.3877C12.1924 49.4691 12.2021 49.5602 12.2217 49.6611C12.2412 49.7588 12.2819 49.8434 12.3438 49.915C12.4089 49.9834 12.5065 50.0176 12.6367 50.0176ZM16.2207 50.8721C16.0091 50.8721 15.8187 50.8216 15.6494 50.7207C15.4834 50.6198 15.4004 50.4294 15.4004 50.1494C15.4004 50.1266 15.4102 50.0615 15.4297 49.9541C15.4525 49.8467 15.4915 49.71 15.5469 49.5439C15.6152 49.3389 15.7227 49.0719 15.8691 48.7432C16.0156 48.4144 16.2223 48.0156 16.4893 47.5469C16.5576 47.4232 16.6357 47.3353 16.7236 47.2832C16.8148 47.2279 16.9124 47.2002 17.0166 47.2002C17.1208 47.2002 17.2168 47.2262 17.3047 47.2783C17.3926 47.3271 17.4365 47.3988 17.4365 47.4932C17.4365 47.5257 17.4316 47.5566 17.4219 47.5859C17.3991 47.6608 17.3372 47.7764 17.2363 47.9326C17.1387 48.0889 17.028 48.2728 16.9043 48.4844C16.7839 48.6829 16.6748 48.8962 16.5771 49.124C16.4827 49.3519 16.4307 49.5667 16.4209 49.7686C16.4209 49.8271 16.4372 49.8809 16.4697 49.9297C16.5023 49.9785 16.556 50.0029 16.6309 50.0029C16.8424 50.0029 17.0426 49.946 17.2314 49.832C17.4235 49.7148 17.6025 49.5684 17.7686 49.3926C17.9346 49.2135 18.0827 49.0247 18.2129 48.8262C18.3431 48.6276 18.4521 48.4453 18.54 48.2793C18.6214 48.1328 18.693 47.9766 18.7549 47.8105C18.8167 47.6413 18.89 47.4964 18.9746 47.376C19.0592 47.2555 19.1732 47.1953 19.3164 47.1953C19.4336 47.1953 19.5264 47.2327 19.5947 47.3076C19.6631 47.3825 19.6973 47.472 19.6973 47.5762C19.6973 47.6608 19.6501 47.7975 19.5557 47.9863C19.4645 48.1719 19.362 48.3737 19.248 48.5918C19.1276 48.8197 19.0218 49.0524 18.9307 49.29C18.8428 49.5244 18.7988 49.7327 18.7988 49.915C18.7988 50.0322 18.8704 50.0908 19.0137 50.0908C19.2318 50.0908 19.515 49.9785 19.8633 49.7539C20.026 49.6497 20.1888 49.526 20.3516 49.3828C20.5176 49.2396 20.6641 49.085 20.791 48.9189L20.8398 49.583C20.6217 49.8337 20.3581 50.0664 20.0488 50.2812C19.7428 50.4928 19.445 50.6523 19.1553 50.7598C18.8558 50.8737 18.6051 50.8997 18.4033 50.8379C18.2015 50.776 18.1006 50.5938 18.1006 50.291C18.1006 50.138 18.1266 49.9639 18.1787 49.7686C18.068 49.9346 17.9199 50.1038 17.7344 50.2764C17.5488 50.4456 17.3291 50.5872 17.0752 50.7012C16.8245 50.8151 16.5397 50.8721 16.2207 50.8721ZM19.9023 50.8721C19.7396 50.8721 19.6582 50.7891 19.6582 50.623C19.6582 50.5872 19.6631 50.5433 19.6729 50.4912C19.6859 50.4359 19.7103 50.3757 19.7461 50.3105C19.8014 50.2064 19.8617 50.0843 19.9268 49.9443C19.9919 49.8011 20.0602 49.653 20.1318 49.5C20.21 49.334 20.2995 49.1436 20.4004 48.9287C20.5046 48.7106 20.6266 48.46 20.7666 48.1768C20.721 48.1377 20.682 48.0905 20.6494 48.0352C20.6201 47.9766 20.6055 47.9049 20.6055 47.8203C20.6055 47.6673 20.6641 47.555 20.7812 47.4834C20.9017 47.4085 21.0449 47.3711 21.2109 47.3711C21.3737 47.3711 21.5316 47.4004 21.6846 47.459C21.8408 47.5143 21.9189 47.599 21.9189 47.7129C21.9189 47.7259 21.9076 47.7568 21.8848 47.8057C21.8652 47.8512 21.8555 47.8822 21.8555 47.8984C21.8555 47.9049 21.8571 47.9082 21.8604 47.9082H21.8652L21.875 47.9033C22.1159 47.7536 22.3747 47.6266 22.6514 47.5225C22.9281 47.4183 23.1559 47.3662 23.335 47.3662C23.4814 47.3662 23.5938 47.402 23.6719 47.4736C23.7533 47.542 23.7939 47.6592 23.7939 47.8252C23.7939 47.861 23.7923 47.9001 23.7891 47.9424C23.7858 47.9814 23.7793 48.0238 23.7695 48.0693C23.7467 48.1898 23.6556 48.346 23.4961 48.5381C23.3366 48.7301 23.1673 48.9157 22.9883 49.0947C22.9069 49.1761 22.8092 49.2738 22.6953 49.3877C22.5814 49.4984 22.4821 49.6009 22.3975 49.6953C22.3128 49.7865 22.2705 49.8483 22.2705 49.8809C22.2705 49.9264 22.2868 49.9492 22.3193 49.9492C22.5537 49.8483 22.819 49.7246 23.1152 49.5781C23.4115 49.4284 23.6979 49.2786 23.9746 49.1289C24.2513 48.9792 24.4775 48.8538 24.6533 48.7529C24.7217 48.7139 24.7803 48.6943 24.8291 48.6943C24.9658 48.6943 25.0342 48.766 25.0342 48.9092C25.0342 48.984 25.0016 49.0703 24.9365 49.168C24.8747 49.2624 24.7689 49.3617 24.6191 49.4658C24.4792 49.5537 24.2871 49.6758 24.043 49.832C23.8021 49.985 23.5628 50.1299 23.3252 50.2666C23.0908 50.4001 22.8662 50.514 22.6514 50.6084C22.4398 50.7028 22.2624 50.75 22.1191 50.75C21.8945 50.75 21.7253 50.6963 21.6113 50.5889C21.5007 50.4814 21.4453 50.3431 21.4453 50.1738C21.4453 50.1445 21.4469 50.125 21.4502 50.1152C21.486 49.9069 21.5609 49.7051 21.6748 49.5098C21.7887 49.3145 21.9076 49.1354 22.0312 48.9727C22.1549 48.8132 22.264 48.665 22.3584 48.5283C22.4561 48.3916 22.5049 48.2744 22.5049 48.1768C22.5049 48.1279 22.487 48.1035 22.4512 48.1035C22.3991 48.1035 22.3047 48.1296 22.168 48.1816C22.0312 48.2305 21.8962 48.2956 21.7627 48.377C21.6292 48.4583 21.5381 48.5446 21.4893 48.6357C21.4242 48.7497 21.3411 48.9092 21.2402 49.1143C21.1426 49.3161 21.0449 49.5228 20.9473 49.7344C20.8529 49.946 20.7731 50.1217 20.708 50.2617C20.6364 50.4408 20.5176 50.5872 20.3516 50.7012C20.1888 50.8151 20.0391 50.8721 19.9023 50.8721ZM29.2285 50.8477C28.8314 50.8477 28.4928 50.8151 28.2129 50.75C27.9362 50.6882 27.7083 50.6019 27.5293 50.4912C27.3503 50.3838 27.2201 50.2601 27.1387 50.1201C27.0573 49.9769 27.0166 49.8271 27.0166 49.6709C27.0166 49.3356 27.1761 49.0117 27.4951 48.6992C27.6481 48.5495 27.8288 48.416 28.0371 48.2988C28.2487 48.1816 28.4814 48.0921 28.7354 48.0303C28.8298 48.0303 28.8981 48.0693 28.9404 48.1475C28.986 48.2223 29.0088 48.3086 29.0088 48.4062C29.0088 48.5007 28.986 48.5755 28.9404 48.6309C28.8949 48.6829 28.7907 48.7432 28.6279 48.8115C28.4456 48.8896 28.3024 48.984 28.1982 49.0947C28.0941 49.2021 28.042 49.3096 28.042 49.417C28.042 49.5537 28.1364 49.6742 28.3252 49.7783C28.5173 49.8792 28.8298 49.9297 29.2627 49.9297C29.5622 49.9297 29.8372 49.8825 30.0879 49.7881C30.3418 49.6937 30.5452 49.5651 30.6982 49.4023C30.8512 49.2363 30.9277 49.0492 30.9277 48.8408C30.9277 48.7236 30.8789 48.6016 30.7812 48.4746C30.6836 48.3477 30.529 48.2158 30.3174 48.0791C30.1286 47.9554 29.9626 47.8447 29.8193 47.7471C29.6794 47.6494 29.5622 47.5632 29.4678 47.4883L29.1064 47.2051C28.8623 46.9902 28.68 46.7835 28.5596 46.585C28.4391 46.3864 28.3789 46.1797 28.3789 45.9648C28.3789 45.6719 28.4814 45.3903 28.6865 45.1201C28.8916 44.8467 29.1553 44.6025 29.4775 44.3877C29.7998 44.1761 30.1432 44.0101 30.5078 43.8896C30.8724 43.766 31.2093 43.7041 31.5186 43.7041C31.8376 43.7041 32.1029 43.779 32.3145 43.9287C32.5293 44.0785 32.6367 44.321 32.6367 44.6562C32.6367 45.1543 32.3535 45.5938 31.7871 45.9746C31.6602 46.0625 31.543 46.1064 31.4355 46.1064C31.3249 46.1064 31.237 46.0674 31.1719 45.9893C31.1068 45.9079 31.0742 45.8135 31.0742 45.7061C31.0742 45.6149 31.1003 45.5238 31.1523 45.4326C31.2077 45.3415 31.2956 45.2633 31.416 45.1982C31.5104 45.1494 31.5934 45.0843 31.665 45.0029C31.7399 44.9183 31.7773 44.8369 31.7773 44.7588C31.7773 44.6839 31.7513 44.6351 31.6992 44.6123C31.6504 44.5895 31.5902 44.5781 31.5186 44.5781C31.3167 44.5781 31.0905 44.6139 30.8398 44.6855C30.5892 44.7572 30.3499 44.8548 30.1221 44.9785C29.8812 45.1087 29.6891 45.2503 29.5459 45.4033C29.4059 45.5563 29.3359 45.7077 29.3359 45.8574C29.3359 45.9974 29.3929 46.126 29.5068 46.2432C29.624 46.3604 29.7884 46.4971 30 46.6533L31.1426 47.498C31.4225 47.7064 31.6471 47.9115 31.8164 48.1133C31.9857 48.3118 32.0703 48.5283 32.0703 48.7627C32.0703 49.1077 31.9515 49.4398 31.7139 49.7588C31.4795 50.0778 31.1491 50.3398 30.7227 50.5449C30.2995 50.7467 29.8014 50.8477 29.2285 50.8477ZM33.1885 50.8721C33.0583 50.8721 32.9102 50.8363 32.7441 50.7646C32.5814 50.6963 32.4398 50.5856 32.3193 50.4326C32.1989 50.2796 32.1387 50.0778 32.1387 49.8271C32.1387 49.6253 32.1859 49.3779 32.2803 49.085C32.3779 48.792 32.526 48.5023 32.7246 48.2158C32.9264 47.9261 33.1852 47.6852 33.501 47.4932C33.8167 47.2979 34.1829 47.2002 34.5996 47.2002C34.7656 47.2002 34.9414 47.2311 35.127 47.293C35.3158 47.3548 35.4769 47.459 35.6104 47.6055C35.7438 47.7487 35.8105 47.9473 35.8105 48.2012C35.8105 48.4095 35.7585 48.652 35.6543 48.9287C35.7129 49.0003 35.7959 49.0361 35.9033 49.0361C36.0042 49.0361 36.1214 48.9954 36.2549 48.9141C36.3883 48.8327 36.5202 48.7334 36.6504 48.6162C36.7839 48.499 36.9043 48.3818 37.0117 48.2646C37.1224 48.1475 37.2087 48.0531 37.2705 47.9814C37.2933 47.9587 37.321 47.9473 37.3535 47.9473C37.4251 47.9473 37.4772 47.9928 37.5098 48.084C37.5423 48.1751 37.5358 48.2907 37.4902 48.4307C37.4447 48.5674 37.3389 48.709 37.1729 48.8555C37.0752 48.9596 36.9548 49.0882 36.8115 49.2412C36.6715 49.391 36.5186 49.5244 36.3525 49.6416C36.1898 49.7555 36.0238 49.8125 35.8545 49.8125C35.682 49.8125 35.5192 49.7572 35.3662 49.6465C35.1253 50.0241 34.8193 50.3236 34.4482 50.5449C34.0771 50.763 33.6572 50.8721 33.1885 50.8721ZM33.6133 50.0176C33.8184 50.0176 34.0104 49.9492 34.1895 49.8125C34.3685 49.6758 34.5133 49.5033 34.624 49.2949C34.7347 49.0866 34.79 48.8734 34.79 48.6553C34.79 48.5706 34.7803 48.4827 34.7607 48.3916C34.7445 48.2972 34.7054 48.2191 34.6436 48.1572C34.5817 48.0921 34.4824 48.0596 34.3457 48.0596C34.1439 48.0596 33.9535 48.1247 33.7744 48.2549C33.5954 48.3818 33.4489 48.5479 33.335 48.7529C33.2243 48.9548 33.1689 49.1663 33.1689 49.3877C33.1689 49.4691 33.1787 49.5602 33.1982 49.6611C33.2178 49.7588 33.2585 49.8434 33.3203 49.915C33.3854 49.9834 33.4831 50.0176 33.6133 50.0176ZM35.7568 52.2295C35.6787 52.2295 35.6087 52.21 35.5469 52.1709C35.485 52.1318 35.4541 52.07 35.4541 51.9854C35.4541 51.9105 35.4915 51.7949 35.5664 51.6387L37.29 47.9863H37.0312C36.8522 47.9863 36.7301 47.9587 36.665 47.9033C36.5999 47.848 36.5674 47.7829 36.5674 47.708C36.5674 47.6299 36.6081 47.555 36.6895 47.4834C36.7708 47.4085 36.8896 47.3711 37.0459 47.3711H37.6221C37.9313 46.7461 38.2389 46.266 38.5449 45.9307C38.8542 45.5921 39.1553 45.3577 39.4482 45.2275C39.7412 45.0973 40.0163 45.0322 40.2734 45.0322C40.4557 45.0322 40.6169 45.1055 40.7568 45.252C40.8968 45.3952 40.9668 45.6117 40.9668 45.9014C40.9668 46.0381 40.9473 46.1927 40.9082 46.3652C40.8887 46.4531 40.8366 46.5166 40.752 46.5557C40.6706 46.5915 40.6038 46.6094 40.5518 46.6094C40.4867 46.6094 40.4264 46.5947 40.3711 46.5654C40.3158 46.5329 40.2881 46.484 40.2881 46.4189C40.2881 46.3864 40.2913 46.3473 40.2979 46.3018C40.3011 46.279 40.3027 46.2432 40.3027 46.1943C40.3027 45.9404 40.21 45.8135 40.0244 45.8135C39.8942 45.8135 39.7347 45.8883 39.5459 46.0381C39.3571 46.1846 39.1715 46.3766 38.9893 46.6143C38.807 46.8519 38.6605 47.1042 38.5498 47.3711H39.6875C39.8991 47.3711 40.0732 47.3825 40.21 47.4053C40.3467 47.4281 40.415 47.5094 40.415 47.6494C40.415 47.7308 40.3841 47.8024 40.3223 47.8643C40.2604 47.9261 40.1481 47.9635 39.9854 47.9766C39.6794 47.9896 39.3815 47.9977 39.0918 48.001C38.8021 48.001 38.5091 48.001 38.2129 48.001C38.1413 48.1442 38.0501 48.3298 37.9395 48.5576C37.8288 48.7822 37.7132 49.0215 37.5928 49.2754C37.4723 49.5293 37.3584 49.7702 37.251 49.998C37.0622 50.3952 36.8962 50.7419 36.7529 51.0381C36.613 51.3376 36.5055 51.5638 36.4307 51.7168C36.359 51.8665 36.2581 51.9886 36.1279 52.083C36.001 52.1807 35.8773 52.2295 35.7568 52.2295ZM39.4775 50.8721C39.2204 50.8721 39.0413 50.8086 38.9404 50.6816C38.8395 50.5547 38.7891 50.3984 38.7891 50.2129C38.7891 50.0501 38.8167 49.8809 38.8721 49.7051C38.9274 49.5293 38.9893 49.3714 39.0576 49.2314L39.6289 48.0596H39.4189C39.2367 48.0596 39.1113 48.0303 39.043 47.9717C38.9746 47.9131 38.9404 47.8464 38.9404 47.7715C38.9404 47.6966 38.9827 47.612 39.0674 47.5176C39.152 47.4199 39.2676 47.3711 39.4141 47.3711H39.9414L40.9717 45.3252C41.0368 45.2015 41.1165 45.1136 41.2109 45.0615C41.3086 45.0062 41.4095 44.9785 41.5137 44.9785C41.6113 44.9785 41.7008 45.0046 41.7822 45.0566C41.8636 45.1087 41.9043 45.195 41.9043 45.3154C41.9043 45.3773 41.8896 45.4408 41.8604 45.5059C41.8343 45.5677 41.7985 45.641 41.7529 45.7256C41.7008 45.8232 41.6309 45.9551 41.543 46.1211C41.4551 46.2839 41.346 46.4808 41.2158 46.7119L40.8643 47.3711H42.4561C42.6123 47.3711 42.7393 47.3923 42.8369 47.4346C42.9378 47.4736 42.9883 47.5632 42.9883 47.7031C42.9883 47.7747 42.9622 47.8447 42.9102 47.9131C42.8581 47.9814 42.7458 48.0221 42.5732 48.0352H40.542L40.2002 48.7188L39.8975 49.3389C39.8584 49.417 39.8193 49.5081 39.7803 49.6123C39.7445 49.7132 39.7266 49.8027 39.7266 49.8809C39.7266 49.9785 39.7721 50.0273 39.8633 50.0273C39.9674 50.0273 40.1074 49.9834 40.2832 49.8955C40.459 49.8076 40.6445 49.7002 40.8398 49.5732C41.0384 49.4463 41.2288 49.3145 41.4111 49.1777C41.5934 49.0378 41.7611 48.9027 41.9141 48.7725C41.9694 48.7367 42.0182 48.7188 42.0605 48.7188C42.1322 48.7188 42.1859 48.7578 42.2217 48.8359C42.2575 48.9141 42.2607 49.0085 42.2314 49.1191C42.2054 49.2298 42.1289 49.3356 42.002 49.4365C41.7904 49.6286 41.5755 49.8109 41.3574 49.9834C41.1426 50.1527 40.9294 50.304 40.7178 50.4375C40.5029 50.5677 40.2913 50.6719 40.083 50.75C39.8747 50.8314 39.6729 50.8721 39.4775 50.8721ZM42.0703 50.8721C41.7871 50.8721 41.5902 50.8086 41.4795 50.6816C41.3721 50.5514 41.3184 50.387 41.3184 50.1885C41.3184 49.9801 41.3542 49.7588 41.4258 49.5244C41.5007 49.29 41.5837 49.0687 41.6748 48.8604C41.766 48.652 41.8392 48.486 41.8945 48.3623C41.9954 48.1377 42.0785 47.957 42.1436 47.8203C42.2119 47.6803 42.2721 47.5713 42.3242 47.4932C42.3796 47.4183 42.4333 47.3678 42.4854 47.3418C42.5374 47.3158 42.6042 47.3027 42.6855 47.3027C42.8092 47.3027 42.915 47.3434 43.0029 47.4248C43.0941 47.5029 43.1396 47.6038 43.1396 47.7275C43.1396 47.7731 43.125 47.8317 43.0957 47.9033L42.2656 49.8662C42.2428 49.915 42.2314 49.9688 42.2314 50.0273C42.2314 50.112 42.2591 50.1543 42.3145 50.1543C42.3958 50.1543 42.487 50.1087 42.5879 50.0176C42.6921 49.9264 42.8337 49.7913 43.0127 49.6123C43.1527 49.4658 43.2926 49.2852 43.4326 49.0703C43.5758 48.8555 43.7109 48.6325 43.8379 48.4014C43.9648 48.1702 44.0706 47.957 44.1553 47.7617C44.2497 47.5729 44.3294 47.4492 44.3945 47.3906C44.4629 47.332 44.5492 47.3027 44.6533 47.3027C44.8519 47.3027 44.9512 47.389 44.9512 47.5615C44.9447 47.5941 44.9414 47.6234 44.9414 47.6494C44.9382 47.6787 44.9284 47.7161 44.9121 47.7617L44.1504 50.0127C44.1504 50.0941 44.1911 50.1348 44.2725 50.1348C44.3571 50.125 44.4661 50.0762 44.5996 49.9883C44.7363 49.8971 44.8665 49.7832 44.9902 49.6465C45.1172 49.5065 45.2051 49.3617 45.2539 49.2119C45.3483 48.9255 45.446 48.6423 45.5469 48.3623C45.6478 48.0791 45.7585 47.8415 45.8789 47.6494C45.9993 47.4574 46.1377 47.3548 46.2939 47.3418C46.3981 47.3418 46.4827 47.376 46.5479 47.4443C46.6162 47.5094 46.6504 47.5957 46.6504 47.7031C46.6504 47.9668 46.5869 48.2533 46.46 48.5625C46.333 48.8685 46.1898 49.1305 46.0303 49.3486C46.0563 49.417 46.1035 49.4512 46.1719 49.4512C46.4225 49.4512 46.6504 49.4137 46.8555 49.3389C47.0638 49.2607 47.2803 49.1549 47.5049 49.0215C47.5602 48.9857 47.6123 48.9678 47.6611 48.9678C47.7262 48.9678 47.7848 48.9922 47.8369 49.041C47.889 49.0898 47.915 49.1533 47.915 49.2314C47.915 49.3356 47.8483 49.4447 47.7148 49.5586C47.5814 49.6725 47.4154 49.7767 47.2168 49.8711C46.9987 49.972 46.7904 50.0501 46.5918 50.1055C46.3932 50.1608 46.2272 50.1885 46.0938 50.1885C45.9115 50.1885 45.7243 50.1364 45.5322 50.0322C45.0667 50.5921 44.5801 50.8721 44.0723 50.8721C43.8379 50.8721 43.6686 50.8118 43.5645 50.6914C43.4635 50.5677 43.4131 50.3887 43.4131 50.1543C42.9378 50.6328 42.4902 50.8721 42.0703 50.8721ZM47.9932 50.8721C47.8825 50.8721 47.7507 50.8411 47.5977 50.7793C47.4447 50.7174 47.3096 50.6149 47.1924 50.4717C47.0785 50.3285 47.0215 50.1364 47.0215 49.8955C47.0215 49.6937 47.0671 49.4414 47.1582 49.1387C47.2493 48.8359 47.3926 48.5381 47.5879 48.2451C47.7832 47.9456 48.0322 47.6966 48.335 47.498C48.641 47.2995 48.9941 47.2002 49.3945 47.2002C49.5378 47.2002 49.6631 47.2181 49.7705 47.2539C49.8779 47.2897 49.9691 47.3288 50.0439 47.3711C50.0863 47.3971 50.1253 47.4248 50.1611 47.4541C50.2002 47.4801 50.236 47.5094 50.2686 47.542L50.4395 47.459C50.4883 47.4362 50.5387 47.4167 50.5908 47.4004C50.6462 47.3809 50.6934 47.3711 50.7324 47.3711C50.8561 47.3711 50.957 47.4053 51.0352 47.4736C51.1133 47.542 51.1523 47.6169 51.1523 47.6982C51.1523 47.7243 51.1507 47.7422 51.1475 47.752C51.1247 47.8431 51.0824 47.9684 51.0205 48.1279C50.9619 48.2874 50.8984 48.4648 50.8301 48.6602C50.7617 48.849 50.7031 49.0312 50.6543 49.207C50.6087 49.3828 50.5859 49.5277 50.5859 49.6416C50.5859 49.7393 50.6022 49.8206 50.6348 49.8857C50.6673 49.9476 50.7227 49.9785 50.8008 49.9785C50.8952 49.9785 51.0221 49.9248 51.1816 49.8174C51.3411 49.7067 51.5055 49.5765 51.6748 49.4268C51.766 49.3454 51.8604 49.2591 51.958 49.168C52.0557 49.0736 52.1549 48.9743 52.2559 48.8701C52.3079 48.8278 52.3584 48.8066 52.4072 48.8066C52.4723 48.8066 52.526 48.8392 52.5684 48.9043C52.6139 48.9661 52.6367 49.0361 52.6367 49.1143C52.6367 49.2054 52.6058 49.2819 52.5439 49.3438C52.4137 49.4642 52.2803 49.5928 52.1436 49.7295C52.0068 49.8662 51.818 50.0339 51.5771 50.2324C51.3623 50.4082 51.141 50.5596 50.9131 50.6865C50.6852 50.8102 50.4801 50.8721 50.2979 50.8721C50.07 50.8721 49.904 50.7842 49.7998 50.6084C49.6956 50.4294 49.6436 50.2389 49.6436 50.0371C49.6436 49.8906 49.6647 49.7604 49.707 49.6465C49.5736 49.8255 49.4157 50.0111 49.2334 50.2031C49.0511 50.3919 48.8542 50.5514 48.6426 50.6816C48.431 50.8086 48.2145 50.8721 47.9932 50.8721ZM48.3838 50.0127C48.488 50.0127 48.6182 49.946 48.7744 49.8125C48.9339 49.679 49.0869 49.5228 49.2334 49.3438C49.3962 49.1484 49.5247 48.971 49.6191 48.8115C49.7135 48.652 49.7607 48.5446 49.7607 48.4893C49.7607 48.3656 49.6891 48.2679 49.5459 48.1963C49.4027 48.1214 49.2741 48.084 49.1602 48.084C48.9583 48.084 48.7663 48.1491 48.584 48.2793C48.4049 48.4095 48.2585 48.5771 48.1445 48.7822C48.0306 48.984 47.9736 49.194 47.9736 49.4121C47.9736 49.5391 47.9964 49.6709 48.042 49.8076C48.0908 49.9443 48.2048 50.0127 48.3838 50.0127ZM51.7676 50.8721C51.6048 50.8721 51.5234 50.7891 51.5234 50.623C51.5234 50.5872 51.5283 50.5433 51.5381 50.4912C51.5511 50.4359 51.5755 50.3757 51.6113 50.3105C51.6667 50.2064 51.7269 50.0843 51.792 49.9443C51.8571 49.8011 51.9255 49.653 51.9971 49.5C52.0752 49.334 52.1647 49.1436 52.2656 48.9287C52.3698 48.7106 52.4919 48.46 52.6318 48.1768C52.5863 48.1377 52.5472 48.0905 52.5146 48.0352C52.4854 47.9766 52.4707 47.9049 52.4707 47.8203C52.4707 47.6673 52.5293 47.555 52.6465 47.4834C52.7669 47.4085 52.9102 47.3711 53.0762 47.3711C53.2389 47.3711 53.3968 47.4004 53.5498 47.459C53.7061 47.5143 53.7842 47.599 53.7842 47.7129C53.7842 47.7259 53.7728 47.7568 53.75 47.8057C53.7305 47.8512 53.7207 47.8822 53.7207 47.8984C53.7207 47.9049 53.7223 47.9082 53.7256 47.9082H53.7305L53.7402 47.9033C53.9811 47.7536 54.2399 47.6266 54.5166 47.5225C54.7933 47.4183 55.0212 47.3662 55.2002 47.3662C55.3467 47.3662 55.459 47.402 55.5371 47.4736C55.6185 47.542 55.6592 47.6592 55.6592 47.8252C55.6592 47.861 55.6576 47.9001 55.6543 47.9424C55.651 47.9814 55.6445 48.0238 55.6348 48.0693C55.612 48.1898 55.5208 48.346 55.3613 48.5381C55.2018 48.7301 55.0326 48.9157 54.8535 49.0947C54.7721 49.1761 54.6745 49.2738 54.5605 49.3877C54.4466 49.4984 54.3473 49.6009 54.2627 49.6953C54.1781 49.7865 54.1357 49.8483 54.1357 49.8809C54.1357 49.9264 54.152 49.9492 54.1846 49.9492C54.4189 49.8483 54.6842 49.7246 54.9805 49.5781C55.2767 49.4284 55.5632 49.2786 55.8398 49.1289C56.1165 48.9792 56.3428 48.8538 56.5186 48.7529C56.5869 48.7139 56.6455 48.6943 56.6943 48.6943C56.8311 48.6943 56.8994 48.766 56.8994 48.9092C56.8994 48.984 56.8669 49.0703 56.8018 49.168C56.7399 49.2624 56.6341 49.3617 56.4844 49.4658C56.3444 49.5537 56.1523 49.6758 55.9082 49.832C55.6673 49.985 55.4281 50.1299 55.1904 50.2666C54.9561 50.4001 54.7314 50.514 54.5166 50.6084C54.305 50.7028 54.1276 50.75 53.9844 50.75C53.7598 50.75 53.5905 50.6963 53.4766 50.5889C53.3659 50.4814 53.3105 50.3431 53.3105 50.1738C53.3105 50.1445 53.3122 50.125 53.3154 50.1152C53.3512 49.9069 53.4261 49.7051 53.54 49.5098C53.654 49.3145 53.7728 49.1354 53.8965 48.9727C54.0202 48.8132 54.1292 48.665 54.2236 48.5283C54.3213 48.3916 54.3701 48.2744 54.3701 48.1768C54.3701 48.1279 54.3522 48.1035 54.3164 48.1035C54.2643 48.1035 54.1699 48.1296 54.0332 48.1816C53.8965 48.2305 53.7614 48.2956 53.6279 48.377C53.4945 48.4583 53.4033 48.5446 53.3545 48.6357C53.2894 48.7497 53.2064 48.9092 53.1055 49.1143C53.0078 49.3161 52.9102 49.5228 52.8125 49.7344C52.7181 49.946 52.6383 50.1217 52.5732 50.2617C52.5016 50.4408 52.3828 50.5872 52.2168 50.7012C52.054 50.8151 51.9043 50.8721 51.7676 50.8721ZM57.0166 50.8721C56.7562 50.8721 56.5332 50.8086 56.3477 50.6816C56.1654 50.5514 56.0254 50.3822 55.9277 50.1738C55.8333 49.9622 55.7861 49.736 55.7861 49.4951C55.7861 49.2835 55.8464 49.0475 55.9668 48.7871C56.0905 48.5234 56.2663 48.2712 56.4941 48.0303C56.722 47.7894 56.9938 47.5908 57.3096 47.4346C57.6286 47.2751 57.9753 47.1953 58.3496 47.1953C58.6198 47.1953 58.8216 47.2604 58.9551 47.3906C59.0885 47.5208 59.1553 47.7015 59.1553 47.9326C59.1553 48.0693 59.1195 48.2126 59.0479 48.3623C58.9762 48.512 58.8525 48.6634 58.6768 48.8164C58.501 48.9727 58.265 49.1322 57.9688 49.2949C57.6758 49.4544 57.3079 49.6156 56.8652 49.7783C56.901 49.9801 57.0638 50.0811 57.3535 50.0811C57.5781 50.0811 57.8206 50.0355 58.0811 49.9443C58.3415 49.8499 58.5921 49.7425 58.833 49.6221C59.0739 49.5049 59.2806 49.3942 59.4531 49.29C59.6257 49.1859 59.7282 49.1273 59.7607 49.1143C59.79 49.0947 59.8161 49.0833 59.8389 49.0801C59.8649 49.0768 59.8877 49.0752 59.9072 49.0752C59.9854 49.0752 60.0391 49.1061 60.0684 49.168C60.1009 49.2266 60.1172 49.2754 60.1172 49.3145C60.1172 49.3438 60.1139 49.3796 60.1074 49.4219C60.1009 49.4609 60.0765 49.5065 60.0342 49.5586C59.9919 49.6009 59.8682 49.6937 59.6631 49.8369C59.458 49.9801 59.2383 50.1185 59.0039 50.252C58.7174 50.4115 58.3984 50.5547 58.0469 50.6816C57.6953 50.8086 57.3519 50.8721 57.0166 50.8721ZM56.792 49.2168C57.0036 49.1061 57.2184 48.9775 57.4365 48.8311C57.6579 48.6813 57.8255 48.5723 57.9395 48.5039C58.0924 48.4062 58.1934 48.32 58.2422 48.2451C58.2975 48.1637 58.3252 48.0954 58.3252 48.04C58.3252 47.9912 58.3089 47.9521 58.2764 47.9229C58.2471 47.8936 58.2129 47.8757 58.1738 47.8691L58.1299 47.8643H58.0859C57.9069 47.8643 57.7409 47.9163 57.5879 48.0205C57.4382 48.1214 57.3112 48.2484 57.207 48.4014C57.0964 48.5609 57.0068 48.7106 56.9385 48.8506C56.8734 48.9906 56.8245 49.1126 56.792 49.2168ZM64.5312 50.8477C64.1341 50.8477 63.7956 50.8151 63.5156 50.75C63.2389 50.6882 63.0111 50.6019 62.832 50.4912C62.653 50.3838 62.5228 50.2601 62.4414 50.1201C62.36 49.9769 62.3193 49.8271 62.3193 49.6709C62.3193 49.3356 62.4788 49.0117 62.7979 48.6992C62.9508 48.5495 63.1315 48.416 63.3398 48.2988C63.5514 48.1816 63.7842 48.0921 64.0381 48.0303C64.1325 48.0303 64.2008 48.0693 64.2432 48.1475C64.2887 48.2223 64.3115 48.3086 64.3115 48.4062C64.3115 48.5007 64.2887 48.5755 64.2432 48.6309C64.1976 48.6829 64.0934 48.7432 63.9307 48.8115C63.7484 48.8896 63.6051 48.984 63.501 49.0947C63.3968 49.2021 63.3447 49.3096 63.3447 49.417C63.3447 49.5537 63.4391 49.6742 63.6279 49.7783C63.82 49.8792 64.1325 49.9297 64.5654 49.9297C64.8649 49.9297 65.14 49.8825 65.3906 49.7881C65.6445 49.6937 65.848 49.5651 66.001 49.4023C66.154 49.2363 66.2305 49.0492 66.2305 48.8408C66.2305 48.7236 66.1816 48.6016 66.084 48.4746C65.9863 48.3477 65.8317 48.2158 65.6201 48.0791C65.4313 47.9554 65.2653 47.8447 65.1221 47.7471C64.9821 47.6494 64.8649 47.5632 64.7705 47.4883L64.4092 47.2051C64.165 46.9902 63.9827 46.7835 63.8623 46.585C63.7419 46.3864 63.6816 46.1797 63.6816 45.9648C63.6816 45.6719 63.7842 45.3903 63.9893 45.1201C64.1943 44.8467 64.458 44.6025 64.7803 44.3877C65.1025 44.1761 65.446 44.0101 65.8105 43.8896C66.1751 43.766 66.512 43.7041 66.8213 43.7041C67.1403 43.7041 67.4056 43.779 67.6172 43.9287C67.832 44.0785 67.9395 44.321 67.9395 44.6562C67.9395 45.1543 67.6562 45.5938 67.0898 45.9746C66.9629 46.0625 66.8457 46.1064 66.7383 46.1064C66.6276 46.1064 66.5397 46.0674 66.4746 45.9893C66.4095 45.9079 66.377 45.8135 66.377 45.7061C66.377 45.6149 66.403 45.5238 66.4551 45.4326C66.5104 45.3415 66.5983 45.2633 66.7188 45.1982C66.8132 45.1494 66.8962 45.0843 66.9678 45.0029C67.0426 44.9183 67.0801 44.8369 67.0801 44.7588C67.0801 44.6839 67.054 44.6351 67.002 44.6123C66.9531 44.5895 66.8929 44.5781 66.8213 44.5781C66.6195 44.5781 66.3932 44.6139 66.1426 44.6855C65.8919 44.7572 65.6527 44.8548 65.4248 44.9785C65.1839 45.1087 64.9919 45.2503 64.8486 45.4033C64.7087 45.5563 64.6387 45.7077 64.6387 45.8574C64.6387 45.9974 64.6956 46.126 64.8096 46.2432C64.9268 46.3604 65.0911 46.4971 65.3027 46.6533L66.4453 47.498C66.7253 47.7064 66.9499 47.9115 67.1191 48.1133C67.2884 48.3118 67.373 48.5283 67.373 48.7627C67.373 49.1077 67.2542 49.4398 67.0166 49.7588C66.7822 50.0778 66.4518 50.3398 66.0254 50.5449C65.6022 50.7467 65.1042 50.8477 64.5312 50.8477ZM68.4912 50.8721C68.361 50.8721 68.2129 50.8363 68.0469 50.7646C67.8841 50.6963 67.7425 50.5856 67.6221 50.4326C67.5016 50.2796 67.4414 50.0778 67.4414 49.8271C67.4414 49.6253 67.4886 49.3779 67.583 49.085C67.6807 48.792 67.8288 48.5023 68.0273 48.2158C68.2292 47.9261 68.488 47.6852 68.8037 47.4932C69.1195 47.2979 69.4857 47.2002 69.9023 47.2002C70.0684 47.2002 70.2441 47.2311 70.4297 47.293C70.6185 47.3548 70.7796 47.459 70.9131 47.6055C71.0465 47.7487 71.1133 47.9473 71.1133 48.2012C71.1133 48.4095 71.0612 48.652 70.957 48.9287C71.0156 49.0003 71.0986 49.0361 71.2061 49.0361C71.307 49.0361 71.4242 48.9954 71.5576 48.9141C71.6911 48.8327 71.8229 48.7334 71.9531 48.6162C72.0866 48.499 72.207 48.3818 72.3145 48.2646C72.4251 48.1475 72.5114 48.0531 72.5732 47.9814C72.596 47.9587 72.6237 47.9473 72.6562 47.9473C72.7279 47.9473 72.7799 47.9928 72.8125 48.084C72.8451 48.1751 72.8385 48.2907 72.793 48.4307C72.7474 48.5674 72.6416 48.709 72.4756 48.8555C72.3779 48.9596 72.2575 49.0882 72.1143 49.2412C71.9743 49.391 71.8213 49.5244 71.6553 49.6416C71.4925 49.7555 71.3265 49.8125 71.1572 49.8125C70.9847 49.8125 70.8219 49.7572 70.6689 49.6465C70.4281 50.0241 70.1221 50.3236 69.751 50.5449C69.3799 50.763 68.96 50.8721 68.4912 50.8721ZM68.916 50.0176C69.1211 50.0176 69.3132 49.9492 69.4922 49.8125C69.6712 49.6758 69.8161 49.5033 69.9268 49.2949C70.0374 49.0866 70.0928 48.8734 70.0928 48.6553C70.0928 48.5706 70.083 48.4827 70.0635 48.3916C70.0472 48.2972 70.0081 48.2191 69.9463 48.1572C69.8844 48.0921 69.7852 48.0596 69.6484 48.0596C69.4466 48.0596 69.2562 48.1247 69.0771 48.2549C68.8981 48.3818 68.7516 48.5479 68.6377 48.7529C68.527 48.9548 68.4717 49.1663 68.4717 49.3877C68.4717 49.4691 68.4814 49.5602 68.501 49.6611C68.5205 49.7588 68.5612 49.8434 68.623 49.915C68.6882 49.9834 68.7858 50.0176 68.916 50.0176ZM72.3535 50.8721C72.0866 50.8721 71.9027 50.8053 71.8018 50.6719C71.7041 50.5384 71.6553 50.3757 71.6553 50.1836C71.6553 50.0241 71.6781 49.8613 71.7236 49.6953C71.7725 49.526 71.8294 49.3714 71.8945 49.2314C72.0085 48.9775 72.124 48.7253 72.2412 48.4746C72.3584 48.224 72.4658 47.9945 72.5635 47.7861L74.043 44.6367C74.1178 44.474 74.2301 44.3682 74.3799 44.3193C74.5296 44.2705 74.6663 44.2754 74.79 44.334C74.917 44.3893 74.9805 44.4919 74.9805 44.6416C74.9805 44.7002 74.9658 44.762 74.9365 44.8271C74.9105 44.8923 74.8763 44.9622 74.834 45.0371C74.7168 45.2585 74.5671 45.5498 74.3848 45.9111C74.2057 46.2725 74.0072 46.6794 73.7891 47.1318C73.5514 47.6299 73.3512 48.0482 73.1885 48.3867C73.029 48.722 72.8792 49.0394 72.7393 49.3389C72.7035 49.4137 72.6676 49.5016 72.6318 49.6025C72.5993 49.7002 72.583 49.7881 72.583 49.8662C72.583 49.9736 72.6302 50.0273 72.7246 50.0273C72.8288 50.0273 72.9671 49.985 73.1396 49.9004C73.3154 49.8125 73.4977 49.7035 73.6865 49.5732C73.8786 49.4463 74.0641 49.3145 74.2432 49.1777C74.4222 49.0378 74.5882 48.9027 74.7412 48.7725C74.7933 48.7301 74.8551 48.709 74.9268 48.709C75.0765 48.709 75.1514 48.792 75.1514 48.958C75.1514 49.0264 75.1286 49.1029 75.083 49.1875C75.0374 49.2721 74.9577 49.3551 74.8438 49.4365C74.6354 49.6286 74.4255 49.8109 74.2139 49.9834C74.0055 50.1527 73.7956 50.304 73.584 50.4375C73.3757 50.5677 73.1673 50.6719 72.959 50.75C72.7507 50.8314 72.5488 50.8721 72.3535 50.8721ZM75.0781 50.8721C74.8665 50.8721 74.6761 50.8216 74.5068 50.7207C74.3408 50.6198 74.2578 50.4294 74.2578 50.1494C74.2578 50.1266 74.2676 50.0615 74.2871 49.9541C74.3099 49.8467 74.349 49.71 74.4043 49.5439C74.4727 49.3389 74.5801 49.0719 74.7266 48.7432C74.873 48.4144 75.0798 48.0156 75.3467 47.5469C75.415 47.4232 75.4932 47.3353 75.5811 47.2832C75.6722 47.2279 75.7699 47.2002 75.874 47.2002C75.9782 47.2002 76.0742 47.2262 76.1621 47.2783C76.25 47.3271 76.2939 47.3988 76.2939 47.4932C76.2939 47.5257 76.2891 47.5566 76.2793 47.5859C76.2565 47.6608 76.1947 47.7764 76.0938 47.9326C75.9961 48.0889 75.8854 48.2728 75.7617 48.4844C75.6413 48.6829 75.5322 48.8962 75.4346 49.124C75.3402 49.3519 75.2881 49.5667 75.2783 49.7686C75.2783 49.8271 75.2946 49.8809 75.3271 49.9297C75.3597 49.9785 75.4134 50.0029 75.4883 50.0029C75.6999 50.0029 75.9001 49.946 76.0889 49.832C76.2809 49.7148 76.46 49.5684 76.626 49.3926C76.792 49.2135 76.9401 49.0247 77.0703 48.8262C77.2005 48.6276 77.3096 48.4453 77.3975 48.2793C77.4788 48.1328 77.5505 47.9766 77.6123 47.8105C77.6742 47.6413 77.7474 47.4964 77.832 47.376C77.9167 47.2555 78.0306 47.1953 78.1738 47.1953C78.291 47.1953 78.3838 47.2327 78.4521 47.3076C78.5205 47.3825 78.5547 47.472 78.5547 47.5762C78.5547 47.6608 78.5075 47.7975 78.4131 47.9863C78.3219 48.1719 78.2194 48.3737 78.1055 48.5918C77.985 48.8197 77.8792 49.0524 77.7881 49.29C77.7002 49.5244 77.6562 49.7327 77.6562 49.915C77.6562 50.0322 77.7279 50.0908 77.8711 50.0908C78.0892 50.0908 78.3724 49.9785 78.7207 49.7539C78.8835 49.6497 79.0462 49.526 79.209 49.3828C79.375 49.2396 79.5215 49.085 79.6484 48.9189L79.6973 49.583C79.4792 49.8337 79.2155 50.0664 78.9062 50.2812C78.6003 50.4928 78.3024 50.6523 78.0127 50.7598C77.7132 50.8737 77.4626 50.8997 77.2607 50.8379C77.0589 50.776 76.958 50.5938 76.958 50.291C76.958 50.138 76.984 49.9639 77.0361 49.7686C76.9255 49.9346 76.7773 50.1038 76.5918 50.2764C76.4062 50.4456 76.1865 50.5872 75.9326 50.7012C75.682 50.8151 75.3971 50.8721 75.0781 50.8721ZM79.4189 50.8721C79.1618 50.8721 78.9827 50.8086 78.8818 50.6816C78.7809 50.5547 78.7305 50.3984 78.7305 50.2129C78.7305 50.0501 78.7581 49.8809 78.8135 49.7051C78.8688 49.5293 78.9307 49.3714 78.999 49.2314L79.5703 48.0596H79.3604C79.1781 48.0596 79.0527 48.0303 78.9844 47.9717C78.916 47.9131 78.8818 47.8464 78.8818 47.7715C78.8818 47.6966 78.9242 47.612 79.0088 47.5176C79.0934 47.4199 79.209 47.3711 79.3555 47.3711H79.8828L80.9131 45.3252C80.9782 45.2015 81.0579 45.1136 81.1523 45.0615C81.25 45.0062 81.3509 44.9785 81.4551 44.9785C81.5527 44.9785 81.6423 45.0046 81.7236 45.0566C81.805 45.1087 81.8457 45.195 81.8457 45.3154C81.8457 45.3773 81.8311 45.4408 81.8018 45.5059C81.7757 45.5677 81.7399 45.641 81.6943 45.7256C81.6423 45.8232 81.5723 45.9551 81.4844 46.1211C81.3965 46.2839 81.2874 46.4808 81.1572 46.7119L80.8057 47.3711H82.3975C82.5537 47.3711 82.6807 47.3923 82.7783 47.4346C82.8792 47.4736 82.9297 47.5632 82.9297 47.7031C82.9297 47.7747 82.9036 47.8447 82.8516 47.9131C82.7995 47.9814 82.6872 48.0221 82.5146 48.0352H80.4834L80.1416 48.7188L79.8389 49.3389C79.7998 49.417 79.7607 49.5081 79.7217 49.6123C79.6859 49.7132 79.668 49.8027 79.668 49.8809C79.668 49.9785 79.7135 50.0273 79.8047 50.0273C79.9089 50.0273 80.0488 49.9834 80.2246 49.8955C80.4004 49.8076 80.5859 49.7002 80.7812 49.5732C80.9798 49.4463 81.1702 49.3145 81.3525 49.1777C81.5348 49.0378 81.7025 48.9027 81.8555 48.7725C81.9108 48.7367 81.9596 48.7188 82.002 48.7188C82.0736 48.7188 82.1273 48.7578 82.1631 48.8359C82.1989 48.9141 82.2021 49.0085 82.1729 49.1191C82.1468 49.2298 82.0703 49.3356 81.9434 49.4365C81.7318 49.6286 81.5169 49.8109 81.2988 49.9834C81.084 50.1527 80.8708 50.304 80.6592 50.4375C80.4443 50.5677 80.2327 50.6719 80.0244 50.75C79.8161 50.8314 79.6143 50.8721 79.4189 50.8721ZM83.3447 46.873C83.1429 46.873 83.0013 46.8421 82.9199 46.7803C82.8385 46.7152 82.793 46.6305 82.7832 46.5264C82.7832 46.3734 82.8385 46.2236 82.9492 46.0771C83.0632 45.9274 83.2308 45.8525 83.4521 45.8525C83.641 45.8525 83.7728 45.89 83.8477 45.9648C83.9225 46.0365 83.96 46.1276 83.96 46.2383C83.96 46.362 83.9111 46.4987 83.8135 46.6484C83.7191 46.7982 83.5628 46.873 83.3447 46.873ZM82.1484 50.8721C81.8848 50.8721 81.6764 50.8053 81.5234 50.6719C81.3737 50.5352 81.2988 50.3236 81.2988 50.0371C81.2988 49.8385 81.3346 49.6416 81.4062 49.4463C81.4811 49.2477 81.5625 49.0622 81.6504 48.8896C81.7415 48.7139 81.8132 48.5609 81.8652 48.4307C81.8815 48.3883 81.9092 48.3232 81.9482 48.2354C81.9906 48.1475 82.0345 48.0579 82.0801 47.9668L82.2461 47.625C82.3014 47.5339 82.3649 47.4688 82.4365 47.4297C82.5081 47.3906 82.5814 47.3711 82.6562 47.3711C82.7799 47.3711 82.8857 47.4118 82.9736 47.4932C83.0648 47.5713 83.1104 47.6722 83.1104 47.7959C83.1071 47.8252 83.1022 47.8545 83.0957 47.8838C83.0924 47.9131 83.0827 47.9424 83.0664 47.9717C82.9948 48.1019 82.9329 48.224 82.8809 48.3379C82.8288 48.4486 82.7751 48.5609 82.7197 48.6748C82.6742 48.7692 82.6172 48.8848 82.5488 49.0215C82.4805 49.1582 82.4202 49.2965 82.3682 49.4365C82.3161 49.5732 82.29 49.6953 82.29 49.8027C82.29 49.8906 82.3112 49.9492 82.3535 49.9785C82.3991 50.0046 82.4626 50.0176 82.5439 50.0176C82.6742 50.0176 82.8174 49.9769 82.9736 49.8955C83.1331 49.8141 83.2845 49.7132 83.4277 49.5928C83.5775 49.4723 83.7158 49.3503 83.8428 49.2266C83.9697 49.0996 84.0641 48.9971 84.126 48.9189C84.1878 48.8571 84.2529 48.8262 84.3213 48.8262C84.3799 48.8262 84.4271 48.8522 84.4629 48.9043C84.502 48.9564 84.5215 49.0231 84.5215 49.1045C84.5215 49.1794 84.502 49.2591 84.4629 49.3438C84.4271 49.4284 84.3669 49.5081 84.2822 49.583C84.0674 49.8011 83.8428 50.0094 83.6084 50.208C83.374 50.4033 83.1331 50.5628 82.8857 50.6865C82.6416 50.8102 82.3958 50.8721 82.1484 50.8721ZM84.6631 50.8721C84.5329 50.8721 84.3848 50.8363 84.2188 50.7646C84.056 50.6963 83.9144 50.5856 83.7939 50.4326C83.6735 50.2796 83.6133 50.0778 83.6133 49.8271C83.6133 49.6253 83.6605 49.3779 83.7549 49.085C83.8525 48.792 84.0007 48.5023 84.1992 48.2158C84.401 47.9261 84.6598 47.6852 84.9756 47.4932C85.2913 47.2979 85.6576 47.2002 86.0742 47.2002C86.2402 47.2002 86.416 47.2311 86.6016 47.293C86.7904 47.3548 86.9515 47.459 87.085 47.6055C87.2184 47.7487 87.2852 47.9473 87.2852 48.2012C87.2852 48.4095 87.2331 48.652 87.1289 48.9287C87.1875 49.0003 87.2705 49.0361 87.3779 49.0361C87.4788 49.0361 87.596 48.9954 87.7295 48.9141C87.863 48.8327 87.9948 48.7334 88.125 48.6162C88.2585 48.499 88.3789 48.3818 88.4863 48.2646C88.597 48.1475 88.6833 48.0531 88.7451 47.9814C88.7679 47.9587 88.7956 47.9473 88.8281 47.9473C88.8997 47.9473 88.9518 47.9928 88.9844 48.084C89.0169 48.1751 89.0104 48.2907 88.9648 48.4307C88.9193 48.5674 88.8135 48.709 88.6475 48.8555C88.5498 48.9596 88.4294 49.0882 88.2861 49.2412C88.1462 49.391 87.9932 49.5244 87.8271 49.6416C87.6644 49.7555 87.4984 49.8125 87.3291 49.8125C87.1566 49.8125 86.9938 49.7572 86.8408 49.6465C86.5999 50.0241 86.2939 50.3236 85.9229 50.5449C85.5518 50.763 85.1318 50.8721 84.6631 50.8721ZM85.0879 50.0176C85.293 50.0176 85.485 49.9492 85.6641 49.8125C85.8431 49.6758 85.988 49.5033 86.0986 49.2949C86.2093 49.0866 86.2646 48.8734 86.2646 48.6553C86.2646 48.5706 86.2549 48.4827 86.2354 48.3916C86.2191 48.2972 86.18 48.2191 86.1182 48.1572C86.0563 48.0921 85.957 48.0596 85.8203 48.0596C85.6185 48.0596 85.4281 48.1247 85.249 48.2549C85.07 48.3818 84.9235 48.5479 84.8096 48.7529C84.6989 48.9548 84.6436 49.1663 84.6436 49.3877C84.6436 49.4691 84.6533 49.5602 84.6729 49.6611C84.6924 49.7588 84.7331 49.8434 84.7949 49.915C84.86 49.9834 84.9577 50.0176 85.0879 50.0176ZM88.0273 50.8721C87.9134 50.8721 87.8239 50.8363 87.7588 50.7646C87.6937 50.693 87.6611 50.6051 87.6611 50.501C87.6611 50.4163 87.71 50.2585 87.8076 50.0273C87.9053 49.793 88.0192 49.5423 88.1494 49.2754C88.3154 48.9271 88.4619 48.626 88.5889 48.3721C88.7158 48.1149 88.8102 47.9196 88.8721 47.7861C88.9372 47.6462 89.0186 47.542 89.1162 47.4736C89.2139 47.4053 89.3099 47.3711 89.4043 47.3711C89.4824 47.3711 89.5524 47.4004 89.6143 47.459C89.6761 47.5143 89.707 47.5973 89.707 47.708C89.707 47.7503 89.7021 47.7959 89.6924 47.8447C89.6826 47.8936 89.6647 47.9456 89.6387 48.001C89.7396 47.874 89.8893 47.7503 90.0879 47.6299C90.2865 47.5062 90.5013 47.4036 90.7324 47.3223C90.9635 47.2409 91.1768 47.2002 91.3721 47.2002C91.5446 47.2002 91.6878 47.2425 91.8018 47.3271C91.9189 47.4085 91.9775 47.5485 91.9775 47.7471C91.9775 47.9163 91.9401 48.1003 91.8652 48.2988C91.7904 48.4941 91.7008 48.6829 91.5967 48.8652C91.486 49.0573 91.3818 49.2266 91.2842 49.373C91.1898 49.5163 91.1165 49.6351 91.0645 49.7295C91.0221 49.7816 91.001 49.8418 91.001 49.9102C91.001 49.9753 91.0352 50.0078 91.1035 50.0078C91.1263 50.0078 91.1523 50.0062 91.1816 50.0029C91.2109 49.9964 91.2467 49.9785 91.2891 49.9492C91.5332 49.8581 91.7757 49.7425 92.0166 49.6025C92.2607 49.4626 92.4837 49.3177 92.6855 49.168C92.8906 49.0182 93.055 48.8864 93.1787 48.7725C93.2308 48.7301 93.2812 48.709 93.3301 48.709C93.4473 48.709 93.5059 48.7839 93.5059 48.9336C93.5059 49.0345 93.4733 49.1468 93.4082 49.2705C93.3464 49.3942 93.2471 49.5098 93.1104 49.6172C92.8727 49.7865 92.6497 49.9443 92.4414 50.0908C92.2363 50.234 92.0182 50.3643 91.7871 50.4814C91.556 50.5986 91.2809 50.7028 90.9619 50.7939C90.7959 50.846 90.6543 50.8721 90.5371 50.8721C90.2051 50.8721 90.0391 50.6898 90.0391 50.3252C90.0391 50.3024 90.0391 50.2812 90.0391 50.2617C90.0423 50.2389 90.0456 50.2145 90.0488 50.1885C90.0586 50.042 90.1107 49.8727 90.2051 49.6807C90.2995 49.4854 90.402 49.2933 90.5127 49.1045C90.6234 48.9222 90.7227 48.7513 90.8105 48.5918C90.8984 48.4323 90.9424 48.3135 90.9424 48.2354C90.9424 48.1182 90.887 48.0596 90.7764 48.0596C90.5713 48.0596 90.3743 48.1198 90.1855 48.2402C90 48.3607 89.8242 48.5137 89.6582 48.6992C89.4954 48.8815 89.3457 49.0736 89.209 49.2754C89.0723 49.474 88.9518 49.6546 88.8477 49.8174C88.7728 49.9411 88.6995 50.0859 88.6279 50.252C88.5596 50.418 88.4782 50.5628 88.3838 50.6865C88.2926 50.8102 88.1738 50.8721 88.0273 50.8721ZM93.5791 50.8721C93.2373 50.8721 92.9264 50.7956 92.6465 50.6426C92.3665 50.4863 92.1875 50.2406 92.1094 49.9053C92.1029 49.8727 92.0996 49.8516 92.0996 49.8418C92.0996 49.7539 92.1305 49.679 92.1924 49.6172C92.2542 49.5521 92.3226 49.5195 92.3975 49.5195C92.4333 49.5195 92.4723 49.526 92.5146 49.5391C92.5602 49.5521 92.5944 49.5814 92.6172 49.627C92.7018 49.7799 92.8467 49.9036 93.0518 49.998C93.2601 50.0892 93.4635 50.1348 93.6621 50.1348C93.8737 50.1348 94.0576 50.0941 94.2139 50.0127C94.3734 49.9313 94.4531 49.7979 94.4531 49.6123C94.4531 49.3844 94.388 49.1826 94.2578 49.0068C94.1309 48.8311 93.9697 48.6732 93.7744 48.5332C93.5824 48.39 93.3887 48.2581 93.1934 48.1377C93.1771 48.1279 93.1527 48.1003 93.1201 48.0547C93.0876 48.0059 93.0713 47.957 93.0713 47.9082C93.0713 47.8691 93.0811 47.8382 93.1006 47.8154C93.2048 47.6755 93.3382 47.5387 93.501 47.4053C93.6637 47.2718 93.8428 47.2051 94.0381 47.2051C94.1813 47.2051 94.2985 47.2409 94.3896 47.3125C94.484 47.3809 94.5312 47.4492 94.5312 47.5176C94.5312 47.6087 94.4889 47.695 94.4043 47.7764C94.3197 47.8545 94.2318 47.9294 94.1406 48.001C94.528 48.2028 94.8356 48.46 95.0635 48.7725C95.2913 49.0817 95.4053 49.3844 95.4053 49.6807C95.4053 49.9313 95.3141 50.1462 95.1318 50.3252C94.9528 50.501 94.7233 50.6361 94.4434 50.7305C94.1667 50.8249 93.8786 50.8721 93.5791 50.8721ZM99.5508 50.9355C99.3522 50.9355 99.2188 50.8818 99.1504 50.7744C99.0853 50.6702 99.0527 50.5628 99.0527 50.4521C99.0527 50.374 99.0641 50.2943 99.0869 50.2129C99.113 50.1315 99.1439 50.0566 99.1797 49.9883L101.05 46.5459C101.2 46.2855 101.335 46.1211 101.455 46.0527C101.579 45.9811 101.686 45.9453 101.777 45.9453C101.836 45.9453 101.89 45.9665 101.938 46.0088C101.987 46.0479 102.012 46.1211 102.012 46.2285C102.012 46.3294 101.984 46.4727 101.929 46.6582C101.877 46.8372 101.774 47.0716 101.621 47.3613C101.969 47.3353 102.301 47.2669 102.617 47.1562C102.933 47.0423 103.192 46.8844 103.394 46.6826C103.595 46.4808 103.696 46.235 103.696 45.9453C103.696 45.6816 103.639 45.4391 103.525 45.2178C103.415 44.9932 103.252 44.8141 103.037 44.6807C102.822 44.5439 102.56 44.4756 102.251 44.4756C101.932 44.4756 101.657 44.5065 101.426 44.5684C101.198 44.627 101.003 44.7051 100.84 44.8027C100.674 44.9004 100.535 45.0127 100.425 45.1396C100.314 45.2666 100.22 45.3952 100.142 45.5254C100.037 45.6947 99.9447 45.8607 99.8633 46.0234C99.7852 46.1829 99.6956 46.3148 99.5947 46.4189C99.4971 46.5231 99.3636 46.5752 99.1943 46.5752C98.8818 46.5752 98.7256 46.4189 98.7256 46.1064C98.7256 45.7972 98.8818 45.4554 99.1943 45.0811C99.3441 44.902 99.5247 44.7311 99.7363 44.5684C99.9512 44.4023 100.192 44.2559 100.459 44.1289C100.726 44.002 101.016 43.901 101.328 43.8262C101.644 43.748 101.976 43.709 102.324 43.709C102.76 43.709 103.167 43.792 103.545 43.958C103.926 44.1208 104.233 44.3682 104.468 44.7002C104.705 45.029 104.824 45.4424 104.824 45.9404C104.824 46.2822 104.743 46.5898 104.58 46.8633C104.417 47.1367 104.196 47.3695 103.916 47.5615C103.337 47.9587 102.63 48.1572 101.797 48.1572C101.712 48.1572 101.626 48.1556 101.538 48.1523C101.453 48.1491 101.369 48.141 101.284 48.1279C101.196 48.3232 101.094 48.5723 100.977 48.875C100.859 49.1777 100.719 49.5 100.557 49.8418C100.407 50.1478 100.246 50.4066 100.073 50.6182C99.9007 50.8298 99.7266 50.9355 99.5508 50.9355ZM104.653 50.8721C104.543 50.8721 104.411 50.8411 104.258 50.7793C104.105 50.7174 103.97 50.6149 103.853 50.4717C103.739 50.3285 103.682 50.1364 103.682 49.8955C103.682 49.6937 103.727 49.4414 103.818 49.1387C103.91 48.8359 104.053 48.5381 104.248 48.2451C104.443 47.9456 104.692 47.6966 104.995 47.498C105.301 47.2995 105.654 47.2002 106.055 47.2002C106.198 47.2002 106.323 47.2181 106.431 47.2539C106.538 47.2897 106.629 47.3288 106.704 47.3711C106.746 47.3971 106.785 47.4248 106.821 47.4541C106.86 47.4801 106.896 47.5094 106.929 47.542L107.1 47.459C107.148 47.4362 107.199 47.4167 107.251 47.4004C107.306 47.3809 107.354 47.3711 107.393 47.3711C107.516 47.3711 107.617 47.4053 107.695 47.4736C107.773 47.542 107.812 47.6169 107.812 47.6982C107.812 47.7243 107.811 47.7422 107.808 47.752C107.785 47.8431 107.743 47.9684 107.681 48.1279C107.622 48.2874 107.559 48.4648 107.49 48.6602C107.422 48.849 107.363 49.0312 107.314 49.207C107.269 49.3828 107.246 49.5277 107.246 49.6416C107.246 49.7393 107.262 49.8206 107.295 49.8857C107.327 49.9476 107.383 49.9785 107.461 49.9785C107.555 49.9785 107.682 49.9248 107.842 49.8174C108.001 49.7067 108.166 49.5765 108.335 49.4268C108.426 49.3454 108.521 49.2591 108.618 49.168C108.716 49.0736 108.815 48.9743 108.916 48.8701C108.968 48.8278 109.019 48.8066 109.067 48.8066C109.132 48.8066 109.186 48.8392 109.229 48.9043C109.274 48.9661 109.297 49.0361 109.297 49.1143C109.297 49.2054 109.266 49.2819 109.204 49.3438C109.074 49.4642 108.94 49.5928 108.804 49.7295C108.667 49.8662 108.478 50.0339 108.237 50.2324C108.022 50.4082 107.801 50.5596 107.573 50.6865C107.345 50.8102 107.14 50.8721 106.958 50.8721C106.73 50.8721 106.564 50.7842 106.46 50.6084C106.356 50.4294 106.304 50.2389 106.304 50.0371C106.304 49.8906 106.325 49.7604 106.367 49.6465C106.234 49.8255 106.076 50.0111 105.894 50.2031C105.711 50.3919 105.514 50.5514 105.303 50.6816C105.091 50.8086 104.875 50.8721 104.653 50.8721ZM105.044 50.0127C105.148 50.0127 105.278 49.946 105.435 49.8125C105.594 49.679 105.747 49.5228 105.894 49.3438C106.056 49.1484 106.185 48.971 106.279 48.8115C106.374 48.652 106.421 48.5446 106.421 48.4893C106.421 48.3656 106.349 48.2679 106.206 48.1963C106.063 48.1214 105.934 48.084 105.82 48.084C105.618 48.084 105.426 48.1491 105.244 48.2793C105.065 48.4095 104.919 48.5771 104.805 48.7822C104.691 48.984 104.634 49.194 104.634 49.4121C104.634 49.5391 104.657 49.6709 104.702 49.8076C104.751 49.9443 104.865 50.0127 105.044 50.0127ZM108.428 50.8721C108.265 50.8721 108.184 50.7891 108.184 50.623C108.184 50.5872 108.188 50.5433 108.198 50.4912C108.211 50.4359 108.236 50.3757 108.271 50.3105C108.327 50.2064 108.387 50.0843 108.452 49.9443C108.517 49.8011 108.586 49.653 108.657 49.5C108.735 49.334 108.825 49.1436 108.926 48.9287C109.03 48.7106 109.152 48.46 109.292 48.1768C109.246 48.1377 109.207 48.0905 109.175 48.0352C109.146 47.9766 109.131 47.9049 109.131 47.8203C109.131 47.6673 109.189 47.555 109.307 47.4834C109.427 47.4085 109.57 47.3711 109.736 47.3711C109.899 47.3711 110.057 47.4004 110.21 47.459C110.366 47.5143 110.444 47.599 110.444 47.7129C110.444 47.7259 110.433 47.7568 110.41 47.8057C110.391 47.8512 110.381 47.8822 110.381 47.8984C110.381 47.9049 110.382 47.9082 110.386 47.9082H110.391L110.4 47.9033C110.641 47.7536 110.9 47.6266 111.177 47.5225C111.453 47.4183 111.681 47.3662 111.86 47.3662C112.007 47.3662 112.119 47.402 112.197 47.4736C112.279 47.542 112.319 47.6592 112.319 47.8252C112.319 47.861 112.318 47.9001 112.314 47.9424C112.311 47.9814 112.305 48.0238 112.295 48.0693C112.272 48.1898 112.181 48.346 112.021 48.5381C111.862 48.7301 111.693 48.9157 111.514 49.0947C111.432 49.1761 111.335 49.2738 111.221 49.3877C111.107 49.4984 111.007 49.6009 110.923 49.6953C110.838 49.7865 110.796 49.8483 110.796 49.8809C110.796 49.9264 110.812 49.9492 110.845 49.9492C111.079 49.8483 111.344 49.7246 111.641 49.5781C111.937 49.4284 112.223 49.2786 112.5 49.1289C112.777 48.9792 113.003 48.8538 113.179 48.7529C113.247 48.7139 113.306 48.6943 113.354 48.6943C113.491 48.6943 113.56 48.766 113.56 48.9092C113.56 48.984 113.527 49.0703 113.462 49.168C113.4 49.2624 113.294 49.3617 113.145 49.4658C113.005 49.5537 112.812 49.6758 112.568 49.832C112.327 49.985 112.088 50.1299 111.851 50.2666C111.616 50.4001 111.392 50.514 111.177 50.6084C110.965 50.7028 110.788 50.75 110.645 50.75C110.42 50.75 110.251 50.6963 110.137 50.5889C110.026 50.4814 109.971 50.3431 109.971 50.1738C109.971 50.1445 109.972 50.125 109.976 50.1152C110.011 49.9069 110.086 49.7051 110.2 49.5098C110.314 49.3145 110.433 49.1354 110.557 48.9727C110.68 48.8132 110.789 48.665 110.884 48.5283C110.981 48.3916 111.03 48.2744 111.03 48.1768C111.03 48.1279 111.012 48.1035 110.977 48.1035C110.924 48.1035 110.83 48.1296 110.693 48.1816C110.557 48.2305 110.422 48.2956 110.288 48.377C110.155 48.4583 110.063 48.5446 110.015 48.6357C109.95 48.7497 109.867 48.9092 109.766 49.1143C109.668 49.3161 109.57 49.5228 109.473 49.7344C109.378 49.946 109.299 50.1217 109.233 50.2617C109.162 50.4408 109.043 50.5872 108.877 50.7012C108.714 50.8151 108.564 50.8721 108.428 50.8721ZM113.208 50.8721C112.951 50.8721 112.772 50.8086 112.671 50.6816C112.57 50.5547 112.52 50.3984 112.52 50.2129C112.52 50.0501 112.547 49.8809 112.603 49.7051C112.658 49.5293 112.72 49.3714 112.788 49.2314L113.359 48.0596H113.149C112.967 48.0596 112.842 48.0303 112.773 47.9717C112.705 47.9131 112.671 47.8464 112.671 47.7715C112.671 47.6966 112.713 47.612 112.798 47.5176C112.882 47.4199 112.998 47.3711 113.145 47.3711H113.672L114.702 45.3252C114.767 45.2015 114.847 45.1136 114.941 45.0615C115.039 45.0062 115.14 44.9785 115.244 44.9785C115.342 44.9785 115.431 45.0046 115.513 45.0566C115.594 45.1087 115.635 45.195 115.635 45.3154C115.635 45.3773 115.62 45.4408 115.591 45.5059C115.565 45.5677 115.529 45.641 115.483 45.7256C115.431 45.8232 115.361 45.9551 115.273 46.1211C115.186 46.2839 115.076 46.4808 114.946 46.7119L114.595 47.3711H116.187C116.343 47.3711 116.47 47.3923 116.567 47.4346C116.668 47.4736 116.719 47.5632 116.719 47.7031C116.719 47.7747 116.693 47.8447 116.641 47.9131C116.589 47.9814 116.476 48.0221 116.304 48.0352H114.272L113.931 48.7188L113.628 49.3389C113.589 49.417 113.55 49.5081 113.511 49.6123C113.475 49.7132 113.457 49.8027 113.457 49.8809C113.457 49.9785 113.503 50.0273 113.594 50.0273C113.698 50.0273 113.838 49.9834 114.014 49.8955C114.189 49.8076 114.375 49.7002 114.57 49.5732C114.769 49.4463 114.959 49.3145 115.142 49.1777C115.324 49.0378 115.492 48.9027 115.645 48.7725C115.7 48.7367 115.749 48.7188 115.791 48.7188C115.863 48.7188 115.916 48.7578 115.952 48.8359C115.988 48.9141 115.991 49.0085 115.962 49.1191C115.936 49.2298 115.859 49.3356 115.732 49.4365C115.521 49.6286 115.306 49.8109 115.088 49.9834C114.873 50.1527 114.66 50.304 114.448 50.4375C114.233 50.5677 114.022 50.6719 113.813 50.75C113.605 50.8314 113.403 50.8721 113.208 50.8721ZM115.332 50.8721C115.218 50.8721 115.129 50.8363 115.063 50.7646C114.998 50.693 114.966 50.6051 114.966 50.501C114.966 50.4163 115.015 50.2585 115.112 50.0273C115.21 49.793 115.324 49.5423 115.454 49.2754C115.62 48.9271 115.767 48.626 115.894 48.3721C116.021 48.1149 116.115 47.9196 116.177 47.7861C116.242 47.6462 116.323 47.542 116.421 47.4736C116.519 47.4053 116.615 47.3711 116.709 47.3711C116.787 47.3711 116.857 47.4004 116.919 47.459C116.981 47.5143 117.012 47.5973 117.012 47.708C117.012 47.7503 117.007 47.7959 116.997 47.8447C116.987 47.8936 116.969 47.9456 116.943 48.001C117.044 47.874 117.194 47.7503 117.393 47.6299C117.591 47.5062 117.806 47.4036 118.037 47.3223C118.268 47.2409 118.481 47.2002 118.677 47.2002C118.849 47.2002 118.993 47.2425 119.106 47.3271C119.224 47.4085 119.282 47.5485 119.282 47.7471C119.282 47.9163 119.245 48.1003 119.17 48.2988C119.095 48.4941 119.006 48.6829 118.901 48.8652C118.791 49.0573 118.687 49.2266 118.589 49.373C118.494 49.5163 118.421 49.6351 118.369 49.7295C118.327 49.7816 118.306 49.8418 118.306 49.9102C118.306 49.9753 118.34 50.0078 118.408 50.0078C118.431 50.0078 118.457 50.0062 118.486 50.0029C118.516 49.9964 118.551 49.9785 118.594 49.9492C118.838 49.8581 119.08 49.7425 119.321 49.6025C119.565 49.4626 119.788 49.3177 119.99 49.168C120.195 49.0182 120.36 48.8864 120.483 48.7725C120.535 48.7301 120.586 48.709 120.635 48.709C120.752 48.709 120.811 48.7839 120.811 48.9336C120.811 49.0345 120.778 49.1468 120.713 49.2705C120.651 49.3942 120.552 49.5098 120.415 49.6172C120.177 49.7865 119.954 49.9443 119.746 50.0908C119.541 50.234 119.323 50.3643 119.092 50.4814C118.861 50.5986 118.586 50.7028 118.267 50.7939C118.101 50.846 117.959 50.8721 117.842 50.8721C117.51 50.8721 117.344 50.6898 117.344 50.3252C117.344 50.3024 117.344 50.2812 117.344 50.2617C117.347 50.2389 117.35 50.2145 117.354 50.1885C117.363 50.042 117.415 49.8727 117.51 49.6807C117.604 49.4854 117.707 49.2933 117.817 49.1045C117.928 48.9222 118.027 48.7513 118.115 48.5918C118.203 48.4323 118.247 48.3135 118.247 48.2354C118.247 48.1182 118.192 48.0596 118.081 48.0596C117.876 48.0596 117.679 48.1198 117.49 48.2402C117.305 48.3607 117.129 48.5137 116.963 48.6992C116.8 48.8815 116.65 49.0736 116.514 49.2754C116.377 49.474 116.257 49.6546 116.152 49.8174C116.077 49.9411 116.004 50.0859 115.933 50.252C115.864 50.418 115.783 50.5628 115.688 50.6865C115.597 50.8102 115.479 50.8721 115.332 50.8721ZM120.903 50.8721C120.643 50.8721 120.42 50.8086 120.234 50.6816C120.052 50.5514 119.912 50.3822 119.814 50.1738C119.72 49.9622 119.673 49.736 119.673 49.4951C119.673 49.2835 119.733 49.0475 119.854 48.7871C119.977 48.5234 120.153 48.2712 120.381 48.0303C120.609 47.7894 120.881 47.5908 121.196 47.4346C121.515 47.2751 121.862 47.1953 122.236 47.1953C122.507 47.1953 122.708 47.2604 122.842 47.3906C122.975 47.5208 123.042 47.7015 123.042 47.9326C123.042 48.0693 123.006 48.2126 122.935 48.3623C122.863 48.512 122.739 48.6634 122.563 48.8164C122.388 48.9727 122.152 49.1322 121.855 49.2949C121.562 49.4544 121.195 49.6156 120.752 49.7783C120.788 49.9801 120.951 50.0811 121.24 50.0811C121.465 50.0811 121.707 50.0355 121.968 49.9443C122.228 49.8499 122.479 49.7425 122.72 49.6221C122.961 49.5049 123.167 49.3942 123.34 49.29C123.512 49.1859 123.615 49.1273 123.647 49.1143C123.677 49.0947 123.703 49.0833 123.726 49.0801C123.752 49.0768 123.774 49.0752 123.794 49.0752C123.872 49.0752 123.926 49.1061 123.955 49.168C123.988 49.2266 124.004 49.2754 124.004 49.3145C124.004 49.3438 124.001 49.3796 123.994 49.4219C123.988 49.4609 123.963 49.5065 123.921 49.5586C123.879 49.6009 123.755 49.6937 123.55 49.8369C123.345 49.9801 123.125 50.1185 122.891 50.252C122.604 50.4115 122.285 50.5547 121.934 50.6816C121.582 50.8086 121.239 50.8721 120.903 50.8721ZM120.679 49.2168C120.89 49.1061 121.105 48.9775 121.323 48.8311C121.545 48.6813 121.712 48.5723 121.826 48.5039C121.979 48.4062 122.08 48.32 122.129 48.2451C122.184 48.1637 122.212 48.0954 122.212 48.04C122.212 47.9912 122.196 47.9521 122.163 47.9229C122.134 47.8936 122.1 47.8757 122.061 47.8691L122.017 47.8643H121.973C121.794 47.8643 121.628 47.9163 121.475 48.0205C121.325 48.1214 121.198 48.2484 121.094 48.4014C120.983 48.5609 120.894 48.7106 120.825 48.8506C120.76 48.9906 120.711 49.1126 120.679 49.2168ZM123.213 50.8721C123.05 50.8721 122.969 50.7891 122.969 50.623C122.969 50.5872 122.974 50.5433 122.983 50.4912C122.996 50.4359 123.021 50.3757 123.057 50.3105C123.112 50.2064 123.172 50.0843 123.237 49.9443C123.302 49.8011 123.371 49.653 123.442 49.5C123.521 49.334 123.61 49.1436 123.711 48.9287C123.815 48.7106 123.937 48.46 124.077 48.1768C124.032 48.1377 123.993 48.0905 123.96 48.0352C123.931 47.9766 123.916 47.9049 123.916 47.8203C123.916 47.6673 123.975 47.555 124.092 47.4834C124.212 47.4085 124.355 47.3711 124.521 47.3711C124.684 47.3711 124.842 47.4004 124.995 47.459C125.151 47.5143 125.229 47.599 125.229 47.7129C125.229 47.7259 125.218 47.7568 125.195 47.8057C125.176 47.8512 125.166 47.8822 125.166 47.8984C125.166 47.9049 125.168 47.9082 125.171 47.9082H125.176L125.186 47.9033C125.426 47.7536 125.685 47.6266 125.962 47.5225C126.239 47.4183 126.466 47.3662 126.646 47.3662C126.792 47.3662 126.904 47.402 126.982 47.4736C127.064 47.542 127.104 47.6592 127.104 47.8252C127.104 47.861 127.103 47.9001 127.1 47.9424C127.096 47.9814 127.09 48.0238 127.08 48.0693C127.057 48.1898 126.966 48.346 126.807 48.5381C126.647 48.7301 126.478 48.9157 126.299 49.0947C126.217 49.1761 126.12 49.2738 126.006 49.3877C125.892 49.4984 125.793 49.6009 125.708 49.6953C125.623 49.7865 125.581 49.8483 125.581 49.8809C125.581 49.9264 125.597 49.9492 125.63 49.9492C125.864 49.8483 126.13 49.7246 126.426 49.5781C126.722 49.4284 127.008 49.2786 127.285 49.1289C127.562 48.9792 127.788 48.8538 127.964 48.7529C128.032 48.7139 128.091 48.6943 128.14 48.6943C128.276 48.6943 128.345 48.766 128.345 48.9092C128.345 48.984 128.312 49.0703 128.247 49.168C128.185 49.2624 128.079 49.3617 127.93 49.4658C127.79 49.5537 127.598 49.6758 127.354 49.832C127.113 49.985 126.873 50.1299 126.636 50.2666C126.401 50.4001 126.177 50.514 125.962 50.6084C125.75 50.7028 125.573 50.75 125.43 50.75C125.205 50.75 125.036 50.6963 124.922 50.5889C124.811 50.4814 124.756 50.3431 124.756 50.1738C124.756 50.1445 124.757 50.125 124.761 50.1152C124.797 49.9069 124.871 49.7051 124.985 49.5098C125.099 49.3145 125.218 49.1354 125.342 48.9727C125.465 48.8132 125.575 48.665 125.669 48.5283C125.767 48.3916 125.815 48.2744 125.815 48.1768C125.815 48.1279 125.798 48.1035 125.762 48.1035C125.71 48.1035 125.615 48.1296 125.479 48.1816C125.342 48.2305 125.207 48.2956 125.073 48.377C124.94 48.4583 124.849 48.5446 124.8 48.6357C124.735 48.7497 124.652 48.9092 124.551 49.1143C124.453 49.3161 124.355 49.5228 124.258 49.7344C124.163 49.946 124.084 50.1217 124.019 50.2617C123.947 50.4408 123.828 50.5872 123.662 50.7012C123.499 50.8151 123.35 50.8721 123.213 50.8721Z" fill="#16A34A"/>
</svg>
