<svg width="63" height="20" viewBox="0 0 63 20" fill="none" xmlns="http://www.w3.org/2000/svg">
<path d="M20.6465 15.1465C20.334 15.1465 20.0664 15.0703 19.8438 14.918C19.625 14.7617 19.457 14.5586 19.3398 14.3086C19.2266 14.0547 19.1699 13.7832 19.1699 13.4941C19.1699 13.2402 19.2422 12.957 19.3867 12.6445C19.5352 12.3281 19.7461 12.0254 20.0195 11.7363C20.293 11.4473 20.6191 11.209 20.998 11.0215C21.3809 10.8301 21.7969 10.7344 22.2461 10.7344C22.5703 10.7344 22.8125 10.8125 22.9727 10.9688C23.1328 11.125 23.2129 11.3418 23.2129 11.6191C23.2129 11.7832 23.1699 11.9551 23.084 12.1348C22.998 12.3145 22.8496 12.4961 22.6387 12.6797C22.4277 12.8672 22.1445 13.0586 21.7891 13.2539C21.4375 13.4453 20.9961 13.6387 20.4648 13.834C20.5078 14.0762 20.7031 14.1973 21.0508 14.1973C21.3203 14.1973 21.6113 14.1426 21.9238 14.0332C22.2363 13.9199 22.5371 13.791 22.8262 13.6465C23.1152 13.5059 23.3633 13.373 23.5703 13.248C23.7773 13.123 23.9004 13.0527 23.9395 13.0371C23.9746 13.0137 24.0059 13 24.0332 12.9961C24.0645 12.9922 24.0918 12.9902 24.1152 12.9902C24.209 12.9902 24.2734 13.0273 24.3086 13.1016C24.3477 13.1719 24.3672 13.2305 24.3672 13.2773C24.3672 13.3125 24.3633 13.3555 24.3555 13.4062C24.3477 13.4531 24.3184 13.5078 24.2676 13.5703C24.2168 13.6211 24.0684 13.7324 23.8223 13.9043C23.5762 14.0762 23.3125 14.2422 23.0312 14.4023C22.6875 14.5938 22.3047 14.7656 21.8828 14.918C21.4609 15.0703 21.0488 15.1465 20.6465 15.1465ZM20.377 13.1602C20.6309 13.0273 20.8887 12.873 21.1504 12.6973C21.416 12.5176 21.6172 12.3867 21.7539 12.3047C21.9375 12.1875 22.0586 12.084 22.1172 11.9941C22.1836 11.8965 22.2168 11.8145 22.2168 11.748C22.2168 11.6895 22.1973 11.6426 22.1582 11.6074C22.123 11.5723 22.082 11.5508 22.0352 11.543L21.9824 11.5371H21.9297C21.7148 11.5371 21.5156 11.5996 21.332 11.7246C21.1523 11.8457 21 11.998 20.875 12.1816C20.7422 12.373 20.6348 12.5527 20.5527 12.7207C20.4746 12.8887 20.416 13.0352 20.377 13.1602ZM23.3934 17.9766C23.2527 17.9766 23.1375 17.9473 23.0477 17.8887C22.9539 17.834 22.907 17.7266 22.907 17.5664C22.907 17.4141 22.948 17.252 23.0301 17.0801C23.1121 16.9082 23.1824 16.7578 23.241 16.6289C23.5145 16.125 23.7957 15.6094 24.0848 15.082C24.3738 14.5586 24.6434 14.043 24.8934 13.5352C25.1473 13.0273 25.3504 12.5449 25.5027 12.0879C25.5301 12.0254 25.5691 11.9336 25.6199 11.8125C25.6707 11.6875 25.7332 11.5586 25.8074 11.4258C25.8816 11.293 25.9637 11.1797 26.0535 11.0859C26.1434 10.9922 26.2391 10.9453 26.3406 10.9453C26.6375 10.9453 26.7859 11.0645 26.7859 11.3027C26.7859 11.3457 26.7723 11.4355 26.7449 11.5723C26.7215 11.7051 26.6961 11.7969 26.6687 11.8477C26.8602 11.6719 27.0711 11.5 27.3016 11.332C27.532 11.1602 27.7723 11.0195 28.0223 10.9102C28.2762 10.7969 28.5262 10.7402 28.7723 10.7402C29.0301 10.7402 29.2703 10.8027 29.493 10.9277C29.7195 11.0488 29.8328 11.2305 29.8328 11.4727C29.8328 11.7031 29.7332 11.9609 29.534 12.2461C29.3387 12.5273 29.1141 12.8008 28.8602 13.0664C28.7117 13.2227 28.5613 13.375 28.409 13.5234C28.2566 13.668 28.1277 13.793 28.0223 13.8984C27.9207 14.0039 27.868 14.0742 27.8641 14.1094C27.8641 14.2148 27.9402 14.2676 28.0926 14.2676C28.2488 14.2676 28.5711 14.0996 29.0594 13.7637C29.5477 13.4238 30.2391 12.918 31.1336 12.2461C31.2547 12.1758 31.3504 12.1406 31.4207 12.1406C31.5066 12.1406 31.5711 12.1738 31.6141 12.2402C31.657 12.3027 31.6785 12.3809 31.6785 12.4746C31.6785 12.5762 31.6512 12.6797 31.5965 12.7852C31.5457 12.8906 31.4676 12.9785 31.3621 13.0488C30.9559 13.3496 30.5828 13.6348 30.243 13.9043C29.9109 14.166 29.6023 14.3867 29.3172 14.5664C29.0242 14.7539 28.7391 14.8984 28.4617 15C28.1844 15.1016 27.8875 15.1523 27.5711 15.1523C27.2742 15.1523 27.0437 15.0977 26.8797 14.9883C26.7195 14.8789 26.6395 14.7285 26.6395 14.5371V14.4902L26.6453 14.4434C26.6687 14.2715 26.784 14.0625 26.991 13.8164C27.202 13.5664 27.4324 13.3164 27.6824 13.0664C27.9246 12.8242 28.1453 12.5938 28.3445 12.375C28.5437 12.1562 28.6434 11.9883 28.6434 11.8711C28.6434 11.7695 28.5594 11.7188 28.3914 11.7188C28.1609 11.7188 27.9187 11.791 27.6648 11.9355C27.4148 12.0801 27.1746 12.2656 26.9441 12.4922C26.7059 12.7188 26.4949 12.9551 26.3113 13.2012C26.1277 13.4473 25.9754 13.6758 25.8543 13.8867L25.4559 14.6309C25.366 14.7988 25.2879 14.9453 25.2215 15.0703C25.159 15.1953 25.116 15.2793 25.0926 15.3223C25.0652 15.373 25.0125 15.4844 24.9344 15.6562C24.8602 15.8281 24.7684 16.0352 24.659 16.2773C24.5496 16.5156 24.4559 16.7207 24.3777 16.8926C24.3035 17.0684 24.2586 17.1797 24.243 17.2266C24.1687 17.4258 24.0633 17.5996 23.9266 17.748C23.7898 17.9004 23.6121 17.9766 23.3934 17.9766ZM31.5484 15.1465C31.4117 15.1465 31.3062 15.1055 31.232 15.0234C31.1578 14.9453 31.1207 14.8457 31.1207 14.7246C31.1207 14.5605 31.1871 14.3438 31.3199 14.0742C31.4488 13.8047 31.5953 13.5059 31.7594 13.1777C31.9234 12.8457 32.0836 12.5254 32.2398 12.2168C32.4 11.9082 32.5309 11.6504 32.6324 11.4434L34.566 7.64062C34.6129 7.53906 34.7047 7.44922 34.8414 7.37109C34.9781 7.28906 35.1148 7.24805 35.2516 7.24805C35.4234 7.24805 35.5426 7.28125 35.609 7.34766C35.6754 7.41016 35.7086 7.48828 35.7086 7.58203C35.7086 7.66797 35.6871 7.75977 35.6441 7.85742C35.6012 7.95117 35.5523 8.03906 35.4977 8.12109C35.1773 8.67188 34.859 9.26172 34.5426 9.89062C34.2262 10.5195 33.8941 11.123 33.5465 11.7012C33.6949 11.5566 33.8551 11.4121 34.027 11.2676C34.1988 11.1191 34.3922 10.9941 34.607 10.8926C34.8219 10.791 35.068 10.7402 35.3453 10.7402C35.6031 10.7402 35.8238 10.791 36.0074 10.8926C36.191 10.9941 36.2828 11.1777 36.2828 11.4434C36.2828 11.6934 36.2281 11.9219 36.1187 12.1289C36.0094 12.3359 35.8805 12.5312 35.732 12.7148C35.5875 12.8945 35.4527 13.0801 35.3277 13.2715C35.2027 13.4629 35.1285 13.6719 35.1051 13.8984V13.9219L35.0992 13.9453C35.0992 14.0234 35.1246 14.0723 35.1754 14.0918C35.2301 14.1113 35.2984 14.1211 35.3805 14.1211C35.5406 14.1211 35.7125 14.0781 35.8961 13.9922C36.0836 13.9023 36.2711 13.793 36.4586 13.6641C36.6422 13.5352 36.8121 13.4023 36.9684 13.2656C37.1285 13.1289 37.2574 13.0137 37.3551 12.9199C37.4215 12.8574 37.4957 12.8262 37.5777 12.8262C37.648 12.8262 37.7066 12.8535 37.7535 12.9082C37.8043 12.959 37.8297 13.0293 37.8297 13.1191C37.8297 13.2012 37.8004 13.2949 37.7418 13.4004C37.6871 13.5059 37.5914 13.6113 37.4547 13.7168C37.1734 13.959 36.8824 14.1895 36.5816 14.4082C36.2848 14.627 35.984 14.8047 35.6793 14.9414C35.3785 15.0781 35.0816 15.1465 34.7887 15.1465C34.5113 15.1465 34.2887 15.084 34.1207 14.959C33.9527 14.8301 33.8687 14.6289 33.8687 14.3555C33.8687 14.0859 33.9293 13.8281 34.0504 13.582C34.1754 13.3359 34.3141 13.1074 34.4664 12.8965C34.6227 12.6855 34.7477 12.5 34.8414 12.3398C34.8883 12.2734 34.9234 12.2129 34.9469 12.1582C34.9742 12.0996 34.9879 12.0371 34.9879 11.9707C34.9879 11.8379 34.9234 11.7715 34.7945 11.7715C34.4898 11.7715 34.2145 11.8672 33.9684 12.0586C33.7262 12.2461 33.5055 12.4785 33.3062 12.7559C33.1109 13.0293 32.9312 13.2949 32.7672 13.5527C32.6891 13.6738 32.607 13.8223 32.5211 13.998C32.4352 14.1738 32.3395 14.3535 32.234 14.5371C32.1363 14.709 32.0289 14.8535 31.9117 14.9707C31.7945 15.0879 31.6734 15.1465 31.5484 15.1465ZM39.2582 15.1465C39.1254 15.1465 38.9672 15.1094 38.7836 15.0352C38.6 14.9609 38.4379 14.8379 38.2973 14.666C38.1605 14.4941 38.0922 14.2637 38.0922 13.9746C38.0922 13.7324 38.1469 13.4297 38.2563 13.0664C38.3656 12.7031 38.5375 12.3457 38.7719 11.9941C39.0063 11.6348 39.3051 11.3359 39.6684 11.0977C40.0355 10.8594 40.4594 10.7402 40.9398 10.7402C41.1117 10.7402 41.2621 10.7617 41.391 10.8047C41.5199 10.8477 41.6293 10.8945 41.7191 10.9453C41.7699 10.9766 41.8168 11.0098 41.8598 11.0449C41.9066 11.0762 41.9496 11.1113 41.9887 11.1504L42.1938 11.0508C42.2523 11.0234 42.3129 11 42.3754 10.9805C42.4418 10.957 42.4984 10.9453 42.5453 10.9453C42.6938 10.9453 42.8148 10.9863 42.9086 11.0684C43.0023 11.1504 43.0492 11.2402 43.0492 11.3379C43.0492 11.3691 43.0473 11.3906 43.0434 11.4023C43.016 11.5117 42.9652 11.6621 42.891 11.8535C42.8207 12.0449 42.7445 12.2578 42.6625 12.4922C42.5805 12.7188 42.5102 12.9375 42.4516 13.1484C42.3969 13.3594 42.3695 13.5332 42.3695 13.6699C42.3695 13.7871 42.3891 13.8848 42.4281 13.9629C42.4672 14.0371 42.5336 14.0742 42.6273 14.0742C42.7406 14.0742 42.893 14.0098 43.0844 13.8809C43.2758 13.748 43.473 13.5918 43.6762 13.4121C43.7855 13.3145 43.8988 13.2109 44.016 13.1016C44.1332 12.9883 44.2523 12.8691 44.3734 12.7441C44.4359 12.6934 44.4965 12.668 44.5551 12.668C44.6332 12.668 44.6977 12.707 44.7484 12.7852C44.8031 12.8594 44.8305 12.9434 44.8305 13.0371C44.8305 13.1465 44.7934 13.2383 44.7191 13.3125C44.5629 13.457 44.4027 13.6113 44.2387 13.7754C44.0746 13.9395 43.848 14.1406 43.559 14.3789C43.3012 14.5898 43.0355 14.7715 42.7621 14.9238C42.4887 15.0723 42.2426 15.1465 42.0238 15.1465C41.7504 15.1465 41.5512 15.041 41.4262 14.8301C41.3012 14.6152 41.2387 14.3867 41.2387 14.1445C41.2387 13.9688 41.2641 13.8125 41.3148 13.6758C41.1547 13.8906 40.9652 14.1133 40.7465 14.3438C40.5277 14.5703 40.2914 14.7617 40.0375 14.918C39.7836 15.0703 39.5238 15.1465 39.2582 15.1465ZM39.727 14.1152C39.852 14.1152 40.0082 14.0352 40.1957 13.875C40.3871 13.7148 40.5707 13.5273 40.7465 13.3125C40.9418 13.0781 41.0961 12.8652 41.2094 12.6738C41.3227 12.4824 41.3793 12.3535 41.3793 12.2871C41.3793 12.1387 41.2934 12.0215 41.1215 11.9355C40.9496 11.8457 40.7953 11.8008 40.6586 11.8008C40.4164 11.8008 40.1859 11.8789 39.9672 12.0352C39.7523 12.1914 39.5766 12.3926 39.4398 12.6387C39.3031 12.8809 39.2348 13.1328 39.2348 13.3945C39.2348 13.5469 39.2621 13.7051 39.3168 13.8691C39.3754 14.0332 39.5121 14.1152 39.727 14.1152ZM45.2336 15.1465C45.0969 15.1465 44.9895 15.1035 44.9113 15.0176C44.8332 14.9316 44.7941 14.8262 44.7941 14.7012C44.7941 14.5996 44.8527 14.4102 44.9699 14.1328C45.0871 13.8516 45.2238 13.5508 45.3801 13.2305C45.5793 12.8125 45.7551 12.4512 45.9074 12.1465C46.0598 11.8379 46.173 11.6035 46.2473 11.4434C46.3254 11.2754 46.423 11.1504 46.5402 11.0684C46.6574 10.9863 46.7727 10.9453 46.8859 10.9453C46.9797 10.9453 47.0637 10.9805 47.1379 11.0508C47.2121 11.1172 47.2492 11.2168 47.2492 11.3496C47.2492 11.4004 47.2434 11.4551 47.2316 11.5137C47.2199 11.5723 47.1984 11.6348 47.1672 11.7012C47.2883 11.5488 47.468 11.4004 47.7062 11.2559C47.9445 11.1074 48.2023 10.9844 48.4797 10.8867C48.757 10.7891 49.0129 10.7402 49.2473 10.7402C49.4543 10.7402 49.6262 10.791 49.7629 10.8926C49.9035 10.9902 49.9738 11.1582 49.9738 11.3965C49.9738 11.5996 49.9289 11.8203 49.8391 12.0586C49.7492 12.293 49.6418 12.5195 49.5168 12.7383C49.384 12.9688 49.259 13.1719 49.1418 13.3477C49.0285 13.5195 48.9406 13.6621 48.8781 13.7754C48.8273 13.8379 48.802 13.9102 48.802 13.9922C48.802 14.0703 48.843 14.1094 48.925 14.1094C48.9523 14.1094 48.9836 14.1074 49.0187 14.1035C49.0539 14.0957 49.0969 14.0742 49.1477 14.0391C49.4406 13.9297 49.7316 13.791 50.0207 13.623C50.3137 13.4551 50.5812 13.2812 50.8234 13.1016C51.0695 12.9219 51.2668 12.7637 51.4152 12.627C51.4777 12.5762 51.5383 12.5508 51.5969 12.5508C51.7375 12.5508 51.8078 12.6406 51.8078 12.8203C51.8078 12.9414 51.7687 13.0762 51.6906 13.2246C51.6164 13.373 51.4973 13.5117 51.3332 13.6406C51.048 13.8438 50.7805 14.0332 50.5305 14.209C50.2844 14.3809 50.0227 14.5371 49.7453 14.6777C49.468 14.8184 49.1379 14.9434 48.7551 15.0527C48.5559 15.1152 48.3859 15.1465 48.2453 15.1465C47.8469 15.1465 47.6477 14.9277 47.6477 14.4902C47.6477 14.4629 47.6477 14.4375 47.6477 14.4141C47.6516 14.3867 47.6555 14.3574 47.6594 14.3262C47.6711 14.1504 47.7336 13.9473 47.8469 13.7168C47.9602 13.4824 48.0832 13.252 48.216 13.0254C48.3488 12.8066 48.468 12.6016 48.5734 12.4102C48.6789 12.2188 48.7316 12.0762 48.7316 11.9824C48.7316 11.8418 48.6652 11.7715 48.5324 11.7715C48.2863 11.7715 48.05 11.8438 47.8234 11.9883C47.6008 12.1328 47.3898 12.3164 47.1906 12.5391C46.9953 12.7578 46.8156 12.9883 46.6516 13.2305C46.4875 13.4688 46.343 13.6855 46.218 13.8809C46.1281 14.0293 46.0402 14.2031 45.9543 14.4023C45.8723 14.6016 45.7746 14.7754 45.6613 14.9238C45.552 15.0723 45.4094 15.1465 45.2336 15.1465ZM52.6094 15.1465C52.2891 15.1465 52.0684 15.0664 51.9473 14.9062C51.8301 14.7461 51.7715 14.5508 51.7715 14.3203C51.7715 14.1289 51.7988 13.9336 51.8535 13.7344C51.9121 13.5312 51.9805 13.3457 52.0586 13.1777C52.1953 12.873 52.334 12.5703 52.4746 12.2695C52.6152 11.9688 52.7441 11.6934 52.8613 11.4434L54.6367 7.66406C54.7266 7.46875 54.8613 7.3418 55.041 7.2832C55.2207 7.22461 55.3848 7.23047 55.5332 7.30078C55.6855 7.36719 55.7617 7.49023 55.7617 7.66992C55.7617 7.74023 55.7441 7.81445 55.709 7.89258C55.6777 7.9707 55.6367 8.05469 55.5859 8.14453C55.4453 8.41016 55.2656 8.75977 55.0469 9.19336C54.832 9.62695 54.5938 10.1152 54.332 10.6582C54.0469 11.2559 53.8066 11.7578 53.6113 12.1641C53.4199 12.5664 53.2402 12.9473 53.0723 13.3066C53.0293 13.3965 52.9863 13.502 52.9434 13.623C52.9043 13.7402 52.8848 13.8457 52.8848 13.9395C52.8848 14.0684 52.9414 14.1328 53.0547 14.1328C53.1797 14.1328 53.3457 14.082 53.5527 13.9805C53.7637 13.875 53.9824 13.7441 54.209 13.5879C54.4395 13.4355 54.6621 13.2773 54.877 13.1133C55.0918 12.9453 55.291 12.7832 55.4746 12.627C55.5371 12.5762 55.6113 12.5508 55.6973 12.5508C55.877 12.5508 55.9668 12.6504 55.9668 12.8496C55.9668 12.9316 55.9395 13.0234 55.8848 13.125C55.8301 13.2266 55.7344 13.3262 55.5977 13.4238C55.3477 13.6543 55.0957 13.873 54.8418 14.0801C54.5918 14.2832 54.3398 14.4648 54.0859 14.625C53.8359 14.7812 53.5859 14.9062 53.3359 15C53.0859 15.0977 52.8438 15.1465 52.6094 15.1465ZM57.1609 18.4746C57.0047 18.4746 56.8777 18.4219 56.7801 18.3164C56.6824 18.2148 56.6336 18.0762 56.6336 17.9004C56.6336 17.7363 56.6531 17.5723 56.6922 17.4082C56.7352 17.248 56.8094 17.0703 56.9148 16.875C57.0164 16.6797 57.1512 16.4609 57.3191 16.2188C57.491 15.9805 57.7059 15.6992 57.9637 15.375L59.1355 13.002C58.5496 13.6973 58.0184 14.2285 57.5418 14.5957C57.0652 14.9629 56.6199 15.1465 56.2059 15.1465C56.073 15.1465 55.9598 15.1152 55.866 15.0527C55.7723 14.9941 55.7254 14.8945 55.7254 14.7539C55.7254 14.5586 55.7723 14.3379 55.866 14.0918C55.9441 13.9004 56.0262 13.7227 56.1121 13.5586C56.202 13.3906 56.2938 13.2148 56.3875 13.0312C56.4852 12.8359 56.5984 12.5957 56.7273 12.3105C56.8563 12.0254 56.9988 11.6836 57.1551 11.2852C57.2332 11.1328 57.3348 11.0234 57.4598 10.957C57.5848 10.8867 57.7059 10.8516 57.823 10.8516C57.9441 10.8516 58.0457 10.8809 58.1277 10.9395C58.2137 10.9941 58.2566 11.0684 58.2566 11.1621C58.2566 11.2129 58.2488 11.2539 58.2332 11.2852L57.1609 13.5176C57.1063 13.6348 57.0789 13.7246 57.0789 13.7871C57.0789 13.8457 57.1023 13.875 57.1492 13.875C57.1922 13.875 57.2469 13.8535 57.3133 13.8105C57.3797 13.7676 57.4422 13.7188 57.5008 13.6641L59.9207 11.2852C60.116 11.1289 60.2664 11.0332 60.3719 10.998C60.4773 10.9629 60.5809 10.9453 60.6824 10.9453C60.7645 10.9453 60.823 10.9766 60.8582 11.0391C60.8934 11.0977 60.9109 11.1602 60.9109 11.2266C60.9109 11.2773 60.9012 11.3281 60.8816 11.3789L59.5691 14.1152C59.7566 13.9746 59.9715 13.8379 60.2137 13.7051C60.4559 13.5684 60.6922 13.4453 60.9227 13.3359C61.1531 13.2266 61.3484 13.1406 61.5086 13.0781C61.6688 13.0117 61.7586 12.9785 61.7781 12.9785C61.8758 12.9785 61.9617 13.0156 62.0359 13.0898C62.1102 13.1641 62.1473 13.2578 62.1473 13.3711C62.1473 13.4727 62.1082 13.5801 62.0301 13.6934C61.9559 13.8066 61.823 13.916 61.6316 14.0215C61.3855 14.1582 61.1512 14.2852 60.9285 14.4023C60.7098 14.5195 60.5262 14.6191 60.3777 14.7012L59.9617 14.9355C59.7742 15.0449 59.6004 15.1602 59.4402 15.2812C59.284 15.4023 59.1258 15.5371 58.9656 15.6855C58.7938 16.1348 58.6316 16.5312 58.4793 16.875C58.3309 17.2188 58.2391 17.4238 58.2039 17.4902C57.8875 18.1465 57.5398 18.4746 57.1609 18.4746Z" fill="#92E3A9"/>
<circle cx="4.5" cy="2.5" r="1.5" fill="#92E3A9"/>
<path d="M4 17V5.1875C4 5.08395 4.08395 5 4.1875 5C5.7408 5 7 3.7408 7 2.1875C7 2.08395 7.08395 2 7.1875 2H16C17.1046 2 18 2.89543 18 4V16.8053C18 16.9128 17.9128 17 17.8053 17C16.6989 17 15.6875 17.6251 15.1927 18.6147L15.0553 18.8894C15.0214 18.9572 14.9521 19 14.8764 19H6C4.89543 19 4 18.1046 4 17Z" fill="#92E3A9"/>
<path d="M9.6582 16.1465C9.0625 16.1465 8.55469 16.0977 8.13477 16C7.71973 15.9072 7.37793 15.7778 7.10938 15.6118C6.84082 15.4507 6.64551 15.2651 6.52344 15.0552C6.40137 14.8403 6.34033 14.6157 6.34033 14.3813C6.34033 13.8784 6.57959 13.3926 7.05811 12.9238C7.2876 12.6992 7.55859 12.499 7.87109 12.3232C8.18848 12.1475 8.5376 12.0132 8.91846 11.9204C9.06006 11.9204 9.1626 11.979 9.22607 12.0962C9.29443 12.2085 9.32861 12.3379 9.32861 12.4844C9.32861 12.626 9.29443 12.7383 9.22607 12.8213C9.15771 12.8994 9.00146 12.9897 8.75732 13.0923C8.48389 13.2095 8.26904 13.3511 8.11279 13.5171C7.95654 13.6782 7.87842 13.8394 7.87842 14.0005C7.87842 14.2056 8.02002 14.3862 8.30322 14.5425C8.59131 14.6938 9.06006 14.7695 9.70947 14.7695C10.1587 14.7695 10.5713 14.6987 10.9473 14.5571C11.3281 14.4155 11.6333 14.2227 11.8628 13.9785C12.0923 13.7295 12.207 13.4487 12.207 13.1362C12.207 12.9604 12.1338 12.7773 11.9873 12.5869C11.8408 12.3965 11.6089 12.1987 11.2915 11.9937C11.0083 11.8081 10.7593 11.6421 10.5444 11.4956C10.3345 11.3491 10.1587 11.2197 10.0171 11.1074L9.4751 10.6826C9.10889 10.3604 8.83545 10.0503 8.65479 9.75244C8.47412 9.45459 8.38379 9.14453 8.38379 8.82227C8.38379 8.38281 8.5376 7.96045 8.84521 7.55518C9.15283 7.14502 9.54834 6.77881 10.0317 6.45654C10.5151 6.13916 11.0303 5.89014 11.5771 5.70947C12.124 5.52393 12.6294 5.43115 13.0933 5.43115C13.5718 5.43115 13.9697 5.54346 14.2871 5.76807C14.6094 5.99268 14.7705 6.35645 14.7705 6.85938C14.7705 7.60645 14.3457 8.26562 13.4961 8.83691C13.3057 8.96875 13.1299 9.03467 12.9688 9.03467C12.8027 9.03467 12.6709 8.97607 12.5732 8.85889C12.4756 8.73682 12.4268 8.59521 12.4268 8.43408C12.4268 8.29736 12.4658 8.16064 12.5439 8.02393C12.627 7.88721 12.7588 7.77002 12.9395 7.67236C13.0811 7.59912 13.2056 7.50146 13.313 7.37939C13.4253 7.25244 13.4814 7.13037 13.4814 7.01318C13.4814 6.90088 13.4424 6.82764 13.3643 6.79346C13.291 6.75928 13.2007 6.74219 13.0933 6.74219C12.7905 6.74219 12.4512 6.7959 12.0752 6.90332C11.6992 7.01074 11.3403 7.15723 10.9985 7.34277C10.6372 7.53809 10.3491 7.75049 10.1343 7.97998C9.92432 8.20947 9.81934 8.43652 9.81934 8.66113C9.81934 8.87109 9.90479 9.06396 10.0757 9.23975C10.2515 9.41553 10.498 9.62061 10.8154 9.85498L12.5293 11.1221C12.9492 11.4346 13.2861 11.7422 13.54 12.0449C13.7939 12.3428 13.9209 12.6675 13.9209 13.019C13.9209 13.5366 13.7427 14.0347 13.3862 14.5132C13.0347 14.9917 12.5391 15.3848 11.8994 15.6924C11.2646 15.9951 10.5176 16.1465 9.6582 16.1465Z" fill="#34464F"/>
</svg>
