<svg width="63" height="25" viewBox="0 0 63 25" fill="none" xmlns="http://www.w3.org/2000/svg">
<path d="M20.6465 15.1465C20.334 15.1465 20.0664 15.0703 19.8438 14.918C19.625 14.7617 19.457 14.5586 19.3398 14.3086C19.2266 14.0547 19.1699 13.7832 19.1699 13.4941C19.1699 13.2402 19.2422 12.957 19.3867 12.6445C19.5352 12.3281 19.7461 12.0254 20.0195 11.7363C20.293 11.4473 20.6191 11.209 20.998 11.0215C21.3809 10.8301 21.7969 10.7344 22.2461 10.7344C22.5703 10.7344 22.8125 10.8125 22.9727 10.9688C23.1328 11.125 23.2129 11.3418 23.2129 11.6191C23.2129 11.7832 23.1699 11.9551 23.084 12.1348C22.998 12.3145 22.8496 12.4961 22.6387 12.6797C22.4277 12.8672 22.1445 13.0586 21.7891 13.2539C21.4375 13.4453 20.9961 13.6387 20.4648 13.834C20.5078 14.0762 20.7031 14.1973 21.0508 14.1973C21.3203 14.1973 21.6113 14.1426 21.9238 14.0332C22.2363 13.9199 22.5371 13.791 22.8262 13.6465C23.1152 13.5059 23.3633 13.373 23.5703 13.248C23.7773 13.123 23.9004 13.0527 23.9395 13.0371C23.9746 13.0137 24.0059 13 24.0332 12.9961C24.0645 12.9922 24.0918 12.9902 24.1152 12.9902C24.209 12.9902 24.2734 13.0273 24.3086 13.1016C24.3477 13.1719 24.3672 13.2305 24.3672 13.2773C24.3672 13.3125 24.3633 13.3555 24.3555 13.4062C24.3477 13.4531 24.3184 13.5078 24.2676 13.5703C24.2168 13.6211 24.0684 13.7324 23.8223 13.9043C23.5762 14.0762 23.3125 14.2422 23.0312 14.4023C22.6875 14.5938 22.3047 14.7656 21.8828 14.918C21.4609 15.0703 21.0488 15.1465 20.6465 15.1465ZM20.377 13.1602C20.6309 13.0273 20.8887 12.873 21.1504 12.6973C21.416 12.5176 21.6172 12.3867 21.7539 12.3047C21.9375 12.1875 22.0586 12.084 22.1172 11.9941C22.1836 11.8965 22.2168 11.8145 22.2168 11.748C22.2168 11.6895 22.1973 11.6426 22.1582 11.6074C22.123 11.5723 22.082 11.5508 22.0352 11.543L21.9824 11.5371H21.9297C21.7148 11.5371 21.5156 11.5996 21.332 11.7246C21.1523 11.8457 21 11.998 20.875 12.1816C20.7422 12.373 20.6348 12.5527 20.5527 12.7207C20.4746 12.8887 20.416 13.0352 20.377 13.1602ZM23.3934 17.9766C23.2527 17.9766 23.1375 17.9473 23.0477 17.8887C22.9539 17.834 22.907 17.7266 22.907 17.5664C22.907 17.4141 22.948 17.252 23.0301 17.0801C23.1121 16.9082 23.1824 16.7578 23.241 16.6289C23.5145 16.125 23.7957 15.6094 24.0848 15.082C24.3738 14.5586 24.6434 14.043 24.8934 13.5352C25.1473 13.0273 25.3504 12.5449 25.5027 12.0879C25.5301 12.0254 25.5691 11.9336 25.6199 11.8125C25.6707 11.6875 25.7332 11.5586 25.8074 11.4258C25.8816 11.293 25.9637 11.1797 26.0535 11.0859C26.1434 10.9922 26.2391 10.9453 26.3406 10.9453C26.6375 10.9453 26.7859 11.0645 26.7859 11.3027C26.7859 11.3457 26.7723 11.4355 26.7449 11.5723C26.7215 11.7051 26.6961 11.7969 26.6687 11.8477C26.8602 11.6719 27.0711 11.5 27.3016 11.332C27.532 11.1602 27.7723 11.0195 28.0223 10.9102C28.2762 10.7969 28.5262 10.7402 28.7723 10.7402C29.0301 10.7402 29.2703 10.8027 29.493 10.9277C29.7195 11.0488 29.8328 11.2305 29.8328 11.4727C29.8328 11.7031 29.7332 11.9609 29.534 12.2461C29.3387 12.5273 29.1141 12.8008 28.8602 13.0664C28.7117 13.2227 28.5613 13.375 28.409 13.5234C28.2566 13.668 28.1277 13.793 28.0223 13.8984C27.9207 14.0039 27.868 14.0742 27.8641 14.1094C27.8641 14.2148 27.9402 14.2676 28.0926 14.2676C28.2488 14.2676 28.5711 14.0996 29.0594 13.7637C29.5477 13.4238 30.2391 12.918 31.1336 12.2461C31.2547 12.1758 31.3504 12.1406 31.4207 12.1406C31.5066 12.1406 31.5711 12.1738 31.6141 12.2402C31.657 12.3027 31.6785 12.3809 31.6785 12.4746C31.6785 12.5762 31.6512 12.6797 31.5965 12.7852C31.5457 12.8906 31.4676 12.9785 31.3621 13.0488C30.9559 13.3496 30.5828 13.6348 30.243 13.9043C29.9109 14.166 29.6023 14.3867 29.3172 14.5664C29.0242 14.7539 28.7391 14.8984 28.4617 15C28.1844 15.1016 27.8875 15.1523 27.5711 15.1523C27.2742 15.1523 27.0437 15.0977 26.8797 14.9883C26.7195 14.8789 26.6395 14.7285 26.6395 14.5371V14.4902L26.6453 14.4434C26.6687 14.2715 26.784 14.0625 26.991 13.8164C27.202 13.5664 27.4324 13.3164 27.6824 13.0664C27.9246 12.8242 28.1453 12.5938 28.3445 12.375C28.5437 12.1562 28.6434 11.9883 28.6434 11.8711C28.6434 11.7695 28.5594 11.7188 28.3914 11.7188C28.1609 11.7188 27.9187 11.791 27.6648 11.9355C27.4148 12.0801 27.1746 12.2656 26.9441 12.4922C26.7059 12.7188 26.4949 12.9551 26.3113 13.2012C26.1277 13.4473 25.9754 13.6758 25.8543 13.8867L25.4559 14.6309C25.366 14.7988 25.2879 14.9453 25.2215 15.0703C25.159 15.1953 25.116 15.2793 25.0926 15.3223C25.0652 15.373 25.0125 15.4844 24.9344 15.6562C24.8602 15.8281 24.7684 16.0352 24.659 16.2773C24.5496 16.5156 24.4559 16.7207 24.3777 16.8926C24.3035 17.0684 24.2586 17.1797 24.243 17.2266C24.1687 17.4258 24.0633 17.5996 23.9266 17.748C23.7898 17.9004 23.6121 17.9766 23.3934 17.9766ZM31.5484 15.1465C31.4117 15.1465 31.3062 15.1055 31.232 15.0234C31.1578 14.9453 31.1207 14.8457 31.1207 14.7246C31.1207 14.5605 31.1871 14.3438 31.3199 14.0742C31.4488 13.8047 31.5953 13.5059 31.7594 13.1777C31.9234 12.8457 32.0836 12.5254 32.2398 12.2168C32.4 11.9082 32.5309 11.6504 32.6324 11.4434L34.566 7.64062C34.6129 7.53906 34.7047 7.44922 34.8414 7.37109C34.9781 7.28906 35.1148 7.24805 35.2516 7.24805C35.4234 7.24805 35.5426 7.28125 35.609 7.34766C35.6754 7.41016 35.7086 7.48828 35.7086 7.58203C35.7086 7.66797 35.6871 7.75977 35.6441 7.85742C35.6012 7.95117 35.5523 8.03906 35.4977 8.12109C35.1773 8.67188 34.859 9.26172 34.5426 9.89062C34.2262 10.5195 33.8941 11.123 33.5465 11.7012C33.6949 11.5566 33.8551 11.4121 34.027 11.2676C34.1988 11.1191 34.3922 10.9941 34.607 10.8926C34.8219 10.791 35.068 10.7402 35.3453 10.7402C35.6031 10.7402 35.8238 10.791 36.0074 10.8926C36.191 10.9941 36.2828 11.1777 36.2828 11.4434C36.2828 11.6934 36.2281 11.9219 36.1187 12.1289C36.0094 12.3359 35.8805 12.5312 35.732 12.7148C35.5875 12.8945 35.4527 13.0801 35.3277 13.2715C35.2027 13.4629 35.1285 13.6719 35.1051 13.8984V13.9219L35.0992 13.9453C35.0992 14.0234 35.1246 14.0723 35.1754 14.0918C35.2301 14.1113 35.2984 14.1211 35.3805 14.1211C35.5406 14.1211 35.7125 14.0781 35.8961 13.9922C36.0836 13.9023 36.2711 13.793 36.4586 13.6641C36.6422 13.5352 36.8121 13.4023 36.9684 13.2656C37.1285 13.1289 37.2574 13.0137 37.3551 12.9199C37.4215 12.8574 37.4957 12.8262 37.5777 12.8262C37.648 12.8262 37.7066 12.8535 37.7535 12.9082C37.8043 12.959 37.8297 13.0293 37.8297 13.1191C37.8297 13.2012 37.8004 13.2949 37.7418 13.4004C37.6871 13.5059 37.5914 13.6113 37.4547 13.7168C37.1734 13.959 36.8824 14.1895 36.5816 14.4082C36.2848 14.627 35.984 14.8047 35.6793 14.9414C35.3785 15.0781 35.0816 15.1465 34.7887 15.1465C34.5113 15.1465 34.2887 15.084 34.1207 14.959C33.9527 14.8301 33.8687 14.6289 33.8687 14.3555C33.8687 14.0859 33.9293 13.8281 34.0504 13.582C34.1754 13.3359 34.3141 13.1074 34.4664 12.8965C34.6227 12.6855 34.7477 12.5 34.8414 12.3398C34.8883 12.2734 34.9234 12.2129 34.9469 12.1582C34.9742 12.0996 34.9879 12.0371 34.9879 11.9707C34.9879 11.8379 34.9234 11.7715 34.7945 11.7715C34.4898 11.7715 34.2145 11.8672 33.9684 12.0586C33.7262 12.2461 33.5055 12.4785 33.3062 12.7559C33.1109 13.0293 32.9312 13.2949 32.7672 13.5527C32.6891 13.6738 32.607 13.8223 32.5211 13.998C32.4352 14.1738 32.3395 14.3535 32.234 14.5371C32.1363 14.709 32.0289 14.8535 31.9117 14.9707C31.7945 15.0879 31.6734 15.1465 31.5484 15.1465ZM39.2582 15.1465C39.1254 15.1465 38.9672 15.1094 38.7836 15.0352C38.6 14.9609 38.4379 14.8379 38.2973 14.666C38.1605 14.4941 38.0922 14.2637 38.0922 13.9746C38.0922 13.7324 38.1469 13.4297 38.2563 13.0664C38.3656 12.7031 38.5375 12.3457 38.7719 11.9941C39.0063 11.6348 39.3051 11.3359 39.6684 11.0977C40.0355 10.8594 40.4594 10.7402 40.9398 10.7402C41.1117 10.7402 41.2621 10.7617 41.391 10.8047C41.5199 10.8477 41.6293 10.8945 41.7191 10.9453C41.7699 10.9766 41.8168 11.0098 41.8598 11.0449C41.9066 11.0762 41.9496 11.1113 41.9887 11.1504L42.1938 11.0508C42.2523 11.0234 42.3129 11 42.3754 10.9805C42.4418 10.957 42.4984 10.9453 42.5453 10.9453C42.6938 10.9453 42.8148 10.9863 42.9086 11.0684C43.0023 11.1504 43.0492 11.2402 43.0492 11.3379C43.0492 11.3691 43.0473 11.3906 43.0434 11.4023C43.016 11.5117 42.9652 11.6621 42.891 11.8535C42.8207 12.0449 42.7445 12.2578 42.6625 12.4922C42.5805 12.7188 42.5102 12.9375 42.4516 13.1484C42.3969 13.3594 42.3695 13.5332 42.3695 13.6699C42.3695 13.7871 42.3891 13.8848 42.4281 13.9629C42.4672 14.0371 42.5336 14.0742 42.6273 14.0742C42.7406 14.0742 42.893 14.0098 43.0844 13.8809C43.2758 13.748 43.473 13.5918 43.6762 13.4121C43.7855 13.3145 43.8988 13.2109 44.016 13.1016C44.1332 12.9883 44.2523 12.8691 44.3734 12.7441C44.4359 12.6934 44.4965 12.668 44.5551 12.668C44.6332 12.668 44.6977 12.707 44.7484 12.7852C44.8031 12.8594 44.8305 12.9434 44.8305 13.0371C44.8305 13.1465 44.7934 13.2383 44.7191 13.3125C44.5629 13.457 44.4027 13.6113 44.2387 13.7754C44.0746 13.9395 43.848 14.1406 43.559 14.3789C43.3012 14.5898 43.0355 14.7715 42.7621 14.9238C42.4887 15.0723 42.2426 15.1465 42.0238 15.1465C41.7504 15.1465 41.5512 15.041 41.4262 14.8301C41.3012 14.6152 41.2387 14.3867 41.2387 14.1445C41.2387 13.9688 41.2641 13.8125 41.3148 13.6758C41.1547 13.8906 40.9652 14.1133 40.7465 14.3438C40.5277 14.5703 40.2914 14.7617 40.0375 14.918C39.7836 15.0703 39.5238 15.1465 39.2582 15.1465ZM39.727 14.1152C39.852 14.1152 40.0082 14.0352 40.1957 13.875C40.3871 13.7148 40.5707 13.5273 40.7465 13.3125C40.9418 13.0781 41.0961 12.8652 41.2094 12.6738C41.3227 12.4824 41.3793 12.3535 41.3793 12.2871C41.3793 12.1387 41.2934 12.0215 41.1215 11.9355C40.9496 11.8457 40.7953 11.8008 40.6586 11.8008C40.4164 11.8008 40.1859 11.8789 39.9672 12.0352C39.7523 12.1914 39.5766 12.3926 39.4398 12.6387C39.3031 12.8809 39.2348 13.1328 39.2348 13.3945C39.2348 13.5469 39.2621 13.7051 39.3168 13.8691C39.3754 14.0332 39.5121 14.1152 39.727 14.1152ZM45.2336 15.1465C45.0969 15.1465 44.9895 15.1035 44.9113 15.0176C44.8332 14.9316 44.7941 14.8262 44.7941 14.7012C44.7941 14.5996 44.8527 14.4102 44.9699 14.1328C45.0871 13.8516 45.2238 13.5508 45.3801 13.2305C45.5793 12.8125 45.7551 12.4512 45.9074 12.1465C46.0598 11.8379 46.173 11.6035 46.2473 11.4434C46.3254 11.2754 46.423 11.1504 46.5402 11.0684C46.6574 10.9863 46.7727 10.9453 46.8859 10.9453C46.9797 10.9453 47.0637 10.9805 47.1379 11.0508C47.2121 11.1172 47.2492 11.2168 47.2492 11.3496C47.2492 11.4004 47.2434 11.4551 47.2316 11.5137C47.2199 11.5723 47.1984 11.6348 47.1672 11.7012C47.2883 11.5488 47.468 11.4004 47.7062 11.2559C47.9445 11.1074 48.2023 10.9844 48.4797 10.8867C48.757 10.7891 49.0129 10.7402 49.2473 10.7402C49.4543 10.7402 49.6262 10.791 49.7629 10.8926C49.9035 10.9902 49.9738 11.1582 49.9738 11.3965C49.9738 11.5996 49.9289 11.8203 49.8391 12.0586C49.7492 12.293 49.6418 12.5195 49.5168 12.7383C49.384 12.9688 49.259 13.1719 49.1418 13.3477C49.0285 13.5195 48.9406 13.6621 48.8781 13.7754C48.8273 13.8379 48.802 13.9102 48.802 13.9922C48.802 14.0703 48.843 14.1094 48.925 14.1094C48.9523 14.1094 48.9836 14.1074 49.0187 14.1035C49.0539 14.0957 49.0969 14.0742 49.1477 14.0391C49.4406 13.9297 49.7316 13.791 50.0207 13.623C50.3137 13.4551 50.5812 13.2812 50.8234 13.1016C51.0695 12.9219 51.2668 12.7637 51.4152 12.627C51.4777 12.5762 51.5383 12.5508 51.5969 12.5508C51.7375 12.5508 51.8078 12.6406 51.8078 12.8203C51.8078 12.9414 51.7687 13.0762 51.6906 13.2246C51.6164 13.373 51.4973 13.5117 51.3332 13.6406C51.048 13.8438 50.7805 14.0332 50.5305 14.209C50.2844 14.3809 50.0227 14.5371 49.7453 14.6777C49.468 14.8184 49.1379 14.9434 48.7551 15.0527C48.5559 15.1152 48.3859 15.1465 48.2453 15.1465C47.8469 15.1465 47.6477 14.9277 47.6477 14.4902C47.6477 14.4629 47.6477 14.4375 47.6477 14.4141C47.6516 14.3867 47.6555 14.3574 47.6594 14.3262C47.6711 14.1504 47.7336 13.9473 47.8469 13.7168C47.9602 13.4824 48.0832 13.252 48.216 13.0254C48.3488 12.8066 48.468 12.6016 48.5734 12.4102C48.6789 12.2188 48.7316 12.0762 48.7316 11.9824C48.7316 11.8418 48.6652 11.7715 48.5324 11.7715C48.2863 11.7715 48.05 11.8438 47.8234 11.9883C47.6008 12.1328 47.3898 12.3164 47.1906 12.5391C46.9953 12.7578 46.8156 12.9883 46.6516 13.2305C46.4875 13.4688 46.343 13.6855 46.218 13.8809C46.1281 14.0293 46.0402 14.2031 45.9543 14.4023C45.8723 14.6016 45.7746 14.7754 45.6613 14.9238C45.552 15.0723 45.4094 15.1465 45.2336 15.1465ZM52.6094 15.1465C52.2891 15.1465 52.0684 15.0664 51.9473 14.9062C51.8301 14.7461 51.7715 14.5508 51.7715 14.3203C51.7715 14.1289 51.7988 13.9336 51.8535 13.7344C51.9121 13.5312 51.9805 13.3457 52.0586 13.1777C52.1953 12.873 52.334 12.5703 52.4746 12.2695C52.6152 11.9688 52.7441 11.6934 52.8613 11.4434L54.6367 7.66406C54.7266 7.46875 54.8613 7.3418 55.041 7.2832C55.2207 7.22461 55.3848 7.23047 55.5332 7.30078C55.6855 7.36719 55.7617 7.49023 55.7617 7.66992C55.7617 7.74023 55.7441 7.81445 55.709 7.89258C55.6777 7.9707 55.6367 8.05469 55.5859 8.14453C55.4453 8.41016 55.2656 8.75977 55.0469 9.19336C54.832 9.62695 54.5938 10.1152 54.332 10.6582C54.0469 11.2559 53.8066 11.7578 53.6113 12.1641C53.4199 12.5664 53.2402 12.9473 53.0723 13.3066C53.0293 13.3965 52.9863 13.502 52.9434 13.623C52.9043 13.7402 52.8848 13.8457 52.8848 13.9395C52.8848 14.0684 52.9414 14.1328 53.0547 14.1328C53.1797 14.1328 53.3457 14.082 53.5527 13.9805C53.7637 13.875 53.9824 13.7441 54.209 13.5879C54.4395 13.4355 54.6621 13.2773 54.877 13.1133C55.0918 12.9453 55.291 12.7832 55.4746 12.627C55.5371 12.5762 55.6113 12.5508 55.6973 12.5508C55.877 12.5508 55.9668 12.6504 55.9668 12.8496C55.9668 12.9316 55.9395 13.0234 55.8848 13.125C55.8301 13.2266 55.7344 13.3262 55.5977 13.4238C55.3477 13.6543 55.0957 13.873 54.8418 14.0801C54.5918 14.2832 54.3398 14.4648 54.0859 14.625C53.8359 14.7812 53.5859 14.9062 53.3359 15C53.0859 15.0977 52.8438 15.1465 52.6094 15.1465ZM57.1609 18.4746C57.0047 18.4746 56.8777 18.4219 56.7801 18.3164C56.6824 18.2148 56.6336 18.0762 56.6336 17.9004C56.6336 17.7363 56.6531 17.5723 56.6922 17.4082C56.7352 17.248 56.8094 17.0703 56.9148 16.875C57.0164 16.6797 57.1512 16.4609 57.3191 16.2188C57.491 15.9805 57.7059 15.6992 57.9637 15.375L59.1355 13.002C58.5496 13.6973 58.0184 14.2285 57.5418 14.5957C57.0652 14.9629 56.6199 15.1465 56.2059 15.1465C56.073 15.1465 55.9598 15.1152 55.866 15.0527C55.7723 14.9941 55.7254 14.8945 55.7254 14.7539C55.7254 14.5586 55.7723 14.3379 55.866 14.0918C55.9441 13.9004 56.0262 13.7227 56.1121 13.5586C56.202 13.3906 56.2938 13.2148 56.3875 13.0312C56.4852 12.8359 56.5984 12.5957 56.7273 12.3105C56.8563 12.0254 56.9988 11.6836 57.1551 11.2852C57.2332 11.1328 57.3348 11.0234 57.4598 10.957C57.5848 10.8867 57.7059 10.8516 57.823 10.8516C57.9441 10.8516 58.0457 10.8809 58.1277 10.9395C58.2137 10.9941 58.2566 11.0684 58.2566 11.1621C58.2566 11.2129 58.2488 11.2539 58.2332 11.2852L57.1609 13.5176C57.1063 13.6348 57.0789 13.7246 57.0789 13.7871C57.0789 13.8457 57.1023 13.875 57.1492 13.875C57.1922 13.875 57.2469 13.8535 57.3133 13.8105C57.3797 13.7676 57.4422 13.7188 57.5008 13.6641L59.9207 11.2852C60.116 11.1289 60.2664 11.0332 60.3719 10.998C60.4773 10.9629 60.5809 10.9453 60.6824 10.9453C60.7645 10.9453 60.823 10.9766 60.8582 11.0391C60.8934 11.0977 60.9109 11.1602 60.9109 11.2266C60.9109 11.2773 60.9012 11.3281 60.8816 11.3789L59.5691 14.1152C59.7566 13.9746 59.9715 13.8379 60.2137 13.7051C60.4559 13.5684 60.6922 13.4453 60.9227 13.3359C61.1531 13.2266 61.3484 13.1406 61.5086 13.0781C61.6688 13.0117 61.7586 12.9785 61.7781 12.9785C61.8758 12.9785 61.9617 13.0156 62.0359 13.0898C62.1102 13.1641 62.1473 13.2578 62.1473 13.3711C62.1473 13.4727 62.1082 13.5801 62.0301 13.6934C61.9559 13.8066 61.823 13.916 61.6316 14.0215C61.3855 14.1582 61.1512 14.2852 60.9285 14.4023C60.7098 14.5195 60.5262 14.6191 60.3777 14.7012L59.9617 14.9355C59.7742 15.0449 59.6004 15.1602 59.4402 15.2812C59.284 15.4023 59.1258 15.5371 58.9656 15.6855C58.7938 16.1348 58.6316 16.5312 58.4793 16.875C58.3309 17.2188 58.2391 17.4238 58.2039 17.4902C57.8875 18.1465 57.5398 18.4746 57.1609 18.4746Z" fill="#34464F"/>
<g filter="url(#filter0_d_112_172)">
<circle cx="4.5" cy="2.5" r="1.5" fill="#92E3A9"/>
</g>
<path d="M4 17V5.1875C4 5.08395 4.08395 5 4.1875 5C5.7408 5 7 3.7408 7 2.1875C7 2.08395 7.08395 2 7.1875 2H16C17.1046 2 18 2.89543 18 4V16.8053C18 16.9128 17.9128 17 17.8053 17C16.6989 17 15.6875 17.6251 15.1927 18.6147L15.0553 18.8894C15.0214 18.9572 14.9521 19 14.8764 19H6C4.89543 19 4 18.1046 4 17Z" fill="#34464F"/>
<path d="M9.6582 16.1465C9.0625 16.1465 8.55469 16.0977 8.13477 16C7.71973 15.9072 7.37793 15.7778 7.10938 15.6118C6.84082 15.4507 6.64551 15.2651 6.52344 15.0552C6.40137 14.8403 6.34033 14.6157 6.34033 14.3813C6.34033 13.8784 6.57959 13.3926 7.05811 12.9238C7.2876 12.6992 7.55859 12.499 7.87109 12.3232C8.18848 12.1475 8.5376 12.0132 8.91846 11.9204C9.06006 11.9204 9.1626 11.979 9.22607 12.0962C9.29443 12.2085 9.32861 12.3379 9.32861 12.4844C9.32861 12.626 9.29443 12.7383 9.22607 12.8213C9.15771 12.8994 9.00146 12.9897 8.75732 13.0923C8.48389 13.2095 8.26904 13.3511 8.11279 13.5171C7.95654 13.6782 7.87842 13.8394 7.87842 14.0005C7.87842 14.2056 8.02002 14.3862 8.30322 14.5425C8.59131 14.6938 9.06006 14.7695 9.70947 14.7695C10.1587 14.7695 10.5713 14.6987 10.9473 14.5571C11.3281 14.4155 11.6333 14.2227 11.8628 13.9785C12.0923 13.7295 12.207 13.4487 12.207 13.1362C12.207 12.9604 12.1338 12.7773 11.9873 12.5869C11.8408 12.3965 11.6089 12.1987 11.2915 11.9937C11.0083 11.8081 10.7593 11.6421 10.5444 11.4956C10.3345 11.3491 10.1587 11.2197 10.0171 11.1074L9.4751 10.6826C9.10889 10.3604 8.83545 10.0503 8.65479 9.75244C8.47412 9.45459 8.38379 9.14453 8.38379 8.82227C8.38379 8.38281 8.5376 7.96045 8.84521 7.55518C9.15283 7.14502 9.54834 6.77881 10.0317 6.45654C10.5151 6.13916 11.0303 5.89014 11.5771 5.70947C12.124 5.52393 12.6294 5.43115 13.0933 5.43115C13.5718 5.43115 13.9697 5.54346 14.2871 5.76807C14.6094 5.99268 14.7705 6.35645 14.7705 6.85938C14.7705 7.60645 14.3457 8.26562 13.4961 8.83691C13.3057 8.96875 13.1299 9.03467 12.9688 9.03467C12.8027 9.03467 12.6709 8.97607 12.5732 8.85889C12.4756 8.73682 12.4268 8.59521 12.4268 8.43408C12.4268 8.29736 12.4658 8.16064 12.5439 8.02393C12.627 7.88721 12.7588 7.77002 12.9395 7.67236C13.0811 7.59912 13.2056 7.50146 13.313 7.37939C13.4253 7.25244 13.4814 7.13037 13.4814 7.01318C13.4814 6.90088 13.4424 6.82764 13.3643 6.79346C13.291 6.75928 13.2007 6.74219 13.0933 6.74219C12.7905 6.74219 12.4512 6.7959 12.0752 6.90332C11.6992 7.01074 11.3403 7.15723 10.9985 7.34277C10.6372 7.53809 10.3491 7.75049 10.1343 7.97998C9.92432 8.20947 9.81934 8.43652 9.81934 8.66113C9.81934 8.87109 9.90479 9.06396 10.0757 9.23975C10.2515 9.41553 10.498 9.62061 10.8154 9.85498L12.5293 11.1221C12.9492 11.4346 13.2861 11.7422 13.54 12.0449C13.7939 12.3428 13.9209 12.6675 13.9209 13.019C13.9209 13.5366 13.7427 14.0347 13.3862 14.5132C13.0347 14.9917 12.5391 15.3848 11.8994 15.6924C11.2646 15.9951 10.5176 16.1465 9.6582 16.1465Z" fill="white"/>
<path d="M2.93281 24.232C2.875 24.232 2.825 24.2148 2.78281 24.1805C2.74219 24.1461 2.72188 24.0953 2.72188 24.0281C2.72188 23.9922 2.72422 23.9648 2.72891 23.9461C2.73359 23.9258 2.74609 23.893 2.76641 23.8477C2.78828 23.8023 2.825 23.725 2.87656 23.6156L3.49531 22.4414C3.40156 22.332 3.31719 22.2125 3.24219 22.0828C3.16719 21.9531 3.11328 21.8133 3.08047 21.6633C3.05391 21.5727 3.03516 21.4883 3.02422 21.4102C3.01484 21.332 3.01016 21.2594 3.01016 21.1922C3.01016 21.0187 3.05078 20.8797 3.13203 20.775C3.21484 20.6687 3.31328 20.6156 3.42734 20.6156C3.54141 20.6156 3.59844 20.6758 3.59844 20.7961C3.59844 20.8477 3.58516 20.9156 3.55859 21C3.53203 21.0828 3.51875 21.1672 3.51875 21.2531C3.51875 21.3797 3.5375 21.5039 3.575 21.6258C3.6125 21.7477 3.66094 21.8602 3.72031 21.9633C3.78125 22.0648 3.84453 22.15 3.91016 22.2187L4.08359 22.1062C4.17578 22.0469 4.26719 21.9852 4.35781 21.9211C4.45 21.857 4.53281 21.7891 4.60625 21.7172C4.71406 21.5875 4.8 21.4641 4.86406 21.3469C4.92969 21.2281 4.97188 21.1312 4.99063 21.0562C5.00938 20.9687 5.02969 20.8977 5.05156 20.843C5.07344 20.7883 5.10938 20.7484 5.15938 20.7234C5.21094 20.6984 5.29063 20.6859 5.39844 20.6859C5.47344 20.6859 5.51094 20.7391 5.51094 20.8453C5.51094 20.8578 5.50703 20.8898 5.49922 20.9414C5.49141 20.993 5.47422 21.0539 5.44766 21.1242C5.41797 21.207 5.37109 21.3047 5.30703 21.4172C5.24297 21.5297 5.15391 21.6523 5.03984 21.7852C4.88828 21.9305 4.72578 22.0586 4.55234 22.1695C4.37891 22.2805 4.19922 22.3914 4.01328 22.5023L3.91016 22.5633L3.43672 23.4586C3.39141 23.5461 3.35938 23.6125 3.34063 23.6578C3.32031 23.7047 3.30859 23.7367 3.30547 23.7539C3.30547 23.8648 3.28516 23.9555 3.24453 24.0258C3.20391 24.0977 3.15469 24.15 3.09688 24.1828C3.03906 24.2156 2.98438 24.232 2.93281 24.232ZM4.86172 24.0586C4.79922 24.0586 4.72813 24.0414 4.64844 24.007C4.57031 23.9742 4.50234 23.9211 4.44453 23.8477C4.38672 23.7742 4.35781 23.6773 4.35781 23.557C4.35781 23.4602 4.38047 23.3414 4.42578 23.2008C4.47266 23.0602 4.54375 22.9211 4.63906 22.7836C4.73594 22.6445 4.86016 22.5289 5.01172 22.4367C5.16328 22.343 5.33906 22.2961 5.53906 22.2961C5.61875 22.2961 5.70313 22.3109 5.79219 22.3406C5.88281 22.3703 5.96016 22.4203 6.02422 22.4906C6.08828 22.5594 6.12031 22.6547 6.12031 22.7766C6.12031 22.8766 6.09531 22.993 6.04531 23.1258C6.07344 23.1602 6.11328 23.1773 6.16484 23.1773C6.21328 23.1773 6.26953 23.1578 6.33359 23.1187C6.39766 23.0797 6.46094 23.032 6.52344 22.9758C6.5875 22.9195 6.64531 22.8633 6.69688 22.807C6.75 22.7508 6.79141 22.7055 6.82109 22.6711C6.83203 22.6602 6.84531 22.6547 6.86094 22.6547C6.89531 22.6547 6.92031 22.6766 6.93594 22.7203C6.95156 22.7641 6.94844 22.8195 6.92656 22.8867C6.90469 22.9523 6.85391 23.0203 6.77422 23.0906C6.72734 23.1406 6.66953 23.2023 6.60078 23.2758C6.53359 23.3477 6.46016 23.4117 6.38047 23.468C6.30234 23.5227 6.22266 23.55 6.14141 23.55C6.05859 23.55 5.98047 23.5234 5.90703 23.4703C5.79141 23.6516 5.64453 23.7953 5.46641 23.9016C5.28828 24.0063 5.08672 24.0586 4.86172 24.0586ZM5.06563 23.6484C5.16406 23.6484 5.25625 23.6156 5.34219 23.55C5.42813 23.4844 5.49766 23.4016 5.55078 23.3016C5.60391 23.2016 5.63047 23.0992 5.63047 22.9945C5.63047 22.9539 5.62578 22.9117 5.61641 22.868C5.60859 22.8227 5.58984 22.7852 5.56016 22.7555C5.53047 22.7242 5.48281 22.7086 5.41719 22.7086C5.32031 22.7086 5.22891 22.7398 5.14297 22.8023C5.05703 22.8633 4.98672 22.943 4.93203 23.0414C4.87891 23.1383 4.85234 23.2398 4.85234 23.3461C4.85234 23.3852 4.85703 23.4289 4.86641 23.4773C4.87578 23.5242 4.89531 23.5648 4.925 23.5992C4.95625 23.632 5.00313 23.6484 5.06563 23.6484ZM6.78594 24.0586C6.68438 24.0586 6.59297 24.0344 6.51172 23.9859C6.43203 23.9375 6.39219 23.8461 6.39219 23.7117C6.39219 23.7008 6.39688 23.6695 6.40625 23.618C6.41719 23.5664 6.43594 23.5008 6.4625 23.4211C6.49531 23.3227 6.54688 23.1945 6.61719 23.0367C6.6875 22.8789 6.78672 22.6875 6.91484 22.4625C6.94766 22.4031 6.98516 22.3609 7.02734 22.3359C7.07109 22.3094 7.11797 22.2961 7.16797 22.2961C7.21797 22.2961 7.26406 22.3086 7.30625 22.3336C7.34844 22.357 7.36953 22.3914 7.36953 22.4367C7.36953 22.4523 7.36719 22.4672 7.3625 22.4812C7.35156 22.5172 7.32188 22.5727 7.27344 22.6477C7.22656 22.7227 7.17344 22.8109 7.11406 22.9125C7.05625 23.0078 7.00391 23.1102 6.95703 23.2195C6.91172 23.3289 6.88672 23.432 6.88203 23.5289C6.88203 23.557 6.88984 23.5828 6.90547 23.6062C6.92109 23.6297 6.94688 23.6414 6.98281 23.6414C7.08438 23.6414 7.18047 23.6141 7.27109 23.5594C7.36328 23.5031 7.44922 23.4328 7.52891 23.3484C7.60859 23.2625 7.67969 23.1719 7.74219 23.0766C7.80469 22.9812 7.85703 22.8937 7.89922 22.8141C7.93828 22.7437 7.97266 22.6687 8.00234 22.5891C8.03203 22.5078 8.06719 22.4383 8.10781 22.3805C8.14844 22.3227 8.20313 22.2937 8.27188 22.2937C8.32813 22.2937 8.37266 22.3117 8.40547 22.3477C8.43828 22.3836 8.45469 22.4266 8.45469 22.4766C8.45469 22.5172 8.43203 22.5828 8.38672 22.6734C8.34297 22.7625 8.29375 22.8594 8.23906 22.9641C8.18125 23.0734 8.13047 23.1852 8.08672 23.2992C8.04453 23.4117 8.02344 23.5117 8.02344 23.5992C8.02344 23.6555 8.05781 23.6836 8.12656 23.6836C8.23125 23.6836 8.36719 23.6297 8.53438 23.5219C8.6125 23.4719 8.69063 23.4125 8.76875 23.3437C8.84844 23.275 8.91875 23.2008 8.97969 23.1211L9.00313 23.4398C8.89844 23.5602 8.77188 23.6719 8.62344 23.775C8.47656 23.8766 8.33359 23.9531 8.19453 24.0047C8.05078 24.0594 7.93047 24.0719 7.83359 24.0422C7.73672 24.0125 7.68828 23.925 7.68828 23.7797C7.68828 23.7062 7.70078 23.6227 7.72578 23.5289C7.67266 23.6086 7.60156 23.6898 7.5125 23.7727C7.42344 23.8539 7.31797 23.9219 7.19609 23.9766C7.07578 24.0313 6.93906 24.0586 6.78594 24.0586ZM8.55313 24.0586C8.475 24.0586 8.43594 24.0188 8.43594 23.9391C8.43594 23.9219 8.43828 23.9008 8.44297 23.8758C8.44922 23.8492 8.46094 23.8203 8.47813 23.7891C8.50469 23.7391 8.53359 23.6805 8.56484 23.6133C8.59609 23.5445 8.62891 23.4734 8.66328 23.4C8.70078 23.3203 8.74375 23.2289 8.79219 23.1258C8.84219 23.0211 8.90078 22.9008 8.96797 22.7648C8.94609 22.7461 8.92734 22.7234 8.91172 22.6969C8.89766 22.6687 8.89063 22.6344 8.89063 22.5937C8.89063 22.5203 8.91875 22.4664 8.975 22.432C9.03281 22.3961 9.10156 22.3781 9.18125 22.3781C9.25938 22.3781 9.33516 22.3922 9.40859 22.4203C9.48359 22.4469 9.52109 22.4875 9.52109 22.5422C9.52109 22.5484 9.51563 22.5633 9.50469 22.5867C9.49531 22.6086 9.49063 22.6234 9.49063 22.6312C9.49063 22.6344 9.49141 22.6359 9.49297 22.6359H9.49531L9.5 22.6336C9.61563 22.5617 9.73984 22.5008 9.87266 22.4508C10.0055 22.4008 10.1148 22.3758 10.2008 22.3758C10.2711 22.3758 10.325 22.393 10.3625 22.4273C10.4016 22.4602 10.4211 22.5164 10.4211 22.5961C10.4211 22.6133 10.4203 22.632 10.4188 22.6523C10.4172 22.6711 10.4141 22.6914 10.4094 22.7133C10.3984 22.7711 10.3547 22.8461 10.2781 22.9383C10.2016 23.0305 10.1203 23.1195 10.0344 23.2055C9.99531 23.2445 9.94844 23.2914 9.89375 23.3461C9.83906 23.3992 9.79141 23.4484 9.75078 23.4937C9.71016 23.5375 9.68984 23.5672 9.68984 23.5828C9.68984 23.6047 9.69766 23.6156 9.71328 23.6156C9.82578 23.5672 9.95313 23.5078 10.0953 23.4375C10.2375 23.3656 10.375 23.2937 10.5078 23.2219C10.6406 23.15 10.7492 23.0898 10.8336 23.0414C10.8664 23.0227 10.8945 23.0133 10.918 23.0133C10.9836 23.0133 11.0164 23.0477 11.0164 23.1164C11.0164 23.1523 11.0008 23.1937 10.9695 23.2406C10.9398 23.2859 10.8891 23.3336 10.8172 23.3836C10.75 23.4258 10.6578 23.4844 10.5406 23.5594C10.425 23.6328 10.3102 23.7023 10.1961 23.768C10.0836 23.832 9.97578 23.8867 9.87266 23.932C9.77109 23.9773 9.68594 24 9.61719 24C9.50938 24 9.42813 23.9742 9.37344 23.9227C9.32031 23.8711 9.29375 23.8047 9.29375 23.7234C9.29375 23.7094 9.29453 23.7 9.29609 23.6953C9.31328 23.5953 9.34922 23.4984 9.40391 23.4047C9.45859 23.3109 9.51563 23.225 9.575 23.1469C9.63438 23.0703 9.68672 22.9992 9.73203 22.9336C9.77891 22.868 9.80234 22.8117 9.80234 22.7648C9.80234 22.7414 9.79375 22.7297 9.77656 22.7297C9.75156 22.7297 9.70625 22.7422 9.64063 22.7672C9.575 22.7906 9.51016 22.8219 9.44609 22.8609C9.38203 22.9 9.33828 22.9414 9.31484 22.9852C9.28359 23.0398 9.24375 23.1164 9.19531 23.2148C9.14844 23.3117 9.10156 23.4109 9.05469 23.5125C9.00938 23.6141 8.97109 23.6984 8.93984 23.7656C8.90547 23.8516 8.84844 23.9219 8.76875 23.9766C8.69063 24.0313 8.61875 24.0586 8.55313 24.0586ZM13.0297 24.0469C12.8391 24.0469 12.6766 24.0313 12.5422 24C12.4094 23.9703 12.3 23.9289 12.2141 23.8758C12.1281 23.8242 12.0656 23.7648 12.0266 23.6977C11.9875 23.6289 11.968 23.557 11.968 23.482C11.968 23.3211 12.0445 23.1656 12.1977 23.0156C12.2711 22.9437 12.3578 22.8797 12.4578 22.8234C12.5594 22.7672 12.6711 22.7242 12.793 22.6945C12.8383 22.6945 12.8711 22.7133 12.8914 22.7508C12.9133 22.7867 12.9242 22.8281 12.9242 22.875C12.9242 22.9203 12.9133 22.9562 12.8914 22.9828C12.8695 23.0078 12.8195 23.0367 12.7414 23.0695C12.6539 23.107 12.5852 23.1523 12.5352 23.2055C12.4852 23.257 12.4602 23.3086 12.4602 23.3602C12.4602 23.4258 12.5055 23.4836 12.5961 23.5336C12.6883 23.582 12.8383 23.6062 13.0461 23.6062C13.1898 23.6062 13.3219 23.5836 13.4422 23.5383C13.5641 23.493 13.6617 23.4312 13.7352 23.3531C13.8086 23.2734 13.8453 23.1836 13.8453 23.0836C13.8453 23.0273 13.8219 22.9687 13.775 22.9078C13.7281 22.8469 13.6539 22.7836 13.5523 22.718C13.4617 22.6586 13.382 22.6055 13.3133 22.5586C13.2461 22.5117 13.1898 22.4703 13.1445 22.4344L12.9711 22.2984C12.8539 22.1953 12.7664 22.0961 12.7086 22.0008C12.6508 21.9055 12.6219 21.8062 12.6219 21.7031C12.6219 21.5625 12.6711 21.4273 12.7695 21.2977C12.868 21.1664 12.9945 21.0492 13.1492 20.9461C13.3039 20.8445 13.4688 20.7648 13.6438 20.707C13.8188 20.6477 13.9805 20.618 14.1289 20.618C14.282 20.618 14.4094 20.6539 14.5109 20.7258C14.6141 20.7977 14.6656 20.9141 14.6656 21.075C14.6656 21.3141 14.5297 21.525 14.2578 21.7078C14.1969 21.75 14.1406 21.7711 14.0891 21.7711C14.0359 21.7711 13.9938 21.7523 13.9625 21.7148C13.9313 21.6758 13.9156 21.6305 13.9156 21.5789C13.9156 21.5352 13.9281 21.4914 13.9531 21.4477C13.9797 21.4039 14.0219 21.3664 14.0797 21.3352C14.125 21.3117 14.1648 21.2805 14.1992 21.2414C14.2352 21.2008 14.2531 21.1617 14.2531 21.1242C14.2531 21.0883 14.2406 21.0648 14.2156 21.0539C14.1922 21.043 14.1633 21.0375 14.1289 21.0375C14.032 21.0375 13.9234 21.0547 13.8031 21.0891C13.6828 21.1234 13.568 21.1703 13.4586 21.2297C13.343 21.2922 13.2508 21.3602 13.182 21.4336C13.1148 21.507 13.0813 21.5797 13.0813 21.6516C13.0813 21.7187 13.1086 21.7805 13.1633 21.8367C13.2195 21.893 13.2984 21.9586 13.4 22.0336L13.9484 22.4391C14.0828 22.5391 14.1906 22.6375 14.2719 22.7344C14.3531 22.8297 14.3938 22.9336 14.3938 23.0461C14.3938 23.2117 14.3367 23.3711 14.2227 23.5242C14.1102 23.6773 13.9516 23.8031 13.7469 23.9016C13.5438 23.9984 13.3047 24.0469 13.0297 24.0469ZM14.9305 24.0586C14.868 24.0586 14.7969 24.0414 14.7172 24.007C14.6391 23.9742 14.5711 23.9211 14.5133 23.8477C14.4555 23.7742 14.4266 23.6773 14.4266 23.557C14.4266 23.4602 14.4492 23.3414 14.4945 23.2008C14.5414 23.0602 14.6125 22.9211 14.7078 22.7836C14.8047 22.6445 14.9289 22.5289 15.0805 22.4367C15.232 22.343 15.4078 22.2961 15.6078 22.2961C15.6875 22.2961 15.7719 22.3109 15.8609 22.3406C15.9516 22.3703 16.0289 22.4203 16.093 22.4906C16.157 22.5594 16.1891 22.6547 16.1891 22.7766C16.1891 22.8766 16.1641 22.993 16.1141 23.1258C16.1422 23.1602 16.182 23.1773 16.2336 23.1773C16.282 23.1773 16.3383 23.1578 16.4023 23.1187C16.4664 23.0797 16.5297 23.032 16.5922 22.9758C16.6563 22.9195 16.7141 22.8633 16.7656 22.807C16.8188 22.7508 16.8602 22.7055 16.8898 22.6711C16.9008 22.6602 16.9141 22.6547 16.9297 22.6547C16.9641 22.6547 16.9891 22.6766 17.0047 22.7203C17.0203 22.7641 17.0172 22.8195 16.9953 22.8867C16.9734 22.9523 16.9227 23.0203 16.843 23.0906C16.7961 23.1406 16.7383 23.2023 16.6695 23.2758C16.6023 23.3477 16.5289 23.4117 16.4492 23.468C16.3711 23.5227 16.2914 23.55 16.2102 23.55C16.1273 23.55 16.0492 23.5234 15.9758 23.4703C15.8602 23.6516 15.7133 23.7953 15.5352 23.9016C15.357 24.0063 15.1555 24.0586 14.9305 24.0586ZM15.1344 23.6484C15.2328 23.6484 15.325 23.6156 15.4109 23.55C15.4969 23.4844 15.5664 23.4016 15.6195 23.3016C15.6727 23.2016 15.6992 23.0992 15.6992 22.9945C15.6992 22.9539 15.6945 22.9117 15.6852 22.868C15.6773 22.8227 15.6586 22.7852 15.6289 22.7555C15.5992 22.7242 15.5516 22.7086 15.4859 22.7086C15.3891 22.7086 15.2977 22.7398 15.2117 22.8023C15.1258 22.8633 15.0555 22.943 15.0008 23.0414C14.9477 23.1383 14.9211 23.2398 14.9211 23.3461C14.9211 23.3852 14.9258 23.4289 14.9352 23.4773C14.9445 23.5242 14.9641 23.5648 14.9938 23.5992C15.025 23.632 15.0719 23.6484 15.1344 23.6484ZM16.1633 24.7102C16.1258 24.7102 16.0922 24.7008 16.0625 24.682C16.0328 24.6633 16.018 24.6336 16.018 24.593C16.018 24.557 16.0359 24.5016 16.0719 24.4266L16.8992 22.6734H16.775C16.6891 22.6734 16.6305 22.6602 16.5992 22.6336C16.568 22.607 16.5523 22.5758 16.5523 22.5398C16.5523 22.5023 16.5719 22.4664 16.6109 22.432C16.65 22.3961 16.707 22.3781 16.782 22.3781H17.0586C17.207 22.0781 17.3547 21.8477 17.5016 21.6867C17.65 21.5242 17.7945 21.4117 17.9352 21.3492C18.0758 21.2867 18.2078 21.2555 18.3313 21.2555C18.4188 21.2555 18.4961 21.2906 18.5633 21.3609C18.6305 21.4297 18.6641 21.5336 18.6641 21.6727C18.6641 21.7383 18.6547 21.8125 18.6359 21.8953C18.6266 21.9375 18.6016 21.968 18.5609 21.9867C18.5219 22.0039 18.4898 22.0125 18.4648 22.0125C18.4336 22.0125 18.4047 22.0055 18.3781 21.9914C18.3516 21.9758 18.3383 21.9523 18.3383 21.9211C18.3383 21.9055 18.3398 21.8867 18.343 21.8648C18.3445 21.8539 18.3453 21.8367 18.3453 21.8133C18.3453 21.6914 18.3008 21.6305 18.2117 21.6305C18.1492 21.6305 18.0727 21.6664 17.982 21.7383C17.8914 21.8086 17.8023 21.9008 17.7148 22.0148C17.6273 22.1289 17.557 22.25 17.5039 22.3781H18.05C18.1516 22.3781 18.2352 22.3836 18.3008 22.3945C18.3664 22.4055 18.3992 22.4445 18.3992 22.5117C18.3992 22.5508 18.3844 22.5852 18.3547 22.6148C18.325 22.6445 18.2711 22.6625 18.193 22.6687C18.0461 22.675 17.9031 22.6789 17.7641 22.6805C17.625 22.6805 17.4844 22.6805 17.3422 22.6805C17.3078 22.7492 17.2641 22.8383 17.2109 22.9477C17.1578 23.0555 17.1023 23.1703 17.0445 23.2922C16.9867 23.4141 16.932 23.5297 16.8805 23.6391C16.7898 23.8297 16.7102 23.9961 16.6414 24.1383C16.5742 24.282 16.5227 24.3906 16.4867 24.4641C16.4523 24.5359 16.4039 24.5945 16.3414 24.6398C16.2805 24.6867 16.2211 24.7102 16.1633 24.7102ZM17.9492 24.0586C17.8258 24.0586 17.7398 24.0281 17.6914 23.9672C17.643 23.9062 17.6188 23.8312 17.6188 23.7422C17.6188 23.6641 17.632 23.5828 17.6586 23.4984C17.6852 23.4141 17.7148 23.3383 17.7477 23.2711L18.0219 22.7086H17.9211C17.8336 22.7086 17.7734 22.6945 17.7406 22.6664C17.7078 22.6383 17.6914 22.6062 17.6914 22.5703C17.6914 22.5344 17.7117 22.4937 17.7523 22.4484C17.793 22.4016 17.8484 22.3781 17.9188 22.3781H18.1719L18.6664 21.3961C18.6977 21.3367 18.7359 21.2945 18.7813 21.2695C18.8281 21.243 18.8766 21.2297 18.9266 21.2297C18.9734 21.2297 19.0164 21.2422 19.0555 21.2672C19.0945 21.2922 19.1141 21.3336 19.1141 21.3914C19.1141 21.4211 19.107 21.4516 19.093 21.4828C19.0805 21.5125 19.0633 21.5477 19.0414 21.5883C19.0164 21.6352 18.9828 21.6984 18.9406 21.7781C18.8984 21.8562 18.8461 21.9508 18.7836 22.0617L18.6148 22.3781H19.3789C19.4539 22.3781 19.5148 22.3883 19.5617 22.4086C19.6102 22.4273 19.6344 22.4703 19.6344 22.5375C19.6344 22.5719 19.6219 22.6055 19.5969 22.6383C19.5719 22.6711 19.518 22.6906 19.4352 22.6969H18.4602L18.2961 23.025L18.1508 23.3227C18.132 23.3602 18.1133 23.4039 18.0945 23.4539C18.0773 23.5023 18.0688 23.5453 18.0688 23.5828C18.0688 23.6297 18.0906 23.6531 18.1344 23.6531C18.1844 23.6531 18.2516 23.632 18.3359 23.5898C18.4203 23.5477 18.5094 23.4961 18.6031 23.4352C18.6984 23.3742 18.7898 23.3109 18.8773 23.2453C18.9648 23.1781 19.0453 23.1133 19.1188 23.0508C19.1453 23.0336 19.1688 23.025 19.1891 23.025C19.2234 23.025 19.2492 23.0437 19.2664 23.0812C19.2836 23.1187 19.2852 23.1641 19.2711 23.2172C19.2586 23.2703 19.2219 23.3211 19.1609 23.3695C19.0594 23.4617 18.9563 23.5492 18.8516 23.632C18.7484 23.7133 18.6461 23.7859 18.5445 23.85C18.4414 23.9125 18.3398 23.9625 18.2398 24C18.1398 24.0391 18.043 24.0586 17.9492 24.0586ZM19.1938 24.0586C19.0578 24.0586 18.9633 24.0281 18.9102 23.9672C18.8586 23.9047 18.8328 23.8258 18.8328 23.7305C18.8328 23.6305 18.85 23.5242 18.8844 23.4117C18.9203 23.2992 18.9602 23.193 19.0039 23.093C19.0477 22.993 19.0828 22.9133 19.1094 22.8539C19.1578 22.7461 19.1977 22.6594 19.2289 22.5937C19.2617 22.5266 19.2906 22.4742 19.3156 22.4367C19.3422 22.4008 19.368 22.3766 19.393 22.3641C19.418 22.3516 19.45 22.3453 19.4891 22.3453C19.5484 22.3453 19.5992 22.3648 19.6414 22.4039C19.6852 22.4414 19.707 22.4898 19.707 22.5492C19.707 22.5711 19.7 22.5992 19.6859 22.6336L19.2875 23.5758C19.2766 23.5992 19.2711 23.625 19.2711 23.6531C19.2711 23.6937 19.2844 23.7141 19.3109 23.7141C19.35 23.7141 19.3938 23.6922 19.4422 23.6484C19.4922 23.6047 19.5602 23.5398 19.6461 23.4539C19.7133 23.3836 19.7805 23.2969 19.8477 23.1937C19.9164 23.0906 19.9813 22.9836 20.0422 22.8727C20.1031 22.7617 20.1539 22.6594 20.1945 22.5656C20.2398 22.475 20.2781 22.4156 20.3094 22.3875C20.3422 22.3594 20.3836 22.3453 20.4336 22.3453C20.5289 22.3453 20.5766 22.3867 20.5766 22.4695C20.5734 22.4852 20.5719 22.4992 20.5719 22.5117C20.5703 22.5258 20.5656 22.5437 20.5578 22.5656L20.1922 23.6461C20.1922 23.6852 20.2117 23.7047 20.2508 23.7047C20.2914 23.7 20.3438 23.6766 20.4078 23.6344C20.4734 23.5906 20.5359 23.5359 20.5953 23.4703C20.6563 23.4031 20.6984 23.3336 20.7219 23.2617C20.7672 23.1242 20.8141 22.9883 20.8625 22.8539C20.9109 22.718 20.9641 22.6039 21.0219 22.5117C21.0797 22.4195 21.1461 22.3703 21.2211 22.3641C21.2711 22.3641 21.3117 22.3805 21.343 22.4133C21.3758 22.4445 21.3922 22.4859 21.3922 22.5375C21.3922 22.6641 21.3617 22.8016 21.3008 22.95C21.2398 23.0969 21.1711 23.2227 21.0945 23.3273C21.107 23.3602 21.1297 23.3766 21.1625 23.3766C21.2828 23.3766 21.3922 23.3586 21.4906 23.3227C21.5906 23.2852 21.6945 23.2344 21.8023 23.1703C21.8289 23.1531 21.8539 23.1445 21.8773 23.1445C21.9086 23.1445 21.9367 23.1562 21.9617 23.1797C21.9867 23.2031 21.9992 23.2336 21.9992 23.2711C21.9992 23.3211 21.9672 23.3734 21.9031 23.4281C21.8391 23.4828 21.7594 23.5328 21.6641 23.5781C21.5594 23.6266 21.4594 23.6641 21.3641 23.6906C21.2688 23.7172 21.1891 23.7305 21.125 23.7305C21.0375 23.7305 20.9477 23.7055 20.8555 23.6555C20.632 23.9242 20.3984 24.0586 20.1547 24.0586C20.0422 24.0586 19.9609 24.0297 19.9109 23.9719C19.8625 23.9125 19.8383 23.8266 19.8383 23.7141C19.6102 23.9437 19.3953 24.0586 19.1938 24.0586ZM22.0367 24.0586C21.9836 24.0586 21.9203 24.0438 21.8469 24.0141C21.7734 23.9844 21.7086 23.9352 21.6523 23.8664C21.5977 23.7977 21.5703 23.7055 21.5703 23.5898C21.5703 23.493 21.5922 23.3719 21.6359 23.2266C21.6797 23.0812 21.7484 22.9383 21.8422 22.7977C21.9359 22.6539 22.0555 22.5344 22.2008 22.4391C22.3477 22.3437 22.5172 22.2961 22.7094 22.2961C22.7781 22.2961 22.8383 22.3047 22.8898 22.3219C22.9414 22.3391 22.9852 22.3578 23.0211 22.3781C23.0414 22.3906 23.0602 22.4039 23.0773 22.418C23.0961 22.4305 23.1133 22.4445 23.1289 22.4602L23.2109 22.4203C23.2344 22.4094 23.2586 22.4 23.2836 22.3922C23.3102 22.3828 23.3328 22.3781 23.3516 22.3781C23.4109 22.3781 23.4594 22.3945 23.4969 22.4273C23.5344 22.4602 23.5531 22.4961 23.5531 22.5352C23.5531 22.5477 23.5523 22.5562 23.5508 22.5609C23.5398 22.6047 23.5195 22.6648 23.4898 22.7414C23.4617 22.818 23.4313 22.9031 23.3984 22.9969C23.3656 23.0875 23.3375 23.175 23.3141 23.2594C23.2922 23.3437 23.2813 23.4133 23.2813 23.468C23.2813 23.5148 23.2891 23.5539 23.3047 23.5852C23.3203 23.6148 23.3469 23.6297 23.3844 23.6297C23.4297 23.6297 23.4906 23.6039 23.5672 23.5523C23.6438 23.4992 23.7227 23.4367 23.8039 23.3648C23.8477 23.3258 23.893 23.2844 23.9398 23.2406C23.9867 23.1953 24.0344 23.1477 24.0828 23.0977C24.1078 23.0773 24.132 23.0672 24.1555 23.0672C24.1867 23.0672 24.2125 23.0828 24.2328 23.1141C24.2547 23.1437 24.2656 23.1773 24.2656 23.2148C24.2656 23.2586 24.2508 23.2953 24.2211 23.325C24.1586 23.3828 24.0945 23.4445 24.0289 23.5102C23.9633 23.5758 23.8727 23.6562 23.757 23.7516C23.6539 23.8359 23.5477 23.9086 23.4383 23.9695C23.3289 24.0289 23.2305 24.0586 23.143 24.0586C23.0336 24.0586 22.9539 24.0164 22.9039 23.932C22.8539 23.8461 22.8289 23.7547 22.8289 23.6578C22.8289 23.5875 22.8391 23.525 22.8594 23.4703C22.7953 23.5562 22.7195 23.6453 22.632 23.7375C22.5445 23.8281 22.45 23.9047 22.3484 23.9672C22.2469 24.0281 22.143 24.0586 22.0367 24.0586ZM22.2242 23.6461C22.2742 23.6461 22.3367 23.6141 22.4117 23.55C22.4883 23.4859 22.5617 23.4109 22.632 23.325C22.7102 23.2312 22.7719 23.1461 22.8172 23.0695C22.8625 22.993 22.8852 22.9414 22.8852 22.9148C22.8852 22.8555 22.8508 22.8086 22.782 22.7742C22.7133 22.7383 22.6516 22.7203 22.5969 22.7203C22.5 22.7203 22.4078 22.7516 22.3203 22.8141C22.2344 22.8766 22.1641 22.957 22.1094 23.0555C22.0547 23.1523 22.0273 23.2531 22.0273 23.3578C22.0273 23.4187 22.0383 23.482 22.0602 23.5477C22.0836 23.6133 22.1383 23.6461 22.2242 23.6461ZM23.8484 24.0586C23.7703 24.0586 23.7313 24.0188 23.7313 23.9391C23.7313 23.9219 23.7336 23.9008 23.7383 23.8758C23.7445 23.8492 23.7563 23.8203 23.7734 23.7891C23.8 23.7391 23.8289 23.6805 23.8602 23.6133C23.8914 23.5445 23.9242 23.4734 23.9586 23.4C23.9961 23.3203 24.0391 23.2289 24.0875 23.1258C24.1375 23.0211 24.1961 22.9008 24.2633 22.7648C24.2414 22.7461 24.2227 22.7234 24.207 22.6969C24.193 22.6687 24.1859 22.6344 24.1859 22.5937C24.1859 22.5203 24.2141 22.4664 24.2703 22.432C24.3281 22.3961 24.3969 22.3781 24.4766 22.3781C24.5547 22.3781 24.6305 22.3922 24.7039 22.4203C24.7789 22.4469 24.8164 22.4875 24.8164 22.5422C24.8164 22.5484 24.8109 22.5633 24.8 22.5867C24.7906 22.6086 24.7859 22.6234 24.7859 22.6312C24.7859 22.6344 24.7867 22.6359 24.7883 22.6359H24.7906L24.7953 22.6336C24.9109 22.5617 25.0352 22.5008 25.168 22.4508C25.3008 22.4008 25.4102 22.3758 25.4961 22.3758C25.5664 22.3758 25.6203 22.393 25.6578 22.4273C25.6969 22.4602 25.7164 22.5164 25.7164 22.5961C25.7164 22.6133 25.7156 22.632 25.7141 22.6523C25.7125 22.6711 25.7094 22.6914 25.7047 22.7133C25.6938 22.7711 25.65 22.8461 25.5734 22.9383C25.4969 23.0305 25.4156 23.1195 25.3297 23.2055C25.2906 23.2445 25.2438 23.2914 25.1891 23.3461C25.1344 23.3992 25.0867 23.4484 25.0461 23.4937C25.0055 23.5375 24.9852 23.5672 24.9852 23.5828C24.9852 23.6047 24.993 23.6156 25.0086 23.6156C25.1211 23.5672 25.2484 23.5078 25.3906 23.4375C25.5328 23.3656 25.6703 23.2937 25.8031 23.2219C25.9359 23.15 26.0445 23.0898 26.1289 23.0414C26.1617 23.0227 26.1898 23.0133 26.2133 23.0133C26.2789 23.0133 26.3117 23.0477 26.3117 23.1164C26.3117 23.1523 26.2961 23.1937 26.2648 23.2406C26.2352 23.2859 26.1844 23.3336 26.1125 23.3836C26.0453 23.4258 25.9531 23.4844 25.8359 23.5594C25.7203 23.6328 25.6055 23.7023 25.4914 23.768C25.3789 23.832 25.2711 23.8867 25.168 23.932C25.0664 23.9773 24.9813 24 24.9125 24C24.8047 24 24.7234 23.9742 24.6688 23.9227C24.6156 23.8711 24.5891 23.8047 24.5891 23.7234C24.5891 23.7094 24.5898 23.7 24.5914 23.6953C24.6086 23.5953 24.6445 23.4984 24.6992 23.4047C24.7539 23.3109 24.8109 23.225 24.8703 23.1469C24.9297 23.0703 24.982 22.9992 25.0273 22.9336C25.0742 22.868 25.0977 22.8117 25.0977 22.7648C25.0977 22.7414 25.0891 22.7297 25.0719 22.7297C25.0469 22.7297 25.0016 22.7422 24.9359 22.7672C24.8703 22.7906 24.8055 22.8219 24.7414 22.8609C24.6773 22.9 24.6336 22.9414 24.6102 22.9852C24.5789 23.0398 24.5391 23.1164 24.4906 23.2148C24.4438 23.3117 24.3969 23.4109 24.35 23.5125C24.3047 23.6141 24.2664 23.6984 24.2352 23.7656C24.2008 23.8516 24.1438 23.9219 24.0641 23.9766C23.9859 24.0313 23.9141 24.0586 23.8484 24.0586ZM26.368 24.0586C26.243 24.0586 26.1359 24.0281 26.0469 23.9672C25.9594 23.9047 25.8922 23.8234 25.8453 23.7234C25.8 23.6219 25.7773 23.5133 25.7773 23.3977C25.7773 23.2961 25.8063 23.1828 25.8641 23.0578C25.9234 22.9312 26.0078 22.8102 26.1172 22.6945C26.2266 22.5789 26.357 22.4836 26.5086 22.4086C26.6617 22.332 26.8281 22.2937 27.0078 22.2937C27.1375 22.2937 27.2344 22.325 27.2984 22.3875C27.3625 22.45 27.3945 22.5367 27.3945 22.6477C27.3945 22.7133 27.3773 22.782 27.343 22.8539C27.3086 22.9258 27.2492 22.9984 27.1648 23.0719C27.0805 23.1469 26.9672 23.2234 26.825 23.3016C26.6844 23.3781 26.5078 23.4555 26.2953 23.5336C26.3125 23.6305 26.3906 23.6789 26.5297 23.6789C26.6375 23.6789 26.7539 23.657 26.8789 23.6133C27.0039 23.568 27.1242 23.5164 27.2398 23.4586C27.3555 23.4023 27.4547 23.3492 27.5375 23.2992C27.6203 23.2492 27.6695 23.2211 27.6852 23.2148C27.6992 23.2055 27.7117 23.2 27.7227 23.1984C27.7352 23.1969 27.7461 23.1961 27.7555 23.1961C27.793 23.1961 27.8188 23.2109 27.8328 23.2406C27.8484 23.2687 27.8563 23.2922 27.8563 23.3109C27.8563 23.325 27.8547 23.3422 27.8516 23.3625C27.8484 23.3812 27.8367 23.4031 27.8164 23.4281C27.7961 23.4484 27.7367 23.493 27.6383 23.5617C27.5398 23.6305 27.4344 23.6969 27.3219 23.7609C27.1844 23.8375 27.0313 23.9062 26.8625 23.9672C26.6938 24.0281 26.5289 24.0586 26.368 24.0586ZM26.2602 23.2641C26.3617 23.2109 26.4648 23.1492 26.5695 23.0789C26.6758 23.007 26.7563 22.9547 26.8109 22.9219C26.8844 22.875 26.9328 22.8336 26.9563 22.7977C26.9828 22.7586 26.9961 22.7258 26.9961 22.6992C26.9961 22.6758 26.9883 22.657 26.9727 22.643C26.9586 22.6289 26.9422 22.6203 26.9234 22.6172L26.9023 22.6148H26.8813C26.7953 22.6148 26.7156 22.6398 26.6422 22.6898C26.5703 22.7383 26.5094 22.7992 26.4594 22.8727C26.4063 22.9492 26.3633 23.0211 26.3305 23.0883C26.2992 23.1555 26.2758 23.2141 26.2602 23.2641ZM29.975 24.0469C29.7844 24.0469 29.6219 24.0313 29.4875 24C29.3547 23.9703 29.2453 23.9289 29.1594 23.8758C29.0734 23.8242 29.0109 23.7648 28.9719 23.6977C28.9328 23.6289 28.9133 23.557 28.9133 23.482C28.9133 23.3211 28.9898 23.1656 29.143 23.0156C29.2164 22.9437 29.3031 22.8797 29.4031 22.8234C29.5047 22.7672 29.6164 22.7242 29.7383 22.6945C29.7836 22.6945 29.8164 22.7133 29.8367 22.7508C29.8586 22.7867 29.8695 22.8281 29.8695 22.875C29.8695 22.9203 29.8586 22.9562 29.8367 22.9828C29.8148 23.0078 29.7648 23.0367 29.6867 23.0695C29.5992 23.107 29.5305 23.1523 29.4805 23.2055C29.4305 23.257 29.4055 23.3086 29.4055 23.3602C29.4055 23.4258 29.4508 23.4836 29.5414 23.5336C29.6336 23.582 29.7836 23.6062 29.9914 23.6062C30.1352 23.6062 30.2672 23.5836 30.3875 23.5383C30.5094 23.493 30.607 23.4312 30.6805 23.3531C30.7539 23.2734 30.7906 23.1836 30.7906 23.0836C30.7906 23.0273 30.7672 22.9687 30.7203 22.9078C30.6734 22.8469 30.5992 22.7836 30.4977 22.718C30.407 22.6586 30.3273 22.6055 30.2586 22.5586C30.1914 22.5117 30.1352 22.4703 30.0898 22.4344L29.9164 22.2984C29.7992 22.1953 29.7117 22.0961 29.6539 22.0008C29.5961 21.9055 29.5672 21.8062 29.5672 21.7031C29.5672 21.5625 29.6164 21.4273 29.7148 21.2977C29.8133 21.1664 29.9398 21.0492 30.0945 20.9461C30.2492 20.8445 30.4141 20.7648 30.5891 20.707C30.7641 20.6477 30.9258 20.618 31.0742 20.618C31.2273 20.618 31.3547 20.6539 31.4563 20.7258C31.5594 20.7977 31.6109 20.9141 31.6109 21.075C31.6109 21.3141 31.475 21.525 31.2031 21.7078C31.1422 21.75 31.0859 21.7711 31.0344 21.7711C30.9813 21.7711 30.9391 21.7523 30.9078 21.7148C30.8766 21.6758 30.8609 21.6305 30.8609 21.5789C30.8609 21.5352 30.8734 21.4914 30.8984 21.4477C30.925 21.4039 30.9672 21.3664 31.025 21.3352C31.0703 21.3117 31.1102 21.2805 31.1445 21.2414C31.1805 21.2008 31.1984 21.1617 31.1984 21.1242C31.1984 21.0883 31.1859 21.0648 31.1609 21.0539C31.1375 21.043 31.1086 21.0375 31.0742 21.0375C30.9773 21.0375 30.8688 21.0547 30.7484 21.0891C30.6281 21.1234 30.5133 21.1703 30.4039 21.2297C30.2883 21.2922 30.1961 21.3602 30.1273 21.4336C30.0602 21.507 30.0266 21.5797 30.0266 21.6516C30.0266 21.7187 30.0539 21.7805 30.1086 21.8367C30.1648 21.893 30.2438 21.9586 30.3453 22.0336L30.8938 22.4391C31.0281 22.5391 31.1359 22.6375 31.2172 22.7344C31.2984 22.8297 31.3391 22.9336 31.3391 23.0461C31.3391 23.2117 31.282 23.3711 31.168 23.5242C31.0555 23.6773 30.8969 23.8031 30.6922 23.9016C30.4891 23.9984 30.25 24.0469 29.975 24.0469ZM31.8758 24.0586C31.8133 24.0586 31.7422 24.0414 31.6625 24.007C31.5844 23.9742 31.5164 23.9211 31.4586 23.8477C31.4008 23.7742 31.3719 23.6773 31.3719 23.557C31.3719 23.4602 31.3945 23.3414 31.4398 23.2008C31.4867 23.0602 31.5578 22.9211 31.6531 22.7836C31.75 22.6445 31.8742 22.5289 32.0258 22.4367C32.1773 22.343 32.3531 22.2961 32.5531 22.2961C32.6328 22.2961 32.7172 22.3109 32.8063 22.3406C32.8969 22.3703 32.9742 22.4203 33.0383 22.4906C33.1023 22.5594 33.1344 22.6547 33.1344 22.7766C33.1344 22.8766 33.1094 22.993 33.0594 23.1258C33.0875 23.1602 33.1273 23.1773 33.1789 23.1773C33.2273 23.1773 33.2836 23.1578 33.3477 23.1187C33.4117 23.0797 33.475 23.032 33.5375 22.9758C33.6016 22.9195 33.6594 22.8633 33.7109 22.807C33.7641 22.7508 33.8055 22.7055 33.8352 22.6711C33.8461 22.6602 33.8594 22.6547 33.875 22.6547C33.9094 22.6547 33.9344 22.6766 33.95 22.7203C33.9656 22.7641 33.9625 22.8195 33.9406 22.8867C33.9188 22.9523 33.868 23.0203 33.7883 23.0906C33.7414 23.1406 33.6836 23.2023 33.6148 23.2758C33.5477 23.3477 33.4742 23.4117 33.3945 23.468C33.3164 23.5227 33.2367 23.55 33.1555 23.55C33.0727 23.55 32.9945 23.5234 32.9211 23.4703C32.8055 23.6516 32.6586 23.7953 32.4805 23.9016C32.3023 24.0063 32.1008 24.0586 31.8758 24.0586ZM32.0797 23.6484C32.1781 23.6484 32.2703 23.6156 32.3563 23.55C32.4422 23.4844 32.5117 23.4016 32.5648 23.3016C32.618 23.2016 32.6445 23.0992 32.6445 22.9945C32.6445 22.9539 32.6398 22.9117 32.6305 22.868C32.6227 22.8227 32.6039 22.7852 32.5742 22.7555C32.5445 22.7242 32.4969 22.7086 32.4313 22.7086C32.3344 22.7086 32.243 22.7398 32.157 22.8023C32.0711 22.8633 32.0008 22.943 31.9461 23.0414C31.893 23.1383 31.8664 23.2398 31.8664 23.3461C31.8664 23.3852 31.8711 23.4289 31.8805 23.4773C31.8898 23.5242 31.9094 23.5648 31.9391 23.5992C31.9703 23.632 32.0172 23.6484 32.0797 23.6484ZM33.7297 24.0586C33.6016 24.0586 33.5133 24.0266 33.4648 23.9625C33.418 23.8984 33.3945 23.8203 33.3945 23.7281C33.3945 23.6516 33.4055 23.5734 33.4273 23.4937C33.4508 23.4125 33.4781 23.3383 33.5094 23.2711C33.5641 23.1492 33.6195 23.0281 33.6758 22.9078C33.732 22.7875 33.7836 22.6773 33.8305 22.5773L34.5406 21.0656C34.5766 20.9875 34.6305 20.9367 34.7023 20.9133C34.7742 20.8898 34.8398 20.8922 34.8992 20.9203C34.9602 20.9469 34.9906 20.9961 34.9906 21.068C34.9906 21.0961 34.9836 21.1258 34.9695 21.157C34.957 21.1883 34.9406 21.2219 34.9203 21.2578C34.8641 21.3641 34.7922 21.5039 34.7047 21.6773C34.6188 21.8508 34.5234 22.0461 34.4188 22.2633C34.3047 22.5023 34.2086 22.7031 34.1305 22.8656C34.0539 23.0266 33.982 23.1789 33.9148 23.3227C33.8977 23.3586 33.8805 23.4008 33.8633 23.4492C33.8477 23.4961 33.8398 23.5383 33.8398 23.5758C33.8398 23.6273 33.8625 23.6531 33.9078 23.6531C33.9578 23.6531 34.0242 23.6328 34.107 23.5922C34.1914 23.55 34.2789 23.4977 34.3695 23.4352C34.4617 23.3742 34.5508 23.3109 34.6367 23.2453C34.7227 23.1781 34.8023 23.1133 34.8758 23.0508C34.9008 23.0305 34.9305 23.0203 34.9648 23.0203C35.0367 23.0203 35.0727 23.0602 35.0727 23.1398C35.0727 23.1727 35.0617 23.2094 35.0398 23.25C35.018 23.2906 34.9797 23.3305 34.925 23.3695C34.825 23.4617 34.7242 23.5492 34.6227 23.632C34.5227 23.7133 34.4219 23.7859 34.3203 23.85C34.2203 23.9125 34.1203 23.9625 34.0203 24C33.9203 24.0391 33.8234 24.0586 33.7297 24.0586ZM35.0375 24.0586C34.9359 24.0586 34.8445 24.0344 34.7633 23.9859C34.6836 23.9375 34.6438 23.8461 34.6438 23.7117C34.6438 23.7008 34.6484 23.6695 34.6578 23.618C34.6688 23.5664 34.6875 23.5008 34.7141 23.4211C34.7469 23.3227 34.7984 23.1945 34.8688 23.0367C34.9391 22.8789 35.0383 22.6875 35.1664 22.4625C35.1992 22.4031 35.2367 22.3609 35.2789 22.3359C35.3227 22.3094 35.3695 22.2961 35.4195 22.2961C35.4695 22.2961 35.5156 22.3086 35.5578 22.3336C35.6 22.357 35.6211 22.3914 35.6211 22.4367C35.6211 22.4523 35.6188 22.4672 35.6141 22.4812C35.6031 22.5172 35.5734 22.5727 35.525 22.6477C35.4781 22.7227 35.425 22.8109 35.3656 22.9125C35.3078 23.0078 35.2555 23.1102 35.2086 23.2195C35.1633 23.3289 35.1383 23.432 35.1336 23.5289C35.1336 23.557 35.1414 23.5828 35.157 23.6062C35.1727 23.6297 35.1984 23.6414 35.2344 23.6414C35.3359 23.6414 35.432 23.6141 35.5227 23.5594C35.6148 23.5031 35.7008 23.4328 35.7805 23.3484C35.8602 23.2625 35.9313 23.1719 35.9938 23.0766C36.0563 22.9812 36.1086 22.8937 36.1508 22.8141C36.1898 22.7437 36.2242 22.6687 36.2539 22.5891C36.2836 22.5078 36.3188 22.4383 36.3594 22.3805C36.4 22.3227 36.4547 22.2937 36.5234 22.2937C36.5797 22.2937 36.6242 22.3117 36.657 22.3477C36.6898 22.3836 36.7063 22.4266 36.7063 22.4766C36.7063 22.5172 36.6836 22.5828 36.6383 22.6734C36.5945 22.7625 36.5453 22.8594 36.4906 22.9641C36.4328 23.0734 36.382 23.1852 36.3383 23.2992C36.2961 23.4117 36.275 23.5117 36.275 23.5992C36.275 23.6555 36.3094 23.6836 36.3781 23.6836C36.4828 23.6836 36.6188 23.6297 36.7859 23.5219C36.8641 23.4719 36.9422 23.4125 37.0203 23.3437C37.1 23.275 37.1703 23.2008 37.2313 23.1211L37.2547 23.4398C37.15 23.5602 37.0234 23.6719 36.875 23.775C36.7281 23.8766 36.5852 23.9531 36.4461 24.0047C36.3023 24.0594 36.182 24.0719 36.0852 24.0422C35.9883 24.0125 35.9398 23.925 35.9398 23.7797C35.9398 23.7062 35.9523 23.6227 35.9773 23.5289C35.9242 23.6086 35.8531 23.6898 35.7641 23.7727C35.675 23.8539 35.5695 23.9219 35.4477 23.9766C35.3273 24.0313 35.1906 24.0586 35.0375 24.0586ZM37.1211 24.0586C36.9977 24.0586 36.9117 24.0281 36.8633 23.9672C36.8148 23.9062 36.7906 23.8312 36.7906 23.7422C36.7906 23.6641 36.8039 23.5828 36.8305 23.4984C36.857 23.4141 36.8867 23.3383 36.9195 23.2711L37.1938 22.7086H37.093C37.0055 22.7086 36.9453 22.6945 36.9125 22.6664C36.8797 22.6383 36.8633 22.6062 36.8633 22.5703C36.8633 22.5344 36.8836 22.4937 36.9242 22.4484C36.9648 22.4016 37.0203 22.3781 37.0906 22.3781H37.3438L37.8383 21.3961C37.8695 21.3367 37.9078 21.2945 37.9531 21.2695C38 21.243 38.0484 21.2297 38.0984 21.2297C38.1453 21.2297 38.1883 21.2422 38.2273 21.2672C38.2664 21.2922 38.2859 21.3336 38.2859 21.3914C38.2859 21.4211 38.2789 21.4516 38.2648 21.4828C38.2523 21.5125 38.2352 21.5477 38.2133 21.5883C38.1883 21.6352 38.1547 21.6984 38.1125 21.7781C38.0703 21.8562 38.018 21.9508 37.9555 22.0617L37.7867 22.3781H38.5508C38.6258 22.3781 38.6867 22.3883 38.7336 22.4086C38.782 22.4273 38.8063 22.4703 38.8063 22.5375C38.8063 22.5719 38.7938 22.6055 38.7688 22.6383C38.7438 22.6711 38.6898 22.6906 38.607 22.6969H37.632L37.468 23.025L37.3227 23.3227C37.3039 23.3602 37.2852 23.4039 37.2664 23.4539C37.2492 23.5023 37.2406 23.5453 37.2406 23.5828C37.2406 23.6297 37.2625 23.6531 37.3063 23.6531C37.3563 23.6531 37.4234 23.632 37.5078 23.5898C37.5922 23.5477 37.6813 23.4961 37.775 23.4352C37.8703 23.3742 37.9617 23.3109 38.0492 23.2453C38.1367 23.1781 38.2172 23.1133 38.2906 23.0508C38.3172 23.0336 38.3406 23.025 38.3609 23.025C38.3953 23.025 38.4211 23.0437 38.4383 23.0812C38.4555 23.1187 38.457 23.1641 38.443 23.2172C38.4305 23.2703 38.3938 23.3211 38.3328 23.3695C38.2313 23.4617 38.1281 23.5492 38.0234 23.632C37.9203 23.7133 37.818 23.7859 37.7164 23.85C37.6133 23.9125 37.5117 23.9625 37.4117 24C37.3117 24.0391 37.2148 24.0586 37.1211 24.0586ZM39.0055 22.1391C38.9086 22.1391 38.8406 22.1242 38.8016 22.0945C38.7625 22.0633 38.7406 22.0227 38.7359 21.9727C38.7359 21.8992 38.7625 21.8273 38.8156 21.757C38.8703 21.6852 38.9508 21.6492 39.057 21.6492C39.1477 21.6492 39.2109 21.6672 39.2469 21.7031C39.2828 21.7375 39.3008 21.7812 39.3008 21.8344C39.3008 21.8937 39.2773 21.9594 39.2305 22.0312C39.1852 22.1031 39.1102 22.1391 39.0055 22.1391ZM38.4313 24.0586C38.3047 24.0586 38.2047 24.0266 38.1313 23.9625C38.0594 23.8969 38.0234 23.7953 38.0234 23.6578C38.0234 23.5625 38.0406 23.468 38.075 23.3742C38.1109 23.2789 38.15 23.1898 38.1922 23.107C38.2359 23.0227 38.2703 22.9492 38.2953 22.8867C38.3031 22.8664 38.3164 22.8352 38.3352 22.793C38.3555 22.7508 38.3766 22.7078 38.3984 22.6641L38.4781 22.5C38.5047 22.4562 38.5352 22.425 38.5695 22.4062C38.6039 22.3875 38.6391 22.3781 38.675 22.3781C38.7344 22.3781 38.7852 22.3977 38.8273 22.4367C38.8711 22.4742 38.893 22.5227 38.893 22.582C38.8914 22.5961 38.8891 22.6102 38.8859 22.6242C38.8844 22.6383 38.8797 22.6523 38.8719 22.6664C38.8375 22.7289 38.8078 22.7875 38.7828 22.8422C38.7578 22.8953 38.732 22.9492 38.7055 23.0039C38.6836 23.0492 38.6563 23.1047 38.6234 23.1703C38.5906 23.2359 38.5617 23.3023 38.5367 23.3695C38.5117 23.4352 38.4992 23.4937 38.4992 23.5453C38.4992 23.5875 38.5094 23.6156 38.5297 23.6297C38.5516 23.6422 38.582 23.6484 38.6211 23.6484C38.6836 23.6484 38.7523 23.6289 38.8273 23.5898C38.9039 23.5508 38.9766 23.5023 39.0453 23.4445C39.1172 23.3867 39.1836 23.3281 39.2445 23.2687C39.3055 23.2078 39.3508 23.1586 39.3805 23.1211C39.4102 23.0914 39.4414 23.0766 39.4742 23.0766C39.5023 23.0766 39.525 23.0891 39.5422 23.1141C39.5609 23.1391 39.5703 23.1711 39.5703 23.2102C39.5703 23.2461 39.5609 23.2844 39.5422 23.325C39.525 23.3656 39.4961 23.4039 39.4555 23.4398C39.3523 23.5445 39.2445 23.6445 39.132 23.7398C39.0195 23.8336 38.9039 23.9102 38.7852 23.9695C38.668 24.0289 38.55 24.0586 38.4313 24.0586ZM39.6383 24.0586C39.5758 24.0586 39.5047 24.0414 39.425 24.007C39.3469 23.9742 39.2789 23.9211 39.2211 23.8477C39.1633 23.7742 39.1344 23.6773 39.1344 23.557C39.1344 23.4602 39.157 23.3414 39.2023 23.2008C39.2492 23.0602 39.3203 22.9211 39.4156 22.7836C39.5125 22.6445 39.6367 22.5289 39.7883 22.4367C39.9398 22.343 40.1156 22.2961 40.3156 22.2961C40.3953 22.2961 40.4797 22.3109 40.5688 22.3406C40.6594 22.3703 40.7367 22.4203 40.8008 22.4906C40.8648 22.5594 40.8969 22.6547 40.8969 22.7766C40.8969 22.8766 40.8719 22.993 40.8219 23.1258C40.85 23.1602 40.8898 23.1773 40.9414 23.1773C40.9898 23.1773 41.0461 23.1578 41.1102 23.1187C41.1742 23.0797 41.2375 23.032 41.3 22.9758C41.3641 22.9195 41.4219 22.8633 41.4734 22.807C41.5266 22.7508 41.568 22.7055 41.5977 22.6711C41.6086 22.6602 41.6219 22.6547 41.6375 22.6547C41.6719 22.6547 41.6969 22.6766 41.7125 22.7203C41.7281 22.7641 41.725 22.8195 41.7031 22.8867C41.6813 22.9523 41.6305 23.0203 41.5508 23.0906C41.5039 23.1406 41.4461 23.2023 41.3773 23.2758C41.3102 23.3477 41.2367 23.4117 41.157 23.468C41.0789 23.5227 40.9992 23.55 40.918 23.55C40.8352 23.55 40.757 23.5234 40.6836 23.4703C40.568 23.6516 40.4211 23.7953 40.243 23.9016C40.0648 24.0063 39.8633 24.0586 39.6383 24.0586ZM39.8422 23.6484C39.9406 23.6484 40.0328 23.6156 40.1188 23.55C40.2047 23.4844 40.2742 23.4016 40.3273 23.3016C40.3805 23.2016 40.407 23.0992 40.407 22.9945C40.407 22.9539 40.4023 22.9117 40.393 22.868C40.3852 22.8227 40.3664 22.7852 40.3367 22.7555C40.307 22.7242 40.2594 22.7086 40.1938 22.7086C40.0969 22.7086 40.0055 22.7398 39.9195 22.8023C39.8336 22.8633 39.7633 22.943 39.7086 23.0414C39.6555 23.1383 39.6289 23.2398 39.6289 23.3461C39.6289 23.3852 39.6336 23.4289 39.643 23.4773C39.6523 23.5242 39.6719 23.5648 39.7016 23.5992C39.7328 23.632 39.7797 23.6484 39.8422 23.6484ZM41.2531 24.0586C41.1984 24.0586 41.1555 24.0414 41.1242 24.007C41.093 23.9727 41.0773 23.9305 41.0773 23.8805C41.0773 23.8398 41.1008 23.7641 41.1477 23.6531C41.1945 23.5406 41.2492 23.4203 41.3117 23.2922C41.3914 23.125 41.4617 22.9805 41.5227 22.8586C41.5836 22.7352 41.6289 22.6414 41.6586 22.5773C41.6898 22.5102 41.7289 22.4602 41.7758 22.4273C41.8227 22.3945 41.8688 22.3781 41.9141 22.3781C41.9516 22.3781 41.9852 22.3922 42.0148 22.4203C42.0445 22.4469 42.0594 22.4867 42.0594 22.5398C42.0594 22.5602 42.057 22.582 42.0523 22.6055C42.0477 22.6289 42.0391 22.6539 42.0266 22.6805C42.075 22.6195 42.1469 22.5602 42.2422 22.5023C42.3375 22.443 42.4406 22.3937 42.5516 22.3547C42.6625 22.3156 42.7648 22.2961 42.8586 22.2961C42.9414 22.2961 43.0102 22.3164 43.0648 22.357C43.1211 22.3961 43.1492 22.4633 43.1492 22.5586C43.1492 22.6398 43.1313 22.7281 43.0953 22.8234C43.0594 22.9172 43.0164 23.0078 42.9664 23.0953C42.9133 23.1875 42.8633 23.2687 42.8164 23.3391C42.7711 23.4078 42.7359 23.4648 42.7109 23.5102C42.6906 23.5352 42.6805 23.5641 42.6805 23.5969C42.6805 23.6281 42.6969 23.6437 42.7297 23.6437C42.7406 23.6437 42.7531 23.643 42.7672 23.6414C42.7813 23.6383 42.7984 23.6297 42.8188 23.6156C42.9359 23.5719 43.0523 23.5164 43.168 23.4492C43.2852 23.382 43.3922 23.3125 43.4891 23.2406C43.5875 23.1687 43.6664 23.1055 43.7258 23.0508C43.7508 23.0305 43.775 23.0203 43.7984 23.0203C43.8547 23.0203 43.8828 23.0562 43.8828 23.1281C43.8828 23.1766 43.8672 23.2305 43.8359 23.2898C43.8063 23.3492 43.7586 23.4047 43.693 23.4562C43.5789 23.5375 43.4719 23.6133 43.3719 23.6836C43.2734 23.7523 43.1688 23.8148 43.0578 23.8711C42.9469 23.9273 42.8148 23.9773 42.6617 24.0211C42.582 24.0461 42.5141 24.0586 42.4578 24.0586C42.2984 24.0586 42.2188 23.9711 42.2188 23.7961C42.2188 23.7852 42.2188 23.775 42.2188 23.7656C42.2203 23.7547 42.2219 23.743 42.2234 23.7305C42.2281 23.6602 42.2531 23.5789 42.2984 23.4867C42.3438 23.393 42.393 23.3008 42.4461 23.2102C42.4992 23.1227 42.5469 23.0406 42.5891 22.9641C42.6313 22.8875 42.6523 22.8305 42.6523 22.793C42.6523 22.7367 42.6258 22.7086 42.5727 22.7086C42.4742 22.7086 42.3797 22.7375 42.2891 22.7953C42.2 22.8531 42.1156 22.9266 42.0359 23.0156C41.9578 23.1031 41.8859 23.1953 41.8203 23.2922C41.7547 23.3875 41.6969 23.4742 41.6469 23.5523C41.6109 23.6117 41.5758 23.6812 41.5414 23.7609C41.5086 23.8406 41.4695 23.9102 41.4242 23.9695C41.3805 24.0289 41.3234 24.0586 41.2531 24.0586ZM43.918 24.0586C43.7539 24.0586 43.6047 24.0219 43.4703 23.9484C43.3359 23.8734 43.25 23.7555 43.2125 23.5945C43.2094 23.5789 43.2078 23.5687 43.2078 23.5641C43.2078 23.5219 43.2227 23.4859 43.2523 23.4562C43.282 23.425 43.3148 23.4094 43.3508 23.4094C43.368 23.4094 43.3867 23.4125 43.407 23.4187C43.4289 23.425 43.4453 23.4391 43.4563 23.4609C43.4969 23.5344 43.5664 23.5937 43.6648 23.6391C43.7648 23.6828 43.8625 23.7047 43.9578 23.7047C44.0594 23.7047 44.1477 23.6852 44.2227 23.6461C44.2992 23.607 44.3375 23.543 44.3375 23.4539C44.3375 23.3445 44.3063 23.2477 44.2438 23.1633C44.1828 23.0789 44.1055 23.0031 44.0117 22.9359C43.9195 22.8672 43.8266 22.8039 43.7328 22.7461C43.725 22.7414 43.7133 22.7281 43.6977 22.7062C43.682 22.6828 43.6742 22.6594 43.6742 22.6359C43.6742 22.6172 43.6789 22.6023 43.6883 22.5914C43.7383 22.5242 43.8023 22.4586 43.8805 22.3945C43.9586 22.3305 44.0445 22.2984 44.1383 22.2984C44.207 22.2984 44.2633 22.3156 44.307 22.35C44.3523 22.3828 44.375 22.4156 44.375 22.4484C44.375 22.4922 44.3547 22.5336 44.3141 22.5727C44.2734 22.6102 44.2313 22.6461 44.1875 22.6805C44.3734 22.7773 44.5211 22.9008 44.6305 23.0508C44.7398 23.1992 44.7945 23.3445 44.7945 23.4867C44.7945 23.607 44.7508 23.7102 44.6633 23.7961C44.5773 23.8805 44.4672 23.9453 44.3328 23.9906C44.2 24.0359 44.0617 24.0586 43.918 24.0586ZM46.7844 24.0891C46.6891 24.0891 46.625 24.0633 46.5922 24.0117C46.5609 23.9617 46.5453 23.9102 46.5453 23.857C46.5453 23.8195 46.5508 23.7812 46.5617 23.7422C46.5742 23.7031 46.5891 23.6672 46.6063 23.6344L47.5039 21.982C47.5758 21.857 47.6406 21.7781 47.6984 21.7453C47.7578 21.7109 47.8094 21.6937 47.8531 21.6937C47.8813 21.6937 47.907 21.7039 47.9305 21.7242C47.9539 21.743 47.9656 21.7781 47.9656 21.8297C47.9656 21.8781 47.9523 21.9469 47.9258 22.0359C47.9008 22.1219 47.8516 22.2344 47.7781 22.3734C47.9453 22.3609 48.1047 22.3281 48.2563 22.275C48.4078 22.2203 48.532 22.1445 48.6289 22.0477C48.7258 21.9508 48.7742 21.8328 48.7742 21.6937C48.7742 21.5672 48.7469 21.4508 48.6922 21.3445C48.6391 21.2367 48.5609 21.1508 48.4578 21.0867C48.3547 21.0211 48.2289 20.9883 48.0805 20.9883C47.9273 20.9883 47.7953 21.0031 47.6844 21.0328C47.575 21.0609 47.4813 21.0984 47.4031 21.1453C47.3234 21.1922 47.257 21.2461 47.2039 21.307C47.1508 21.368 47.1055 21.4297 47.068 21.4922C47.018 21.5734 46.9734 21.6531 46.9344 21.7312C46.8969 21.8078 46.8539 21.8711 46.8055 21.9211C46.7586 21.9711 46.6945 21.9961 46.6133 21.9961C46.4633 21.9961 46.3883 21.9211 46.3883 21.7711C46.3883 21.6227 46.4633 21.4586 46.6133 21.2789C46.6852 21.193 46.7719 21.1109 46.8734 21.0328C46.9766 20.9531 47.0922 20.8828 47.2203 20.8219C47.3484 20.7609 47.4875 20.7125 47.6375 20.6766C47.7891 20.6391 47.9484 20.6203 48.1156 20.6203C48.325 20.6203 48.5203 20.6602 48.7016 20.7398C48.8844 20.818 49.032 20.9367 49.1445 21.0961C49.2586 21.2539 49.3156 21.4523 49.3156 21.6914C49.3156 21.8555 49.2766 22.0031 49.1984 22.1344C49.1203 22.2656 49.0141 22.3773 48.8797 22.4695C48.6016 22.6602 48.2625 22.7555 47.8625 22.7555C47.8219 22.7555 47.7805 22.7547 47.7383 22.7531C47.6977 22.7516 47.657 22.7477 47.6164 22.7414C47.5742 22.8352 47.525 22.9547 47.4688 23.1C47.4125 23.2453 47.3453 23.4 47.2672 23.5641C47.1953 23.7109 47.118 23.8352 47.0352 23.9367C46.9523 24.0383 46.8688 24.0891 46.7844 24.0891ZM49.2336 24.0586C49.1805 24.0586 49.1172 24.0438 49.0438 24.0141C48.9703 23.9844 48.9055 23.9352 48.8492 23.8664C48.7945 23.7977 48.7672 23.7055 48.7672 23.5898C48.7672 23.493 48.7891 23.3719 48.8328 23.2266C48.8766 23.0812 48.9453 22.9383 49.0391 22.7977C49.1328 22.6539 49.2523 22.5344 49.3977 22.4391C49.5445 22.3437 49.7141 22.2961 49.9063 22.2961C49.975 22.2961 50.0352 22.3047 50.0867 22.3219C50.1383 22.3391 50.182 22.3578 50.218 22.3781C50.2383 22.3906 50.257 22.4039 50.2742 22.418C50.293 22.4305 50.3102 22.4445 50.3258 22.4602L50.4078 22.4203C50.4313 22.4094 50.4555 22.4 50.4805 22.3922C50.507 22.3828 50.5297 22.3781 50.5484 22.3781C50.6078 22.3781 50.6563 22.3945 50.6938 22.4273C50.7313 22.4602 50.75 22.4961 50.75 22.5352C50.75 22.5477 50.7492 22.5562 50.7477 22.5609C50.7367 22.6047 50.7164 22.6648 50.6867 22.7414C50.6586 22.818 50.6281 22.9031 50.5953 22.9969C50.5625 23.0875 50.5344 23.175 50.5109 23.2594C50.4891 23.3437 50.4781 23.4133 50.4781 23.468C50.4781 23.5148 50.4859 23.5539 50.5016 23.5852C50.5172 23.6148 50.5438 23.6297 50.5813 23.6297C50.6266 23.6297 50.6875 23.6039 50.7641 23.5523C50.8406 23.4992 50.9195 23.4367 51.0008 23.3648C51.0445 23.3258 51.0898 23.2844 51.1367 23.2406C51.1836 23.1953 51.2313 23.1477 51.2797 23.0977C51.3047 23.0773 51.3289 23.0672 51.3523 23.0672C51.3836 23.0672 51.4094 23.0828 51.4297 23.1141C51.4516 23.1437 51.4625 23.1773 51.4625 23.2148C51.4625 23.2586 51.4477 23.2953 51.418 23.325C51.3555 23.3828 51.2914 23.4445 51.2258 23.5102C51.1602 23.5758 51.0695 23.6562 50.9539 23.7516C50.8508 23.8359 50.7445 23.9086 50.6352 23.9695C50.5258 24.0289 50.4273 24.0586 50.3398 24.0586C50.2305 24.0586 50.1508 24.0164 50.1008 23.932C50.0508 23.8461 50.0258 23.7547 50.0258 23.6578C50.0258 23.5875 50.0359 23.525 50.0563 23.4703C49.9922 23.5562 49.9164 23.6453 49.8289 23.7375C49.7414 23.8281 49.6469 23.9047 49.5453 23.9672C49.4438 24.0281 49.3398 24.0586 49.2336 24.0586ZM49.4211 23.6461C49.4711 23.6461 49.5336 23.6141 49.6086 23.55C49.6852 23.4859 49.7586 23.4109 49.8289 23.325C49.907 23.2312 49.9688 23.1461 50.0141 23.0695C50.0594 22.993 50.082 22.9414 50.082 22.9148C50.082 22.8555 50.0477 22.8086 49.9789 22.7742C49.9102 22.7383 49.8484 22.7203 49.7938 22.7203C49.6969 22.7203 49.6047 22.7516 49.5172 22.8141C49.4313 22.8766 49.3609 22.957 49.3063 23.0555C49.2516 23.1523 49.2242 23.2531 49.2242 23.3578C49.2242 23.4187 49.2352 23.482 49.257 23.5477C49.2805 23.6133 49.3352 23.6461 49.4211 23.6461ZM51.0453 24.0586C50.9672 24.0586 50.9281 24.0188 50.9281 23.9391C50.9281 23.9219 50.9305 23.9008 50.9352 23.8758C50.9414 23.8492 50.9531 23.8203 50.9703 23.7891C50.9969 23.7391 51.0258 23.6805 51.057 23.6133C51.0883 23.5445 51.1211 23.4734 51.1555 23.4C51.193 23.3203 51.2359 23.2289 51.2844 23.1258C51.3344 23.0211 51.393 22.9008 51.4602 22.7648C51.4383 22.7461 51.4195 22.7234 51.4039 22.6969C51.3898 22.6687 51.3828 22.6344 51.3828 22.5937C51.3828 22.5203 51.4109 22.4664 51.4672 22.432C51.525 22.3961 51.5938 22.3781 51.6734 22.3781C51.7516 22.3781 51.8273 22.3922 51.9008 22.4203C51.9758 22.4469 52.0133 22.4875 52.0133 22.5422C52.0133 22.5484 52.0078 22.5633 51.9969 22.5867C51.9875 22.6086 51.9828 22.6234 51.9828 22.6312C51.9828 22.6344 51.9836 22.6359 51.9852 22.6359H51.9875L51.9922 22.6336C52.1078 22.5617 52.232 22.5008 52.3648 22.4508C52.4977 22.4008 52.607 22.3758 52.693 22.3758C52.7633 22.3758 52.8172 22.393 52.8547 22.4273C52.8938 22.4602 52.9133 22.5164 52.9133 22.5961C52.9133 22.6133 52.9125 22.632 52.9109 22.6523C52.9094 22.6711 52.9063 22.6914 52.9016 22.7133C52.8906 22.7711 52.8469 22.8461 52.7703 22.9383C52.6938 23.0305 52.6125 23.1195 52.5266 23.2055C52.4875 23.2445 52.4406 23.2914 52.3859 23.3461C52.3313 23.3992 52.2836 23.4484 52.243 23.4937C52.2023 23.5375 52.182 23.5672 52.182 23.5828C52.182 23.6047 52.1898 23.6156 52.2055 23.6156C52.318 23.5672 52.4453 23.5078 52.5875 23.4375C52.7297 23.3656 52.8672 23.2937 53 23.2219C53.1328 23.15 53.2414 23.0898 53.3258 23.0414C53.3586 23.0227 53.3867 23.0133 53.4102 23.0133C53.4758 23.0133 53.5086 23.0477 53.5086 23.1164C53.5086 23.1523 53.493 23.1937 53.4617 23.2406C53.432 23.2859 53.3813 23.3336 53.3094 23.3836C53.2422 23.4258 53.15 23.4844 53.0328 23.5594C52.9172 23.6328 52.8023 23.7023 52.6883 23.768C52.5758 23.832 52.468 23.8867 52.3648 23.932C52.2633 23.9773 52.1781 24 52.1094 24C52.0016 24 51.9203 23.9742 51.8656 23.9227C51.8125 23.8711 51.7859 23.8047 51.7859 23.7234C51.7859 23.7094 51.7867 23.7 51.7883 23.6953C51.8055 23.5953 51.8414 23.4984 51.8961 23.4047C51.9508 23.3109 52.0078 23.225 52.0672 23.1469C52.1266 23.0703 52.1789 22.9992 52.2242 22.9336C52.2711 22.868 52.2945 22.8117 52.2945 22.7648C52.2945 22.7414 52.2859 22.7297 52.2688 22.7297C52.2438 22.7297 52.1984 22.7422 52.1328 22.7672C52.0672 22.7906 52.0023 22.8219 51.9383 22.8609C51.8742 22.9 51.8305 22.9414 51.807 22.9852C51.7758 23.0398 51.7359 23.1164 51.6875 23.2148C51.6406 23.3117 51.5938 23.4109 51.5469 23.5125C51.5016 23.6141 51.4633 23.6984 51.432 23.7656C51.3977 23.8516 51.3406 23.9219 51.2609 23.9766C51.1828 24.0313 51.1109 24.0586 51.0453 24.0586ZM53.3398 24.0586C53.2164 24.0586 53.1305 24.0281 53.082 23.9672C53.0336 23.9062 53.0094 23.8312 53.0094 23.7422C53.0094 23.6641 53.0227 23.5828 53.0492 23.4984C53.0758 23.4141 53.1055 23.3383 53.1383 23.2711L53.4125 22.7086H53.3117C53.2242 22.7086 53.1641 22.6945 53.1313 22.6664C53.0984 22.6383 53.082 22.6062 53.082 22.5703C53.082 22.5344 53.1023 22.4937 53.143 22.4484C53.1836 22.4016 53.2391 22.3781 53.3094 22.3781H53.5625L54.057 21.3961C54.0883 21.3367 54.1266 21.2945 54.1719 21.2695C54.2188 21.243 54.2672 21.2297 54.3172 21.2297C54.3641 21.2297 54.407 21.2422 54.4461 21.2672C54.4852 21.2922 54.5047 21.3336 54.5047 21.3914C54.5047 21.4211 54.4977 21.4516 54.4836 21.4828C54.4711 21.5125 54.4539 21.5477 54.432 21.5883C54.407 21.6352 54.3734 21.6984 54.3313 21.7781C54.2891 21.8562 54.2367 21.9508 54.1742 22.0617L54.0055 22.3781H54.7695C54.8445 22.3781 54.9055 22.3883 54.9523 22.4086C55.0008 22.4273 55.025 22.4703 55.025 22.5375C55.025 22.5719 55.0125 22.6055 54.9875 22.6383C54.9625 22.6711 54.9086 22.6906 54.8258 22.6969H53.8508L53.6867 23.025L53.5414 23.3227C53.5227 23.3602 53.5039 23.4039 53.4852 23.4539C53.468 23.5023 53.4594 23.5453 53.4594 23.5828C53.4594 23.6297 53.4813 23.6531 53.525 23.6531C53.575 23.6531 53.6422 23.632 53.7266 23.5898C53.8109 23.5477 53.9 23.4961 53.9938 23.4352C54.0891 23.3742 54.1805 23.3109 54.268 23.2453C54.3555 23.1781 54.4359 23.1133 54.5094 23.0508C54.5359 23.0336 54.5594 23.025 54.5797 23.025C54.6141 23.025 54.6398 23.0437 54.657 23.0812C54.6742 23.1187 54.6758 23.1641 54.6617 23.2172C54.6492 23.2703 54.6125 23.3211 54.5516 23.3695C54.45 23.4617 54.3469 23.5492 54.2422 23.632C54.1391 23.7133 54.0367 23.7859 53.9352 23.85C53.832 23.9125 53.7305 23.9625 53.6305 24C53.5305 24.0391 53.4336 24.0586 53.3398 24.0586ZM54.3594 24.0586C54.3047 24.0586 54.2617 24.0414 54.2305 24.007C54.1992 23.9727 54.1836 23.9305 54.1836 23.8805C54.1836 23.8398 54.207 23.7641 54.2539 23.6531C54.3008 23.5406 54.3555 23.4203 54.418 23.2922C54.4977 23.125 54.568 22.9805 54.6289 22.8586C54.6898 22.7352 54.7352 22.6414 54.7648 22.5773C54.7961 22.5102 54.8352 22.4602 54.882 22.4273C54.9289 22.3945 54.975 22.3781 55.0203 22.3781C55.0578 22.3781 55.0914 22.3922 55.1211 22.4203C55.1508 22.4469 55.1656 22.4867 55.1656 22.5398C55.1656 22.5602 55.1633 22.582 55.1586 22.6055C55.1539 22.6289 55.1453 22.6539 55.1328 22.6805C55.1813 22.6195 55.2531 22.5602 55.3484 22.5023C55.4438 22.443 55.5469 22.3937 55.6578 22.3547C55.7688 22.3156 55.8711 22.2961 55.9648 22.2961C56.0477 22.2961 56.1164 22.3164 56.1711 22.357C56.2273 22.3961 56.2555 22.4633 56.2555 22.5586C56.2555 22.6398 56.2375 22.7281 56.2016 22.8234C56.1656 22.9172 56.1227 23.0078 56.0727 23.0953C56.0195 23.1875 55.9695 23.2687 55.9227 23.3391C55.8773 23.4078 55.8422 23.4648 55.8172 23.5102C55.7969 23.5352 55.7867 23.5641 55.7867 23.5969C55.7867 23.6281 55.8031 23.6437 55.8359 23.6437C55.8469 23.6437 55.8594 23.643 55.8734 23.6414C55.8875 23.6383 55.9047 23.6297 55.925 23.6156C56.0422 23.5719 56.1586 23.5164 56.2742 23.4492C56.3914 23.382 56.4984 23.3125 56.5953 23.2406C56.6938 23.1687 56.7727 23.1055 56.832 23.0508C56.857 23.0305 56.8813 23.0203 56.9047 23.0203C56.9609 23.0203 56.9891 23.0562 56.9891 23.1281C56.9891 23.1766 56.9734 23.2305 56.9422 23.2898C56.9125 23.3492 56.8648 23.4047 56.7992 23.4562C56.6852 23.5375 56.5781 23.6133 56.4781 23.6836C56.3797 23.7523 56.275 23.8148 56.1641 23.8711C56.0531 23.9273 55.9211 23.9773 55.768 24.0211C55.6883 24.0461 55.6203 24.0586 55.5641 24.0586C55.4047 24.0586 55.325 23.9711 55.325 23.7961C55.325 23.7852 55.325 23.775 55.325 23.7656C55.3266 23.7547 55.3281 23.743 55.3297 23.7305C55.3344 23.6602 55.3594 23.5789 55.4047 23.4867C55.45 23.393 55.4992 23.3008 55.5523 23.2102C55.6055 23.1227 55.6531 23.0406 55.6953 22.9641C55.7375 22.8875 55.7586 22.8305 55.7586 22.793C55.7586 22.7367 55.732 22.7086 55.6789 22.7086C55.5805 22.7086 55.4859 22.7375 55.3953 22.7953C55.3063 22.8531 55.2219 22.9266 55.1422 23.0156C55.0641 23.1031 54.9922 23.1953 54.9266 23.2922C54.8609 23.3875 54.8031 23.4742 54.7531 23.5523C54.7172 23.6117 54.682 23.6812 54.6477 23.7609C54.6148 23.8406 54.5758 23.9102 54.5305 23.9695C54.4867 24.0289 54.4297 24.0586 54.3594 24.0586ZM57.0336 24.0586C56.9086 24.0586 56.8016 24.0281 56.7125 23.9672C56.625 23.9047 56.5578 23.8234 56.5109 23.7234C56.4656 23.6219 56.443 23.5133 56.443 23.3977C56.443 23.2961 56.4719 23.1828 56.5297 23.0578C56.5891 22.9312 56.6734 22.8102 56.7828 22.6945C56.8922 22.5789 57.0227 22.4836 57.1742 22.4086C57.3273 22.332 57.4938 22.2937 57.6734 22.2937C57.8031 22.2937 57.9 22.325 57.9641 22.3875C58.0281 22.45 58.0602 22.5367 58.0602 22.6477C58.0602 22.7133 58.043 22.782 58.0086 22.8539C57.9742 22.9258 57.9148 22.9984 57.8305 23.0719C57.7461 23.1469 57.6328 23.2234 57.4906 23.3016C57.35 23.3781 57.1734 23.4555 56.9609 23.5336C56.9781 23.6305 57.0563 23.6789 57.1953 23.6789C57.3031 23.6789 57.4195 23.657 57.5445 23.6133C57.6695 23.568 57.7898 23.5164 57.9055 23.4586C58.0211 23.4023 58.1203 23.3492 58.2031 23.2992C58.2859 23.2492 58.3352 23.2211 58.3508 23.2148C58.3648 23.2055 58.3773 23.2 58.3883 23.1984C58.4008 23.1969 58.4117 23.1961 58.4211 23.1961C58.4586 23.1961 58.4844 23.2109 58.4984 23.2406C58.5141 23.2687 58.5219 23.2922 58.5219 23.3109C58.5219 23.325 58.5203 23.3422 58.5172 23.3625C58.5141 23.3812 58.5023 23.4031 58.482 23.4281C58.4617 23.4484 58.4023 23.493 58.3039 23.5617C58.2055 23.6305 58.1 23.6969 57.9875 23.7609C57.85 23.8375 57.6969 23.9062 57.5281 23.9672C57.3594 24.0281 57.1945 24.0586 57.0336 24.0586ZM56.9258 23.2641C57.0273 23.2109 57.1305 23.1492 57.2352 23.0789C57.3414 23.007 57.4219 22.9547 57.4766 22.9219C57.55 22.875 57.5984 22.8336 57.6219 22.7977C57.6484 22.7586 57.6617 22.7258 57.6617 22.6992C57.6617 22.6758 57.6539 22.657 57.6383 22.643C57.6242 22.6289 57.6078 22.6203 57.5891 22.6172L57.568 22.6148H57.5469C57.4609 22.6148 57.3813 22.6398 57.3078 22.6898C57.2359 22.7383 57.175 22.7992 57.125 22.8727C57.0719 22.9492 57.0289 23.0211 56.9961 23.0883C56.9648 23.1555 56.9414 23.2141 56.9258 23.2641ZM58.1422 24.0586C58.0641 24.0586 58.025 24.0188 58.025 23.9391C58.025 23.9219 58.0273 23.9008 58.032 23.8758C58.0383 23.8492 58.05 23.8203 58.0672 23.7891C58.0938 23.7391 58.1227 23.6805 58.1539 23.6133C58.1852 23.5445 58.218 23.4734 58.2523 23.4C58.2898 23.3203 58.3328 23.2289 58.3813 23.1258C58.4313 23.0211 58.4898 22.9008 58.557 22.7648C58.5352 22.7461 58.5164 22.7234 58.5008 22.6969C58.4867 22.6687 58.4797 22.6344 58.4797 22.5937C58.4797 22.5203 58.5078 22.4664 58.5641 22.432C58.6219 22.3961 58.6906 22.3781 58.7703 22.3781C58.8484 22.3781 58.9242 22.3922 58.9977 22.4203C59.0727 22.4469 59.1102 22.4875 59.1102 22.5422C59.1102 22.5484 59.1047 22.5633 59.0938 22.5867C59.0844 22.6086 59.0797 22.6234 59.0797 22.6312C59.0797 22.6344 59.0805 22.6359 59.082 22.6359H59.0844L59.0891 22.6336C59.2047 22.5617 59.3289 22.5008 59.4617 22.4508C59.5945 22.4008 59.7039 22.3758 59.7898 22.3758C59.8602 22.3758 59.9141 22.393 59.9516 22.4273C59.9906 22.4602 60.0102 22.5164 60.0102 22.5961C60.0102 22.6133 60.0094 22.632 60.0078 22.6523C60.0063 22.6711 60.0031 22.6914 59.9984 22.7133C59.9875 22.7711 59.9438 22.8461 59.8672 22.9383C59.7906 23.0305 59.7094 23.1195 59.6234 23.2055C59.5844 23.2445 59.5375 23.2914 59.4828 23.3461C59.4281 23.3992 59.3805 23.4484 59.3398 23.4937C59.2992 23.5375 59.2789 23.5672 59.2789 23.5828C59.2789 23.6047 59.2867 23.6156 59.3023 23.6156C59.4148 23.5672 59.5422 23.5078 59.6844 23.4375C59.8266 23.3656 59.9641 23.2937 60.0969 23.2219C60.2297 23.15 60.3383 23.0898 60.4227 23.0414C60.4555 23.0227 60.4836 23.0133 60.507 23.0133C60.5727 23.0133 60.6055 23.0477 60.6055 23.1164C60.6055 23.1523 60.5898 23.1937 60.5586 23.2406C60.5289 23.2859 60.4781 23.3336 60.4063 23.3836C60.3391 23.4258 60.2469 23.4844 60.1297 23.5594C60.0141 23.6328 59.8992 23.7023 59.7852 23.768C59.6727 23.832 59.5648 23.8867 59.4617 23.932C59.3602 23.9773 59.275 24 59.2063 24C59.0984 24 59.0172 23.9742 58.9625 23.9227C58.9094 23.8711 58.8828 23.8047 58.8828 23.7234C58.8828 23.7094 58.8836 23.7 58.8852 23.6953C58.9023 23.5953 58.9383 23.4984 58.993 23.4047C59.0477 23.3109 59.1047 23.225 59.1641 23.1469C59.2234 23.0703 59.2758 22.9992 59.3211 22.9336C59.368 22.868 59.3914 22.8117 59.3914 22.7648C59.3914 22.7414 59.3828 22.7297 59.3656 22.7297C59.3406 22.7297 59.2953 22.7422 59.2297 22.7672C59.1641 22.7906 59.0992 22.8219 59.0352 22.8609C58.9711 22.9 58.9273 22.9414 58.9039 22.9852C58.8727 23.0398 58.8328 23.1164 58.7844 23.2148C58.7375 23.3117 58.6906 23.4109 58.6438 23.5125C58.5984 23.6141 58.5602 23.6984 58.5289 23.7656C58.4945 23.8516 58.4375 23.9219 58.3578 23.9766C58.2797 24.0313 58.2078 24.0586 58.1422 24.0586Z" fill="#34464F"/>
<defs>
<filter id="filter0_d_112_172" x="0" y="0" width="13" height="13" filterUnits="userSpaceOnUse" color-interpolation-filters="sRGB">
<feFlood flood-opacity="0" result="BackgroundImageFix"/>
<feColorMatrix in="SourceAlpha" type="matrix" values="0 0 0 0 0 0 0 0 0 0 0 0 0 0 0 0 0 0 127 0" result="hardAlpha"/>
<feOffset dx="2" dy="4"/>
<feGaussianBlur stdDeviation="2.5"/>
<feComposite in2="hardAlpha" operator="out"/>
<feColorMatrix type="matrix" values="0 0 0 0 0 0 0 0 0 0 0 0 0 0 0 0 0 0 0.25 0"/>
<feBlend mode="normal" in2="BackgroundImageFix" result="effect1_dropShadow_112_172"/>
<feBlend mode="normal" in="SourceGraphic" in2="effect1_dropShadow_112_172" result="shape"/>
</filter>
</defs>
</svg>
