<svg width="63" height="25" viewBox="0 0 63 25" fill="none" xmlns="http://www.w3.org/2000/svg">
<path d="M20.6465 15.1465C20.334 15.1465 20.0664 15.0703 19.8438 14.918C19.625 14.7617 19.457 14.5586 19.3398 14.3086C19.2266 14.0547 19.1699 13.7832 19.1699 13.4941C19.1699 13.2402 19.2422 12.957 19.3867 12.6445C19.5352 12.3281 19.7461 12.0254 20.0195 11.7363C20.293 11.4473 20.6191 11.209 20.998 11.0215C21.3809 10.8301 21.7969 10.7344 22.2461 10.7344C22.5703 10.7344 22.8125 10.8125 22.9727 10.9688C23.1328 11.125 23.2129 11.3418 23.2129 11.6191C23.2129 11.7832 23.1699 11.9551 23.084 12.1348C22.998 12.3145 22.8496 12.4961 22.6387 12.6797C22.4277 12.8672 22.1445 13.0586 21.7891 13.2539C21.4375 13.4453 20.9961 13.6387 20.4648 13.834C20.5078 14.0762 20.7031 14.1973 21.0508 14.1973C21.3203 14.1973 21.6113 14.1426 21.9238 14.0332C22.2363 13.9199 22.5371 13.791 22.8262 13.6465C23.1152 13.5059 23.3633 13.373 23.5703 13.248C23.7773 13.123 23.9004 13.0527 23.9395 13.0371C23.9746 13.0137 24.0059 13 24.0332 12.9961C24.0645 12.9922 24.0918 12.9902 24.1152 12.9902C24.209 12.9902 24.2734 13.0273 24.3086 13.1016C24.3477 13.1719 24.3672 13.2305 24.3672 13.2773C24.3672 13.3125 24.3633 13.3555 24.3555 13.4062C24.3477 13.4531 24.3184 13.5078 24.2676 13.5703C24.2168 13.6211 24.0684 13.7324 23.8223 13.9043C23.5762 14.0762 23.3125 14.2422 23.0312 14.4023C22.6875 14.5938 22.3047 14.7656 21.8828 14.918C21.4609 15.0703 21.0488 15.1465 20.6465 15.1465ZM20.377 13.1602C20.6309 13.0273 20.8887 12.873 21.1504 12.6973C21.416 12.5176 21.6172 12.3867 21.7539 12.3047C21.9375 12.1875 22.0586 12.084 22.1172 11.9941C22.1836 11.8965 22.2168 11.8145 22.2168 11.748C22.2168 11.6895 22.1973 11.6426 22.1582 11.6074C22.123 11.5723 22.082 11.5508 22.0352 11.543L21.9824 11.5371H21.9297C21.7148 11.5371 21.5156 11.5996 21.332 11.7246C21.1523 11.8457 21 11.998 20.875 12.1816C20.7422 12.373 20.6348 12.5527 20.5527 12.7207C20.4746 12.8887 20.416 13.0352 20.377 13.1602ZM23.3934 17.9766C23.2527 17.9766 23.1375 17.9473 23.0477 17.8887C22.9539 17.834 22.907 17.7266 22.907 17.5664C22.907 17.4141 22.948 17.252 23.0301 17.0801C23.1121 16.9082 23.1824 16.7578 23.241 16.6289C23.5145 16.125 23.7957 15.6094 24.0848 15.082C24.3738 14.5586 24.6434 14.043 24.8934 13.5352C25.1473 13.0273 25.3504 12.5449 25.5027 12.0879C25.5301 12.0254 25.5691 11.9336 25.6199 11.8125C25.6707 11.6875 25.7332 11.5586 25.8074 11.4258C25.8816 11.293 25.9637 11.1797 26.0535 11.0859C26.1434 10.9922 26.2391 10.9453 26.3406 10.9453C26.6375 10.9453 26.7859 11.0645 26.7859 11.3027C26.7859 11.3457 26.7723 11.4355 26.7449 11.5723C26.7215 11.7051 26.6961 11.7969 26.6687 11.8477C26.8602 11.6719 27.0711 11.5 27.3016 11.332C27.532 11.1602 27.7723 11.0195 28.0223 10.9102C28.2762 10.7969 28.5262 10.7402 28.7723 10.7402C29.0301 10.7402 29.2703 10.8027 29.493 10.9277C29.7195 11.0488 29.8328 11.2305 29.8328 11.4727C29.8328 11.7031 29.7332 11.9609 29.534 12.2461C29.3387 12.5273 29.1141 12.8008 28.8602 13.0664C28.7117 13.2227 28.5613 13.375 28.409 13.5234C28.2566 13.668 28.1277 13.793 28.0223 13.8984C27.9207 14.0039 27.868 14.0742 27.8641 14.1094C27.8641 14.2148 27.9402 14.2676 28.0926 14.2676C28.2488 14.2676 28.5711 14.0996 29.0594 13.7637C29.5477 13.4238 30.2391 12.918 31.1336 12.2461C31.2547 12.1758 31.3504 12.1406 31.4207 12.1406C31.5066 12.1406 31.5711 12.1738 31.6141 12.2402C31.657 12.3027 31.6785 12.3809 31.6785 12.4746C31.6785 12.5762 31.6512 12.6797 31.5965 12.7852C31.5457 12.8906 31.4676 12.9785 31.3621 13.0488C30.9559 13.3496 30.5828 13.6348 30.243 13.9043C29.9109 14.166 29.6023 14.3867 29.3172 14.5664C29.0242 14.7539 28.7391 14.8984 28.4617 15C28.1844 15.1016 27.8875 15.1523 27.5711 15.1523C27.2742 15.1523 27.0437 15.0977 26.8797 14.9883C26.7195 14.8789 26.6395 14.7285 26.6395 14.5371V14.4902L26.6453 14.4434C26.6687 14.2715 26.784 14.0625 26.991 13.8164C27.202 13.5664 27.4324 13.3164 27.6824 13.0664C27.9246 12.8242 28.1453 12.5938 28.3445 12.375C28.5437 12.1562 28.6434 11.9883 28.6434 11.8711C28.6434 11.7695 28.5594 11.7188 28.3914 11.7188C28.1609 11.7188 27.9187 11.791 27.6648 11.9355C27.4148 12.0801 27.1746 12.2656 26.9441 12.4922C26.7059 12.7188 26.4949 12.9551 26.3113 13.2012C26.1277 13.4473 25.9754 13.6758 25.8543 13.8867L25.4559 14.6309C25.366 14.7988 25.2879 14.9453 25.2215 15.0703C25.159 15.1953 25.116 15.2793 25.0926 15.3223C25.0652 15.373 25.0125 15.4844 24.9344 15.6562C24.8602 15.8281 24.7684 16.0352 24.659 16.2773C24.5496 16.5156 24.4559 16.7207 24.3777 16.8926C24.3035 17.0684 24.2586 17.1797 24.243 17.2266C24.1687 17.4258 24.0633 17.5996 23.9266 17.748C23.7898 17.9004 23.6121 17.9766 23.3934 17.9766ZM31.5484 15.1465C31.4117 15.1465 31.3062 15.1055 31.232 15.0234C31.1578 14.9453 31.1207 14.8457 31.1207 14.7246C31.1207 14.5605 31.1871 14.3438 31.3199 14.0742C31.4488 13.8047 31.5953 13.5059 31.7594 13.1777C31.9234 12.8457 32.0836 12.5254 32.2398 12.2168C32.4 11.9082 32.5309 11.6504 32.6324 11.4434L34.566 7.64062C34.6129 7.53906 34.7047 7.44922 34.8414 7.37109C34.9781 7.28906 35.1148 7.24805 35.2516 7.24805C35.4234 7.24805 35.5426 7.28125 35.609 7.34766C35.6754 7.41016 35.7086 7.48828 35.7086 7.58203C35.7086 7.66797 35.6871 7.75977 35.6441 7.85742C35.6012 7.95117 35.5523 8.03906 35.4977 8.12109C35.1773 8.67188 34.859 9.26172 34.5426 9.89062C34.2262 10.5195 33.8941 11.123 33.5465 11.7012C33.6949 11.5566 33.8551 11.4121 34.027 11.2676C34.1988 11.1191 34.3922 10.9941 34.607 10.8926C34.8219 10.791 35.068 10.7402 35.3453 10.7402C35.6031 10.7402 35.8238 10.791 36.0074 10.8926C36.191 10.9941 36.2828 11.1777 36.2828 11.4434C36.2828 11.6934 36.2281 11.9219 36.1187 12.1289C36.0094 12.3359 35.8805 12.5312 35.732 12.7148C35.5875 12.8945 35.4527 13.0801 35.3277 13.2715C35.2027 13.4629 35.1285 13.6719 35.1051 13.8984V13.9219L35.0992 13.9453C35.0992 14.0234 35.1246 14.0723 35.1754 14.0918C35.2301 14.1113 35.2984 14.1211 35.3805 14.1211C35.5406 14.1211 35.7125 14.0781 35.8961 13.9922C36.0836 13.9023 36.2711 13.793 36.4586 13.6641C36.6422 13.5352 36.8121 13.4023 36.9684 13.2656C37.1285 13.1289 37.2574 13.0137 37.3551 12.9199C37.4215 12.8574 37.4957 12.8262 37.5777 12.8262C37.648 12.8262 37.7066 12.8535 37.7535 12.9082C37.8043 12.959 37.8297 13.0293 37.8297 13.1191C37.8297 13.2012 37.8004 13.2949 37.7418 13.4004C37.6871 13.5059 37.5914 13.6113 37.4547 13.7168C37.1734 13.959 36.8824 14.1895 36.5816 14.4082C36.2848 14.627 35.984 14.8047 35.6793 14.9414C35.3785 15.0781 35.0816 15.1465 34.7887 15.1465C34.5113 15.1465 34.2887 15.084 34.1207 14.959C33.9527 14.8301 33.8687 14.6289 33.8687 14.3555C33.8687 14.0859 33.9293 13.8281 34.0504 13.582C34.1754 13.3359 34.3141 13.1074 34.4664 12.8965C34.6227 12.6855 34.7477 12.5 34.8414 12.3398C34.8883 12.2734 34.9234 12.2129 34.9469 12.1582C34.9742 12.0996 34.9879 12.0371 34.9879 11.9707C34.9879 11.8379 34.9234 11.7715 34.7945 11.7715C34.4898 11.7715 34.2145 11.8672 33.9684 12.0586C33.7262 12.2461 33.5055 12.4785 33.3062 12.7559C33.1109 13.0293 32.9312 13.2949 32.7672 13.5527C32.6891 13.6738 32.607 13.8223 32.5211 13.998C32.4352 14.1738 32.3395 14.3535 32.234 14.5371C32.1363 14.709 32.0289 14.8535 31.9117 14.9707C31.7945 15.0879 31.6734 15.1465 31.5484 15.1465ZM39.2582 15.1465C39.1254 15.1465 38.9672 15.1094 38.7836 15.0352C38.6 14.9609 38.4379 14.8379 38.2973 14.666C38.1605 14.4941 38.0922 14.2637 38.0922 13.9746C38.0922 13.7324 38.1469 13.4297 38.2563 13.0664C38.3656 12.7031 38.5375 12.3457 38.7719 11.9941C39.0063 11.6348 39.3051 11.3359 39.6684 11.0977C40.0355 10.8594 40.4594 10.7402 40.9398 10.7402C41.1117 10.7402 41.2621 10.7617 41.391 10.8047C41.5199 10.8477 41.6293 10.8945 41.7191 10.9453C41.7699 10.9766 41.8168 11.0098 41.8598 11.0449C41.9066 11.0762 41.9496 11.1113 41.9887 11.1504L42.1938 11.0508C42.2523 11.0234 42.3129 11 42.3754 10.9805C42.4418 10.957 42.4984 10.9453 42.5453 10.9453C42.6938 10.9453 42.8148 10.9863 42.9086 11.0684C43.0023 11.1504 43.0492 11.2402 43.0492 11.3379C43.0492 11.3691 43.0473 11.3906 43.0434 11.4023C43.016 11.5117 42.9652 11.6621 42.891 11.8535C42.8207 12.0449 42.7445 12.2578 42.6625 12.4922C42.5805 12.7188 42.5102 12.9375 42.4516 13.1484C42.3969 13.3594 42.3695 13.5332 42.3695 13.6699C42.3695 13.7871 42.3891 13.8848 42.4281 13.9629C42.4672 14.0371 42.5336 14.0742 42.6273 14.0742C42.7406 14.0742 42.893 14.0098 43.0844 13.8809C43.2758 13.748 43.473 13.5918 43.6762 13.4121C43.7855 13.3145 43.8988 13.2109 44.016 13.1016C44.1332 12.9883 44.2523 12.8691 44.3734 12.7441C44.4359 12.6934 44.4965 12.668 44.5551 12.668C44.6332 12.668 44.6977 12.707 44.7484 12.7852C44.8031 12.8594 44.8305 12.9434 44.8305 13.0371C44.8305 13.1465 44.7934 13.2383 44.7191 13.3125C44.5629 13.457 44.4027 13.6113 44.2387 13.7754C44.0746 13.9395 43.848 14.1406 43.559 14.3789C43.3012 14.5898 43.0355 14.7715 42.7621 14.9238C42.4887 15.0723 42.2426 15.1465 42.0238 15.1465C41.7504 15.1465 41.5512 15.041 41.4262 14.8301C41.3012 14.6152 41.2387 14.3867 41.2387 14.1445C41.2387 13.9688 41.2641 13.8125 41.3148 13.6758C41.1547 13.8906 40.9652 14.1133 40.7465 14.3438C40.5277 14.5703 40.2914 14.7617 40.0375 14.918C39.7836 15.0703 39.5238 15.1465 39.2582 15.1465ZM39.727 14.1152C39.852 14.1152 40.0082 14.0352 40.1957 13.875C40.3871 13.7148 40.5707 13.5273 40.7465 13.3125C40.9418 13.0781 41.0961 12.8652 41.2094 12.6738C41.3227 12.4824 41.3793 12.3535 41.3793 12.2871C41.3793 12.1387 41.2934 12.0215 41.1215 11.9355C40.9496 11.8457 40.7953 11.8008 40.6586 11.8008C40.4164 11.8008 40.1859 11.8789 39.9672 12.0352C39.7523 12.1914 39.5766 12.3926 39.4398 12.6387C39.3031 12.8809 39.2348 13.1328 39.2348 13.3945C39.2348 13.5469 39.2621 13.7051 39.3168 13.8691C39.3754 14.0332 39.5121 14.1152 39.727 14.1152ZM45.2336 15.1465C45.0969 15.1465 44.9895 15.1035 44.9113 15.0176C44.8332 14.9316 44.7941 14.8262 44.7941 14.7012C44.7941 14.5996 44.8527 14.4102 44.9699 14.1328C45.0871 13.8516 45.2238 13.5508 45.3801 13.2305C45.5793 12.8125 45.7551 12.4512 45.9074 12.1465C46.0598 11.8379 46.173 11.6035 46.2473 11.4434C46.3254 11.2754 46.423 11.1504 46.5402 11.0684C46.6574 10.9863 46.7727 10.9453 46.8859 10.9453C46.9797 10.9453 47.0637 10.9805 47.1379 11.0508C47.2121 11.1172 47.2492 11.2168 47.2492 11.3496C47.2492 11.4004 47.2434 11.4551 47.2316 11.5137C47.2199 11.5723 47.1984 11.6348 47.1672 11.7012C47.2883 11.5488 47.468 11.4004 47.7062 11.2559C47.9445 11.1074 48.2023 10.9844 48.4797 10.8867C48.757 10.7891 49.0129 10.7402 49.2473 10.7402C49.4543 10.7402 49.6262 10.791 49.7629 10.8926C49.9035 10.9902 49.9738 11.1582 49.9738 11.3965C49.9738 11.5996 49.9289 11.8203 49.8391 12.0586C49.7492 12.293 49.6418 12.5195 49.5168 12.7383C49.384 12.9688 49.259 13.1719 49.1418 13.3477C49.0285 13.5195 48.9406 13.6621 48.8781 13.7754C48.8273 13.8379 48.802 13.9102 48.802 13.9922C48.802 14.0703 48.843 14.1094 48.925 14.1094C48.9523 14.1094 48.9836 14.1074 49.0187 14.1035C49.0539 14.0957 49.0969 14.0742 49.1477 14.0391C49.4406 13.9297 49.7316 13.791 50.0207 13.623C50.3137 13.4551 50.5812 13.2812 50.8234 13.1016C51.0695 12.9219 51.2668 12.7637 51.4152 12.627C51.4777 12.5762 51.5383 12.5508 51.5969 12.5508C51.7375 12.5508 51.8078 12.6406 51.8078 12.8203C51.8078 12.9414 51.7687 13.0762 51.6906 13.2246C51.6164 13.373 51.4973 13.5117 51.3332 13.6406C51.048 13.8438 50.7805 14.0332 50.5305 14.209C50.2844 14.3809 50.0227 14.5371 49.7453 14.6777C49.468 14.8184 49.1379 14.9434 48.7551 15.0527C48.5559 15.1152 48.3859 15.1465 48.2453 15.1465C47.8469 15.1465 47.6477 14.9277 47.6477 14.4902C47.6477 14.4629 47.6477 14.4375 47.6477 14.4141C47.6516 14.3867 47.6555 14.3574 47.6594 14.3262C47.6711 14.1504 47.7336 13.9473 47.8469 13.7168C47.9602 13.4824 48.0832 13.252 48.216 13.0254C48.3488 12.8066 48.468 12.6016 48.5734 12.4102C48.6789 12.2188 48.7316 12.0762 48.7316 11.9824C48.7316 11.8418 48.6652 11.7715 48.5324 11.7715C48.2863 11.7715 48.05 11.8438 47.8234 11.9883C47.6008 12.1328 47.3898 12.3164 47.1906 12.5391C46.9953 12.7578 46.8156 12.9883 46.6516 13.2305C46.4875 13.4688 46.343 13.6855 46.218 13.8809C46.1281 14.0293 46.0402 14.2031 45.9543 14.4023C45.8723 14.6016 45.7746 14.7754 45.6613 14.9238C45.552 15.0723 45.4094 15.1465 45.2336 15.1465ZM52.6094 15.1465C52.2891 15.1465 52.0684 15.0664 51.9473 14.9062C51.8301 14.7461 51.7715 14.5508 51.7715 14.3203C51.7715 14.1289 51.7988 13.9336 51.8535 13.7344C51.9121 13.5312 51.9805 13.3457 52.0586 13.1777C52.1953 12.873 52.334 12.5703 52.4746 12.2695C52.6152 11.9688 52.7441 11.6934 52.8613 11.4434L54.6367 7.66406C54.7266 7.46875 54.8613 7.3418 55.041 7.2832C55.2207 7.22461 55.3848 7.23047 55.5332 7.30078C55.6855 7.36719 55.7617 7.49023 55.7617 7.66992C55.7617 7.74023 55.7441 7.81445 55.709 7.89258C55.6777 7.9707 55.6367 8.05469 55.5859 8.14453C55.4453 8.41016 55.2656 8.75977 55.0469 9.19336C54.832 9.62695 54.5938 10.1152 54.332 10.6582C54.0469 11.2559 53.8066 11.7578 53.6113 12.1641C53.4199 12.5664 53.2402 12.9473 53.0723 13.3066C53.0293 13.3965 52.9863 13.502 52.9434 13.623C52.9043 13.7402 52.8848 13.8457 52.8848 13.9395C52.8848 14.0684 52.9414 14.1328 53.0547 14.1328C53.1797 14.1328 53.3457 14.082 53.5527 13.9805C53.7637 13.875 53.9824 13.7441 54.209 13.5879C54.4395 13.4355 54.6621 13.2773 54.877 13.1133C55.0918 12.9453 55.291 12.7832 55.4746 12.627C55.5371 12.5762 55.6113 12.5508 55.6973 12.5508C55.877 12.5508 55.9668 12.6504 55.9668 12.8496C55.9668 12.9316 55.9395 13.0234 55.8848 13.125C55.8301 13.2266 55.7344 13.3262 55.5977 13.4238C55.3477 13.6543 55.0957 13.873 54.8418 14.0801C54.5918 14.2832 54.3398 14.4648 54.0859 14.625C53.8359 14.7812 53.5859 14.9062 53.3359 15C53.0859 15.0977 52.8438 15.1465 52.6094 15.1465ZM57.1609 18.4746C57.0047 18.4746 56.8777 18.4219 56.7801 18.3164C56.6824 18.2148 56.6336 18.0762 56.6336 17.9004C56.6336 17.7363 56.6531 17.5723 56.6922 17.4082C56.7352 17.248 56.8094 17.0703 56.9148 16.875C57.0164 16.6797 57.1512 16.4609 57.3191 16.2188C57.491 15.9805 57.7059 15.6992 57.9637 15.375L59.1355 13.002C58.5496 13.6973 58.0184 14.2285 57.5418 14.5957C57.0652 14.9629 56.6199 15.1465 56.2059 15.1465C56.073 15.1465 55.9598 15.1152 55.866 15.0527C55.7723 14.9941 55.7254 14.8945 55.7254 14.7539C55.7254 14.5586 55.7723 14.3379 55.866 14.0918C55.9441 13.9004 56.0262 13.7227 56.1121 13.5586C56.202 13.3906 56.2938 13.2148 56.3875 13.0312C56.4852 12.8359 56.5984 12.5957 56.7273 12.3105C56.8563 12.0254 56.9988 11.6836 57.1551 11.2852C57.2332 11.1328 57.3348 11.0234 57.4598 10.957C57.5848 10.8867 57.7059 10.8516 57.823 10.8516C57.9441 10.8516 58.0457 10.8809 58.1277 10.9395C58.2137 10.9941 58.2566 11.0684 58.2566 11.1621C58.2566 11.2129 58.2488 11.2539 58.2332 11.2852L57.1609 13.5176C57.1063 13.6348 57.0789 13.7246 57.0789 13.7871C57.0789 13.8457 57.1023 13.875 57.1492 13.875C57.1922 13.875 57.2469 13.8535 57.3133 13.8105C57.3797 13.7676 57.4422 13.7188 57.5008 13.6641L59.9207 11.2852C60.116 11.1289 60.2664 11.0332 60.3719 10.998C60.4773 10.9629 60.5809 10.9453 60.6824 10.9453C60.7645 10.9453 60.823 10.9766 60.8582 11.0391C60.8934 11.0977 60.9109 11.1602 60.9109 11.2266C60.9109 11.2773 60.9012 11.3281 60.8816 11.3789L59.5691 14.1152C59.7566 13.9746 59.9715 13.8379 60.2137 13.7051C60.4559 13.5684 60.6922 13.4453 60.9227 13.3359C61.1531 13.2266 61.3484 13.1406 61.5086 13.0781C61.6688 13.0117 61.7586 12.9785 61.7781 12.9785C61.8758 12.9785 61.9617 13.0156 62.0359 13.0898C62.1102 13.1641 62.1473 13.2578 62.1473 13.3711C62.1473 13.4727 62.1082 13.5801 62.0301 13.6934C61.9559 13.8066 61.823 13.916 61.6316 14.0215C61.3855 14.1582 61.1512 14.2852 60.9285 14.4023C60.7098 14.5195 60.5262 14.6191 60.3777 14.7012L59.9617 14.9355C59.7742 15.0449 59.6004 15.1602 59.4402 15.2812C59.284 15.4023 59.1258 15.5371 58.9656 15.6855C58.7938 16.1348 58.6316 16.5312 58.4793 16.875C58.3309 17.2188 58.2391 17.4238 58.2039 17.4902C57.8875 18.1465 57.5398 18.4746 57.1609 18.4746Z" fill="white"/>
<circle cx="4.5" cy="2.5" r="1.5" fill="#92E3A9"/>
<path d="M4 17V5.1875C4 5.08395 4.08395 5 4.1875 5C5.7408 5 7 3.7408 7 2.1875C7 2.08395 7.08395 2 7.1875 2H16C17.1046 2 18 2.89543 18 4V16.8053C18 16.9128 17.9128 17 17.8053 17C16.6989 17 15.6875 17.6251 15.1927 18.6147L15.0553 18.8894C15.0214 18.9572 14.9521 19 14.8764 19H6C4.89543 19 4 18.1046 4 17Z" fill="white"/>
<path d="M9.6582 16.1465C9.0625 16.1465 8.55469 16.0977 8.13477 16C7.71973 15.9072 7.37793 15.7778 7.10938 15.6118C6.84082 15.4507 6.64551 15.2651 6.52344 15.0552C6.40137 14.8403 6.34033 14.6157 6.34033 14.3813C6.34033 13.8784 6.57959 13.3926 7.05811 12.9238C7.2876 12.6992 7.55859 12.499 7.87109 12.3232C8.18848 12.1475 8.5376 12.0132 8.91846 11.9204C9.06006 11.9204 9.1626 11.979 9.22607 12.0962C9.29443 12.2085 9.32861 12.3379 9.32861 12.4844C9.32861 12.626 9.29443 12.7383 9.22607 12.8213C9.15771 12.8994 9.00146 12.9897 8.75732 13.0923C8.48389 13.2095 8.26904 13.3511 8.11279 13.5171C7.95654 13.6782 7.87842 13.8394 7.87842 14.0005C7.87842 14.2056 8.02002 14.3862 8.30322 14.5425C8.59131 14.6938 9.06006 14.7695 9.70947 14.7695C10.1587 14.7695 10.5713 14.6987 10.9473 14.5571C11.3281 14.4155 11.6333 14.2227 11.8628 13.9785C12.0923 13.7295 12.207 13.4487 12.207 13.1362C12.207 12.9604 12.1338 12.7773 11.9873 12.5869C11.8408 12.3965 11.6089 12.1987 11.2915 11.9937C11.0083 11.8081 10.7593 11.6421 10.5444 11.4956C10.3345 11.3491 10.1587 11.2197 10.0171 11.1074L9.4751 10.6826C9.10889 10.3604 8.83545 10.0503 8.65479 9.75244C8.47412 9.45459 8.38379 9.14453 8.38379 8.82227C8.38379 8.38281 8.5376 7.96045 8.84521 7.55518C9.15283 7.14502 9.54834 6.77881 10.0317 6.45654C10.5151 6.13916 11.0303 5.89014 11.5771 5.70947C12.124 5.52393 12.6294 5.43115 13.0933 5.43115C13.5718 5.43115 13.9697 5.54346 14.2871 5.76807C14.6094 5.99268 14.7705 6.35645 14.7705 6.85938C14.7705 7.60645 14.3457 8.26562 13.4961 8.83691C13.3057 8.96875 13.1299 9.03467 12.9688 9.03467C12.8027 9.03467 12.6709 8.97607 12.5732 8.85889C12.4756 8.73682 12.4268 8.59521 12.4268 8.43408C12.4268 8.29736 12.4658 8.16064 12.5439 8.02393C12.627 7.88721 12.7588 7.77002 12.9395 7.67236C13.0811 7.59912 13.2056 7.50146 13.313 7.37939C13.4253 7.25244 13.4814 7.13037 13.4814 7.01318C13.4814 6.90088 13.4424 6.82764 13.3643 6.79346C13.291 6.75928 13.2007 6.74219 13.0933 6.74219C12.7905 6.74219 12.4512 6.7959 12.0752 6.90332C11.6992 7.01074 11.3403 7.15723 10.9985 7.34277C10.6372 7.53809 10.3491 7.75049 10.1343 7.97998C9.92432 8.20947 9.81934 8.43652 9.81934 8.66113C9.81934 8.87109 9.90479 9.06396 10.0757 9.23975C10.2515 9.41553 10.498 9.62061 10.8154 9.85498L12.5293 11.1221C12.9492 11.4346 13.2861 11.7422 13.54 12.0449C13.7939 12.3428 13.9209 12.6675 13.9209 13.019C13.9209 13.5366 13.7427 14.0347 13.3862 14.5132C13.0347 14.9917 12.5391 15.3848 11.8994 15.6924C11.2646 15.9951 10.5176 16.1465 9.6582 16.1465Z" fill="#34464F"/>
<path d="M3.93281 24.232C3.875 24.232 3.825 24.2148 3.78281 24.1805C3.74219 24.1461 3.72188 24.0953 3.72188 24.0281C3.72188 23.9922 3.72422 23.9648 3.72891 23.9461C3.73359 23.9258 3.74609 23.893 3.76641 23.8477C3.78828 23.8023 3.825 23.725 3.87656 23.6156L4.49531 22.4414C4.40156 22.332 4.31719 22.2125 4.24219 22.0828C4.16719 21.9531 4.11328 21.8133 4.08047 21.6633C4.05391 21.5727 4.03516 21.4883 4.02422 21.4102C4.01484 21.332 4.01016 21.2594 4.01016 21.1922C4.01016 21.0187 4.05078 20.8797 4.13203 20.775C4.21484 20.6687 4.31328 20.6156 4.42734 20.6156C4.54141 20.6156 4.59844 20.6758 4.59844 20.7961C4.59844 20.8477 4.58516 20.9156 4.55859 21C4.53203 21.0828 4.51875 21.1672 4.51875 21.2531C4.51875 21.3797 4.5375 21.5039 4.575 21.6258C4.6125 21.7477 4.66094 21.8602 4.72031 21.9633C4.78125 22.0648 4.84453 22.15 4.91016 22.2187L5.08359 22.1062C5.17578 22.0469 5.26719 21.9852 5.35781 21.9211C5.45 21.857 5.53281 21.7891 5.60625 21.7172C5.71406 21.5875 5.8 21.4641 5.86406 21.3469C5.92969 21.2281 5.97188 21.1312 5.99063 21.0562C6.00938 20.9687 6.02969 20.8977 6.05156 20.843C6.07344 20.7883 6.10938 20.7484 6.15938 20.7234C6.21094 20.6984 6.29063 20.6859 6.39844 20.6859C6.47344 20.6859 6.51094 20.7391 6.51094 20.8453C6.51094 20.8578 6.50703 20.8898 6.49922 20.9414C6.49141 20.993 6.47422 21.0539 6.44766 21.1242C6.41797 21.207 6.37109 21.3047 6.30703 21.4172C6.24297 21.5297 6.15391 21.6523 6.03984 21.7852C5.88828 21.9305 5.72578 22.0586 5.55234 22.1695C5.37891 22.2805 5.19922 22.3914 5.01328 22.5023L4.91016 22.5633L4.43672 23.4586C4.39141 23.5461 4.35938 23.6125 4.34063 23.6578C4.32031 23.7047 4.30859 23.7367 4.30547 23.7539C4.30547 23.8648 4.28516 23.9555 4.24453 24.0258C4.20391 24.0977 4.15469 24.15 4.09688 24.1828C4.03906 24.2156 3.98438 24.232 3.93281 24.232ZM5.86172 24.0586C5.79922 24.0586 5.72813 24.0414 5.64844 24.007C5.57031 23.9742 5.50234 23.9211 5.44453 23.8477C5.38672 23.7742 5.35781 23.6773 5.35781 23.557C5.35781 23.4602 5.38047 23.3414 5.42578 23.2008C5.47266 23.0602 5.54375 22.9211 5.63906 22.7836C5.73594 22.6445 5.86016 22.5289 6.01172 22.4367C6.16328 22.343 6.33906 22.2961 6.53906 22.2961C6.61875 22.2961 6.70313 22.3109 6.79219 22.3406C6.88281 22.3703 6.96016 22.4203 7.02422 22.4906C7.08828 22.5594 7.12031 22.6547 7.12031 22.7766C7.12031 22.8766 7.09531 22.993 7.04531 23.1258C7.07344 23.1602 7.11328 23.1773 7.16484 23.1773C7.21328 23.1773 7.26953 23.1578 7.33359 23.1187C7.39766 23.0797 7.46094 23.032 7.52344 22.9758C7.5875 22.9195 7.64531 22.8633 7.69688 22.807C7.75 22.7508 7.79141 22.7055 7.82109 22.6711C7.83203 22.6602 7.84531 22.6547 7.86094 22.6547C7.89531 22.6547 7.92031 22.6766 7.93594 22.7203C7.95156 22.7641 7.94844 22.8195 7.92656 22.8867C7.90469 22.9523 7.85391 23.0203 7.77422 23.0906C7.72734 23.1406 7.66953 23.2023 7.60078 23.2758C7.53359 23.3477 7.46016 23.4117 7.38047 23.468C7.30234 23.5227 7.22266 23.55 7.14141 23.55C7.05859 23.55 6.98047 23.5234 6.90703 23.4703C6.79141 23.6516 6.64453 23.7953 6.46641 23.9016C6.28828 24.0063 6.08672 24.0586 5.86172 24.0586ZM6.06563 23.6484C6.16406 23.6484 6.25625 23.6156 6.34219 23.55C6.42813 23.4844 6.49766 23.4016 6.55078 23.3016C6.60391 23.2016 6.63047 23.0992 6.63047 22.9945C6.63047 22.9539 6.62578 22.9117 6.61641 22.868C6.60859 22.8227 6.58984 22.7852 6.56016 22.7555C6.53047 22.7242 6.48281 22.7086 6.41719 22.7086C6.32031 22.7086 6.22891 22.7398 6.14297 22.8023C6.05703 22.8633 5.98672 22.943 5.93203 23.0414C5.87891 23.1383 5.85234 23.2398 5.85234 23.3461C5.85234 23.3852 5.85703 23.4289 5.86641 23.4773C5.87578 23.5242 5.89531 23.5648 5.925 23.5992C5.95625 23.632 6.00313 23.6484 6.06563 23.6484ZM7.78594 24.0586C7.68438 24.0586 7.59297 24.0344 7.51172 23.9859C7.43203 23.9375 7.39219 23.8461 7.39219 23.7117C7.39219 23.7008 7.39688 23.6695 7.40625 23.618C7.41719 23.5664 7.43594 23.5008 7.4625 23.4211C7.49531 23.3227 7.54688 23.1945 7.61719 23.0367C7.6875 22.8789 7.78672 22.6875 7.91484 22.4625C7.94766 22.4031 7.98516 22.3609 8.02734 22.3359C8.07109 22.3094 8.11797 22.2961 8.16797 22.2961C8.21797 22.2961 8.26406 22.3086 8.30625 22.3336C8.34844 22.357 8.36953 22.3914 8.36953 22.4367C8.36953 22.4523 8.36719 22.4672 8.3625 22.4812C8.35156 22.5172 8.32188 22.5727 8.27344 22.6477C8.22656 22.7227 8.17344 22.8109 8.11406 22.9125C8.05625 23.0078 8.00391 23.1102 7.95703 23.2195C7.91172 23.3289 7.88672 23.432 7.88203 23.5289C7.88203 23.557 7.88984 23.5828 7.90547 23.6062C7.92109 23.6297 7.94688 23.6414 7.98281 23.6414C8.08438 23.6414 8.18047 23.6141 8.27109 23.5594C8.36328 23.5031 8.44922 23.4328 8.52891 23.3484C8.60859 23.2625 8.67969 23.1719 8.74219 23.0766C8.80469 22.9812 8.85703 22.8937 8.89922 22.8141C8.93828 22.7437 8.97266 22.6687 9.00234 22.5891C9.03203 22.5078 9.06719 22.4383 9.10781 22.3805C9.14844 22.3227 9.20313 22.2937 9.27188 22.2937C9.32813 22.2937 9.37266 22.3117 9.40547 22.3477C9.43828 22.3836 9.45469 22.4266 9.45469 22.4766C9.45469 22.5172 9.43203 22.5828 9.38672 22.6734C9.34297 22.7625 9.29375 22.8594 9.23906 22.9641C9.18125 23.0734 9.13047 23.1852 9.08672 23.2992C9.04453 23.4117 9.02344 23.5117 9.02344 23.5992C9.02344 23.6555 9.05781 23.6836 9.12656 23.6836C9.23125 23.6836 9.36719 23.6297 9.53438 23.5219C9.6125 23.4719 9.69063 23.4125 9.76875 23.3437C9.84844 23.275 9.91875 23.2008 9.97969 23.1211L10.0031 23.4398C9.89844 23.5602 9.77188 23.6719 9.62344 23.775C9.47656 23.8766 9.33359 23.9531 9.19453 24.0047C9.05078 24.0594 8.93047 24.0719 8.83359 24.0422C8.73672 24.0125 8.68828 23.925 8.68828 23.7797C8.68828 23.7062 8.70078 23.6227 8.72578 23.5289C8.67266 23.6086 8.60156 23.6898 8.5125 23.7727C8.42344 23.8539 8.31797 23.9219 8.19609 23.9766C8.07578 24.0313 7.93906 24.0586 7.78594 24.0586ZM9.55313 24.0586C9.475 24.0586 9.43594 24.0188 9.43594 23.9391C9.43594 23.9219 9.43828 23.9008 9.44297 23.8758C9.44922 23.8492 9.46094 23.8203 9.47813 23.7891C9.50469 23.7391 9.53359 23.6805 9.56484 23.6133C9.59609 23.5445 9.62891 23.4734 9.66328 23.4C9.70078 23.3203 9.74375 23.2289 9.79219 23.1258C9.84219 23.0211 9.90078 22.9008 9.96797 22.7648C9.94609 22.7461 9.92734 22.7234 9.91172 22.6969C9.89766 22.6687 9.89063 22.6344 9.89063 22.5937C9.89063 22.5203 9.91875 22.4664 9.975 22.432C10.0328 22.3961 10.1016 22.3781 10.1813 22.3781C10.2594 22.3781 10.3352 22.3922 10.4086 22.4203C10.4836 22.4469 10.5211 22.4875 10.5211 22.5422C10.5211 22.5484 10.5156 22.5633 10.5047 22.5867C10.4953 22.6086 10.4906 22.6234 10.4906 22.6312C10.4906 22.6344 10.4914 22.6359 10.493 22.6359H10.4953L10.5 22.6336C10.6156 22.5617 10.7398 22.5008 10.8727 22.4508C11.0055 22.4008 11.1148 22.3758 11.2008 22.3758C11.2711 22.3758 11.325 22.393 11.3625 22.4273C11.4016 22.4602 11.4211 22.5164 11.4211 22.5961C11.4211 22.6133 11.4203 22.632 11.4188 22.6523C11.4172 22.6711 11.4141 22.6914 11.4094 22.7133C11.3984 22.7711 11.3547 22.8461 11.2781 22.9383C11.2016 23.0305 11.1203 23.1195 11.0344 23.2055C10.9953 23.2445 10.9484 23.2914 10.8938 23.3461C10.8391 23.3992 10.7914 23.4484 10.7508 23.4937C10.7102 23.5375 10.6898 23.5672 10.6898 23.5828C10.6898 23.6047 10.6977 23.6156 10.7133 23.6156C10.8258 23.5672 10.9531 23.5078 11.0953 23.4375C11.2375 23.3656 11.375 23.2937 11.5078 23.2219C11.6406 23.15 11.7492 23.0898 11.8336 23.0414C11.8664 23.0227 11.8945 23.0133 11.918 23.0133C11.9836 23.0133 12.0164 23.0477 12.0164 23.1164C12.0164 23.1523 12.0008 23.1937 11.9695 23.2406C11.9398 23.2859 11.8891 23.3336 11.8172 23.3836C11.75 23.4258 11.6578 23.4844 11.5406 23.5594C11.425 23.6328 11.3102 23.7023 11.1961 23.768C11.0836 23.832 10.9758 23.8867 10.8727 23.932C10.7711 23.9773 10.6859 24 10.6172 24C10.5094 24 10.4281 23.9742 10.3734 23.9227C10.3203 23.8711 10.2938 23.8047 10.2938 23.7234C10.2938 23.7094 10.2945 23.7 10.2961 23.6953C10.3133 23.5953 10.3492 23.4984 10.4039 23.4047C10.4586 23.3109 10.5156 23.225 10.575 23.1469C10.6344 23.0703 10.6867 22.9992 10.732 22.9336C10.7789 22.868 10.8023 22.8117 10.8023 22.7648C10.8023 22.7414 10.7938 22.7297 10.7766 22.7297C10.7516 22.7297 10.7063 22.7422 10.6406 22.7672C10.575 22.7906 10.5102 22.8219 10.4461 22.8609C10.382 22.9 10.3383 22.9414 10.3148 22.9852C10.2836 23.0398 10.2438 23.1164 10.1953 23.2148C10.1484 23.3117 10.1016 23.4109 10.0547 23.5125C10.0094 23.6141 9.97109 23.6984 9.93984 23.7656C9.90547 23.8516 9.84844 23.9219 9.76875 23.9766C9.69063 24.0313 9.61875 24.0586 9.55313 24.0586ZM14.0297 24.0469C13.8391 24.0469 13.6766 24.0313 13.5422 24C13.4094 23.9703 13.3 23.9289 13.2141 23.8758C13.1281 23.8242 13.0656 23.7648 13.0266 23.6977C12.9875 23.6289 12.968 23.557 12.968 23.482C12.968 23.3211 13.0445 23.1656 13.1977 23.0156C13.2711 22.9437 13.3578 22.8797 13.4578 22.8234C13.5594 22.7672 13.6711 22.7242 13.793 22.6945C13.8383 22.6945 13.8711 22.7133 13.8914 22.7508C13.9133 22.7867 13.9242 22.8281 13.9242 22.875C13.9242 22.9203 13.9133 22.9562 13.8914 22.9828C13.8695 23.0078 13.8195 23.0367 13.7414 23.0695C13.6539 23.107 13.5852 23.1523 13.5352 23.2055C13.4852 23.257 13.4602 23.3086 13.4602 23.3602C13.4602 23.4258 13.5055 23.4836 13.5961 23.5336C13.6883 23.582 13.8383 23.6062 14.0461 23.6062C14.1898 23.6062 14.3219 23.5836 14.4422 23.5383C14.5641 23.493 14.6617 23.4312 14.7352 23.3531C14.8086 23.2734 14.8453 23.1836 14.8453 23.0836C14.8453 23.0273 14.8219 22.9687 14.775 22.9078C14.7281 22.8469 14.6539 22.7836 14.5523 22.718C14.4617 22.6586 14.382 22.6055 14.3133 22.5586C14.2461 22.5117 14.1898 22.4703 14.1445 22.4344L13.9711 22.2984C13.8539 22.1953 13.7664 22.0961 13.7086 22.0008C13.6508 21.9055 13.6219 21.8062 13.6219 21.7031C13.6219 21.5625 13.6711 21.4273 13.7695 21.2977C13.868 21.1664 13.9945 21.0492 14.1492 20.9461C14.3039 20.8445 14.4688 20.7648 14.6438 20.707C14.8188 20.6477 14.9805 20.618 15.1289 20.618C15.282 20.618 15.4094 20.6539 15.5109 20.7258C15.6141 20.7977 15.6656 20.9141 15.6656 21.075C15.6656 21.3141 15.5297 21.525 15.2578 21.7078C15.1969 21.75 15.1406 21.7711 15.0891 21.7711C15.0359 21.7711 14.9938 21.7523 14.9625 21.7148C14.9313 21.6758 14.9156 21.6305 14.9156 21.5789C14.9156 21.5352 14.9281 21.4914 14.9531 21.4477C14.9797 21.4039 15.0219 21.3664 15.0797 21.3352C15.125 21.3117 15.1648 21.2805 15.1992 21.2414C15.2352 21.2008 15.2531 21.1617 15.2531 21.1242C15.2531 21.0883 15.2406 21.0648 15.2156 21.0539C15.1922 21.043 15.1633 21.0375 15.1289 21.0375C15.032 21.0375 14.9234 21.0547 14.8031 21.0891C14.6828 21.1234 14.568 21.1703 14.4586 21.2297C14.343 21.2922 14.2508 21.3602 14.182 21.4336C14.1148 21.507 14.0813 21.5797 14.0813 21.6516C14.0813 21.7187 14.1086 21.7805 14.1633 21.8367C14.2195 21.893 14.2984 21.9586 14.4 22.0336L14.9484 22.4391C15.0828 22.5391 15.1906 22.6375 15.2719 22.7344C15.3531 22.8297 15.3938 22.9336 15.3938 23.0461C15.3938 23.2117 15.3367 23.3711 15.2227 23.5242C15.1102 23.6773 14.9516 23.8031 14.7469 23.9016C14.5438 23.9984 14.3047 24.0469 14.0297 24.0469ZM15.9305 24.0586C15.868 24.0586 15.7969 24.0414 15.7172 24.007C15.6391 23.9742 15.5711 23.9211 15.5133 23.8477C15.4555 23.7742 15.4266 23.6773 15.4266 23.557C15.4266 23.4602 15.4492 23.3414 15.4945 23.2008C15.5414 23.0602 15.6125 22.9211 15.7078 22.7836C15.8047 22.6445 15.9289 22.5289 16.0805 22.4367C16.232 22.343 16.4078 22.2961 16.6078 22.2961C16.6875 22.2961 16.7719 22.3109 16.8609 22.3406C16.9516 22.3703 17.0289 22.4203 17.093 22.4906C17.157 22.5594 17.1891 22.6547 17.1891 22.7766C17.1891 22.8766 17.1641 22.993 17.1141 23.1258C17.1422 23.1602 17.182 23.1773 17.2336 23.1773C17.282 23.1773 17.3383 23.1578 17.4023 23.1187C17.4664 23.0797 17.5297 23.032 17.5922 22.9758C17.6563 22.9195 17.7141 22.8633 17.7656 22.807C17.8188 22.7508 17.8602 22.7055 17.8898 22.6711C17.9008 22.6602 17.9141 22.6547 17.9297 22.6547C17.9641 22.6547 17.9891 22.6766 18.0047 22.7203C18.0203 22.7641 18.0172 22.8195 17.9953 22.8867C17.9734 22.9523 17.9227 23.0203 17.843 23.0906C17.7961 23.1406 17.7383 23.2023 17.6695 23.2758C17.6023 23.3477 17.5289 23.4117 17.4492 23.468C17.3711 23.5227 17.2914 23.55 17.2102 23.55C17.1273 23.55 17.0492 23.5234 16.9758 23.4703C16.8602 23.6516 16.7133 23.7953 16.5352 23.9016C16.357 24.0063 16.1555 24.0586 15.9305 24.0586ZM16.1344 23.6484C16.2328 23.6484 16.325 23.6156 16.4109 23.55C16.4969 23.4844 16.5664 23.4016 16.6195 23.3016C16.6727 23.2016 16.6992 23.0992 16.6992 22.9945C16.6992 22.9539 16.6945 22.9117 16.6852 22.868C16.6773 22.8227 16.6586 22.7852 16.6289 22.7555C16.5992 22.7242 16.5516 22.7086 16.4859 22.7086C16.3891 22.7086 16.2977 22.7398 16.2117 22.8023C16.1258 22.8633 16.0555 22.943 16.0008 23.0414C15.9477 23.1383 15.9211 23.2398 15.9211 23.3461C15.9211 23.3852 15.9258 23.4289 15.9352 23.4773C15.9445 23.5242 15.9641 23.5648 15.9938 23.5992C16.025 23.632 16.0719 23.6484 16.1344 23.6484ZM17.1633 24.7102C17.1258 24.7102 17.0922 24.7008 17.0625 24.682C17.0328 24.6633 17.018 24.6336 17.018 24.593C17.018 24.557 17.0359 24.5016 17.0719 24.4266L17.8992 22.6734H17.775C17.6891 22.6734 17.6305 22.6602 17.5992 22.6336C17.568 22.607 17.5523 22.5758 17.5523 22.5398C17.5523 22.5023 17.5719 22.4664 17.6109 22.432C17.65 22.3961 17.707 22.3781 17.782 22.3781H18.0586C18.207 22.0781 18.3547 21.8477 18.5016 21.6867C18.65 21.5242 18.7945 21.4117 18.9352 21.3492C19.0758 21.2867 19.2078 21.2555 19.3313 21.2555C19.4188 21.2555 19.4961 21.2906 19.5633 21.3609C19.6305 21.4297 19.6641 21.5336 19.6641 21.6727C19.6641 21.7383 19.6547 21.8125 19.6359 21.8953C19.6266 21.9375 19.6016 21.968 19.5609 21.9867C19.5219 22.0039 19.4898 22.0125 19.4648 22.0125C19.4336 22.0125 19.4047 22.0055 19.3781 21.9914C19.3516 21.9758 19.3383 21.9523 19.3383 21.9211C19.3383 21.9055 19.3398 21.8867 19.343 21.8648C19.3445 21.8539 19.3453 21.8367 19.3453 21.8133C19.3453 21.6914 19.3008 21.6305 19.2117 21.6305C19.1492 21.6305 19.0727 21.6664 18.982 21.7383C18.8914 21.8086 18.8023 21.9008 18.7148 22.0148C18.6273 22.1289 18.557 22.25 18.5039 22.3781H19.05C19.1516 22.3781 19.2352 22.3836 19.3008 22.3945C19.3664 22.4055 19.3992 22.4445 19.3992 22.5117C19.3992 22.5508 19.3844 22.5852 19.3547 22.6148C19.325 22.6445 19.2711 22.6625 19.193 22.6687C19.0461 22.675 18.9031 22.6789 18.7641 22.6805C18.625 22.6805 18.4844 22.6805 18.3422 22.6805C18.3078 22.7492 18.2641 22.8383 18.2109 22.9477C18.1578 23.0555 18.1023 23.1703 18.0445 23.2922C17.9867 23.4141 17.932 23.5297 17.8805 23.6391C17.7898 23.8297 17.7102 23.9961 17.6414 24.1383C17.5742 24.282 17.5227 24.3906 17.4867 24.4641C17.4523 24.5359 17.4039 24.5945 17.3414 24.6398C17.2805 24.6867 17.2211 24.7102 17.1633 24.7102ZM18.9492 24.0586C18.8258 24.0586 18.7398 24.0281 18.6914 23.9672C18.643 23.9062 18.6188 23.8312 18.6188 23.7422C18.6188 23.6641 18.632 23.5828 18.6586 23.4984C18.6852 23.4141 18.7148 23.3383 18.7477 23.2711L19.0219 22.7086H18.9211C18.8336 22.7086 18.7734 22.6945 18.7406 22.6664C18.7078 22.6383 18.6914 22.6062 18.6914 22.5703C18.6914 22.5344 18.7117 22.4937 18.7523 22.4484C18.793 22.4016 18.8484 22.3781 18.9188 22.3781H19.1719L19.6664 21.3961C19.6977 21.3367 19.7359 21.2945 19.7813 21.2695C19.8281 21.243 19.8766 21.2297 19.9266 21.2297C19.9734 21.2297 20.0164 21.2422 20.0555 21.2672C20.0945 21.2922 20.1141 21.3336 20.1141 21.3914C20.1141 21.4211 20.107 21.4516 20.093 21.4828C20.0805 21.5125 20.0633 21.5477 20.0414 21.5883C20.0164 21.6352 19.9828 21.6984 19.9406 21.7781C19.8984 21.8562 19.8461 21.9508 19.7836 22.0617L19.6148 22.3781H20.3789C20.4539 22.3781 20.5148 22.3883 20.5617 22.4086C20.6102 22.4273 20.6344 22.4703 20.6344 22.5375C20.6344 22.5719 20.6219 22.6055 20.5969 22.6383C20.5719 22.6711 20.518 22.6906 20.4352 22.6969H19.4602L19.2961 23.025L19.1508 23.3227C19.132 23.3602 19.1133 23.4039 19.0945 23.4539C19.0773 23.5023 19.0688 23.5453 19.0688 23.5828C19.0688 23.6297 19.0906 23.6531 19.1344 23.6531C19.1844 23.6531 19.2516 23.632 19.3359 23.5898C19.4203 23.5477 19.5094 23.4961 19.6031 23.4352C19.6984 23.3742 19.7898 23.3109 19.8773 23.2453C19.9648 23.1781 20.0453 23.1133 20.1188 23.0508C20.1453 23.0336 20.1688 23.025 20.1891 23.025C20.2234 23.025 20.2492 23.0437 20.2664 23.0812C20.2836 23.1187 20.2852 23.1641 20.2711 23.2172C20.2586 23.2703 20.2219 23.3211 20.1609 23.3695C20.0594 23.4617 19.9563 23.5492 19.8516 23.632C19.7484 23.7133 19.6461 23.7859 19.5445 23.85C19.4414 23.9125 19.3398 23.9625 19.2398 24C19.1398 24.0391 19.043 24.0586 18.9492 24.0586ZM20.1938 24.0586C20.0578 24.0586 19.9633 24.0281 19.9102 23.9672C19.8586 23.9047 19.8328 23.8258 19.8328 23.7305C19.8328 23.6305 19.85 23.5242 19.8844 23.4117C19.9203 23.2992 19.9602 23.193 20.0039 23.093C20.0477 22.993 20.0828 22.9133 20.1094 22.8539C20.1578 22.7461 20.1977 22.6594 20.2289 22.5937C20.2617 22.5266 20.2906 22.4742 20.3156 22.4367C20.3422 22.4008 20.368 22.3766 20.393 22.3641C20.418 22.3516 20.45 22.3453 20.4891 22.3453C20.5484 22.3453 20.5992 22.3648 20.6414 22.4039C20.6852 22.4414 20.707 22.4898 20.707 22.5492C20.707 22.5711 20.7 22.5992 20.6859 22.6336L20.2875 23.5758C20.2766 23.5992 20.2711 23.625 20.2711 23.6531C20.2711 23.6937 20.2844 23.7141 20.3109 23.7141C20.35 23.7141 20.3938 23.6922 20.4422 23.6484C20.4922 23.6047 20.5602 23.5398 20.6461 23.4539C20.7133 23.3836 20.7805 23.2969 20.8477 23.1937C20.9164 23.0906 20.9813 22.9836 21.0422 22.8727C21.1031 22.7617 21.1539 22.6594 21.1945 22.5656C21.2398 22.475 21.2781 22.4156 21.3094 22.3875C21.3422 22.3594 21.3836 22.3453 21.4336 22.3453C21.5289 22.3453 21.5766 22.3867 21.5766 22.4695C21.5734 22.4852 21.5719 22.4992 21.5719 22.5117C21.5703 22.5258 21.5656 22.5437 21.5578 22.5656L21.1922 23.6461C21.1922 23.6852 21.2117 23.7047 21.2508 23.7047C21.2914 23.7 21.3438 23.6766 21.4078 23.6344C21.4734 23.5906 21.5359 23.5359 21.5953 23.4703C21.6563 23.4031 21.6984 23.3336 21.7219 23.2617C21.7672 23.1242 21.8141 22.9883 21.8625 22.8539C21.9109 22.718 21.9641 22.6039 22.0219 22.5117C22.0797 22.4195 22.1461 22.3703 22.2211 22.3641C22.2711 22.3641 22.3117 22.3805 22.343 22.4133C22.3758 22.4445 22.3922 22.4859 22.3922 22.5375C22.3922 22.6641 22.3617 22.8016 22.3008 22.95C22.2398 23.0969 22.1711 23.2227 22.0945 23.3273C22.107 23.3602 22.1297 23.3766 22.1625 23.3766C22.2828 23.3766 22.3922 23.3586 22.4906 23.3227C22.5906 23.2852 22.6945 23.2344 22.8023 23.1703C22.8289 23.1531 22.8539 23.1445 22.8773 23.1445C22.9086 23.1445 22.9367 23.1562 22.9617 23.1797C22.9867 23.2031 22.9992 23.2336 22.9992 23.2711C22.9992 23.3211 22.9672 23.3734 22.9031 23.4281C22.8391 23.4828 22.7594 23.5328 22.6641 23.5781C22.5594 23.6266 22.4594 23.6641 22.3641 23.6906C22.2688 23.7172 22.1891 23.7305 22.125 23.7305C22.0375 23.7305 21.9477 23.7055 21.8555 23.6555C21.632 23.9242 21.3984 24.0586 21.1547 24.0586C21.0422 24.0586 20.9609 24.0297 20.9109 23.9719C20.8625 23.9125 20.8383 23.8266 20.8383 23.7141C20.6102 23.9437 20.3953 24.0586 20.1938 24.0586ZM23.0367 24.0586C22.9836 24.0586 22.9203 24.0438 22.8469 24.0141C22.7734 23.9844 22.7086 23.9352 22.6523 23.8664C22.5977 23.7977 22.5703 23.7055 22.5703 23.5898C22.5703 23.493 22.5922 23.3719 22.6359 23.2266C22.6797 23.0812 22.7484 22.9383 22.8422 22.7977C22.9359 22.6539 23.0555 22.5344 23.2008 22.4391C23.3477 22.3437 23.5172 22.2961 23.7094 22.2961C23.7781 22.2961 23.8383 22.3047 23.8898 22.3219C23.9414 22.3391 23.9852 22.3578 24.0211 22.3781C24.0414 22.3906 24.0602 22.4039 24.0773 22.418C24.0961 22.4305 24.1133 22.4445 24.1289 22.4602L24.2109 22.4203C24.2344 22.4094 24.2586 22.4 24.2836 22.3922C24.3102 22.3828 24.3328 22.3781 24.3516 22.3781C24.4109 22.3781 24.4594 22.3945 24.4969 22.4273C24.5344 22.4602 24.5531 22.4961 24.5531 22.5352C24.5531 22.5477 24.5523 22.5562 24.5508 22.5609C24.5398 22.6047 24.5195 22.6648 24.4898 22.7414C24.4617 22.818 24.4313 22.9031 24.3984 22.9969C24.3656 23.0875 24.3375 23.175 24.3141 23.2594C24.2922 23.3437 24.2813 23.4133 24.2813 23.468C24.2813 23.5148 24.2891 23.5539 24.3047 23.5852C24.3203 23.6148 24.3469 23.6297 24.3844 23.6297C24.4297 23.6297 24.4906 23.6039 24.5672 23.5523C24.6438 23.4992 24.7227 23.4367 24.8039 23.3648C24.8477 23.3258 24.893 23.2844 24.9398 23.2406C24.9867 23.1953 25.0344 23.1477 25.0828 23.0977C25.1078 23.0773 25.132 23.0672 25.1555 23.0672C25.1867 23.0672 25.2125 23.0828 25.2328 23.1141C25.2547 23.1437 25.2656 23.1773 25.2656 23.2148C25.2656 23.2586 25.2508 23.2953 25.2211 23.325C25.1586 23.3828 25.0945 23.4445 25.0289 23.5102C24.9633 23.5758 24.8727 23.6562 24.757 23.7516C24.6539 23.8359 24.5477 23.9086 24.4383 23.9695C24.3289 24.0289 24.2305 24.0586 24.143 24.0586C24.0336 24.0586 23.9539 24.0164 23.9039 23.932C23.8539 23.8461 23.8289 23.7547 23.8289 23.6578C23.8289 23.5875 23.8391 23.525 23.8594 23.4703C23.7953 23.5562 23.7195 23.6453 23.632 23.7375C23.5445 23.8281 23.45 23.9047 23.3484 23.9672C23.2469 24.0281 23.143 24.0586 23.0367 24.0586ZM23.2242 23.6461C23.2742 23.6461 23.3367 23.6141 23.4117 23.55C23.4883 23.4859 23.5617 23.4109 23.632 23.325C23.7102 23.2312 23.7719 23.1461 23.8172 23.0695C23.8625 22.993 23.8852 22.9414 23.8852 22.9148C23.8852 22.8555 23.8508 22.8086 23.782 22.7742C23.7133 22.7383 23.6516 22.7203 23.5969 22.7203C23.5 22.7203 23.4078 22.7516 23.3203 22.8141C23.2344 22.8766 23.1641 22.957 23.1094 23.0555C23.0547 23.1523 23.0273 23.2531 23.0273 23.3578C23.0273 23.4187 23.0383 23.482 23.0602 23.5477C23.0836 23.6133 23.1383 23.6461 23.2242 23.6461ZM24.8484 24.0586C24.7703 24.0586 24.7313 24.0188 24.7313 23.9391C24.7313 23.9219 24.7336 23.9008 24.7383 23.8758C24.7445 23.8492 24.7563 23.8203 24.7734 23.7891C24.8 23.7391 24.8289 23.6805 24.8602 23.6133C24.8914 23.5445 24.9242 23.4734 24.9586 23.4C24.9961 23.3203 25.0391 23.2289 25.0875 23.1258C25.1375 23.0211 25.1961 22.9008 25.2633 22.7648C25.2414 22.7461 25.2227 22.7234 25.207 22.6969C25.193 22.6687 25.1859 22.6344 25.1859 22.5937C25.1859 22.5203 25.2141 22.4664 25.2703 22.432C25.3281 22.3961 25.3969 22.3781 25.4766 22.3781C25.5547 22.3781 25.6305 22.3922 25.7039 22.4203C25.7789 22.4469 25.8164 22.4875 25.8164 22.5422C25.8164 22.5484 25.8109 22.5633 25.8 22.5867C25.7906 22.6086 25.7859 22.6234 25.7859 22.6312C25.7859 22.6344 25.7867 22.6359 25.7883 22.6359H25.7906L25.7953 22.6336C25.9109 22.5617 26.0352 22.5008 26.168 22.4508C26.3008 22.4008 26.4102 22.3758 26.4961 22.3758C26.5664 22.3758 26.6203 22.393 26.6578 22.4273C26.6969 22.4602 26.7164 22.5164 26.7164 22.5961C26.7164 22.6133 26.7156 22.632 26.7141 22.6523C26.7125 22.6711 26.7094 22.6914 26.7047 22.7133C26.6938 22.7711 26.65 22.8461 26.5734 22.9383C26.4969 23.0305 26.4156 23.1195 26.3297 23.2055C26.2906 23.2445 26.2438 23.2914 26.1891 23.3461C26.1344 23.3992 26.0867 23.4484 26.0461 23.4937C26.0055 23.5375 25.9852 23.5672 25.9852 23.5828C25.9852 23.6047 25.993 23.6156 26.0086 23.6156C26.1211 23.5672 26.2484 23.5078 26.3906 23.4375C26.5328 23.3656 26.6703 23.2937 26.8031 23.2219C26.9359 23.15 27.0445 23.0898 27.1289 23.0414C27.1617 23.0227 27.1898 23.0133 27.2133 23.0133C27.2789 23.0133 27.3117 23.0477 27.3117 23.1164C27.3117 23.1523 27.2961 23.1937 27.2648 23.2406C27.2352 23.2859 27.1844 23.3336 27.1125 23.3836C27.0453 23.4258 26.9531 23.4844 26.8359 23.5594C26.7203 23.6328 26.6055 23.7023 26.4914 23.768C26.3789 23.832 26.2711 23.8867 26.168 23.932C26.0664 23.9773 25.9813 24 25.9125 24C25.8047 24 25.7234 23.9742 25.6688 23.9227C25.6156 23.8711 25.5891 23.8047 25.5891 23.7234C25.5891 23.7094 25.5898 23.7 25.5914 23.6953C25.6086 23.5953 25.6445 23.4984 25.6992 23.4047C25.7539 23.3109 25.8109 23.225 25.8703 23.1469C25.9297 23.0703 25.982 22.9992 26.0273 22.9336C26.0742 22.868 26.0977 22.8117 26.0977 22.7648C26.0977 22.7414 26.0891 22.7297 26.0719 22.7297C26.0469 22.7297 26.0016 22.7422 25.9359 22.7672C25.8703 22.7906 25.8055 22.8219 25.7414 22.8609C25.6773 22.9 25.6336 22.9414 25.6102 22.9852C25.5789 23.0398 25.5391 23.1164 25.4906 23.2148C25.4438 23.3117 25.3969 23.4109 25.35 23.5125C25.3047 23.6141 25.2664 23.6984 25.2352 23.7656C25.2008 23.8516 25.1438 23.9219 25.0641 23.9766C24.9859 24.0313 24.9141 24.0586 24.8484 24.0586ZM27.368 24.0586C27.243 24.0586 27.1359 24.0281 27.0469 23.9672C26.9594 23.9047 26.8922 23.8234 26.8453 23.7234C26.8 23.6219 26.7773 23.5133 26.7773 23.3977C26.7773 23.2961 26.8063 23.1828 26.8641 23.0578C26.9234 22.9312 27.0078 22.8102 27.1172 22.6945C27.2266 22.5789 27.357 22.4836 27.5086 22.4086C27.6617 22.332 27.8281 22.2937 28.0078 22.2937C28.1375 22.2937 28.2344 22.325 28.2984 22.3875C28.3625 22.45 28.3945 22.5367 28.3945 22.6477C28.3945 22.7133 28.3773 22.782 28.343 22.8539C28.3086 22.9258 28.2492 22.9984 28.1648 23.0719C28.0805 23.1469 27.9672 23.2234 27.825 23.3016C27.6844 23.3781 27.5078 23.4555 27.2953 23.5336C27.3125 23.6305 27.3906 23.6789 27.5297 23.6789C27.6375 23.6789 27.7539 23.657 27.8789 23.6133C28.0039 23.568 28.1242 23.5164 28.2398 23.4586C28.3555 23.4023 28.4547 23.3492 28.5375 23.2992C28.6203 23.2492 28.6695 23.2211 28.6852 23.2148C28.6992 23.2055 28.7117 23.2 28.7227 23.1984C28.7352 23.1969 28.7461 23.1961 28.7555 23.1961C28.793 23.1961 28.8188 23.2109 28.8328 23.2406C28.8484 23.2687 28.8563 23.2922 28.8563 23.3109C28.8563 23.325 28.8547 23.3422 28.8516 23.3625C28.8484 23.3812 28.8367 23.4031 28.8164 23.4281C28.7961 23.4484 28.7367 23.493 28.6383 23.5617C28.5398 23.6305 28.4344 23.6969 28.3219 23.7609C28.1844 23.8375 28.0313 23.9062 27.8625 23.9672C27.6938 24.0281 27.5289 24.0586 27.368 24.0586ZM27.2602 23.2641C27.3617 23.2109 27.4648 23.1492 27.5695 23.0789C27.6758 23.007 27.7563 22.9547 27.8109 22.9219C27.8844 22.875 27.9328 22.8336 27.9563 22.7977C27.9828 22.7586 27.9961 22.7258 27.9961 22.6992C27.9961 22.6758 27.9883 22.657 27.9727 22.643C27.9586 22.6289 27.9422 22.6203 27.9234 22.6172L27.9023 22.6148H27.8813C27.7953 22.6148 27.7156 22.6398 27.6422 22.6898C27.5703 22.7383 27.5094 22.7992 27.4594 22.8727C27.4063 22.9492 27.3633 23.0211 27.3305 23.0883C27.2992 23.1555 27.2758 23.2141 27.2602 23.2641ZM30.975 24.0469C30.7844 24.0469 30.6219 24.0313 30.4875 24C30.3547 23.9703 30.2453 23.9289 30.1594 23.8758C30.0734 23.8242 30.0109 23.7648 29.9719 23.6977C29.9328 23.6289 29.9133 23.557 29.9133 23.482C29.9133 23.3211 29.9898 23.1656 30.143 23.0156C30.2164 22.9437 30.3031 22.8797 30.4031 22.8234C30.5047 22.7672 30.6164 22.7242 30.7383 22.6945C30.7836 22.6945 30.8164 22.7133 30.8367 22.7508C30.8586 22.7867 30.8695 22.8281 30.8695 22.875C30.8695 22.9203 30.8586 22.9562 30.8367 22.9828C30.8148 23.0078 30.7648 23.0367 30.6867 23.0695C30.5992 23.107 30.5305 23.1523 30.4805 23.2055C30.4305 23.257 30.4055 23.3086 30.4055 23.3602C30.4055 23.4258 30.4508 23.4836 30.5414 23.5336C30.6336 23.582 30.7836 23.6062 30.9914 23.6062C31.1352 23.6062 31.2672 23.5836 31.3875 23.5383C31.5094 23.493 31.607 23.4312 31.6805 23.3531C31.7539 23.2734 31.7906 23.1836 31.7906 23.0836C31.7906 23.0273 31.7672 22.9687 31.7203 22.9078C31.6734 22.8469 31.5992 22.7836 31.4977 22.718C31.407 22.6586 31.3273 22.6055 31.2586 22.5586C31.1914 22.5117 31.1352 22.4703 31.0898 22.4344L30.9164 22.2984C30.7992 22.1953 30.7117 22.0961 30.6539 22.0008C30.5961 21.9055 30.5672 21.8062 30.5672 21.7031C30.5672 21.5625 30.6164 21.4273 30.7148 21.2977C30.8133 21.1664 30.9398 21.0492 31.0945 20.9461C31.2492 20.8445 31.4141 20.7648 31.5891 20.707C31.7641 20.6477 31.9258 20.618 32.0742 20.618C32.2273 20.618 32.3547 20.6539 32.4563 20.7258C32.5594 20.7977 32.6109 20.9141 32.6109 21.075C32.6109 21.3141 32.475 21.525 32.2031 21.7078C32.1422 21.75 32.0859 21.7711 32.0344 21.7711C31.9813 21.7711 31.9391 21.7523 31.9078 21.7148C31.8766 21.6758 31.8609 21.6305 31.8609 21.5789C31.8609 21.5352 31.8734 21.4914 31.8984 21.4477C31.925 21.4039 31.9672 21.3664 32.025 21.3352C32.0703 21.3117 32.1102 21.2805 32.1445 21.2414C32.1805 21.2008 32.1984 21.1617 32.1984 21.1242C32.1984 21.0883 32.1859 21.0648 32.1609 21.0539C32.1375 21.043 32.1086 21.0375 32.0742 21.0375C31.9773 21.0375 31.8688 21.0547 31.7484 21.0891C31.6281 21.1234 31.5133 21.1703 31.4039 21.2297C31.2883 21.2922 31.1961 21.3602 31.1273 21.4336C31.0602 21.507 31.0266 21.5797 31.0266 21.6516C31.0266 21.7187 31.0539 21.7805 31.1086 21.8367C31.1648 21.893 31.2438 21.9586 31.3453 22.0336L31.8938 22.4391C32.0281 22.5391 32.1359 22.6375 32.2172 22.7344C32.2984 22.8297 32.3391 22.9336 32.3391 23.0461C32.3391 23.2117 32.282 23.3711 32.168 23.5242C32.0555 23.6773 31.8969 23.8031 31.6922 23.9016C31.4891 23.9984 31.25 24.0469 30.975 24.0469ZM32.8758 24.0586C32.8133 24.0586 32.7422 24.0414 32.6625 24.007C32.5844 23.9742 32.5164 23.9211 32.4586 23.8477C32.4008 23.7742 32.3719 23.6773 32.3719 23.557C32.3719 23.4602 32.3945 23.3414 32.4398 23.2008C32.4867 23.0602 32.5578 22.9211 32.6531 22.7836C32.75 22.6445 32.8742 22.5289 33.0258 22.4367C33.1773 22.343 33.3531 22.2961 33.5531 22.2961C33.6328 22.2961 33.7172 22.3109 33.8063 22.3406C33.8969 22.3703 33.9742 22.4203 34.0383 22.4906C34.1023 22.5594 34.1344 22.6547 34.1344 22.7766C34.1344 22.8766 34.1094 22.993 34.0594 23.1258C34.0875 23.1602 34.1273 23.1773 34.1789 23.1773C34.2273 23.1773 34.2836 23.1578 34.3477 23.1187C34.4117 23.0797 34.475 23.032 34.5375 22.9758C34.6016 22.9195 34.6594 22.8633 34.7109 22.807C34.7641 22.7508 34.8055 22.7055 34.8352 22.6711C34.8461 22.6602 34.8594 22.6547 34.875 22.6547C34.9094 22.6547 34.9344 22.6766 34.95 22.7203C34.9656 22.7641 34.9625 22.8195 34.9406 22.8867C34.9188 22.9523 34.868 23.0203 34.7883 23.0906C34.7414 23.1406 34.6836 23.2023 34.6148 23.2758C34.5477 23.3477 34.4742 23.4117 34.3945 23.468C34.3164 23.5227 34.2367 23.55 34.1555 23.55C34.0727 23.55 33.9945 23.5234 33.9211 23.4703C33.8055 23.6516 33.6586 23.7953 33.4805 23.9016C33.3023 24.0063 33.1008 24.0586 32.8758 24.0586ZM33.0797 23.6484C33.1781 23.6484 33.2703 23.6156 33.3563 23.55C33.4422 23.4844 33.5117 23.4016 33.5648 23.3016C33.618 23.2016 33.6445 23.0992 33.6445 22.9945C33.6445 22.9539 33.6398 22.9117 33.6305 22.868C33.6227 22.8227 33.6039 22.7852 33.5742 22.7555C33.5445 22.7242 33.4969 22.7086 33.4313 22.7086C33.3344 22.7086 33.243 22.7398 33.157 22.8023C33.0711 22.8633 33.0008 22.943 32.9461 23.0414C32.893 23.1383 32.8664 23.2398 32.8664 23.3461C32.8664 23.3852 32.8711 23.4289 32.8805 23.4773C32.8898 23.5242 32.9094 23.5648 32.9391 23.5992C32.9703 23.632 33.0172 23.6484 33.0797 23.6484ZM34.7297 24.0586C34.6016 24.0586 34.5133 24.0266 34.4648 23.9625C34.418 23.8984 34.3945 23.8203 34.3945 23.7281C34.3945 23.6516 34.4055 23.5734 34.4273 23.4937C34.4508 23.4125 34.4781 23.3383 34.5094 23.2711C34.5641 23.1492 34.6195 23.0281 34.6758 22.9078C34.732 22.7875 34.7836 22.6773 34.8305 22.5773L35.5406 21.0656C35.5766 20.9875 35.6305 20.9367 35.7023 20.9133C35.7742 20.8898 35.8398 20.8922 35.8992 20.9203C35.9602 20.9469 35.9906 20.9961 35.9906 21.068C35.9906 21.0961 35.9836 21.1258 35.9695 21.157C35.957 21.1883 35.9406 21.2219 35.9203 21.2578C35.8641 21.3641 35.7922 21.5039 35.7047 21.6773C35.6188 21.8508 35.5234 22.0461 35.4188 22.2633C35.3047 22.5023 35.2086 22.7031 35.1305 22.8656C35.0539 23.0266 34.982 23.1789 34.9148 23.3227C34.8977 23.3586 34.8805 23.4008 34.8633 23.4492C34.8477 23.4961 34.8398 23.5383 34.8398 23.5758C34.8398 23.6273 34.8625 23.6531 34.9078 23.6531C34.9578 23.6531 35.0242 23.6328 35.107 23.5922C35.1914 23.55 35.2789 23.4977 35.3695 23.4352C35.4617 23.3742 35.5508 23.3109 35.6367 23.2453C35.7227 23.1781 35.8023 23.1133 35.8758 23.0508C35.9008 23.0305 35.9305 23.0203 35.9648 23.0203C36.0367 23.0203 36.0727 23.0602 36.0727 23.1398C36.0727 23.1727 36.0617 23.2094 36.0398 23.25C36.018 23.2906 35.9797 23.3305 35.925 23.3695C35.825 23.4617 35.7242 23.5492 35.6227 23.632C35.5227 23.7133 35.4219 23.7859 35.3203 23.85C35.2203 23.9125 35.1203 23.9625 35.0203 24C34.9203 24.0391 34.8234 24.0586 34.7297 24.0586ZM36.0375 24.0586C35.9359 24.0586 35.8445 24.0344 35.7633 23.9859C35.6836 23.9375 35.6438 23.8461 35.6438 23.7117C35.6438 23.7008 35.6484 23.6695 35.6578 23.618C35.6688 23.5664 35.6875 23.5008 35.7141 23.4211C35.7469 23.3227 35.7984 23.1945 35.8688 23.0367C35.9391 22.8789 36.0383 22.6875 36.1664 22.4625C36.1992 22.4031 36.2367 22.3609 36.2789 22.3359C36.3227 22.3094 36.3695 22.2961 36.4195 22.2961C36.4695 22.2961 36.5156 22.3086 36.5578 22.3336C36.6 22.357 36.6211 22.3914 36.6211 22.4367C36.6211 22.4523 36.6188 22.4672 36.6141 22.4812C36.6031 22.5172 36.5734 22.5727 36.525 22.6477C36.4781 22.7227 36.425 22.8109 36.3656 22.9125C36.3078 23.0078 36.2555 23.1102 36.2086 23.2195C36.1633 23.3289 36.1383 23.432 36.1336 23.5289C36.1336 23.557 36.1414 23.5828 36.157 23.6062C36.1727 23.6297 36.1984 23.6414 36.2344 23.6414C36.3359 23.6414 36.432 23.6141 36.5227 23.5594C36.6148 23.5031 36.7008 23.4328 36.7805 23.3484C36.8602 23.2625 36.9313 23.1719 36.9938 23.0766C37.0563 22.9812 37.1086 22.8937 37.1508 22.8141C37.1898 22.7437 37.2242 22.6687 37.2539 22.5891C37.2836 22.5078 37.3188 22.4383 37.3594 22.3805C37.4 22.3227 37.4547 22.2937 37.5234 22.2937C37.5797 22.2937 37.6242 22.3117 37.657 22.3477C37.6898 22.3836 37.7063 22.4266 37.7063 22.4766C37.7063 22.5172 37.6836 22.5828 37.6383 22.6734C37.5945 22.7625 37.5453 22.8594 37.4906 22.9641C37.4328 23.0734 37.382 23.1852 37.3383 23.2992C37.2961 23.4117 37.275 23.5117 37.275 23.5992C37.275 23.6555 37.3094 23.6836 37.3781 23.6836C37.4828 23.6836 37.6188 23.6297 37.7859 23.5219C37.8641 23.4719 37.9422 23.4125 38.0203 23.3437C38.1 23.275 38.1703 23.2008 38.2313 23.1211L38.2547 23.4398C38.15 23.5602 38.0234 23.6719 37.875 23.775C37.7281 23.8766 37.5852 23.9531 37.4461 24.0047C37.3023 24.0594 37.182 24.0719 37.0852 24.0422C36.9883 24.0125 36.9398 23.925 36.9398 23.7797C36.9398 23.7062 36.9523 23.6227 36.9773 23.5289C36.9242 23.6086 36.8531 23.6898 36.7641 23.7727C36.675 23.8539 36.5695 23.9219 36.4477 23.9766C36.3273 24.0313 36.1906 24.0586 36.0375 24.0586ZM38.1211 24.0586C37.9977 24.0586 37.9117 24.0281 37.8633 23.9672C37.8148 23.9062 37.7906 23.8312 37.7906 23.7422C37.7906 23.6641 37.8039 23.5828 37.8305 23.4984C37.857 23.4141 37.8867 23.3383 37.9195 23.2711L38.1938 22.7086H38.093C38.0055 22.7086 37.9453 22.6945 37.9125 22.6664C37.8797 22.6383 37.8633 22.6062 37.8633 22.5703C37.8633 22.5344 37.8836 22.4937 37.9242 22.4484C37.9648 22.4016 38.0203 22.3781 38.0906 22.3781H38.3438L38.8383 21.3961C38.8695 21.3367 38.9078 21.2945 38.9531 21.2695C39 21.243 39.0484 21.2297 39.0984 21.2297C39.1453 21.2297 39.1883 21.2422 39.2273 21.2672C39.2664 21.2922 39.2859 21.3336 39.2859 21.3914C39.2859 21.4211 39.2789 21.4516 39.2648 21.4828C39.2523 21.5125 39.2352 21.5477 39.2133 21.5883C39.1883 21.6352 39.1547 21.6984 39.1125 21.7781C39.0703 21.8562 39.018 21.9508 38.9555 22.0617L38.7867 22.3781H39.5508C39.6258 22.3781 39.6867 22.3883 39.7336 22.4086C39.782 22.4273 39.8063 22.4703 39.8063 22.5375C39.8063 22.5719 39.7938 22.6055 39.7688 22.6383C39.7438 22.6711 39.6898 22.6906 39.607 22.6969H38.632L38.468 23.025L38.3227 23.3227C38.3039 23.3602 38.2852 23.4039 38.2664 23.4539C38.2492 23.5023 38.2406 23.5453 38.2406 23.5828C38.2406 23.6297 38.2625 23.6531 38.3063 23.6531C38.3563 23.6531 38.4234 23.632 38.5078 23.5898C38.5922 23.5477 38.6813 23.4961 38.775 23.4352C38.8703 23.3742 38.9617 23.3109 39.0492 23.2453C39.1367 23.1781 39.2172 23.1133 39.2906 23.0508C39.3172 23.0336 39.3406 23.025 39.3609 23.025C39.3953 23.025 39.4211 23.0437 39.4383 23.0812C39.4555 23.1187 39.457 23.1641 39.443 23.2172C39.4305 23.2703 39.3938 23.3211 39.3328 23.3695C39.2313 23.4617 39.1281 23.5492 39.0234 23.632C38.9203 23.7133 38.818 23.7859 38.7164 23.85C38.6133 23.9125 38.5117 23.9625 38.4117 24C38.3117 24.0391 38.2148 24.0586 38.1211 24.0586ZM40.0055 22.1391C39.9086 22.1391 39.8406 22.1242 39.8016 22.0945C39.7625 22.0633 39.7406 22.0227 39.7359 21.9727C39.7359 21.8992 39.7625 21.8273 39.8156 21.757C39.8703 21.6852 39.9508 21.6492 40.057 21.6492C40.1477 21.6492 40.2109 21.6672 40.2469 21.7031C40.2828 21.7375 40.3008 21.7812 40.3008 21.8344C40.3008 21.8937 40.2773 21.9594 40.2305 22.0312C40.1852 22.1031 40.1102 22.1391 40.0055 22.1391ZM39.4313 24.0586C39.3047 24.0586 39.2047 24.0266 39.1313 23.9625C39.0594 23.8969 39.0234 23.7953 39.0234 23.6578C39.0234 23.5625 39.0406 23.468 39.075 23.3742C39.1109 23.2789 39.15 23.1898 39.1922 23.107C39.2359 23.0227 39.2703 22.9492 39.2953 22.8867C39.3031 22.8664 39.3164 22.8352 39.3352 22.793C39.3555 22.7508 39.3766 22.7078 39.3984 22.6641L39.4781 22.5C39.5047 22.4562 39.5352 22.425 39.5695 22.4062C39.6039 22.3875 39.6391 22.3781 39.675 22.3781C39.7344 22.3781 39.7852 22.3977 39.8273 22.4367C39.8711 22.4742 39.893 22.5227 39.893 22.582C39.8914 22.5961 39.8891 22.6102 39.8859 22.6242C39.8844 22.6383 39.8797 22.6523 39.8719 22.6664C39.8375 22.7289 39.8078 22.7875 39.7828 22.8422C39.7578 22.8953 39.732 22.9492 39.7055 23.0039C39.6836 23.0492 39.6563 23.1047 39.6234 23.1703C39.5906 23.2359 39.5617 23.3023 39.5367 23.3695C39.5117 23.4352 39.4992 23.4937 39.4992 23.5453C39.4992 23.5875 39.5094 23.6156 39.5297 23.6297C39.5516 23.6422 39.582 23.6484 39.6211 23.6484C39.6836 23.6484 39.7523 23.6289 39.8273 23.5898C39.9039 23.5508 39.9766 23.5023 40.0453 23.4445C40.1172 23.3867 40.1836 23.3281 40.2445 23.2687C40.3055 23.2078 40.3508 23.1586 40.3805 23.1211C40.4102 23.0914 40.4414 23.0766 40.4742 23.0766C40.5023 23.0766 40.525 23.0891 40.5422 23.1141C40.5609 23.1391 40.5703 23.1711 40.5703 23.2102C40.5703 23.2461 40.5609 23.2844 40.5422 23.325C40.525 23.3656 40.4961 23.4039 40.4555 23.4398C40.3523 23.5445 40.2445 23.6445 40.132 23.7398C40.0195 23.8336 39.9039 23.9102 39.7852 23.9695C39.668 24.0289 39.55 24.0586 39.4313 24.0586ZM40.6383 24.0586C40.5758 24.0586 40.5047 24.0414 40.425 24.007C40.3469 23.9742 40.2789 23.9211 40.2211 23.8477C40.1633 23.7742 40.1344 23.6773 40.1344 23.557C40.1344 23.4602 40.157 23.3414 40.2023 23.2008C40.2492 23.0602 40.3203 22.9211 40.4156 22.7836C40.5125 22.6445 40.6367 22.5289 40.7883 22.4367C40.9398 22.343 41.1156 22.2961 41.3156 22.2961C41.3953 22.2961 41.4797 22.3109 41.5688 22.3406C41.6594 22.3703 41.7367 22.4203 41.8008 22.4906C41.8648 22.5594 41.8969 22.6547 41.8969 22.7766C41.8969 22.8766 41.8719 22.993 41.8219 23.1258C41.85 23.1602 41.8898 23.1773 41.9414 23.1773C41.9898 23.1773 42.0461 23.1578 42.1102 23.1187C42.1742 23.0797 42.2375 23.032 42.3 22.9758C42.3641 22.9195 42.4219 22.8633 42.4734 22.807C42.5266 22.7508 42.568 22.7055 42.5977 22.6711C42.6086 22.6602 42.6219 22.6547 42.6375 22.6547C42.6719 22.6547 42.6969 22.6766 42.7125 22.7203C42.7281 22.7641 42.725 22.8195 42.7031 22.8867C42.6813 22.9523 42.6305 23.0203 42.5508 23.0906C42.5039 23.1406 42.4461 23.2023 42.3773 23.2758C42.3102 23.3477 42.2367 23.4117 42.157 23.468C42.0789 23.5227 41.9992 23.55 41.918 23.55C41.8352 23.55 41.757 23.5234 41.6836 23.4703C41.568 23.6516 41.4211 23.7953 41.243 23.9016C41.0648 24.0063 40.8633 24.0586 40.6383 24.0586ZM40.8422 23.6484C40.9406 23.6484 41.0328 23.6156 41.1188 23.55C41.2047 23.4844 41.2742 23.4016 41.3273 23.3016C41.3805 23.2016 41.407 23.0992 41.407 22.9945C41.407 22.9539 41.4023 22.9117 41.393 22.868C41.3852 22.8227 41.3664 22.7852 41.3367 22.7555C41.307 22.7242 41.2594 22.7086 41.1938 22.7086C41.0969 22.7086 41.0055 22.7398 40.9195 22.8023C40.8336 22.8633 40.7633 22.943 40.7086 23.0414C40.6555 23.1383 40.6289 23.2398 40.6289 23.3461C40.6289 23.3852 40.6336 23.4289 40.643 23.4773C40.6523 23.5242 40.6719 23.5648 40.7016 23.5992C40.7328 23.632 40.7797 23.6484 40.8422 23.6484ZM42.2531 24.0586C42.1984 24.0586 42.1555 24.0414 42.1242 24.007C42.093 23.9727 42.0773 23.9305 42.0773 23.8805C42.0773 23.8398 42.1008 23.7641 42.1477 23.6531C42.1945 23.5406 42.2492 23.4203 42.3117 23.2922C42.3914 23.125 42.4617 22.9805 42.5227 22.8586C42.5836 22.7352 42.6289 22.6414 42.6586 22.5773C42.6898 22.5102 42.7289 22.4602 42.7758 22.4273C42.8227 22.3945 42.8688 22.3781 42.9141 22.3781C42.9516 22.3781 42.9852 22.3922 43.0148 22.4203C43.0445 22.4469 43.0594 22.4867 43.0594 22.5398C43.0594 22.5602 43.057 22.582 43.0523 22.6055C43.0477 22.6289 43.0391 22.6539 43.0266 22.6805C43.075 22.6195 43.1469 22.5602 43.2422 22.5023C43.3375 22.443 43.4406 22.3937 43.5516 22.3547C43.6625 22.3156 43.7648 22.2961 43.8586 22.2961C43.9414 22.2961 44.0102 22.3164 44.0648 22.357C44.1211 22.3961 44.1492 22.4633 44.1492 22.5586C44.1492 22.6398 44.1313 22.7281 44.0953 22.8234C44.0594 22.9172 44.0164 23.0078 43.9664 23.0953C43.9133 23.1875 43.8633 23.2687 43.8164 23.3391C43.7711 23.4078 43.7359 23.4648 43.7109 23.5102C43.6906 23.5352 43.6805 23.5641 43.6805 23.5969C43.6805 23.6281 43.6969 23.6437 43.7297 23.6437C43.7406 23.6437 43.7531 23.643 43.7672 23.6414C43.7813 23.6383 43.7984 23.6297 43.8188 23.6156C43.9359 23.5719 44.0523 23.5164 44.168 23.4492C44.2852 23.382 44.3922 23.3125 44.4891 23.2406C44.5875 23.1687 44.6664 23.1055 44.7258 23.0508C44.7508 23.0305 44.775 23.0203 44.7984 23.0203C44.8547 23.0203 44.8828 23.0562 44.8828 23.1281C44.8828 23.1766 44.8672 23.2305 44.8359 23.2898C44.8063 23.3492 44.7586 23.4047 44.693 23.4562C44.5789 23.5375 44.4719 23.6133 44.3719 23.6836C44.2734 23.7523 44.1688 23.8148 44.0578 23.8711C43.9469 23.9273 43.8148 23.9773 43.6617 24.0211C43.582 24.0461 43.5141 24.0586 43.4578 24.0586C43.2984 24.0586 43.2188 23.9711 43.2188 23.7961C43.2188 23.7852 43.2188 23.775 43.2188 23.7656C43.2203 23.7547 43.2219 23.743 43.2234 23.7305C43.2281 23.6602 43.2531 23.5789 43.2984 23.4867C43.3438 23.393 43.393 23.3008 43.4461 23.2102C43.4992 23.1227 43.5469 23.0406 43.5891 22.9641C43.6313 22.8875 43.6523 22.8305 43.6523 22.793C43.6523 22.7367 43.6258 22.7086 43.5727 22.7086C43.4742 22.7086 43.3797 22.7375 43.2891 22.7953C43.2 22.8531 43.1156 22.9266 43.0359 23.0156C42.9578 23.1031 42.8859 23.1953 42.8203 23.2922C42.7547 23.3875 42.6969 23.4742 42.6469 23.5523C42.6109 23.6117 42.5758 23.6812 42.5414 23.7609C42.5086 23.8406 42.4695 23.9102 42.4242 23.9695C42.3805 24.0289 42.3234 24.0586 42.2531 24.0586ZM44.918 24.0586C44.7539 24.0586 44.6047 24.0219 44.4703 23.9484C44.3359 23.8734 44.25 23.7555 44.2125 23.5945C44.2094 23.5789 44.2078 23.5687 44.2078 23.5641C44.2078 23.5219 44.2227 23.4859 44.2523 23.4562C44.282 23.425 44.3148 23.4094 44.3508 23.4094C44.368 23.4094 44.3867 23.4125 44.407 23.4187C44.4289 23.425 44.4453 23.4391 44.4563 23.4609C44.4969 23.5344 44.5664 23.5937 44.6648 23.6391C44.7648 23.6828 44.8625 23.7047 44.9578 23.7047C45.0594 23.7047 45.1477 23.6852 45.2227 23.6461C45.2992 23.607 45.3375 23.543 45.3375 23.4539C45.3375 23.3445 45.3063 23.2477 45.2438 23.1633C45.1828 23.0789 45.1055 23.0031 45.0117 22.9359C44.9195 22.8672 44.8266 22.8039 44.7328 22.7461C44.725 22.7414 44.7133 22.7281 44.6977 22.7062C44.682 22.6828 44.6742 22.6594 44.6742 22.6359C44.6742 22.6172 44.6789 22.6023 44.6883 22.5914C44.7383 22.5242 44.8023 22.4586 44.8805 22.3945C44.9586 22.3305 45.0445 22.2984 45.1383 22.2984C45.207 22.2984 45.2633 22.3156 45.307 22.35C45.3523 22.3828 45.375 22.4156 45.375 22.4484C45.375 22.4922 45.3547 22.5336 45.3141 22.5727C45.2734 22.6102 45.2313 22.6461 45.1875 22.6805C45.3734 22.7773 45.5211 22.9008 45.6305 23.0508C45.7398 23.1992 45.7945 23.3445 45.7945 23.4867C45.7945 23.607 45.7508 23.7102 45.6633 23.7961C45.5773 23.8805 45.4672 23.9453 45.3328 23.9906C45.2 24.0359 45.0617 24.0586 44.918 24.0586ZM47.7844 24.0891C47.6891 24.0891 47.625 24.0633 47.5922 24.0117C47.5609 23.9617 47.5453 23.9102 47.5453 23.857C47.5453 23.8195 47.5508 23.7812 47.5617 23.7422C47.5742 23.7031 47.5891 23.6672 47.6063 23.6344L48.5039 21.982C48.5758 21.857 48.6406 21.7781 48.6984 21.7453C48.7578 21.7109 48.8094 21.6937 48.8531 21.6937C48.8813 21.6937 48.907 21.7039 48.9305 21.7242C48.9539 21.743 48.9656 21.7781 48.9656 21.8297C48.9656 21.8781 48.9523 21.9469 48.9258 22.0359C48.9008 22.1219 48.8516 22.2344 48.7781 22.3734C48.9453 22.3609 49.1047 22.3281 49.2563 22.275C49.4078 22.2203 49.532 22.1445 49.6289 22.0477C49.7258 21.9508 49.7742 21.8328 49.7742 21.6937C49.7742 21.5672 49.7469 21.4508 49.6922 21.3445C49.6391 21.2367 49.5609 21.1508 49.4578 21.0867C49.3547 21.0211 49.2289 20.9883 49.0805 20.9883C48.9273 20.9883 48.7953 21.0031 48.6844 21.0328C48.575 21.0609 48.4813 21.0984 48.4031 21.1453C48.3234 21.1922 48.257 21.2461 48.2039 21.307C48.1508 21.368 48.1055 21.4297 48.068 21.4922C48.018 21.5734 47.9734 21.6531 47.9344 21.7312C47.8969 21.8078 47.8539 21.8711 47.8055 21.9211C47.7586 21.9711 47.6945 21.9961 47.6133 21.9961C47.4633 21.9961 47.3883 21.9211 47.3883 21.7711C47.3883 21.6227 47.4633 21.4586 47.6133 21.2789C47.6852 21.193 47.7719 21.1109 47.8734 21.0328C47.9766 20.9531 48.0922 20.8828 48.2203 20.8219C48.3484 20.7609 48.4875 20.7125 48.6375 20.6766C48.7891 20.6391 48.9484 20.6203 49.1156 20.6203C49.325 20.6203 49.5203 20.6602 49.7016 20.7398C49.8844 20.818 50.032 20.9367 50.1445 21.0961C50.2586 21.2539 50.3156 21.4523 50.3156 21.6914C50.3156 21.8555 50.2766 22.0031 50.1984 22.1344C50.1203 22.2656 50.0141 22.3773 49.8797 22.4695C49.6016 22.6602 49.2625 22.7555 48.8625 22.7555C48.8219 22.7555 48.7805 22.7547 48.7383 22.7531C48.6977 22.7516 48.657 22.7477 48.6164 22.7414C48.5742 22.8352 48.525 22.9547 48.4688 23.1C48.4125 23.2453 48.3453 23.4 48.2672 23.5641C48.1953 23.7109 48.118 23.8352 48.0352 23.9367C47.9523 24.0383 47.8688 24.0891 47.7844 24.0891ZM50.2336 24.0586C50.1805 24.0586 50.1172 24.0438 50.0438 24.0141C49.9703 23.9844 49.9055 23.9352 49.8492 23.8664C49.7945 23.7977 49.7672 23.7055 49.7672 23.5898C49.7672 23.493 49.7891 23.3719 49.8328 23.2266C49.8766 23.0812 49.9453 22.9383 50.0391 22.7977C50.1328 22.6539 50.2523 22.5344 50.3977 22.4391C50.5445 22.3437 50.7141 22.2961 50.9063 22.2961C50.975 22.2961 51.0352 22.3047 51.0867 22.3219C51.1383 22.3391 51.182 22.3578 51.218 22.3781C51.2383 22.3906 51.257 22.4039 51.2742 22.418C51.293 22.4305 51.3102 22.4445 51.3258 22.4602L51.4078 22.4203C51.4313 22.4094 51.4555 22.4 51.4805 22.3922C51.507 22.3828 51.5297 22.3781 51.5484 22.3781C51.6078 22.3781 51.6563 22.3945 51.6938 22.4273C51.7313 22.4602 51.75 22.4961 51.75 22.5352C51.75 22.5477 51.7492 22.5562 51.7477 22.5609C51.7367 22.6047 51.7164 22.6648 51.6867 22.7414C51.6586 22.818 51.6281 22.9031 51.5953 22.9969C51.5625 23.0875 51.5344 23.175 51.5109 23.2594C51.4891 23.3437 51.4781 23.4133 51.4781 23.468C51.4781 23.5148 51.4859 23.5539 51.5016 23.5852C51.5172 23.6148 51.5438 23.6297 51.5813 23.6297C51.6266 23.6297 51.6875 23.6039 51.7641 23.5523C51.8406 23.4992 51.9195 23.4367 52.0008 23.3648C52.0445 23.3258 52.0898 23.2844 52.1367 23.2406C52.1836 23.1953 52.2313 23.1477 52.2797 23.0977C52.3047 23.0773 52.3289 23.0672 52.3523 23.0672C52.3836 23.0672 52.4094 23.0828 52.4297 23.1141C52.4516 23.1437 52.4625 23.1773 52.4625 23.2148C52.4625 23.2586 52.4477 23.2953 52.418 23.325C52.3555 23.3828 52.2914 23.4445 52.2258 23.5102C52.1602 23.5758 52.0695 23.6562 51.9539 23.7516C51.8508 23.8359 51.7445 23.9086 51.6352 23.9695C51.5258 24.0289 51.4273 24.0586 51.3398 24.0586C51.2305 24.0586 51.1508 24.0164 51.1008 23.932C51.0508 23.8461 51.0258 23.7547 51.0258 23.6578C51.0258 23.5875 51.0359 23.525 51.0563 23.4703C50.9922 23.5562 50.9164 23.6453 50.8289 23.7375C50.7414 23.8281 50.6469 23.9047 50.5453 23.9672C50.4438 24.0281 50.3398 24.0586 50.2336 24.0586ZM50.4211 23.6461C50.4711 23.6461 50.5336 23.6141 50.6086 23.55C50.6852 23.4859 50.7586 23.4109 50.8289 23.325C50.907 23.2312 50.9688 23.1461 51.0141 23.0695C51.0594 22.993 51.082 22.9414 51.082 22.9148C51.082 22.8555 51.0477 22.8086 50.9789 22.7742C50.9102 22.7383 50.8484 22.7203 50.7938 22.7203C50.6969 22.7203 50.6047 22.7516 50.5172 22.8141C50.4313 22.8766 50.3609 22.957 50.3063 23.0555C50.2516 23.1523 50.2242 23.2531 50.2242 23.3578C50.2242 23.4187 50.2352 23.482 50.257 23.5477C50.2805 23.6133 50.3352 23.6461 50.4211 23.6461ZM52.0453 24.0586C51.9672 24.0586 51.9281 24.0188 51.9281 23.9391C51.9281 23.9219 51.9305 23.9008 51.9352 23.8758C51.9414 23.8492 51.9531 23.8203 51.9703 23.7891C51.9969 23.7391 52.0258 23.6805 52.057 23.6133C52.0883 23.5445 52.1211 23.4734 52.1555 23.4C52.193 23.3203 52.2359 23.2289 52.2844 23.1258C52.3344 23.0211 52.393 22.9008 52.4602 22.7648C52.4383 22.7461 52.4195 22.7234 52.4039 22.6969C52.3898 22.6687 52.3828 22.6344 52.3828 22.5937C52.3828 22.5203 52.4109 22.4664 52.4672 22.432C52.525 22.3961 52.5938 22.3781 52.6734 22.3781C52.7516 22.3781 52.8273 22.3922 52.9008 22.4203C52.9758 22.4469 53.0133 22.4875 53.0133 22.5422C53.0133 22.5484 53.0078 22.5633 52.9969 22.5867C52.9875 22.6086 52.9828 22.6234 52.9828 22.6312C52.9828 22.6344 52.9836 22.6359 52.9852 22.6359H52.9875L52.9922 22.6336C53.1078 22.5617 53.232 22.5008 53.3648 22.4508C53.4977 22.4008 53.607 22.3758 53.693 22.3758C53.7633 22.3758 53.8172 22.393 53.8547 22.4273C53.8938 22.4602 53.9133 22.5164 53.9133 22.5961C53.9133 22.6133 53.9125 22.632 53.9109 22.6523C53.9094 22.6711 53.9063 22.6914 53.9016 22.7133C53.8906 22.7711 53.8469 22.8461 53.7703 22.9383C53.6938 23.0305 53.6125 23.1195 53.5266 23.2055C53.4875 23.2445 53.4406 23.2914 53.3859 23.3461C53.3313 23.3992 53.2836 23.4484 53.243 23.4937C53.2023 23.5375 53.182 23.5672 53.182 23.5828C53.182 23.6047 53.1898 23.6156 53.2055 23.6156C53.318 23.5672 53.4453 23.5078 53.5875 23.4375C53.7297 23.3656 53.8672 23.2937 54 23.2219C54.1328 23.15 54.2414 23.0898 54.3258 23.0414C54.3586 23.0227 54.3867 23.0133 54.4102 23.0133C54.4758 23.0133 54.5086 23.0477 54.5086 23.1164C54.5086 23.1523 54.493 23.1937 54.4617 23.2406C54.432 23.2859 54.3813 23.3336 54.3094 23.3836C54.2422 23.4258 54.15 23.4844 54.0328 23.5594C53.9172 23.6328 53.8023 23.7023 53.6883 23.768C53.5758 23.832 53.468 23.8867 53.3648 23.932C53.2633 23.9773 53.1781 24 53.1094 24C53.0016 24 52.9203 23.9742 52.8656 23.9227C52.8125 23.8711 52.7859 23.8047 52.7859 23.7234C52.7859 23.7094 52.7867 23.7 52.7883 23.6953C52.8055 23.5953 52.8414 23.4984 52.8961 23.4047C52.9508 23.3109 53.0078 23.225 53.0672 23.1469C53.1266 23.0703 53.1789 22.9992 53.2242 22.9336C53.2711 22.868 53.2945 22.8117 53.2945 22.7648C53.2945 22.7414 53.2859 22.7297 53.2688 22.7297C53.2438 22.7297 53.1984 22.7422 53.1328 22.7672C53.0672 22.7906 53.0023 22.8219 52.9383 22.8609C52.8742 22.9 52.8305 22.9414 52.807 22.9852C52.7758 23.0398 52.7359 23.1164 52.6875 23.2148C52.6406 23.3117 52.5938 23.4109 52.5469 23.5125C52.5016 23.6141 52.4633 23.6984 52.432 23.7656C52.3977 23.8516 52.3406 23.9219 52.2609 23.9766C52.1828 24.0313 52.1109 24.0586 52.0453 24.0586ZM54.3398 24.0586C54.2164 24.0586 54.1305 24.0281 54.082 23.9672C54.0336 23.9062 54.0094 23.8312 54.0094 23.7422C54.0094 23.6641 54.0227 23.5828 54.0492 23.4984C54.0758 23.4141 54.1055 23.3383 54.1383 23.2711L54.4125 22.7086H54.3117C54.2242 22.7086 54.1641 22.6945 54.1313 22.6664C54.0984 22.6383 54.082 22.6062 54.082 22.5703C54.082 22.5344 54.1023 22.4937 54.143 22.4484C54.1836 22.4016 54.2391 22.3781 54.3094 22.3781H54.5625L55.057 21.3961C55.0883 21.3367 55.1266 21.2945 55.1719 21.2695C55.2188 21.243 55.2672 21.2297 55.3172 21.2297C55.3641 21.2297 55.407 21.2422 55.4461 21.2672C55.4852 21.2922 55.5047 21.3336 55.5047 21.3914C55.5047 21.4211 55.4977 21.4516 55.4836 21.4828C55.4711 21.5125 55.4539 21.5477 55.432 21.5883C55.407 21.6352 55.3734 21.6984 55.3313 21.7781C55.2891 21.8562 55.2367 21.9508 55.1742 22.0617L55.0055 22.3781H55.7695C55.8445 22.3781 55.9055 22.3883 55.9523 22.4086C56.0008 22.4273 56.025 22.4703 56.025 22.5375C56.025 22.5719 56.0125 22.6055 55.9875 22.6383C55.9625 22.6711 55.9086 22.6906 55.8258 22.6969H54.8508L54.6867 23.025L54.5414 23.3227C54.5227 23.3602 54.5039 23.4039 54.4852 23.4539C54.468 23.5023 54.4594 23.5453 54.4594 23.5828C54.4594 23.6297 54.4813 23.6531 54.525 23.6531C54.575 23.6531 54.6422 23.632 54.7266 23.5898C54.8109 23.5477 54.9 23.4961 54.9938 23.4352C55.0891 23.3742 55.1805 23.3109 55.268 23.2453C55.3555 23.1781 55.4359 23.1133 55.5094 23.0508C55.5359 23.0336 55.5594 23.025 55.5797 23.025C55.6141 23.025 55.6398 23.0437 55.657 23.0812C55.6742 23.1187 55.6758 23.1641 55.6617 23.2172C55.6492 23.2703 55.6125 23.3211 55.5516 23.3695C55.45 23.4617 55.3469 23.5492 55.2422 23.632C55.1391 23.7133 55.0367 23.7859 54.9352 23.85C54.832 23.9125 54.7305 23.9625 54.6305 24C54.5305 24.0391 54.4336 24.0586 54.3398 24.0586ZM55.3594 24.0586C55.3047 24.0586 55.2617 24.0414 55.2305 24.007C55.1992 23.9727 55.1836 23.9305 55.1836 23.8805C55.1836 23.8398 55.207 23.7641 55.2539 23.6531C55.3008 23.5406 55.3555 23.4203 55.418 23.2922C55.4977 23.125 55.568 22.9805 55.6289 22.8586C55.6898 22.7352 55.7352 22.6414 55.7648 22.5773C55.7961 22.5102 55.8352 22.4602 55.882 22.4273C55.9289 22.3945 55.975 22.3781 56.0203 22.3781C56.0578 22.3781 56.0914 22.3922 56.1211 22.4203C56.1508 22.4469 56.1656 22.4867 56.1656 22.5398C56.1656 22.5602 56.1633 22.582 56.1586 22.6055C56.1539 22.6289 56.1453 22.6539 56.1328 22.6805C56.1813 22.6195 56.2531 22.5602 56.3484 22.5023C56.4438 22.443 56.5469 22.3937 56.6578 22.3547C56.7688 22.3156 56.8711 22.2961 56.9648 22.2961C57.0477 22.2961 57.1164 22.3164 57.1711 22.357C57.2273 22.3961 57.2555 22.4633 57.2555 22.5586C57.2555 22.6398 57.2375 22.7281 57.2016 22.8234C57.1656 22.9172 57.1227 23.0078 57.0727 23.0953C57.0195 23.1875 56.9695 23.2687 56.9227 23.3391C56.8773 23.4078 56.8422 23.4648 56.8172 23.5102C56.7969 23.5352 56.7867 23.5641 56.7867 23.5969C56.7867 23.6281 56.8031 23.6437 56.8359 23.6437C56.8469 23.6437 56.8594 23.643 56.8734 23.6414C56.8875 23.6383 56.9047 23.6297 56.925 23.6156C57.0422 23.5719 57.1586 23.5164 57.2742 23.4492C57.3914 23.382 57.4984 23.3125 57.5953 23.2406C57.6938 23.1687 57.7727 23.1055 57.832 23.0508C57.857 23.0305 57.8813 23.0203 57.9047 23.0203C57.9609 23.0203 57.9891 23.0562 57.9891 23.1281C57.9891 23.1766 57.9734 23.2305 57.9422 23.2898C57.9125 23.3492 57.8648 23.4047 57.7992 23.4562C57.6852 23.5375 57.5781 23.6133 57.4781 23.6836C57.3797 23.7523 57.275 23.8148 57.1641 23.8711C57.0531 23.9273 56.9211 23.9773 56.768 24.0211C56.6883 24.0461 56.6203 24.0586 56.5641 24.0586C56.4047 24.0586 56.325 23.9711 56.325 23.7961C56.325 23.7852 56.325 23.775 56.325 23.7656C56.3266 23.7547 56.3281 23.743 56.3297 23.7305C56.3344 23.6602 56.3594 23.5789 56.4047 23.4867C56.45 23.393 56.4992 23.3008 56.5523 23.2102C56.6055 23.1227 56.6531 23.0406 56.6953 22.9641C56.7375 22.8875 56.7586 22.8305 56.7586 22.793C56.7586 22.7367 56.732 22.7086 56.6789 22.7086C56.5805 22.7086 56.4859 22.7375 56.3953 22.7953C56.3063 22.8531 56.2219 22.9266 56.1422 23.0156C56.0641 23.1031 55.9922 23.1953 55.9266 23.2922C55.8609 23.3875 55.8031 23.4742 55.7531 23.5523C55.7172 23.6117 55.682 23.6812 55.6477 23.7609C55.6148 23.8406 55.5758 23.9102 55.5305 23.9695C55.4867 24.0289 55.4297 24.0586 55.3594 24.0586ZM58.0336 24.0586C57.9086 24.0586 57.8016 24.0281 57.7125 23.9672C57.625 23.9047 57.5578 23.8234 57.5109 23.7234C57.4656 23.6219 57.443 23.5133 57.443 23.3977C57.443 23.2961 57.4719 23.1828 57.5297 23.0578C57.5891 22.9312 57.6734 22.8102 57.7828 22.6945C57.8922 22.5789 58.0227 22.4836 58.1742 22.4086C58.3273 22.332 58.4938 22.2937 58.6734 22.2937C58.8031 22.2937 58.9 22.325 58.9641 22.3875C59.0281 22.45 59.0602 22.5367 59.0602 22.6477C59.0602 22.7133 59.043 22.782 59.0086 22.8539C58.9742 22.9258 58.9148 22.9984 58.8305 23.0719C58.7461 23.1469 58.6328 23.2234 58.4906 23.3016C58.35 23.3781 58.1734 23.4555 57.9609 23.5336C57.9781 23.6305 58.0563 23.6789 58.1953 23.6789C58.3031 23.6789 58.4195 23.657 58.5445 23.6133C58.6695 23.568 58.7898 23.5164 58.9055 23.4586C59.0211 23.4023 59.1203 23.3492 59.2031 23.2992C59.2859 23.2492 59.3352 23.2211 59.3508 23.2148C59.3648 23.2055 59.3773 23.2 59.3883 23.1984C59.4008 23.1969 59.4117 23.1961 59.4211 23.1961C59.4586 23.1961 59.4844 23.2109 59.4984 23.2406C59.5141 23.2687 59.5219 23.2922 59.5219 23.3109C59.5219 23.325 59.5203 23.3422 59.5172 23.3625C59.5141 23.3812 59.5023 23.4031 59.482 23.4281C59.4617 23.4484 59.4023 23.493 59.3039 23.5617C59.2055 23.6305 59.1 23.6969 58.9875 23.7609C58.85 23.8375 58.6969 23.9062 58.5281 23.9672C58.3594 24.0281 58.1945 24.0586 58.0336 24.0586ZM57.9258 23.2641C58.0273 23.2109 58.1305 23.1492 58.2352 23.0789C58.3414 23.007 58.4219 22.9547 58.4766 22.9219C58.55 22.875 58.5984 22.8336 58.6219 22.7977C58.6484 22.7586 58.6617 22.7258 58.6617 22.6992C58.6617 22.6758 58.6539 22.657 58.6383 22.643C58.6242 22.6289 58.6078 22.6203 58.5891 22.6172L58.568 22.6148H58.5469C58.4609 22.6148 58.3813 22.6398 58.3078 22.6898C58.2359 22.7383 58.175 22.7992 58.125 22.8727C58.0719 22.9492 58.0289 23.0211 57.9961 23.0883C57.9648 23.1555 57.9414 23.2141 57.9258 23.2641ZM59.1422 24.0586C59.0641 24.0586 59.025 24.0188 59.025 23.9391C59.025 23.9219 59.0273 23.9008 59.032 23.8758C59.0383 23.8492 59.05 23.8203 59.0672 23.7891C59.0938 23.7391 59.1227 23.6805 59.1539 23.6133C59.1852 23.5445 59.218 23.4734 59.2523 23.4C59.2898 23.3203 59.3328 23.2289 59.3813 23.1258C59.4313 23.0211 59.4898 22.9008 59.557 22.7648C59.5352 22.7461 59.5164 22.7234 59.5008 22.6969C59.4867 22.6687 59.4797 22.6344 59.4797 22.5937C59.4797 22.5203 59.5078 22.4664 59.5641 22.432C59.6219 22.3961 59.6906 22.3781 59.7703 22.3781C59.8484 22.3781 59.9242 22.3922 59.9977 22.4203C60.0727 22.4469 60.1102 22.4875 60.1102 22.5422C60.1102 22.5484 60.1047 22.5633 60.0938 22.5867C60.0844 22.6086 60.0797 22.6234 60.0797 22.6312C60.0797 22.6344 60.0805 22.6359 60.082 22.6359H60.0844L60.0891 22.6336C60.2047 22.5617 60.3289 22.5008 60.4617 22.4508C60.5945 22.4008 60.7039 22.3758 60.7898 22.3758C60.8602 22.3758 60.9141 22.393 60.9516 22.4273C60.9906 22.4602 61.0102 22.5164 61.0102 22.5961C61.0102 22.6133 61.0094 22.632 61.0078 22.6523C61.0063 22.6711 61.0031 22.6914 60.9984 22.7133C60.9875 22.7711 60.9438 22.8461 60.8672 22.9383C60.7906 23.0305 60.7094 23.1195 60.6234 23.2055C60.5844 23.2445 60.5375 23.2914 60.4828 23.3461C60.4281 23.3992 60.3805 23.4484 60.3398 23.4937C60.2992 23.5375 60.2789 23.5672 60.2789 23.5828C60.2789 23.6047 60.2867 23.6156 60.3023 23.6156C60.4148 23.5672 60.5422 23.5078 60.6844 23.4375C60.8266 23.3656 60.9641 23.2937 61.0969 23.2219C61.2297 23.15 61.3383 23.0898 61.4227 23.0414C61.4555 23.0227 61.4836 23.0133 61.507 23.0133C61.5727 23.0133 61.6055 23.0477 61.6055 23.1164C61.6055 23.1523 61.5898 23.1937 61.5586 23.2406C61.5289 23.2859 61.4781 23.3336 61.4063 23.3836C61.3391 23.4258 61.2469 23.4844 61.1297 23.5594C61.0141 23.6328 60.8992 23.7023 60.7852 23.768C60.6727 23.832 60.5648 23.8867 60.4617 23.932C60.3602 23.9773 60.275 24 60.2063 24C60.0984 24 60.0172 23.9742 59.9625 23.9227C59.9094 23.8711 59.8828 23.8047 59.8828 23.7234C59.8828 23.7094 59.8836 23.7 59.8852 23.6953C59.9023 23.5953 59.9383 23.4984 59.993 23.4047C60.0477 23.3109 60.1047 23.225 60.1641 23.1469C60.2234 23.0703 60.2758 22.9992 60.3211 22.9336C60.368 22.868 60.3914 22.8117 60.3914 22.7648C60.3914 22.7414 60.3828 22.7297 60.3656 22.7297C60.3406 22.7297 60.2953 22.7422 60.2297 22.7672C60.1641 22.7906 60.0992 22.8219 60.0352 22.8609C59.9711 22.9 59.9273 22.9414 59.9039 22.9852C59.8727 23.0398 59.8328 23.1164 59.7844 23.2148C59.7375 23.3117 59.6906 23.4109 59.6438 23.5125C59.5984 23.6141 59.5602 23.6984 59.5289 23.7656C59.4945 23.8516 59.4375 23.9219 59.3578 23.9766C59.2797 24.0313 59.2078 24.0586 59.1422 24.0586Z" fill="white"/>
</svg>
